%FSLAX45Y45*%
G04 Gerber Fmt 4.5, Leading zero omitted, Abs format (unit mm)*
G04 Created by KiCad (PCBNEW (5.1.9)-1) date 2021-06-09 22:03:52*
%MOMM*%
%LPD*%
G01*
G04 APERTURE LIST*
%TA.AperFunction,Profile*%
%ADD10C,0.050000*%
%TD*%
%ADD11C,0.200000*%
%ADD12C,0.300000*%
G04 APERTURE END LIST*
D10*
X12159200Y-4235500D02*
X20659200Y-4235500D01*
X12159200Y-14235500D02*
X12159200Y-4235500D01*
X20659200Y-14235500D02*
X12159200Y-14235500D01*
X20659200Y-4235500D02*
X20659200Y-14235500D01*
D11*
X12444200Y-9380500D02*
X12554200Y-9490500D01*
X12554200Y-9380500D02*
X12444200Y-9490500D01*
X12444200Y-12230500D02*
X12554200Y-12340500D01*
X12554200Y-12230500D02*
X12444200Y-12340500D01*
X12944200Y-9380500D02*
X13054200Y-9490500D01*
X13054200Y-9380500D02*
X12944200Y-9490500D01*
X12944200Y-12230500D02*
X13054200Y-12340500D01*
X13054200Y-12230500D02*
X12944200Y-12340500D01*
X12809200Y-7635500D02*
G75*
G03*
X12809200Y-7635500I-150000J0D01*
G01*
X12809200Y-13835500D02*
G75*
G03*
X12809200Y-13835500I-150000J0D01*
G01*
X15112500Y-11928900D02*
G75*
G03*
X15112500Y-11928900I-150000J0D01*
G01*
X15115300Y-6123100D02*
G75*
G03*
X15115300Y-6123100I-150000J0D01*
G01*
X20015300Y-6123100D02*
G75*
G03*
X20015300Y-6123100I-150000J0D01*
G01*
X20015300Y-11928900D02*
G75*
G03*
X20015300Y-11928900I-150000J0D01*
G01*
D12*
X12443128Y-14703714D02*
X12443128Y-14403714D01*
X12514557Y-14403714D01*
X12557414Y-14418000D01*
X12585986Y-14446571D01*
X12600271Y-14475143D01*
X12614557Y-14532286D01*
X12614557Y-14575143D01*
X12600271Y-14632286D01*
X12585986Y-14660857D01*
X12557414Y-14689429D01*
X12514557Y-14703714D01*
X12443128Y-14703714D01*
X12743128Y-14703714D02*
X12743128Y-14503714D01*
X12743128Y-14560857D02*
X12757414Y-14532286D01*
X12771700Y-14518000D01*
X12800271Y-14503714D01*
X12828843Y-14503714D01*
X12928843Y-14703714D02*
X12928843Y-14503714D01*
X12928843Y-14403714D02*
X12914557Y-14418000D01*
X12928843Y-14432286D01*
X12943128Y-14418000D01*
X12928843Y-14403714D01*
X12928843Y-14432286D01*
X13114557Y-14703714D02*
X13085986Y-14689429D01*
X13071700Y-14660857D01*
X13071700Y-14403714D01*
X13271700Y-14703714D02*
X13243128Y-14689429D01*
X13228843Y-14660857D01*
X13228843Y-14403714D01*
X13614557Y-14703714D02*
X13614557Y-14403714D01*
X13714557Y-14618000D01*
X13814557Y-14403714D01*
X13814557Y-14703714D01*
X14085986Y-14703714D02*
X14085986Y-14546571D01*
X14071700Y-14518000D01*
X14043128Y-14503714D01*
X13985986Y-14503714D01*
X13957414Y-14518000D01*
X14085986Y-14689429D02*
X14057414Y-14703714D01*
X13985986Y-14703714D01*
X13957414Y-14689429D01*
X13943128Y-14660857D01*
X13943128Y-14632286D01*
X13957414Y-14603714D01*
X13985986Y-14589429D01*
X14057414Y-14589429D01*
X14085986Y-14575143D01*
X14228843Y-14503714D02*
X14228843Y-14803714D01*
X14228843Y-14518000D02*
X14257414Y-14503714D01*
X14314557Y-14503714D01*
X14343128Y-14518000D01*
X14357414Y-14532286D01*
X14371700Y-14560857D01*
X14371700Y-14646571D01*
X14357414Y-14675143D01*
X14343128Y-14689429D01*
X14314557Y-14703714D01*
X14257414Y-14703714D01*
X14228843Y-14689429D01*
X14500271Y-14675143D02*
X14514557Y-14689429D01*
X14500271Y-14703714D01*
X14485986Y-14689429D01*
X14500271Y-14675143D01*
X14500271Y-14703714D01*
X14500271Y-14518000D02*
X14514557Y-14532286D01*
X14500271Y-14546571D01*
X14485986Y-14532286D01*
X14500271Y-14518000D01*
X14500271Y-14546571D01*
X12046700Y-15143000D02*
X12156700Y-15253000D01*
X12156700Y-15143000D02*
X12046700Y-15253000D01*
X12600271Y-15333714D02*
X12428843Y-15333714D01*
X12514557Y-15333714D02*
X12514557Y-15033714D01*
X12485986Y-15076571D01*
X12457414Y-15105143D01*
X12428843Y-15119429D01*
X12728843Y-15305143D02*
X12743128Y-15319429D01*
X12728843Y-15333714D01*
X12714557Y-15319429D01*
X12728843Y-15305143D01*
X12728843Y-15333714D01*
X13028843Y-15333714D02*
X12857414Y-15333714D01*
X12943128Y-15333714D02*
X12943128Y-15033714D01*
X12914557Y-15076571D01*
X12885986Y-15105143D01*
X12857414Y-15119429D01*
X13214557Y-15033714D02*
X13243128Y-15033714D01*
X13271700Y-15048000D01*
X13285986Y-15062286D01*
X13300271Y-15090857D01*
X13314557Y-15148000D01*
X13314557Y-15219429D01*
X13300271Y-15276571D01*
X13285986Y-15305143D01*
X13271700Y-15319429D01*
X13243128Y-15333714D01*
X13214557Y-15333714D01*
X13185986Y-15319429D01*
X13171700Y-15305143D01*
X13157414Y-15276571D01*
X13143128Y-15219429D01*
X13143128Y-15148000D01*
X13157414Y-15090857D01*
X13171700Y-15062286D01*
X13185986Y-15048000D01*
X13214557Y-15033714D01*
X13443128Y-15333714D02*
X13443128Y-15133714D01*
X13443128Y-15162286D02*
X13457414Y-15148000D01*
X13485986Y-15133714D01*
X13528843Y-15133714D01*
X13557414Y-15148000D01*
X13571700Y-15176571D01*
X13571700Y-15333714D01*
X13571700Y-15176571D02*
X13585986Y-15148000D01*
X13614557Y-15133714D01*
X13657414Y-15133714D01*
X13685986Y-15148000D01*
X13700271Y-15176571D01*
X13700271Y-15333714D01*
X13843128Y-15333714D02*
X13843128Y-15133714D01*
X13843128Y-15162286D02*
X13857414Y-15148000D01*
X13885986Y-15133714D01*
X13928843Y-15133714D01*
X13957414Y-15148000D01*
X13971700Y-15176571D01*
X13971700Y-15333714D01*
X13971700Y-15176571D02*
X13985986Y-15148000D01*
X14014557Y-15133714D01*
X14057414Y-15133714D01*
X14085986Y-15148000D01*
X14100271Y-15176571D01*
X14100271Y-15333714D01*
X14685986Y-15019429D02*
X14428843Y-15405143D01*
X15071700Y-15033714D02*
X15100271Y-15033714D01*
X15128843Y-15048000D01*
X15143128Y-15062286D01*
X15157414Y-15090857D01*
X15171700Y-15148000D01*
X15171700Y-15219429D01*
X15157414Y-15276571D01*
X15143128Y-15305143D01*
X15128843Y-15319429D01*
X15100271Y-15333714D01*
X15071700Y-15333714D01*
X15043128Y-15319429D01*
X15028843Y-15305143D01*
X15014557Y-15276571D01*
X15000271Y-15219429D01*
X15000271Y-15148000D01*
X15014557Y-15090857D01*
X15028843Y-15062286D01*
X15043128Y-15048000D01*
X15071700Y-15033714D01*
X15300271Y-15305143D02*
X15314557Y-15319429D01*
X15300271Y-15333714D01*
X15285986Y-15319429D01*
X15300271Y-15305143D01*
X15300271Y-15333714D01*
X15500271Y-15033714D02*
X15528843Y-15033714D01*
X15557414Y-15048000D01*
X15571700Y-15062286D01*
X15585986Y-15090857D01*
X15600271Y-15148000D01*
X15600271Y-15219429D01*
X15585986Y-15276571D01*
X15571700Y-15305143D01*
X15557414Y-15319429D01*
X15528843Y-15333714D01*
X15500271Y-15333714D01*
X15471700Y-15319429D01*
X15457414Y-15305143D01*
X15443128Y-15276571D01*
X15428843Y-15219429D01*
X15428843Y-15148000D01*
X15443128Y-15090857D01*
X15457414Y-15062286D01*
X15471700Y-15048000D01*
X15500271Y-15033714D01*
X15857414Y-15133714D02*
X15857414Y-15333714D01*
X15785986Y-15019429D02*
X15714557Y-15233714D01*
X15900271Y-15233714D01*
X15985986Y-15033714D02*
X16171700Y-15033714D01*
X16071700Y-15148000D01*
X16114557Y-15148000D01*
X16143128Y-15162286D01*
X16157414Y-15176571D01*
X16171700Y-15205143D01*
X16171700Y-15276571D01*
X16157414Y-15305143D01*
X16143128Y-15319429D01*
X16114557Y-15333714D01*
X16028843Y-15333714D01*
X16000271Y-15319429D01*
X15985986Y-15305143D01*
X16285986Y-15033714D02*
X16285986Y-15090857D01*
X16400271Y-15033714D02*
X16400271Y-15090857D01*
X16843128Y-15448000D02*
X16828843Y-15433714D01*
X16800271Y-15390857D01*
X16785986Y-15362286D01*
X16771700Y-15319429D01*
X16757414Y-15248000D01*
X16757414Y-15190857D01*
X16771700Y-15119429D01*
X16785986Y-15076571D01*
X16800271Y-15048000D01*
X16828843Y-15005143D01*
X16843128Y-14990857D01*
X17085986Y-15133714D02*
X17085986Y-15333714D01*
X17014557Y-15019429D02*
X16943128Y-15233714D01*
X17128843Y-15233714D01*
X17471700Y-15333714D02*
X17471700Y-15033714D01*
X17600271Y-15333714D02*
X17600271Y-15176571D01*
X17585986Y-15148000D01*
X17557414Y-15133714D01*
X17514557Y-15133714D01*
X17485986Y-15148000D01*
X17471700Y-15162286D01*
X17785986Y-15333714D02*
X17757414Y-15319429D01*
X17743128Y-15305143D01*
X17728843Y-15276571D01*
X17728843Y-15190857D01*
X17743128Y-15162286D01*
X17757414Y-15148000D01*
X17785986Y-15133714D01*
X17828843Y-15133714D01*
X17857414Y-15148000D01*
X17871700Y-15162286D01*
X17885986Y-15190857D01*
X17885986Y-15276571D01*
X17871700Y-15305143D01*
X17857414Y-15319429D01*
X17828843Y-15333714D01*
X17785986Y-15333714D01*
X18057414Y-15333714D02*
X18028843Y-15319429D01*
X18014557Y-15290857D01*
X18014557Y-15033714D01*
X18285986Y-15319429D02*
X18257414Y-15333714D01*
X18200271Y-15333714D01*
X18171700Y-15319429D01*
X18157414Y-15290857D01*
X18157414Y-15176571D01*
X18171700Y-15148000D01*
X18200271Y-15133714D01*
X18257414Y-15133714D01*
X18285986Y-15148000D01*
X18300271Y-15176571D01*
X18300271Y-15205143D01*
X18157414Y-15233714D01*
X18414557Y-15319429D02*
X18443128Y-15333714D01*
X18500271Y-15333714D01*
X18528843Y-15319429D01*
X18543128Y-15290857D01*
X18543128Y-15276571D01*
X18528843Y-15248000D01*
X18500271Y-15233714D01*
X18457414Y-15233714D01*
X18428843Y-15219429D01*
X18414557Y-15190857D01*
X18414557Y-15176571D01*
X18428843Y-15148000D01*
X18457414Y-15133714D01*
X18500271Y-15133714D01*
X18528843Y-15148000D01*
X18643128Y-15448000D02*
X18657414Y-15433714D01*
X18685986Y-15390857D01*
X18700271Y-15362286D01*
X18714557Y-15319429D01*
X18728843Y-15248000D01*
X18728843Y-15190857D01*
X18714557Y-15119429D01*
X18700271Y-15076571D01*
X18685986Y-15048000D01*
X18657414Y-15005143D01*
X18643128Y-14990857D01*
X19185986Y-15448000D02*
X19171700Y-15433714D01*
X19143128Y-15390857D01*
X19128843Y-15362286D01*
X19114557Y-15319429D01*
X19100271Y-15248000D01*
X19100271Y-15190857D01*
X19114557Y-15119429D01*
X19128843Y-15076571D01*
X19143128Y-15048000D01*
X19171700Y-15005143D01*
X19185986Y-14990857D01*
X19300271Y-15133714D02*
X19300271Y-15333714D01*
X19300271Y-15162286D02*
X19314557Y-15148000D01*
X19343128Y-15133714D01*
X19385986Y-15133714D01*
X19414557Y-15148000D01*
X19428843Y-15176571D01*
X19428843Y-15333714D01*
X19614557Y-15333714D02*
X19585986Y-15319429D01*
X19571700Y-15305143D01*
X19557414Y-15276571D01*
X19557414Y-15190857D01*
X19571700Y-15162286D01*
X19585986Y-15148000D01*
X19614557Y-15133714D01*
X19657414Y-15133714D01*
X19685986Y-15148000D01*
X19700271Y-15162286D01*
X19714557Y-15190857D01*
X19714557Y-15276571D01*
X19700271Y-15305143D01*
X19685986Y-15319429D01*
X19657414Y-15333714D01*
X19614557Y-15333714D01*
X19800271Y-15133714D02*
X19914557Y-15133714D01*
X19843128Y-15033714D02*
X19843128Y-15290857D01*
X19857414Y-15319429D01*
X19885986Y-15333714D01*
X19914557Y-15333714D01*
X20243128Y-15133714D02*
X20243128Y-15433714D01*
X20243128Y-15148000D02*
X20271700Y-15133714D01*
X20328843Y-15133714D01*
X20357414Y-15148000D01*
X20371700Y-15162286D01*
X20385986Y-15190857D01*
X20385986Y-15276571D01*
X20371700Y-15305143D01*
X20357414Y-15319429D01*
X20328843Y-15333714D01*
X20271700Y-15333714D01*
X20243128Y-15319429D01*
X20557414Y-15333714D02*
X20528843Y-15319429D01*
X20514557Y-15290857D01*
X20514557Y-15033714D01*
X20800271Y-15333714D02*
X20800271Y-15176571D01*
X20785986Y-15148000D01*
X20757414Y-15133714D01*
X20700271Y-15133714D01*
X20671700Y-15148000D01*
X20800271Y-15319429D02*
X20771700Y-15333714D01*
X20700271Y-15333714D01*
X20671700Y-15319429D01*
X20657414Y-15290857D01*
X20657414Y-15262286D01*
X20671700Y-15233714D01*
X20700271Y-15219429D01*
X20771700Y-15219429D01*
X20800271Y-15205143D01*
X20900271Y-15133714D02*
X21014557Y-15133714D01*
X20943128Y-15033714D02*
X20943128Y-15290857D01*
X20957414Y-15319429D01*
X20985986Y-15333714D01*
X21014557Y-15333714D01*
X21228843Y-15319429D02*
X21200271Y-15333714D01*
X21143128Y-15333714D01*
X21114557Y-15319429D01*
X21100271Y-15290857D01*
X21100271Y-15176571D01*
X21114557Y-15148000D01*
X21143128Y-15133714D01*
X21200271Y-15133714D01*
X21228843Y-15148000D01*
X21243128Y-15176571D01*
X21243128Y-15205143D01*
X21100271Y-15233714D01*
X21500271Y-15333714D02*
X21500271Y-15033714D01*
X21500271Y-15319429D02*
X21471700Y-15333714D01*
X21414557Y-15333714D01*
X21385986Y-15319429D01*
X21371700Y-15305143D01*
X21357414Y-15276571D01*
X21357414Y-15190857D01*
X21371700Y-15162286D01*
X21385986Y-15148000D01*
X21414557Y-15133714D01*
X21471700Y-15133714D01*
X21500271Y-15148000D01*
X21614557Y-15448000D02*
X21628843Y-15433714D01*
X21657414Y-15390857D01*
X21671700Y-15362286D01*
X21685986Y-15319429D01*
X21700271Y-15248000D01*
X21700271Y-15190857D01*
X21685986Y-15119429D01*
X21671700Y-15076571D01*
X21657414Y-15048000D01*
X21628843Y-15005143D01*
X21614557Y-14990857D01*
X12156700Y-15594000D02*
G75*
G03*
X12156700Y-15594000I-150000J0D01*
G01*
X12414557Y-15429714D02*
X12600271Y-15429714D01*
X12500271Y-15544000D01*
X12543128Y-15544000D01*
X12571700Y-15558286D01*
X12585986Y-15572571D01*
X12600271Y-15601143D01*
X12600271Y-15672571D01*
X12585986Y-15701143D01*
X12571700Y-15715429D01*
X12543128Y-15729714D01*
X12457414Y-15729714D01*
X12428843Y-15715429D01*
X12414557Y-15701143D01*
X12728843Y-15701143D02*
X12743128Y-15715429D01*
X12728843Y-15729714D01*
X12714557Y-15715429D01*
X12728843Y-15701143D01*
X12728843Y-15729714D01*
X12928843Y-15429714D02*
X12957414Y-15429714D01*
X12985986Y-15444000D01*
X13000271Y-15458286D01*
X13014557Y-15486857D01*
X13028843Y-15544000D01*
X13028843Y-15615429D01*
X13014557Y-15672571D01*
X13000271Y-15701143D01*
X12985986Y-15715429D01*
X12957414Y-15729714D01*
X12928843Y-15729714D01*
X12900271Y-15715429D01*
X12885986Y-15701143D01*
X12871700Y-15672571D01*
X12857414Y-15615429D01*
X12857414Y-15544000D01*
X12871700Y-15486857D01*
X12885986Y-15458286D01*
X12900271Y-15444000D01*
X12928843Y-15429714D01*
X13214557Y-15429714D02*
X13243128Y-15429714D01*
X13271700Y-15444000D01*
X13285986Y-15458286D01*
X13300271Y-15486857D01*
X13314557Y-15544000D01*
X13314557Y-15615429D01*
X13300271Y-15672571D01*
X13285986Y-15701143D01*
X13271700Y-15715429D01*
X13243128Y-15729714D01*
X13214557Y-15729714D01*
X13185986Y-15715429D01*
X13171700Y-15701143D01*
X13157414Y-15672571D01*
X13143128Y-15615429D01*
X13143128Y-15544000D01*
X13157414Y-15486857D01*
X13171700Y-15458286D01*
X13185986Y-15444000D01*
X13214557Y-15429714D01*
X13443128Y-15729714D02*
X13443128Y-15529714D01*
X13443128Y-15558286D02*
X13457414Y-15544000D01*
X13485986Y-15529714D01*
X13528843Y-15529714D01*
X13557414Y-15544000D01*
X13571700Y-15572571D01*
X13571700Y-15729714D01*
X13571700Y-15572571D02*
X13585986Y-15544000D01*
X13614557Y-15529714D01*
X13657414Y-15529714D01*
X13685986Y-15544000D01*
X13700271Y-15572571D01*
X13700271Y-15729714D01*
X13843128Y-15729714D02*
X13843128Y-15529714D01*
X13843128Y-15558286D02*
X13857414Y-15544000D01*
X13885986Y-15529714D01*
X13928843Y-15529714D01*
X13957414Y-15544000D01*
X13971700Y-15572571D01*
X13971700Y-15729714D01*
X13971700Y-15572571D02*
X13985986Y-15544000D01*
X14014557Y-15529714D01*
X14057414Y-15529714D01*
X14085986Y-15544000D01*
X14100271Y-15572571D01*
X14100271Y-15729714D01*
X14685986Y-15415429D02*
X14428843Y-15801143D01*
X15071700Y-15429714D02*
X15100271Y-15429714D01*
X15128843Y-15444000D01*
X15143128Y-15458286D01*
X15157414Y-15486857D01*
X15171700Y-15544000D01*
X15171700Y-15615429D01*
X15157414Y-15672571D01*
X15143128Y-15701143D01*
X15128843Y-15715429D01*
X15100271Y-15729714D01*
X15071700Y-15729714D01*
X15043128Y-15715429D01*
X15028843Y-15701143D01*
X15014557Y-15672571D01*
X15000271Y-15615429D01*
X15000271Y-15544000D01*
X15014557Y-15486857D01*
X15028843Y-15458286D01*
X15043128Y-15444000D01*
X15071700Y-15429714D01*
X15300271Y-15701143D02*
X15314557Y-15715429D01*
X15300271Y-15729714D01*
X15285986Y-15715429D01*
X15300271Y-15701143D01*
X15300271Y-15729714D01*
X15600271Y-15729714D02*
X15428843Y-15729714D01*
X15514557Y-15729714D02*
X15514557Y-15429714D01*
X15485986Y-15472571D01*
X15457414Y-15501143D01*
X15428843Y-15515429D01*
X15885986Y-15729714D02*
X15714557Y-15729714D01*
X15800271Y-15729714D02*
X15800271Y-15429714D01*
X15771700Y-15472571D01*
X15743128Y-15501143D01*
X15714557Y-15515429D01*
X16057414Y-15558286D02*
X16028843Y-15544000D01*
X16014557Y-15529714D01*
X16000271Y-15501143D01*
X16000271Y-15486857D01*
X16014557Y-15458286D01*
X16028843Y-15444000D01*
X16057414Y-15429714D01*
X16114557Y-15429714D01*
X16143128Y-15444000D01*
X16157414Y-15458286D01*
X16171700Y-15486857D01*
X16171700Y-15501143D01*
X16157414Y-15529714D01*
X16143128Y-15544000D01*
X16114557Y-15558286D01*
X16057414Y-15558286D01*
X16028843Y-15572571D01*
X16014557Y-15586857D01*
X16000271Y-15615429D01*
X16000271Y-15672571D01*
X16014557Y-15701143D01*
X16028843Y-15715429D01*
X16057414Y-15729714D01*
X16114557Y-15729714D01*
X16143128Y-15715429D01*
X16157414Y-15701143D01*
X16171700Y-15672571D01*
X16171700Y-15615429D01*
X16157414Y-15586857D01*
X16143128Y-15572571D01*
X16114557Y-15558286D01*
X16285986Y-15429714D02*
X16285986Y-15486857D01*
X16400271Y-15429714D02*
X16400271Y-15486857D01*
X16843128Y-15844000D02*
X16828843Y-15829714D01*
X16800271Y-15786857D01*
X16785986Y-15758286D01*
X16771700Y-15715429D01*
X16757414Y-15644000D01*
X16757414Y-15586857D01*
X16771700Y-15515429D01*
X16785986Y-15472571D01*
X16800271Y-15444000D01*
X16828843Y-15401143D01*
X16843128Y-15386857D01*
X17085986Y-15429714D02*
X17028843Y-15429714D01*
X17000271Y-15444000D01*
X16985986Y-15458286D01*
X16957414Y-15501143D01*
X16943128Y-15558286D01*
X16943128Y-15672571D01*
X16957414Y-15701143D01*
X16971700Y-15715429D01*
X17000271Y-15729714D01*
X17057414Y-15729714D01*
X17085986Y-15715429D01*
X17100271Y-15701143D01*
X17114557Y-15672571D01*
X17114557Y-15601143D01*
X17100271Y-15572571D01*
X17085986Y-15558286D01*
X17057414Y-15544000D01*
X17000271Y-15544000D01*
X16971700Y-15558286D01*
X16957414Y-15572571D01*
X16943128Y-15601143D01*
X17471700Y-15729714D02*
X17471700Y-15429714D01*
X17600271Y-15729714D02*
X17600271Y-15572571D01*
X17585986Y-15544000D01*
X17557414Y-15529714D01*
X17514557Y-15529714D01*
X17485986Y-15544000D01*
X17471700Y-15558286D01*
X17785986Y-15729714D02*
X17757414Y-15715429D01*
X17743128Y-15701143D01*
X17728843Y-15672571D01*
X17728843Y-15586857D01*
X17743128Y-15558286D01*
X17757414Y-15544000D01*
X17785986Y-15529714D01*
X17828843Y-15529714D01*
X17857414Y-15544000D01*
X17871700Y-15558286D01*
X17885986Y-15586857D01*
X17885986Y-15672571D01*
X17871700Y-15701143D01*
X17857414Y-15715429D01*
X17828843Y-15729714D01*
X17785986Y-15729714D01*
X18057414Y-15729714D02*
X18028843Y-15715429D01*
X18014557Y-15686857D01*
X18014557Y-15429714D01*
X18285986Y-15715429D02*
X18257414Y-15729714D01*
X18200271Y-15729714D01*
X18171700Y-15715429D01*
X18157414Y-15686857D01*
X18157414Y-15572571D01*
X18171700Y-15544000D01*
X18200271Y-15529714D01*
X18257414Y-15529714D01*
X18285986Y-15544000D01*
X18300271Y-15572571D01*
X18300271Y-15601143D01*
X18157414Y-15629714D01*
X18414557Y-15715429D02*
X18443128Y-15729714D01*
X18500271Y-15729714D01*
X18528843Y-15715429D01*
X18543128Y-15686857D01*
X18543128Y-15672571D01*
X18528843Y-15644000D01*
X18500271Y-15629714D01*
X18457414Y-15629714D01*
X18428843Y-15615429D01*
X18414557Y-15586857D01*
X18414557Y-15572571D01*
X18428843Y-15544000D01*
X18457414Y-15529714D01*
X18500271Y-15529714D01*
X18528843Y-15544000D01*
X18643128Y-15844000D02*
X18657414Y-15829714D01*
X18685986Y-15786857D01*
X18700271Y-15758286D01*
X18714557Y-15715429D01*
X18728843Y-15644000D01*
X18728843Y-15586857D01*
X18714557Y-15515429D01*
X18700271Y-15472571D01*
X18685986Y-15444000D01*
X18657414Y-15401143D01*
X18643128Y-15386857D01*
X19185986Y-15844000D02*
X19171700Y-15829714D01*
X19143128Y-15786857D01*
X19128843Y-15758286D01*
X19114557Y-15715429D01*
X19100271Y-15644000D01*
X19100271Y-15586857D01*
X19114557Y-15515429D01*
X19128843Y-15472571D01*
X19143128Y-15444000D01*
X19171700Y-15401143D01*
X19185986Y-15386857D01*
X19300271Y-15529714D02*
X19300271Y-15729714D01*
X19300271Y-15558286D02*
X19314557Y-15544000D01*
X19343128Y-15529714D01*
X19385986Y-15529714D01*
X19414557Y-15544000D01*
X19428843Y-15572571D01*
X19428843Y-15729714D01*
X19614557Y-15729714D02*
X19585986Y-15715429D01*
X19571700Y-15701143D01*
X19557414Y-15672571D01*
X19557414Y-15586857D01*
X19571700Y-15558286D01*
X19585986Y-15544000D01*
X19614557Y-15529714D01*
X19657414Y-15529714D01*
X19685986Y-15544000D01*
X19700271Y-15558286D01*
X19714557Y-15586857D01*
X19714557Y-15672571D01*
X19700271Y-15701143D01*
X19685986Y-15715429D01*
X19657414Y-15729714D01*
X19614557Y-15729714D01*
X19800271Y-15529714D02*
X19914557Y-15529714D01*
X19843128Y-15429714D02*
X19843128Y-15686857D01*
X19857414Y-15715429D01*
X19885986Y-15729714D01*
X19914557Y-15729714D01*
X20243128Y-15529714D02*
X20243128Y-15829714D01*
X20243128Y-15544000D02*
X20271700Y-15529714D01*
X20328843Y-15529714D01*
X20357414Y-15544000D01*
X20371700Y-15558286D01*
X20385986Y-15586857D01*
X20385986Y-15672571D01*
X20371700Y-15701143D01*
X20357414Y-15715429D01*
X20328843Y-15729714D01*
X20271700Y-15729714D01*
X20243128Y-15715429D01*
X20557414Y-15729714D02*
X20528843Y-15715429D01*
X20514557Y-15686857D01*
X20514557Y-15429714D01*
X20800271Y-15729714D02*
X20800271Y-15572571D01*
X20785986Y-15544000D01*
X20757414Y-15529714D01*
X20700271Y-15529714D01*
X20671700Y-15544000D01*
X20800271Y-15715429D02*
X20771700Y-15729714D01*
X20700271Y-15729714D01*
X20671700Y-15715429D01*
X20657414Y-15686857D01*
X20657414Y-15658286D01*
X20671700Y-15629714D01*
X20700271Y-15615429D01*
X20771700Y-15615429D01*
X20800271Y-15601143D01*
X20900271Y-15529714D02*
X21014557Y-15529714D01*
X20943128Y-15429714D02*
X20943128Y-15686857D01*
X20957414Y-15715429D01*
X20985986Y-15729714D01*
X21014557Y-15729714D01*
X21228843Y-15715429D02*
X21200271Y-15729714D01*
X21143128Y-15729714D01*
X21114557Y-15715429D01*
X21100271Y-15686857D01*
X21100271Y-15572571D01*
X21114557Y-15544000D01*
X21143128Y-15529714D01*
X21200271Y-15529714D01*
X21228843Y-15544000D01*
X21243128Y-15572571D01*
X21243128Y-15601143D01*
X21100271Y-15629714D01*
X21500271Y-15729714D02*
X21500271Y-15429714D01*
X21500271Y-15715429D02*
X21471700Y-15729714D01*
X21414557Y-15729714D01*
X21385986Y-15715429D01*
X21371700Y-15701143D01*
X21357414Y-15672571D01*
X21357414Y-15586857D01*
X21371700Y-15558286D01*
X21385986Y-15544000D01*
X21414557Y-15529714D01*
X21471700Y-15529714D01*
X21500271Y-15544000D01*
X21614557Y-15844000D02*
X21628843Y-15829714D01*
X21657414Y-15786857D01*
X21671700Y-15758286D01*
X21685986Y-15715429D01*
X21700271Y-15644000D01*
X21700271Y-15586857D01*
X21685986Y-15515429D01*
X21671700Y-15472571D01*
X21657414Y-15444000D01*
X21628843Y-15401143D01*
X21614557Y-15386857D01*
M02*
