M48
; DRILL file {KiCad (5.1.9)-1} date 06/09/21 23:08:17
; FORMAT={-:-/ absolute / metric / decimal}
; #@! TF.CreationDate,2021-06-09T23:08:17-07:00
; #@! TF.GenerationSoftware,Kicad,Pcbnew,(5.1.9)-1
; #@! TF.FileFunction,Plated,1,2,PTH
FMAT,2
METRIC
T1C0.400
T2C0.750
T3C0.800
T4C0.889
T5C0.900
T6C1.000
T7C1.016
T8C1.100
T9C1.422
T10C1.520
T11C2.032
%
G90
G05
T1
X130.592Y-104.355
X131.592Y-96.355
X132.592Y-86.355
X136.592Y-108.355
X137.592Y-87.355
X137.592Y-98.355
X140.592Y-88.355
X140.592Y-108.355
X143.592Y-100.355
X151.592Y-108.355
X153.092Y-61.355
X159.092Y-63.355
X159.592Y-65.355
X161.592Y-107.355
X165.592Y-98.355
X166.592Y-112.355
X166.592Y-117.355
X170.592Y-90.355
X171.592Y-66.355
X171.592Y-84.355
X177.277Y-86.67
X184.592Y-72.955
X188.842Y-52.105
X190.992Y-71.555
X192.592Y-108.355
X193.592Y-76.355
X193.592Y-93.355
X193.592Y-96.355
X194.907Y-86.67
X195.092Y-72.355
X195.762Y-106.355
X196.092Y-70.355
X198.429Y-72.692
X201.592Y-80.355
X202.092Y-101.855
X202.592Y-69.355
X202.592Y-75.355
X202.592Y-96.355
X203.092Y-104.855
X203.592Y-99.355
T2
X168.092Y-59.355
X168.092Y-60.625
X168.092Y-61.895
T3
X140.972Y-46.855
X140.972Y-54.475
X141.092Y-58.735
X141.092Y-66.355
X143.512Y-46.855
X143.512Y-54.475
X144.592Y-56.855
X144.592Y-59.355
X144.592Y-66.355
X146.052Y-46.855
X146.052Y-54.475
X148.592Y-46.855
X148.592Y-54.475
X151.972Y-47.355
X151.972Y-50.855
X151.972Y-54.355
X152.212Y-66.355
X155.592Y-58.855
X155.592Y-61.395
X155.592Y-63.935
X155.592Y-66.475
X159.592Y-47.355
X159.592Y-50.855
X159.592Y-54.355
X162.092Y-53.855
X162.592Y-47.355
X162.592Y-49.855
X163.212Y-58.855
X163.212Y-61.395
X163.212Y-63.935
X163.212Y-66.475
X164.592Y-53.855
X165.592Y-131.355
X165.592Y-133.855
X168.092Y-48.355
X168.092Y-55.975
X172.592Y-48.355
X172.592Y-50.855
X179.842Y-45.605
X184.842Y-45.605
X185.942Y-50.855
X185.942Y-55.855
X193.342Y-54.105
X195.842Y-54.105
X198.592Y-54.105
X201.092Y-54.105
T4
X134.592Y-50.855
X134.592Y-53.395
T5
X186.842Y-62.355
X189.342Y-67.355
X191.842Y-62.355
T6
X130.202Y-83.855
X130.202Y-112.355
X132.742Y-83.855
X132.742Y-112.355
X135.282Y-83.855
X135.282Y-112.355
X137.822Y-83.855
X137.822Y-112.355
X140.362Y-83.855
X140.362Y-112.355
X142.902Y-83.855
X142.902Y-112.355
X145.442Y-83.855
X145.442Y-112.355
X147.982Y-83.855
X147.982Y-112.355
X152.732Y-73.355
X155.092Y-102.355
X155.092Y-104.895
X155.092Y-107.435
X155.092Y-109.975
X155.092Y-112.515
X155.092Y-115.055
X155.092Y-117.595
X155.092Y-120.135
X155.092Y-122.675
X155.092Y-125.215
X155.092Y-127.755
X155.092Y-130.295
X155.092Y-132.835
X155.092Y-135.375
X155.092Y-137.915
X155.272Y-73.355
X157.812Y-73.355
X160.352Y-73.355
X162.892Y-73.355
X165.432Y-73.355
X167.972Y-73.355
X170.332Y-102.355
X170.332Y-104.895
X170.332Y-107.435
X170.332Y-109.975
X170.332Y-112.515
X170.332Y-115.055
X170.332Y-117.595
X170.332Y-120.135
X170.332Y-122.675
X170.332Y-125.215
X170.332Y-127.755
X170.332Y-130.295
X170.332Y-132.835
X170.332Y-135.375
X170.332Y-137.915
X170.512Y-73.355
X173.052Y-73.355
X175.082Y-114.595
X175.082Y-127.295
X175.592Y-73.355
X177.622Y-114.595
X177.622Y-127.295
X180.162Y-114.595
X180.162Y-127.295
X182.702Y-114.595
X182.702Y-127.295
X185.242Y-114.595
X185.242Y-127.295
X187.782Y-114.595
X187.782Y-127.295
X190.322Y-114.595
X190.322Y-127.295
X192.862Y-114.595
X192.862Y-127.295
X197.375Y-66.35
X197.375Y-68.89
X197.375Y-71.43
X197.375Y-73.97
X197.375Y-76.51
X197.375Y-79.05
X197.375Y-81.59
X197.375Y-84.13
X197.375Y-86.67
X197.375Y-89.21
X197.375Y-91.75
X197.375Y-94.29
X197.375Y-96.83
X197.375Y-99.37
X197.375Y-101.91
X197.375Y-104.45
X197.375Y-106.99
X197.375Y-109.53
X197.375Y-112.07
X197.375Y-114.61
X199.915Y-66.35
X199.915Y-68.89
X199.915Y-71.43
X199.915Y-73.97
X199.915Y-76.51
X199.915Y-79.05
X199.915Y-81.59
X199.915Y-84.13
X199.915Y-86.67
X199.915Y-89.21
X199.915Y-91.75
X199.915Y-94.29
X199.915Y-96.83
X199.915Y-99.37
X199.915Y-101.91
X199.915Y-104.45
X199.915Y-106.99
X199.915Y-109.53
X199.915Y-112.07
X199.915Y-114.61
X205.092Y-53.355
X205.092Y-55.895
X205.092Y-58.435
X205.092Y-60.975
X205.092Y-63.515
X205.092Y-66.055
X205.092Y-68.595
X205.092Y-71.135
X205.092Y-73.675
X205.092Y-76.215
X205.092Y-78.755
X205.092Y-81.295
X205.092Y-83.835
X205.092Y-86.375
X205.092Y-88.915
X205.092Y-91.455
X205.092Y-95.355
X205.092Y-97.895
X205.092Y-102.855
X205.092Y-105.395
X205.092Y-107.935
X205.092Y-110.475
X205.092Y-113.015
X205.092Y-115.555
X205.092Y-118.095
X205.092Y-120.635
T7
X177.662Y-96.625
X177.662Y-109.325
X180.052Y-50.815
X180.052Y-53.355
X180.052Y-55.895
X180.202Y-96.625
X180.202Y-109.325
X182.742Y-96.625
X182.742Y-109.325
X185.282Y-96.625
X185.282Y-109.325
X187.822Y-96.625
X187.822Y-109.325
X190.362Y-96.625
X190.362Y-109.325
T8
X124.992Y-89.555
X124.992Y-98.855
X124.992Y-118.055
X124.992Y-127.355
X129.992Y-97.955
X129.992Y-126.455
X133.092Y-92.755
X133.092Y-95.955
X133.092Y-121.255
X133.092Y-124.455
X172.342Y-63.105
X172.342Y-67.105
X179.962Y-63.105
X179.962Y-67.105
T9
X133.842Y-105.495
X133.842Y-133.995
X137.342Y-105.445
X137.342Y-133.945
X140.842Y-105.445
X140.842Y-133.945
X144.342Y-105.445
X144.342Y-133.945
T10
X176.342Y-134.855
X181.422Y-134.855
X186.502Y-134.855
X190.932Y-45.355
X191.582Y-134.855
X196.012Y-45.355
X201.092Y-45.355
X202.592Y-133.275
X202.592Y-138.355
T11
X129.512Y-45.775
X129.512Y-55.935
T0
M30
