G04 #@! TF.GenerationSoftware,KiCad,Pcbnew,(5.1.9)-1*
G04 #@! TF.CreationDate,2021-06-09T22:02:47-07:00*
G04 #@! TF.ProjectId,AlkalinityTitrator,416c6b61-6c69-46e6-9974-795469747261,rev?*
G04 #@! TF.SameCoordinates,Original*
G04 #@! TF.FileFunction,Legend,Bot*
G04 #@! TF.FilePolarity,Positive*
%FSLAX46Y46*%
G04 Gerber Fmt 4.6, Leading zero omitted, Abs format (unit mm)*
G04 Created by KiCad (PCBNEW (5.1.9)-1) date 2021-06-09 22:02:47*
%MOMM*%
%LPD*%
G01*
G04 APERTURE LIST*
%ADD10C,0.120000*%
%ADD11C,0.150000*%
%ADD12O,3.150000X1.626000*%
%ADD13O,1.702000X1.702000*%
%ADD14C,3.102000*%
%ADD15O,1.802000X1.802000*%
%ADD16C,2.502000*%
%ADD17C,1.752000*%
%ADD18C,1.202000*%
%ADD19C,1.626000*%
%ADD20C,2.642000*%
%ADD21C,1.499000*%
%ADD22C,1.702000*%
%ADD23O,2.302000X2.302000*%
%ADD24C,1.722000*%
%ADD25O,1.602000X1.152000*%
G04 APERTURE END LIST*
D10*
X182342000Y-64855000D02*
X181592000Y-64855000D01*
X182342000Y-61855000D02*
X182342000Y-68355000D01*
X181342000Y-61855000D02*
X182342000Y-61855000D01*
D11*
X188925333Y-72359761D02*
X188782476Y-72407380D01*
X188544380Y-72407380D01*
X188449142Y-72359761D01*
X188401523Y-72312142D01*
X188353904Y-72216904D01*
X188353904Y-72121666D01*
X188401523Y-72026428D01*
X188449142Y-71978809D01*
X188544380Y-71931190D01*
X188734857Y-71883571D01*
X188830095Y-71835952D01*
X188877714Y-71788333D01*
X188925333Y-71693095D01*
X188925333Y-71597857D01*
X188877714Y-71502619D01*
X188830095Y-71455000D01*
X188734857Y-71407380D01*
X188496761Y-71407380D01*
X188353904Y-71455000D01*
X187496761Y-72359761D02*
X187592000Y-72407380D01*
X187782476Y-72407380D01*
X187877714Y-72359761D01*
X187925333Y-72312142D01*
X187972952Y-72216904D01*
X187972952Y-71931190D01*
X187925333Y-71835952D01*
X187877714Y-71788333D01*
X187782476Y-71740714D01*
X187592000Y-71740714D01*
X187496761Y-71788333D01*
X187068190Y-72407380D02*
X187068190Y-71407380D01*
X186639619Y-72407380D02*
X186639619Y-71883571D01*
X186687238Y-71788333D01*
X186782476Y-71740714D01*
X186925333Y-71740714D01*
X187020571Y-71788333D01*
X187068190Y-71835952D01*
X186020571Y-72407380D02*
X186115809Y-72359761D01*
X186163428Y-72312142D01*
X186211047Y-72216904D01*
X186211047Y-71931190D01*
X186163428Y-71835952D01*
X186115809Y-71788333D01*
X186020571Y-71740714D01*
X185877714Y-71740714D01*
X185782476Y-71788333D01*
X185734857Y-71835952D01*
X185687238Y-71931190D01*
X185687238Y-72216904D01*
X185734857Y-72312142D01*
X185782476Y-72359761D01*
X185877714Y-72407380D01*
X186020571Y-72407380D01*
X185401523Y-71740714D02*
X185020571Y-71740714D01*
X185258666Y-71407380D02*
X185258666Y-72264523D01*
X185211047Y-72359761D01*
X185115809Y-72407380D01*
X185020571Y-72407380D01*
X184830095Y-71740714D02*
X184449142Y-71740714D01*
X184687238Y-71407380D02*
X184687238Y-72264523D01*
X184639619Y-72359761D01*
X184544380Y-72407380D01*
X184449142Y-72407380D01*
X184115809Y-72407380D02*
X184115809Y-71407380D01*
X184020571Y-72026428D02*
X183734857Y-72407380D01*
X183734857Y-71740714D02*
X184115809Y-72121666D01*
X183401523Y-71740714D02*
X183163428Y-72407380D01*
X182925333Y-71740714D02*
X183163428Y-72407380D01*
X183258666Y-72645476D01*
X183306285Y-72693095D01*
X183401523Y-72740714D01*
X181782476Y-72407380D02*
X181782476Y-71407380D01*
X181544380Y-71407380D01*
X181401523Y-71455000D01*
X181306285Y-71550238D01*
X181258666Y-71645476D01*
X181211047Y-71835952D01*
X181211047Y-71978809D01*
X181258666Y-72169285D01*
X181306285Y-72264523D01*
X181401523Y-72359761D01*
X181544380Y-72407380D01*
X181782476Y-72407380D01*
X180782476Y-72407380D02*
X180782476Y-71740714D01*
X180782476Y-71407380D02*
X180830095Y-71455000D01*
X180782476Y-71502619D01*
X180734857Y-71455000D01*
X180782476Y-71407380D01*
X180782476Y-71502619D01*
X180163428Y-72407380D02*
X180258666Y-72359761D01*
X180306285Y-72312142D01*
X180353904Y-72216904D01*
X180353904Y-71931190D01*
X180306285Y-71835952D01*
X180258666Y-71788333D01*
X180163428Y-71740714D01*
X180020571Y-71740714D01*
X179925333Y-71788333D01*
X179877714Y-71835952D01*
X179830095Y-71931190D01*
X179830095Y-72216904D01*
X179877714Y-72312142D01*
X179925333Y-72359761D01*
X180020571Y-72407380D01*
X180163428Y-72407380D01*
X178972952Y-72407380D02*
X178972952Y-71407380D01*
X178972952Y-72359761D02*
X179068190Y-72407380D01*
X179258666Y-72407380D01*
X179353904Y-72359761D01*
X179401523Y-72312142D01*
X179449142Y-72216904D01*
X179449142Y-71931190D01*
X179401523Y-71835952D01*
X179353904Y-71788333D01*
X179258666Y-71740714D01*
X179068190Y-71740714D01*
X178972952Y-71788333D01*
X178115809Y-72359761D02*
X178211047Y-72407380D01*
X178401523Y-72407380D01*
X178496761Y-72359761D01*
X178544380Y-72264523D01*
X178544380Y-71883571D01*
X178496761Y-71788333D01*
X178401523Y-71740714D01*
X178211047Y-71740714D01*
X178115809Y-71788333D01*
X178068190Y-71883571D01*
X178068190Y-71978809D01*
X178544380Y-72074047D01*
X177687238Y-72359761D02*
X177592000Y-72407380D01*
X177401523Y-72407380D01*
X177306285Y-72359761D01*
X177258666Y-72264523D01*
X177258666Y-72216904D01*
X177306285Y-72121666D01*
X177401523Y-72074047D01*
X177544380Y-72074047D01*
X177639619Y-72026428D01*
X177687238Y-71931190D01*
X177687238Y-71883571D01*
X177639619Y-71788333D01*
X177544380Y-71740714D01*
X177401523Y-71740714D01*
X177306285Y-71788333D01*
X188234857Y-73533571D02*
X188568190Y-73533571D01*
X188568190Y-74057380D02*
X188568190Y-73057380D01*
X188092000Y-73057380D01*
X187568190Y-74057380D02*
X187663428Y-74009761D01*
X187711047Y-73962142D01*
X187758666Y-73866904D01*
X187758666Y-73581190D01*
X187711047Y-73485952D01*
X187663428Y-73438333D01*
X187568190Y-73390714D01*
X187425333Y-73390714D01*
X187330095Y-73438333D01*
X187282476Y-73485952D01*
X187234857Y-73581190D01*
X187234857Y-73866904D01*
X187282476Y-73962142D01*
X187330095Y-74009761D01*
X187425333Y-74057380D01*
X187568190Y-74057380D01*
X186806285Y-74057380D02*
X186806285Y-73390714D01*
X186806285Y-73581190D02*
X186758666Y-73485952D01*
X186711047Y-73438333D01*
X186615809Y-73390714D01*
X186520571Y-73390714D01*
X184853904Y-73962142D02*
X184901523Y-74009761D01*
X185044380Y-74057380D01*
X185139619Y-74057380D01*
X185282476Y-74009761D01*
X185377714Y-73914523D01*
X185425333Y-73819285D01*
X185472952Y-73628809D01*
X185472952Y-73485952D01*
X185425333Y-73295476D01*
X185377714Y-73200238D01*
X185282476Y-73105000D01*
X185139619Y-73057380D01*
X185044380Y-73057380D01*
X184901523Y-73105000D01*
X184853904Y-73152619D01*
X184282476Y-74057380D02*
X184377714Y-74009761D01*
X184425333Y-73962142D01*
X184472952Y-73866904D01*
X184472952Y-73581190D01*
X184425333Y-73485952D01*
X184377714Y-73438333D01*
X184282476Y-73390714D01*
X184139619Y-73390714D01*
X184044380Y-73438333D01*
X183996761Y-73485952D01*
X183949142Y-73581190D01*
X183949142Y-73866904D01*
X183996761Y-73962142D01*
X184044380Y-74009761D01*
X184139619Y-74057380D01*
X184282476Y-74057380D01*
X183520571Y-73390714D02*
X183520571Y-74057380D01*
X183520571Y-73485952D02*
X183472952Y-73438333D01*
X183377714Y-73390714D01*
X183234857Y-73390714D01*
X183139619Y-73438333D01*
X183092000Y-73533571D01*
X183092000Y-74057380D01*
X182615809Y-73390714D02*
X182615809Y-74057380D01*
X182615809Y-73485952D02*
X182568190Y-73438333D01*
X182472952Y-73390714D01*
X182330095Y-73390714D01*
X182234857Y-73438333D01*
X182187238Y-73533571D01*
X182187238Y-74057380D01*
X181330095Y-74009761D02*
X181425333Y-74057380D01*
X181615809Y-74057380D01*
X181711047Y-74009761D01*
X181758666Y-73914523D01*
X181758666Y-73533571D01*
X181711047Y-73438333D01*
X181615809Y-73390714D01*
X181425333Y-73390714D01*
X181330095Y-73438333D01*
X181282476Y-73533571D01*
X181282476Y-73628809D01*
X181758666Y-73724047D01*
X180425333Y-74009761D02*
X180520571Y-74057380D01*
X180711047Y-74057380D01*
X180806285Y-74009761D01*
X180853904Y-73962142D01*
X180901523Y-73866904D01*
X180901523Y-73581190D01*
X180853904Y-73485952D01*
X180806285Y-73438333D01*
X180711047Y-73390714D01*
X180520571Y-73390714D01*
X180425333Y-73438333D01*
X180139619Y-73390714D02*
X179758666Y-73390714D01*
X179996761Y-73057380D02*
X179996761Y-73914523D01*
X179949142Y-74009761D01*
X179853904Y-74057380D01*
X179758666Y-74057380D01*
X179425333Y-74057380D02*
X179425333Y-73390714D01*
X179425333Y-73057380D02*
X179472952Y-73105000D01*
X179425333Y-73152619D01*
X179377714Y-73105000D01*
X179425333Y-73057380D01*
X179425333Y-73152619D01*
X178949142Y-73390714D02*
X178949142Y-74057380D01*
X178949142Y-73485952D02*
X178901523Y-73438333D01*
X178806285Y-73390714D01*
X178663428Y-73390714D01*
X178568190Y-73438333D01*
X178520571Y-73533571D01*
X178520571Y-74057380D01*
X177615809Y-73390714D02*
X177615809Y-74200238D01*
X177663428Y-74295476D01*
X177711047Y-74343095D01*
X177806285Y-74390714D01*
X177949142Y-74390714D01*
X178044380Y-74343095D01*
X177615809Y-74009761D02*
X177711047Y-74057380D01*
X177901523Y-74057380D01*
X177996761Y-74009761D01*
X178044380Y-73962142D01*
X178092000Y-73866904D01*
X178092000Y-73581190D01*
X178044380Y-73485952D01*
X177996761Y-73438333D01*
X177901523Y-73390714D01*
X177711047Y-73390714D01*
X177615809Y-73438333D01*
X186734857Y-74755000D02*
X186830095Y-74707380D01*
X186972952Y-74707380D01*
X187115809Y-74755000D01*
X187211047Y-74850238D01*
X187258666Y-74945476D01*
X187306285Y-75135952D01*
X187306285Y-75278809D01*
X187258666Y-75469285D01*
X187211047Y-75564523D01*
X187115809Y-75659761D01*
X186972952Y-75707380D01*
X186877714Y-75707380D01*
X186734857Y-75659761D01*
X186687238Y-75612142D01*
X186687238Y-75278809D01*
X186877714Y-75278809D01*
X186258666Y-75707380D02*
X186258666Y-74707380D01*
X185687238Y-75707380D01*
X185687238Y-74707380D01*
X185211047Y-75707380D02*
X185211047Y-74707380D01*
X184972952Y-74707380D01*
X184830095Y-74755000D01*
X184734857Y-74850238D01*
X184687238Y-74945476D01*
X184639619Y-75135952D01*
X184639619Y-75278809D01*
X184687238Y-75469285D01*
X184734857Y-75564523D01*
X184830095Y-75659761D01*
X184972952Y-75707380D01*
X185211047Y-75707380D01*
X183449142Y-75707380D02*
X183449142Y-74707380D01*
X183068190Y-74707380D01*
X182972952Y-74755000D01*
X182925333Y-74802619D01*
X182877714Y-74897857D01*
X182877714Y-75040714D01*
X182925333Y-75135952D01*
X182972952Y-75183571D01*
X183068190Y-75231190D01*
X183449142Y-75231190D01*
X182306285Y-75707380D02*
X182401523Y-75659761D01*
X182449142Y-75564523D01*
X182449142Y-74707380D01*
X181496761Y-75707380D02*
X181496761Y-75183571D01*
X181544380Y-75088333D01*
X181639619Y-75040714D01*
X181830095Y-75040714D01*
X181925333Y-75088333D01*
X181496761Y-75659761D02*
X181592000Y-75707380D01*
X181830095Y-75707380D01*
X181925333Y-75659761D01*
X181972952Y-75564523D01*
X181972952Y-75469285D01*
X181925333Y-75374047D01*
X181830095Y-75326428D01*
X181592000Y-75326428D01*
X181496761Y-75278809D01*
X181020571Y-75040714D02*
X181020571Y-75707380D01*
X181020571Y-75135952D02*
X180972952Y-75088333D01*
X180877714Y-75040714D01*
X180734857Y-75040714D01*
X180639619Y-75088333D01*
X180592000Y-75183571D01*
X180592000Y-75707380D01*
X179734857Y-75659761D02*
X179830095Y-75707380D01*
X180020571Y-75707380D01*
X180115809Y-75659761D01*
X180163428Y-75564523D01*
X180163428Y-75183571D01*
X180115809Y-75088333D01*
X180020571Y-75040714D01*
X179830095Y-75040714D01*
X179734857Y-75088333D01*
X179687238Y-75183571D01*
X179687238Y-75278809D01*
X180163428Y-75374047D01*
X179306285Y-75659761D02*
X179211047Y-75707380D01*
X179020571Y-75707380D01*
X178925333Y-75659761D01*
X178877714Y-75564523D01*
X178877714Y-75516904D01*
X178925333Y-75421666D01*
X179020571Y-75374047D01*
X179163428Y-75374047D01*
X179258666Y-75326428D01*
X179306285Y-75231190D01*
X179306285Y-75183571D01*
X179258666Y-75088333D01*
X179163428Y-75040714D01*
X179020571Y-75040714D01*
X178925333Y-75088333D01*
D10*
X202592000Y-92355000D02*
X203342000Y-92355000D01*
X202592000Y-75605000D02*
X202592000Y-92355000D01*
X202592000Y-52105000D02*
X203342000Y-52105000D01*
X202592000Y-69355000D02*
X202592000Y-52105000D01*
D11*
X203139619Y-74878809D02*
X203139619Y-74307380D01*
X202139619Y-74593095D02*
X203139619Y-74593095D01*
X202139619Y-73831190D02*
X202187238Y-73926428D01*
X202234857Y-73974047D01*
X202330095Y-74021666D01*
X202615809Y-74021666D01*
X202711047Y-73974047D01*
X202758666Y-73926428D01*
X202806285Y-73831190D01*
X202806285Y-73688333D01*
X202758666Y-73593095D01*
X202711047Y-73545476D01*
X202615809Y-73497857D01*
X202330095Y-73497857D01*
X202234857Y-73545476D01*
X202187238Y-73593095D01*
X202139619Y-73688333D01*
X202139619Y-73831190D01*
X202139619Y-71831190D02*
X202139619Y-72307380D01*
X203139619Y-72307380D01*
X202234857Y-70926428D02*
X202187238Y-70974047D01*
X202139619Y-71116904D01*
X202139619Y-71212142D01*
X202187238Y-71355000D01*
X202282476Y-71450238D01*
X202377714Y-71497857D01*
X202568190Y-71545476D01*
X202711047Y-71545476D01*
X202901523Y-71497857D01*
X202996761Y-71450238D01*
X203092000Y-71355000D01*
X203139619Y-71212142D01*
X203139619Y-71116904D01*
X203092000Y-70974047D01*
X203044380Y-70926428D01*
X202139619Y-70497857D02*
X203139619Y-70497857D01*
X203139619Y-70259761D01*
X203092000Y-70116904D01*
X202996761Y-70021666D01*
X202901523Y-69974047D01*
X202711047Y-69926428D01*
X202568190Y-69926428D01*
X202377714Y-69974047D01*
X202282476Y-70021666D01*
X202187238Y-70116904D01*
X202139619Y-70259761D01*
X202139619Y-70497857D01*
D10*
X202592000Y-121855000D02*
X203342000Y-121855000D01*
X202592000Y-115855000D02*
X202592000Y-121855000D01*
X202592000Y-101605000D02*
X203342000Y-101605000D01*
X202592000Y-107855000D02*
X202592000Y-101605000D01*
D11*
X203139619Y-115640714D02*
X203139619Y-115069285D01*
X202139619Y-115355000D02*
X203139619Y-115355000D01*
X202139619Y-114593095D02*
X202187238Y-114688333D01*
X202234857Y-114735952D01*
X202330095Y-114783571D01*
X202615809Y-114783571D01*
X202711047Y-114735952D01*
X202758666Y-114688333D01*
X202806285Y-114593095D01*
X202806285Y-114450238D01*
X202758666Y-114355000D01*
X202711047Y-114307380D01*
X202615809Y-114259761D01*
X202330095Y-114259761D01*
X202234857Y-114307380D01*
X202187238Y-114355000D01*
X202139619Y-114450238D01*
X202139619Y-114593095D01*
X202139619Y-113069285D02*
X203139619Y-113069285D01*
X202139619Y-112497857D02*
X202711047Y-112926428D01*
X203139619Y-112497857D02*
X202568190Y-113069285D01*
X202187238Y-111688333D02*
X202139619Y-111783571D01*
X202139619Y-111974047D01*
X202187238Y-112069285D01*
X202282476Y-112116904D01*
X202663428Y-112116904D01*
X202758666Y-112069285D01*
X202806285Y-111974047D01*
X202806285Y-111783571D01*
X202758666Y-111688333D01*
X202663428Y-111640714D01*
X202568190Y-111640714D01*
X202472952Y-112116904D01*
X202806285Y-111307380D02*
X202139619Y-111069285D01*
X202806285Y-110831190D02*
X202139619Y-111069285D01*
X201901523Y-111164523D01*
X201853904Y-111212142D01*
X201806285Y-111307380D01*
X202806285Y-110450238D02*
X201806285Y-110450238D01*
X202758666Y-110450238D02*
X202806285Y-110355000D01*
X202806285Y-110164523D01*
X202758666Y-110069285D01*
X202711047Y-110021666D01*
X202615809Y-109974047D01*
X202330095Y-109974047D01*
X202234857Y-110021666D01*
X202187238Y-110069285D01*
X202139619Y-110164523D01*
X202139619Y-110355000D01*
X202187238Y-110450238D01*
X202139619Y-109116904D02*
X202663428Y-109116904D01*
X202758666Y-109164523D01*
X202806285Y-109259761D01*
X202806285Y-109450238D01*
X202758666Y-109545476D01*
X202187238Y-109116904D02*
X202139619Y-109212142D01*
X202139619Y-109450238D01*
X202187238Y-109545476D01*
X202282476Y-109593095D01*
X202377714Y-109593095D01*
X202472952Y-109545476D01*
X202520571Y-109450238D01*
X202520571Y-109212142D01*
X202568190Y-109116904D01*
X202139619Y-108212142D02*
X203139619Y-108212142D01*
X202187238Y-108212142D02*
X202139619Y-108307380D01*
X202139619Y-108497857D01*
X202187238Y-108593095D01*
X202234857Y-108640714D01*
X202330095Y-108688333D01*
X202615809Y-108688333D01*
X202711047Y-108640714D01*
X202758666Y-108593095D01*
X202806285Y-108497857D01*
X202806285Y-108307380D01*
X202758666Y-108212142D01*
X203139619Y-100081190D02*
X203139619Y-99509761D01*
X202139619Y-99795476D02*
X203139619Y-99795476D01*
X202139619Y-99033571D02*
X202187238Y-99128809D01*
X202234857Y-99176428D01*
X202330095Y-99224047D01*
X202615809Y-99224047D01*
X202711047Y-99176428D01*
X202758666Y-99128809D01*
X202806285Y-99033571D01*
X202806285Y-98890714D01*
X202758666Y-98795476D01*
X202711047Y-98747857D01*
X202615809Y-98700238D01*
X202330095Y-98700238D01*
X202234857Y-98747857D01*
X202187238Y-98795476D01*
X202139619Y-98890714D01*
X202139619Y-99033571D01*
X202187238Y-97557380D02*
X202139619Y-97414523D01*
X202139619Y-97176428D01*
X202187238Y-97081190D01*
X202234857Y-97033571D01*
X202330095Y-96985952D01*
X202425333Y-96985952D01*
X202520571Y-97033571D01*
X202568190Y-97081190D01*
X202615809Y-97176428D01*
X202663428Y-97366904D01*
X202711047Y-97462142D01*
X202758666Y-97509761D01*
X202853904Y-97557380D01*
X202949142Y-97557380D01*
X203044380Y-97509761D01*
X203092000Y-97462142D01*
X203139619Y-97366904D01*
X203139619Y-97128809D01*
X203092000Y-96985952D01*
X202806285Y-96700238D02*
X202806285Y-96319285D01*
X203139619Y-96557380D02*
X202282476Y-96557380D01*
X202187238Y-96509761D01*
X202139619Y-96414523D01*
X202139619Y-96319285D01*
X202139619Y-95985952D02*
X202806285Y-95985952D01*
X203139619Y-95985952D02*
X203092000Y-96033571D01*
X203044380Y-95985952D01*
X203092000Y-95938333D01*
X203139619Y-95985952D01*
X203044380Y-95985952D01*
X202139619Y-95509761D02*
X202806285Y-95509761D01*
X202615809Y-95509761D02*
X202711047Y-95462142D01*
X202758666Y-95414523D01*
X202806285Y-95319285D01*
X202806285Y-95224047D01*
X202139619Y-94890714D02*
X202806285Y-94890714D01*
X202615809Y-94890714D02*
X202711047Y-94843095D01*
X202758666Y-94795476D01*
X202806285Y-94700238D01*
X202806285Y-94605000D01*
X202187238Y-93890714D02*
X202139619Y-93985952D01*
X202139619Y-94176428D01*
X202187238Y-94271666D01*
X202282476Y-94319285D01*
X202663428Y-94319285D01*
X202758666Y-94271666D01*
X202806285Y-94176428D01*
X202806285Y-93985952D01*
X202758666Y-93890714D01*
X202663428Y-93843095D01*
X202568190Y-93843095D01*
X202472952Y-94319285D01*
X202139619Y-93414523D02*
X202806285Y-93414523D01*
X202615809Y-93414523D02*
X202711047Y-93366904D01*
X202758666Y-93319285D01*
X202806285Y-93224047D01*
X202806285Y-93128809D01*
D10*
X203822000Y-52085000D02*
X205092000Y-52085000D01*
X203822000Y-53355000D02*
X203822000Y-52085000D01*
X206134929Y-91835000D02*
X206532000Y-91835000D01*
X206134929Y-91075000D02*
X206532000Y-91075000D01*
X215192000Y-91835000D02*
X209192000Y-91835000D01*
X215192000Y-91075000D02*
X215192000Y-91835000D01*
X209192000Y-91075000D02*
X215192000Y-91075000D01*
X206532000Y-90185000D02*
X209192000Y-90185000D01*
X206134929Y-89295000D02*
X206532000Y-89295000D01*
X206134929Y-88535000D02*
X206532000Y-88535000D01*
X215192000Y-89295000D02*
X209192000Y-89295000D01*
X215192000Y-88535000D02*
X215192000Y-89295000D01*
X209192000Y-88535000D02*
X215192000Y-88535000D01*
X206532000Y-87645000D02*
X209192000Y-87645000D01*
X206134929Y-86755000D02*
X206532000Y-86755000D01*
X206134929Y-85995000D02*
X206532000Y-85995000D01*
X215192000Y-86755000D02*
X209192000Y-86755000D01*
X215192000Y-85995000D02*
X215192000Y-86755000D01*
X209192000Y-85995000D02*
X215192000Y-85995000D01*
X206532000Y-85105000D02*
X209192000Y-85105000D01*
X206134929Y-84215000D02*
X206532000Y-84215000D01*
X206134929Y-83455000D02*
X206532000Y-83455000D01*
X215192000Y-84215000D02*
X209192000Y-84215000D01*
X215192000Y-83455000D02*
X215192000Y-84215000D01*
X209192000Y-83455000D02*
X215192000Y-83455000D01*
X206532000Y-82565000D02*
X209192000Y-82565000D01*
X206134929Y-81675000D02*
X206532000Y-81675000D01*
X206134929Y-80915000D02*
X206532000Y-80915000D01*
X215192000Y-81675000D02*
X209192000Y-81675000D01*
X215192000Y-80915000D02*
X215192000Y-81675000D01*
X209192000Y-80915000D02*
X215192000Y-80915000D01*
X206532000Y-80025000D02*
X209192000Y-80025000D01*
X206134929Y-79135000D02*
X206532000Y-79135000D01*
X206134929Y-78375000D02*
X206532000Y-78375000D01*
X215192000Y-79135000D02*
X209192000Y-79135000D01*
X215192000Y-78375000D02*
X215192000Y-79135000D01*
X209192000Y-78375000D02*
X215192000Y-78375000D01*
X206532000Y-77485000D02*
X209192000Y-77485000D01*
X206134929Y-76595000D02*
X206532000Y-76595000D01*
X206134929Y-75835000D02*
X206532000Y-75835000D01*
X215192000Y-76595000D02*
X209192000Y-76595000D01*
X215192000Y-75835000D02*
X215192000Y-76595000D01*
X209192000Y-75835000D02*
X215192000Y-75835000D01*
X206532000Y-74945000D02*
X209192000Y-74945000D01*
X206134929Y-74055000D02*
X206532000Y-74055000D01*
X206134929Y-73295000D02*
X206532000Y-73295000D01*
X215192000Y-74055000D02*
X209192000Y-74055000D01*
X215192000Y-73295000D02*
X215192000Y-74055000D01*
X209192000Y-73295000D02*
X215192000Y-73295000D01*
X206532000Y-72405000D02*
X209192000Y-72405000D01*
X206134929Y-71515000D02*
X206532000Y-71515000D01*
X206134929Y-70755000D02*
X206532000Y-70755000D01*
X215192000Y-71515000D02*
X209192000Y-71515000D01*
X215192000Y-70755000D02*
X215192000Y-71515000D01*
X209192000Y-70755000D02*
X215192000Y-70755000D01*
X206532000Y-69865000D02*
X209192000Y-69865000D01*
X206134929Y-68975000D02*
X206532000Y-68975000D01*
X206134929Y-68215000D02*
X206532000Y-68215000D01*
X215192000Y-68975000D02*
X209192000Y-68975000D01*
X215192000Y-68215000D02*
X215192000Y-68975000D01*
X209192000Y-68215000D02*
X215192000Y-68215000D01*
X206532000Y-67325000D02*
X209192000Y-67325000D01*
X206134929Y-66435000D02*
X206532000Y-66435000D01*
X206134929Y-65675000D02*
X206532000Y-65675000D01*
X215192000Y-66435000D02*
X209192000Y-66435000D01*
X215192000Y-65675000D02*
X215192000Y-66435000D01*
X209192000Y-65675000D02*
X215192000Y-65675000D01*
X206532000Y-64785000D02*
X209192000Y-64785000D01*
X206134929Y-63895000D02*
X206532000Y-63895000D01*
X206134929Y-63135000D02*
X206532000Y-63135000D01*
X215192000Y-63895000D02*
X209192000Y-63895000D01*
X215192000Y-63135000D02*
X215192000Y-63895000D01*
X209192000Y-63135000D02*
X215192000Y-63135000D01*
X206532000Y-62245000D02*
X209192000Y-62245000D01*
X206134929Y-61355000D02*
X206532000Y-61355000D01*
X206134929Y-60595000D02*
X206532000Y-60595000D01*
X215192000Y-61355000D02*
X209192000Y-61355000D01*
X215192000Y-60595000D02*
X215192000Y-61355000D01*
X209192000Y-60595000D02*
X215192000Y-60595000D01*
X206532000Y-59705000D02*
X209192000Y-59705000D01*
X206134929Y-58815000D02*
X206532000Y-58815000D01*
X206134929Y-58055000D02*
X206532000Y-58055000D01*
X215192000Y-58815000D02*
X209192000Y-58815000D01*
X215192000Y-58055000D02*
X215192000Y-58815000D01*
X209192000Y-58055000D02*
X215192000Y-58055000D01*
X206532000Y-57165000D02*
X209192000Y-57165000D01*
X206134929Y-56275000D02*
X206532000Y-56275000D01*
X206134929Y-55515000D02*
X206532000Y-55515000D01*
X215192000Y-56275000D02*
X209192000Y-56275000D01*
X215192000Y-55515000D02*
X215192000Y-56275000D01*
X209192000Y-55515000D02*
X215192000Y-55515000D01*
X206532000Y-54625000D02*
X209192000Y-54625000D01*
X206202000Y-53735000D02*
X206532000Y-53735000D01*
X206202000Y-52975000D02*
X206532000Y-52975000D01*
X209192000Y-53635000D02*
X215192000Y-53635000D01*
X209192000Y-53515000D02*
X215192000Y-53515000D01*
X209192000Y-53395000D02*
X215192000Y-53395000D01*
X209192000Y-53275000D02*
X215192000Y-53275000D01*
X209192000Y-53155000D02*
X215192000Y-53155000D01*
X209192000Y-53035000D02*
X215192000Y-53035000D01*
X215192000Y-53735000D02*
X209192000Y-53735000D01*
X215192000Y-52975000D02*
X215192000Y-53735000D01*
X209192000Y-52975000D02*
X215192000Y-52975000D01*
X209192000Y-52025000D02*
X206532000Y-52025000D01*
X209192000Y-92785000D02*
X209192000Y-52025000D01*
X206532000Y-92785000D02*
X209192000Y-92785000D01*
X206532000Y-52025000D02*
X206532000Y-92785000D01*
X203822000Y-94085000D02*
X205092000Y-94085000D01*
X203822000Y-95355000D02*
X203822000Y-94085000D01*
X206134929Y-98275000D02*
X206532000Y-98275000D01*
X206134929Y-97515000D02*
X206532000Y-97515000D01*
X215192000Y-98275000D02*
X209192000Y-98275000D01*
X215192000Y-97515000D02*
X215192000Y-98275000D01*
X209192000Y-97515000D02*
X215192000Y-97515000D01*
X206532000Y-96625000D02*
X209192000Y-96625000D01*
X206202000Y-95735000D02*
X206532000Y-95735000D01*
X206202000Y-94975000D02*
X206532000Y-94975000D01*
X209192000Y-95635000D02*
X215192000Y-95635000D01*
X209192000Y-95515000D02*
X215192000Y-95515000D01*
X209192000Y-95395000D02*
X215192000Y-95395000D01*
X209192000Y-95275000D02*
X215192000Y-95275000D01*
X209192000Y-95155000D02*
X215192000Y-95155000D01*
X209192000Y-95035000D02*
X215192000Y-95035000D01*
X215192000Y-95735000D02*
X209192000Y-95735000D01*
X215192000Y-94975000D02*
X215192000Y-95735000D01*
X209192000Y-94975000D02*
X215192000Y-94975000D01*
X209192000Y-94025000D02*
X206532000Y-94025000D01*
X209192000Y-99225000D02*
X209192000Y-94025000D01*
X206532000Y-99225000D02*
X209192000Y-99225000D01*
X206532000Y-94025000D02*
X206532000Y-99225000D01*
X206532000Y-101525000D02*
X206532000Y-121965000D01*
X206532000Y-121965000D02*
X209192000Y-121965000D01*
X209192000Y-121965000D02*
X209192000Y-101525000D01*
X209192000Y-101525000D02*
X206532000Y-101525000D01*
X209192000Y-102475000D02*
X215192000Y-102475000D01*
X215192000Y-102475000D02*
X215192000Y-103235000D01*
X215192000Y-103235000D02*
X209192000Y-103235000D01*
X209192000Y-102535000D02*
X215192000Y-102535000D01*
X209192000Y-102655000D02*
X215192000Y-102655000D01*
X209192000Y-102775000D02*
X215192000Y-102775000D01*
X209192000Y-102895000D02*
X215192000Y-102895000D01*
X209192000Y-103015000D02*
X215192000Y-103015000D01*
X209192000Y-103135000D02*
X215192000Y-103135000D01*
X206202000Y-102475000D02*
X206532000Y-102475000D01*
X206202000Y-103235000D02*
X206532000Y-103235000D01*
X206532000Y-104125000D02*
X209192000Y-104125000D01*
X209192000Y-105015000D02*
X215192000Y-105015000D01*
X215192000Y-105015000D02*
X215192000Y-105775000D01*
X215192000Y-105775000D02*
X209192000Y-105775000D01*
X206134929Y-105015000D02*
X206532000Y-105015000D01*
X206134929Y-105775000D02*
X206532000Y-105775000D01*
X206532000Y-106665000D02*
X209192000Y-106665000D01*
X209192000Y-107555000D02*
X215192000Y-107555000D01*
X215192000Y-107555000D02*
X215192000Y-108315000D01*
X215192000Y-108315000D02*
X209192000Y-108315000D01*
X206134929Y-107555000D02*
X206532000Y-107555000D01*
X206134929Y-108315000D02*
X206532000Y-108315000D01*
X206532000Y-109205000D02*
X209192000Y-109205000D01*
X209192000Y-110095000D02*
X215192000Y-110095000D01*
X215192000Y-110095000D02*
X215192000Y-110855000D01*
X215192000Y-110855000D02*
X209192000Y-110855000D01*
X206134929Y-110095000D02*
X206532000Y-110095000D01*
X206134929Y-110855000D02*
X206532000Y-110855000D01*
X206532000Y-111745000D02*
X209192000Y-111745000D01*
X209192000Y-112635000D02*
X215192000Y-112635000D01*
X215192000Y-112635000D02*
X215192000Y-113395000D01*
X215192000Y-113395000D02*
X209192000Y-113395000D01*
X206134929Y-112635000D02*
X206532000Y-112635000D01*
X206134929Y-113395000D02*
X206532000Y-113395000D01*
X206532000Y-114285000D02*
X209192000Y-114285000D01*
X209192000Y-115175000D02*
X215192000Y-115175000D01*
X215192000Y-115175000D02*
X215192000Y-115935000D01*
X215192000Y-115935000D02*
X209192000Y-115935000D01*
X206134929Y-115175000D02*
X206532000Y-115175000D01*
X206134929Y-115935000D02*
X206532000Y-115935000D01*
X206532000Y-116825000D02*
X209192000Y-116825000D01*
X209192000Y-117715000D02*
X215192000Y-117715000D01*
X215192000Y-117715000D02*
X215192000Y-118475000D01*
X215192000Y-118475000D02*
X209192000Y-118475000D01*
X206134929Y-117715000D02*
X206532000Y-117715000D01*
X206134929Y-118475000D02*
X206532000Y-118475000D01*
X206532000Y-119365000D02*
X209192000Y-119365000D01*
X209192000Y-120255000D02*
X215192000Y-120255000D01*
X215192000Y-120255000D02*
X215192000Y-121015000D01*
X215192000Y-121015000D02*
X209192000Y-121015000D01*
X206134929Y-120255000D02*
X206532000Y-120255000D01*
X206134929Y-121015000D02*
X206532000Y-121015000D01*
X203822000Y-102855000D02*
X203822000Y-101585000D01*
X203822000Y-101585000D02*
X205092000Y-101585000D01*
X173432000Y-64445000D02*
X173432000Y-64575000D01*
X173432000Y-64575000D02*
X178872000Y-64575000D01*
X178872000Y-64575000D02*
X178872000Y-64445000D01*
X173432000Y-61765000D02*
X173432000Y-61635000D01*
X173432000Y-61635000D02*
X178872000Y-61635000D01*
X178872000Y-61635000D02*
X178872000Y-61765000D01*
X174332000Y-64575000D02*
X174332000Y-61635000D01*
X174452000Y-64575000D02*
X174452000Y-61635000D01*
X174212000Y-64575000D02*
X174212000Y-61635000D01*
X178872000Y-65765000D02*
X178872000Y-65635000D01*
X178872000Y-65635000D02*
X173432000Y-65635000D01*
X173432000Y-65635000D02*
X173432000Y-65765000D01*
X178872000Y-68445000D02*
X178872000Y-68575000D01*
X178872000Y-68575000D02*
X173432000Y-68575000D01*
X173432000Y-68575000D02*
X173432000Y-68445000D01*
X177972000Y-65635000D02*
X177972000Y-68575000D01*
X177852000Y-65635000D02*
X177852000Y-68575000D01*
X178092000Y-65635000D02*
X178092000Y-68575000D01*
X197375000Y-65020000D02*
X196045000Y-65020000D01*
X196045000Y-65020000D02*
X196045000Y-66350000D01*
X198645000Y-65020000D02*
X198645000Y-67620000D01*
X198645000Y-67620000D02*
X196045000Y-67620000D01*
X196045000Y-67620000D02*
X196045000Y-115940000D01*
X201245000Y-115940000D02*
X196045000Y-115940000D01*
X201245000Y-65020000D02*
X201245000Y-115940000D01*
X201245000Y-65020000D02*
X198645000Y-65020000D01*
D11*
X205425333Y-50557380D02*
X205425333Y-51271666D01*
X205472952Y-51414523D01*
X205568190Y-51509761D01*
X205711047Y-51557380D01*
X205806285Y-51557380D01*
X204425333Y-51557380D02*
X204996761Y-51557380D01*
X204711047Y-51557380D02*
X204711047Y-50557380D01*
X204806285Y-50700238D01*
X204901523Y-50795476D01*
X204996761Y-50843095D01*
X205901523Y-92807380D02*
X205901523Y-93521666D01*
X205949142Y-93664523D01*
X206044380Y-93759761D01*
X206187238Y-93807380D01*
X206282476Y-93807380D01*
X204901523Y-93807380D02*
X205472952Y-93807380D01*
X205187238Y-93807380D02*
X205187238Y-92807380D01*
X205282476Y-92950238D01*
X205377714Y-93045476D01*
X205472952Y-93093095D01*
X204044380Y-93140714D02*
X204044380Y-93807380D01*
X204282476Y-92759761D02*
X204520571Y-93474047D01*
X203901523Y-93474047D01*
X205430413Y-100252520D02*
X205430413Y-100966806D01*
X205478032Y-101109663D01*
X205573270Y-101204901D01*
X205716127Y-101252520D01*
X205811365Y-101252520D01*
X205049460Y-100252520D02*
X204430413Y-100252520D01*
X204763746Y-100633473D01*
X204620889Y-100633473D01*
X204525651Y-100681092D01*
X204478032Y-100728711D01*
X204430413Y-100823949D01*
X204430413Y-101062044D01*
X204478032Y-101157282D01*
X204525651Y-101204901D01*
X204620889Y-101252520D01*
X204906603Y-101252520D01*
X205001841Y-101204901D01*
X205049460Y-101157282D01*
X176580095Y-67557380D02*
X176580095Y-66557380D01*
X176342000Y-66557380D01*
X176199142Y-66605000D01*
X176103904Y-66700238D01*
X176056285Y-66795476D01*
X176008666Y-66985952D01*
X176008666Y-67128809D01*
X176056285Y-67319285D01*
X176103904Y-67414523D01*
X176199142Y-67509761D01*
X176342000Y-67557380D01*
X176580095Y-67557380D01*
X175056285Y-67557380D02*
X175627714Y-67557380D01*
X175342000Y-67557380D02*
X175342000Y-66557380D01*
X175437238Y-66700238D01*
X175532476Y-66795476D01*
X175627714Y-66843095D01*
X172603904Y-65657380D02*
X172603904Y-64657380D01*
X172032476Y-65657380D02*
X172461047Y-65085952D01*
X172032476Y-64657380D02*
X172603904Y-65228809D01*
X176830095Y-63557380D02*
X176830095Y-62557380D01*
X176592000Y-62557380D01*
X176449142Y-62605000D01*
X176353904Y-62700238D01*
X176306285Y-62795476D01*
X176258666Y-62985952D01*
X176258666Y-63128809D01*
X176306285Y-63319285D01*
X176353904Y-63414523D01*
X176449142Y-63509761D01*
X176592000Y-63557380D01*
X176830095Y-63557380D01*
X175877714Y-62652619D02*
X175830095Y-62605000D01*
X175734857Y-62557380D01*
X175496761Y-62557380D01*
X175401523Y-62605000D01*
X175353904Y-62652619D01*
X175306285Y-62747857D01*
X175306285Y-62843095D01*
X175353904Y-62985952D01*
X175925333Y-63557380D01*
X175306285Y-63557380D01*
X180223904Y-65457380D02*
X180223904Y-64457380D01*
X179652476Y-65457380D02*
X180081047Y-64885952D01*
X179652476Y-64457380D02*
X180223904Y-65028809D01*
X200348333Y-63502380D02*
X200348333Y-64216666D01*
X200395952Y-64359523D01*
X200491190Y-64454761D01*
X200634047Y-64502380D01*
X200729285Y-64502380D01*
X199919761Y-63597619D02*
X199872142Y-63550000D01*
X199776904Y-63502380D01*
X199538809Y-63502380D01*
X199443571Y-63550000D01*
X199395952Y-63597619D01*
X199348333Y-63692857D01*
X199348333Y-63788095D01*
X199395952Y-63930952D01*
X199967380Y-64502380D01*
X199348333Y-64502380D01*
%LPC*%
D12*
X180052000Y-50815000D03*
X180052000Y-53355000D03*
X180052000Y-55895000D03*
D13*
X170332000Y-137915000D03*
X155092000Y-137915000D03*
X170332000Y-102355000D03*
X155092000Y-135375000D03*
X170332000Y-104895000D03*
X155092000Y-132835000D03*
X170332000Y-107435000D03*
X155092000Y-130295000D03*
X170332000Y-109975000D03*
X155092000Y-127755000D03*
X170332000Y-112515000D03*
X155092000Y-125215000D03*
X170332000Y-115055000D03*
X155092000Y-122675000D03*
X170332000Y-117595000D03*
X155092000Y-120135000D03*
X170332000Y-120135000D03*
X155092000Y-117595000D03*
X170332000Y-122675000D03*
X155092000Y-115055000D03*
X170332000Y-125215000D03*
X155092000Y-112515000D03*
X170332000Y-127755000D03*
X155092000Y-109975000D03*
X170332000Y-130295000D03*
X155092000Y-107435000D03*
X170332000Y-132835000D03*
X155092000Y-104895000D03*
X170332000Y-135375000D03*
G36*
G01*
X154241000Y-103155000D02*
X154241000Y-101555000D01*
G75*
G02*
X154292000Y-101504000I51000J0D01*
G01*
X155892000Y-101504000D01*
G75*
G02*
X155943000Y-101555000I0J-51000D01*
G01*
X155943000Y-103155000D01*
G75*
G02*
X155892000Y-103206000I-51000J0D01*
G01*
X154292000Y-103206000D01*
G75*
G02*
X154241000Y-103155000I0J51000D01*
G01*
G37*
D14*
X149653000Y-61231000D03*
G36*
G01*
X147132000Y-111454000D02*
X148832000Y-111454000D01*
G75*
G02*
X148883000Y-111505000I0J-51000D01*
G01*
X148883000Y-113205000D01*
G75*
G02*
X148832000Y-113256000I-51000J0D01*
G01*
X147132000Y-113256000D01*
G75*
G02*
X147081000Y-113205000I0J51000D01*
G01*
X147081000Y-111505000D01*
G75*
G02*
X147132000Y-111454000I51000J0D01*
G01*
G37*
D15*
X145442000Y-112355000D03*
X142902000Y-112355000D03*
X140362000Y-112355000D03*
X137822000Y-112355000D03*
X135282000Y-112355000D03*
X132742000Y-112355000D03*
X130202000Y-112355000D03*
D16*
X144342000Y-133945000D03*
X140842000Y-133945000D03*
X137342000Y-133945000D03*
X133842000Y-133995000D03*
G36*
G01*
X124116000Y-90380000D02*
X124116000Y-88730000D01*
G75*
G02*
X124167000Y-88679000I51000J0D01*
G01*
X125817000Y-88679000D01*
G75*
G02*
X125868000Y-88730000I0J-51000D01*
G01*
X125868000Y-90380000D01*
G75*
G02*
X125817000Y-90431000I-51000J0D01*
G01*
X124167000Y-90431000D01*
G75*
G02*
X124116000Y-90380000I0J51000D01*
G01*
G37*
D17*
X129992000Y-97955000D03*
X133092000Y-92755000D03*
X124992000Y-98855000D03*
D18*
X124992000Y-94355000D03*
X129992000Y-94355000D03*
D17*
X133092000Y-95955000D03*
D15*
X187782000Y-127295000D03*
X190322000Y-127295000D03*
X182702000Y-127295000D03*
X180162000Y-127295000D03*
X177622000Y-127295000D03*
X175082000Y-127295000D03*
X185242000Y-127295000D03*
G36*
G01*
X192012000Y-126394000D02*
X193712000Y-126394000D01*
G75*
G02*
X193763000Y-126445000I0J-51000D01*
G01*
X193763000Y-128145000D01*
G75*
G02*
X193712000Y-128196000I-51000J0D01*
G01*
X192012000Y-128196000D01*
G75*
G02*
X191961000Y-128145000I0J51000D01*
G01*
X191961000Y-126445000D01*
G75*
G02*
X192012000Y-126394000I51000J0D01*
G01*
G37*
G36*
G01*
X192012000Y-113694000D02*
X193712000Y-113694000D01*
G75*
G02*
X193763000Y-113745000I0J-51000D01*
G01*
X193763000Y-115445000D01*
G75*
G02*
X193712000Y-115496000I-51000J0D01*
G01*
X192012000Y-115496000D01*
G75*
G02*
X191961000Y-115445000I0J51000D01*
G01*
X191961000Y-113745000D01*
G75*
G02*
X192012000Y-113694000I51000J0D01*
G01*
G37*
X190322000Y-114595000D03*
X187782000Y-114595000D03*
X185242000Y-114595000D03*
X182702000Y-114595000D03*
X180162000Y-114595000D03*
X177622000Y-114595000D03*
X175082000Y-114595000D03*
G36*
G01*
X191124000Y-97438000D02*
X189600000Y-97438000D01*
G75*
G02*
X189549000Y-97387000I0J51000D01*
G01*
X189549000Y-95863000D01*
G75*
G02*
X189600000Y-95812000I51000J0D01*
G01*
X191124000Y-95812000D01*
G75*
G02*
X191175000Y-95863000I0J-51000D01*
G01*
X191175000Y-97387000D01*
G75*
G02*
X191124000Y-97438000I-51000J0D01*
G01*
G37*
D19*
X187822000Y-96625000D03*
X185282000Y-96625000D03*
X182742000Y-96625000D03*
G36*
G01*
X180964000Y-97438000D02*
X179440000Y-97438000D01*
G75*
G02*
X179389000Y-97387000I0J51000D01*
G01*
X179389000Y-95863000D01*
G75*
G02*
X179440000Y-95812000I51000J0D01*
G01*
X180964000Y-95812000D01*
G75*
G02*
X181015000Y-95863000I0J-51000D01*
G01*
X181015000Y-97387000D01*
G75*
G02*
X180964000Y-97438000I-51000J0D01*
G01*
G37*
X177662000Y-96625000D03*
X190362000Y-109325000D03*
X187822000Y-109325000D03*
X185282000Y-109325000D03*
X182742000Y-109325000D03*
X180202000Y-109325000D03*
X177662000Y-109325000D03*
D15*
X205092000Y-91455000D03*
X205092000Y-88915000D03*
X205092000Y-86375000D03*
X205092000Y-83835000D03*
X205092000Y-81295000D03*
X205092000Y-78755000D03*
X205092000Y-76215000D03*
X205092000Y-73675000D03*
X205092000Y-71135000D03*
X205092000Y-68595000D03*
X205092000Y-66055000D03*
X205092000Y-63515000D03*
X205092000Y-60975000D03*
X205092000Y-58435000D03*
X205092000Y-55895000D03*
G36*
G01*
X205993000Y-52505000D02*
X205993000Y-54205000D01*
G75*
G02*
X205942000Y-54256000I-51000J0D01*
G01*
X204242000Y-54256000D01*
G75*
G02*
X204191000Y-54205000I0J51000D01*
G01*
X204191000Y-52505000D01*
G75*
G02*
X204242000Y-52454000I51000J0D01*
G01*
X205942000Y-52454000D01*
G75*
G02*
X205993000Y-52505000I0J-51000D01*
G01*
G37*
G36*
G01*
X205993000Y-94505000D02*
X205993000Y-96205000D01*
G75*
G02*
X205942000Y-96256000I-51000J0D01*
G01*
X204242000Y-96256000D01*
G75*
G02*
X204191000Y-96205000I0J51000D01*
G01*
X204191000Y-94505000D01*
G75*
G02*
X204242000Y-94454000I51000J0D01*
G01*
X205942000Y-94454000D01*
G75*
G02*
X205993000Y-94505000I0J-51000D01*
G01*
G37*
X205092000Y-97895000D03*
X205092000Y-120635000D03*
X205092000Y-118095000D03*
X205092000Y-115555000D03*
X205092000Y-113015000D03*
X205092000Y-110475000D03*
X205092000Y-107935000D03*
X205092000Y-105395000D03*
G36*
G01*
X205993000Y-102005000D02*
X205993000Y-103705000D01*
G75*
G02*
X205942000Y-103756000I-51000J0D01*
G01*
X204242000Y-103756000D01*
G75*
G02*
X204191000Y-103705000I0J51000D01*
G01*
X204191000Y-102005000D01*
G75*
G02*
X204242000Y-101954000I51000J0D01*
G01*
X205942000Y-101954000D01*
G75*
G02*
X205993000Y-102005000I0J-51000D01*
G01*
G37*
D20*
X129512000Y-45775000D03*
X129512000Y-55935000D03*
D21*
X134592000Y-53395000D03*
X134592000Y-50855000D03*
D22*
X198592000Y-54105000D03*
X201092000Y-54105000D03*
X172592000Y-50855000D03*
X172592000Y-48355000D03*
X195842000Y-54105000D03*
X193342000Y-54105000D03*
X165592000Y-131355000D03*
X165592000Y-133855000D03*
X144592000Y-56855000D03*
X144592000Y-59355000D03*
X164592000Y-53855000D03*
X162092000Y-53855000D03*
X162592000Y-49855000D03*
X162592000Y-47355000D03*
D23*
X179962000Y-63105000D03*
G36*
G01*
X171191000Y-64205000D02*
X171191000Y-62005000D01*
G75*
G02*
X171242000Y-61954000I51000J0D01*
G01*
X173442000Y-61954000D01*
G75*
G02*
X173493000Y-62005000I0J-51000D01*
G01*
X173493000Y-64205000D01*
G75*
G02*
X173442000Y-64256000I-51000J0D01*
G01*
X171242000Y-64256000D01*
G75*
G02*
X171191000Y-64205000I0J51000D01*
G01*
G37*
X172342000Y-67105000D03*
G36*
G01*
X181113000Y-66005000D02*
X181113000Y-68205000D01*
G75*
G02*
X181062000Y-68256000I-51000J0D01*
G01*
X178862000Y-68256000D01*
G75*
G02*
X178811000Y-68205000I0J51000D01*
G01*
X178811000Y-66005000D01*
G75*
G02*
X178862000Y-65954000I51000J0D01*
G01*
X181062000Y-65954000D01*
G75*
G02*
X181113000Y-66005000I0J-51000D01*
G01*
G37*
D14*
X198653000Y-61231000D03*
X198653000Y-119289000D03*
X149625000Y-119289000D03*
X126592000Y-76355000D03*
X126592000Y-138355000D03*
D15*
X199915000Y-114610000D03*
X197375000Y-114610000D03*
X199915000Y-112070000D03*
X197375000Y-112070000D03*
X199915000Y-109530000D03*
X197375000Y-109530000D03*
X199915000Y-106990000D03*
X197375000Y-106990000D03*
X199915000Y-104450000D03*
X197375000Y-104450000D03*
X199915000Y-101910000D03*
X197375000Y-101910000D03*
X199915000Y-99370000D03*
X197375000Y-99370000D03*
X199915000Y-96830000D03*
X197375000Y-96830000D03*
X199915000Y-94290000D03*
X197375000Y-94290000D03*
X199915000Y-91750000D03*
X197375000Y-91750000D03*
X199915000Y-89210000D03*
X197375000Y-89210000D03*
X199915000Y-86670000D03*
X197375000Y-86670000D03*
X199915000Y-84130000D03*
X197375000Y-84130000D03*
X199915000Y-81590000D03*
X197375000Y-81590000D03*
X199915000Y-79050000D03*
X197375000Y-79050000D03*
X199915000Y-76510000D03*
X197375000Y-76510000D03*
X199915000Y-73970000D03*
X197375000Y-73970000D03*
X199915000Y-71430000D03*
X197375000Y-71430000D03*
X199915000Y-68890000D03*
X197375000Y-68890000D03*
X199915000Y-66350000D03*
G36*
G01*
X198276000Y-65500000D02*
X198276000Y-67200000D01*
G75*
G02*
X198225000Y-67251000I-51000J0D01*
G01*
X196525000Y-67251000D01*
G75*
G02*
X196474000Y-67200000I0J51000D01*
G01*
X196474000Y-65500000D01*
G75*
G02*
X196525000Y-65449000I51000J0D01*
G01*
X198225000Y-65449000D01*
G75*
G02*
X198276000Y-65500000I0J-51000D01*
G01*
G37*
D14*
X191582000Y-134855000D03*
G36*
G01*
X174791000Y-136355000D02*
X174791000Y-133355000D01*
G75*
G02*
X174842000Y-133304000I51000J0D01*
G01*
X177842000Y-133304000D01*
G75*
G02*
X177893000Y-133355000I0J-51000D01*
G01*
X177893000Y-136355000D01*
G75*
G02*
X177842000Y-136406000I-51000J0D01*
G01*
X174842000Y-136406000D01*
G75*
G02*
X174791000Y-136355000I0J51000D01*
G01*
G37*
X186502000Y-134855000D03*
X181422000Y-134855000D03*
G36*
G01*
X124116000Y-118880000D02*
X124116000Y-117230000D01*
G75*
G02*
X124167000Y-117179000I51000J0D01*
G01*
X125817000Y-117179000D01*
G75*
G02*
X125868000Y-117230000I0J-51000D01*
G01*
X125868000Y-118880000D01*
G75*
G02*
X125817000Y-118931000I-51000J0D01*
G01*
X124167000Y-118931000D01*
G75*
G02*
X124116000Y-118880000I0J51000D01*
G01*
G37*
D17*
X129992000Y-126455000D03*
X133092000Y-121255000D03*
X124992000Y-127355000D03*
D18*
X124992000Y-122855000D03*
X129992000Y-122855000D03*
D17*
X133092000Y-124455000D03*
D14*
X190932000Y-45355000D03*
X196012000Y-45355000D03*
G36*
G01*
X202643000Y-43855000D02*
X202643000Y-46855000D01*
G75*
G02*
X202592000Y-46906000I-51000J0D01*
G01*
X199592000Y-46906000D01*
G75*
G02*
X199541000Y-46855000I0J51000D01*
G01*
X199541000Y-43855000D01*
G75*
G02*
X199592000Y-43804000I51000J0D01*
G01*
X202592000Y-43804000D01*
G75*
G02*
X202643000Y-43855000I0J-51000D01*
G01*
G37*
X202592000Y-133275000D03*
G36*
G01*
X204092000Y-139906000D02*
X201092000Y-139906000D01*
G75*
G02*
X201041000Y-139855000I0J51000D01*
G01*
X201041000Y-136855000D01*
G75*
G02*
X201092000Y-136804000I51000J0D01*
G01*
X204092000Y-136804000D01*
G75*
G02*
X204143000Y-136855000I0J-51000D01*
G01*
X204143000Y-139855000D01*
G75*
G02*
X204092000Y-139906000I-51000J0D01*
G01*
G37*
D13*
X141092000Y-58735000D03*
D22*
X141092000Y-66355000D03*
D13*
X152212000Y-66355000D03*
D22*
X144592000Y-66355000D03*
D13*
X151972000Y-54355000D03*
D22*
X159592000Y-54355000D03*
D13*
X159592000Y-50855000D03*
D22*
X151972000Y-50855000D03*
D13*
X151972000Y-47355000D03*
D22*
X159592000Y-47355000D03*
D13*
X168092000Y-55975000D03*
D22*
X168092000Y-48355000D03*
D24*
X186842000Y-62355000D03*
X189342000Y-67355000D03*
X191842000Y-62355000D03*
D15*
X152732000Y-73355000D03*
X155272000Y-73355000D03*
X157812000Y-73355000D03*
X160352000Y-73355000D03*
X162892000Y-73355000D03*
X165432000Y-73355000D03*
X167972000Y-73355000D03*
X170512000Y-73355000D03*
X173052000Y-73355000D03*
G36*
G01*
X174742000Y-72454000D02*
X176442000Y-72454000D01*
G75*
G02*
X176493000Y-72505000I0J-51000D01*
G01*
X176493000Y-74205000D01*
G75*
G02*
X176442000Y-74256000I-51000J0D01*
G01*
X174742000Y-74256000D01*
G75*
G02*
X174691000Y-74205000I0J51000D01*
G01*
X174691000Y-72505000D01*
G75*
G02*
X174742000Y-72454000I51000J0D01*
G01*
G37*
G36*
G01*
X147132000Y-82954000D02*
X148832000Y-82954000D01*
G75*
G02*
X148883000Y-83005000I0J-51000D01*
G01*
X148883000Y-84705000D01*
G75*
G02*
X148832000Y-84756000I-51000J0D01*
G01*
X147132000Y-84756000D01*
G75*
G02*
X147081000Y-84705000I0J51000D01*
G01*
X147081000Y-83005000D01*
G75*
G02*
X147132000Y-82954000I51000J0D01*
G01*
G37*
X145442000Y-83855000D03*
X142902000Y-83855000D03*
X140362000Y-83855000D03*
X137822000Y-83855000D03*
X135282000Y-83855000D03*
X132742000Y-83855000D03*
X130202000Y-83855000D03*
D16*
X144342000Y-105445000D03*
X140842000Y-105445000D03*
X137342000Y-105445000D03*
X133842000Y-105495000D03*
G36*
G01*
X167342000Y-58779000D02*
X168842000Y-58779000D01*
G75*
G02*
X168893000Y-58830000I0J-51000D01*
G01*
X168893000Y-59880000D01*
G75*
G02*
X168842000Y-59931000I-51000J0D01*
G01*
X167342000Y-59931000D01*
G75*
G02*
X167291000Y-59880000I0J51000D01*
G01*
X167291000Y-58830000D01*
G75*
G02*
X167342000Y-58779000I51000J0D01*
G01*
G37*
D25*
X168092000Y-61895000D03*
X168092000Y-60625000D03*
D13*
X148592000Y-54475000D03*
X140972000Y-46855000D03*
X146052000Y-54475000D03*
X143512000Y-46855000D03*
X143512000Y-54475000D03*
X146052000Y-46855000D03*
X140972000Y-54475000D03*
G36*
G01*
X147792000Y-46004000D02*
X149392000Y-46004000D01*
G75*
G02*
X149443000Y-46055000I0J-51000D01*
G01*
X149443000Y-47655000D01*
G75*
G02*
X149392000Y-47706000I-51000J0D01*
G01*
X147792000Y-47706000D01*
G75*
G02*
X147741000Y-47655000I0J51000D01*
G01*
X147741000Y-46055000D01*
G75*
G02*
X147792000Y-46004000I51000J0D01*
G01*
G37*
X163212000Y-58855000D03*
X155592000Y-66475000D03*
X163212000Y-61395000D03*
X155592000Y-63935000D03*
X163212000Y-63935000D03*
X155592000Y-61395000D03*
X163212000Y-66475000D03*
G36*
G01*
X154741000Y-59655000D02*
X154741000Y-58055000D01*
G75*
G02*
X154792000Y-58004000I51000J0D01*
G01*
X156392000Y-58004000D01*
G75*
G02*
X156443000Y-58055000I0J-51000D01*
G01*
X156443000Y-59655000D01*
G75*
G02*
X156392000Y-59706000I-51000J0D01*
G01*
X154792000Y-59706000D01*
G75*
G02*
X154741000Y-59655000I0J51000D01*
G01*
G37*
D22*
X179842000Y-45605000D03*
X184842000Y-45605000D03*
X185942000Y-50855000D03*
X185942000Y-55855000D03*
M02*
