G04 #@! TF.GenerationSoftware,KiCad,Pcbnew,(5.1.9)-1*
G04 #@! TF.CreationDate,2021-06-09T22:02:07-07:00*
G04 #@! TF.ProjectId,AlkalinityTitrator,416c6b61-6c69-46e6-9974-795469747261,rev?*
G04 #@! TF.SameCoordinates,Original*
G04 #@! TF.FileFunction,Soldermask,Top*
G04 #@! TF.FilePolarity,Negative*
%FSLAX46Y46*%
G04 Gerber Fmt 4.6, Leading zero omitted, Abs format (unit mm)*
G04 Created by KiCad (PCBNEW (5.1.9)-1) date 2021-06-09 22:02:07*
%MOMM*%
%LPD*%
G01*
G04 APERTURE LIST*
%ADD10O,3.150000X1.626000*%
%ADD11O,1.702000X1.702000*%
%ADD12C,3.102000*%
%ADD13O,1.802000X1.802000*%
%ADD14C,2.502000*%
%ADD15C,1.752000*%
%ADD16C,1.202000*%
%ADD17C,1.626000*%
%ADD18C,2.642000*%
%ADD19C,1.499000*%
%ADD20C,1.702000*%
%ADD21O,2.302000X2.302000*%
%ADD22C,1.722000*%
%ADD23O,1.602000X1.152000*%
%ADD24C,0.100000*%
G04 APERTURE END LIST*
D10*
X180052000Y-50815000D03*
X180052000Y-53355000D03*
X180052000Y-55895000D03*
D11*
X170332000Y-137915000D03*
X155092000Y-137915000D03*
X170332000Y-102355000D03*
X155092000Y-135375000D03*
X170332000Y-104895000D03*
X155092000Y-132835000D03*
X170332000Y-107435000D03*
X155092000Y-130295000D03*
X170332000Y-109975000D03*
X155092000Y-127755000D03*
X170332000Y-112515000D03*
X155092000Y-125215000D03*
X170332000Y-115055000D03*
X155092000Y-122675000D03*
X170332000Y-117595000D03*
X155092000Y-120135000D03*
X170332000Y-120135000D03*
X155092000Y-117595000D03*
X170332000Y-122675000D03*
X155092000Y-115055000D03*
X170332000Y-125215000D03*
X155092000Y-112515000D03*
X170332000Y-127755000D03*
X155092000Y-109975000D03*
X170332000Y-130295000D03*
X155092000Y-107435000D03*
X170332000Y-132835000D03*
X155092000Y-104895000D03*
X170332000Y-135375000D03*
G36*
G01*
X154241000Y-103155000D02*
X154241000Y-101555000D01*
G75*
G02*
X154292000Y-101504000I51000J0D01*
G01*
X155892000Y-101504000D01*
G75*
G02*
X155943000Y-101555000I0J-51000D01*
G01*
X155943000Y-103155000D01*
G75*
G02*
X155892000Y-103206000I-51000J0D01*
G01*
X154292000Y-103206000D01*
G75*
G02*
X154241000Y-103155000I0J51000D01*
G01*
G37*
G36*
G01*
X138243000Y-44655000D02*
X138243000Y-46655000D01*
G75*
G02*
X138192000Y-46706000I-51000J0D01*
G01*
X137192000Y-46706000D01*
G75*
G02*
X137141000Y-46655000I0J51000D01*
G01*
X137141000Y-44655000D01*
G75*
G02*
X137192000Y-44604000I51000J0D01*
G01*
X138192000Y-44604000D01*
G75*
G02*
X138243000Y-44655000I0J-51000D01*
G01*
G37*
G36*
G01*
X176143000Y-44655000D02*
X176143000Y-46655000D01*
G75*
G02*
X176092000Y-46706000I-51000J0D01*
G01*
X175092000Y-46706000D01*
G75*
G02*
X175041000Y-46655000I0J51000D01*
G01*
X175041000Y-44655000D01*
G75*
G02*
X175092000Y-44604000I51000J0D01*
G01*
X176092000Y-44604000D01*
G75*
G02*
X176143000Y-44655000I0J-51000D01*
G01*
G37*
G36*
G01*
X138243000Y-48855000D02*
X138243000Y-52655000D01*
G75*
G02*
X138192000Y-52706000I-51000J0D01*
G01*
X137192000Y-52706000D01*
G75*
G02*
X137141000Y-52655000I0J51000D01*
G01*
X137141000Y-48855000D01*
G75*
G02*
X137192000Y-48804000I51000J0D01*
G01*
X138192000Y-48804000D01*
G75*
G02*
X138243000Y-48855000I0J-51000D01*
G01*
G37*
G36*
G01*
X176143000Y-48855000D02*
X176143000Y-52655000D01*
G75*
G02*
X176092000Y-52706000I-51000J0D01*
G01*
X175092000Y-52706000D01*
G75*
G02*
X175041000Y-52655000I0J51000D01*
G01*
X175041000Y-48855000D01*
G75*
G02*
X175092000Y-48804000I51000J0D01*
G01*
X176092000Y-48804000D01*
G75*
G02*
X176143000Y-48855000I0J-51000D01*
G01*
G37*
G36*
G01*
X138243000Y-54855000D02*
X138243000Y-58655000D01*
G75*
G02*
X138192000Y-58706000I-51000J0D01*
G01*
X137192000Y-58706000D01*
G75*
G02*
X137141000Y-58655000I0J51000D01*
G01*
X137141000Y-54855000D01*
G75*
G02*
X137192000Y-54804000I51000J0D01*
G01*
X138192000Y-54804000D01*
G75*
G02*
X138243000Y-54855000I0J-51000D01*
G01*
G37*
G36*
G01*
X176143000Y-54855000D02*
X176143000Y-58655000D01*
G75*
G02*
X176092000Y-58706000I-51000J0D01*
G01*
X175092000Y-58706000D01*
G75*
G02*
X175041000Y-58655000I0J51000D01*
G01*
X175041000Y-54855000D01*
G75*
G02*
X175092000Y-54804000I51000J0D01*
G01*
X176092000Y-54804000D01*
G75*
G02*
X176143000Y-54855000I0J-51000D01*
G01*
G37*
G36*
G01*
X138243000Y-60855000D02*
X138243000Y-64655000D01*
G75*
G02*
X138192000Y-64706000I-51000J0D01*
G01*
X137192000Y-64706000D01*
G75*
G02*
X137141000Y-64655000I0J51000D01*
G01*
X137141000Y-60855000D01*
G75*
G02*
X137192000Y-60804000I51000J0D01*
G01*
X138192000Y-60804000D01*
G75*
G02*
X138243000Y-60855000I0J-51000D01*
G01*
G37*
G36*
G01*
X176143000Y-60855000D02*
X176143000Y-64655000D01*
G75*
G02*
X176092000Y-64706000I-51000J0D01*
G01*
X175092000Y-64706000D01*
G75*
G02*
X175041000Y-64655000I0J51000D01*
G01*
X175041000Y-60855000D01*
G75*
G02*
X175092000Y-60804000I51000J0D01*
G01*
X176092000Y-60804000D01*
G75*
G02*
X176143000Y-60855000I0J-51000D01*
G01*
G37*
G36*
G01*
X138243000Y-66855000D02*
X138243000Y-68855000D01*
G75*
G02*
X138192000Y-68906000I-51000J0D01*
G01*
X137192000Y-68906000D01*
G75*
G02*
X137141000Y-68855000I0J51000D01*
G01*
X137141000Y-66855000D01*
G75*
G02*
X137192000Y-66804000I51000J0D01*
G01*
X138192000Y-66804000D01*
G75*
G02*
X138243000Y-66855000I0J-51000D01*
G01*
G37*
G36*
G01*
X176143000Y-66855000D02*
X176143000Y-68855000D01*
G75*
G02*
X176092000Y-68906000I-51000J0D01*
G01*
X175092000Y-68906000D01*
G75*
G02*
X175041000Y-68855000I0J51000D01*
G01*
X175041000Y-66855000D01*
G75*
G02*
X175092000Y-66804000I51000J0D01*
G01*
X176092000Y-66804000D01*
G75*
G02*
X176143000Y-66855000I0J-51000D01*
G01*
G37*
G36*
G01*
X140593000Y-43655000D02*
X140593000Y-44655000D01*
G75*
G02*
X140542000Y-44706000I-51000J0D01*
G01*
X138192000Y-44706000D01*
G75*
G02*
X138141000Y-44655000I0J51000D01*
G01*
X138141000Y-43655000D01*
G75*
G02*
X138192000Y-43604000I51000J0D01*
G01*
X140542000Y-43604000D01*
G75*
G02*
X140593000Y-43655000I0J-51000D01*
G01*
G37*
G36*
G01*
X140593000Y-68855000D02*
X140593000Y-69855000D01*
G75*
G02*
X140542000Y-69906000I-51000J0D01*
G01*
X138192000Y-69906000D01*
G75*
G02*
X138141000Y-69855000I0J51000D01*
G01*
X138141000Y-68855000D01*
G75*
G02*
X138192000Y-68804000I51000J0D01*
G01*
X140542000Y-68804000D01*
G75*
G02*
X140593000Y-68855000I0J-51000D01*
G01*
G37*
G36*
G01*
X146593000Y-43655000D02*
X146593000Y-44655000D01*
G75*
G02*
X146542000Y-44706000I-51000J0D01*
G01*
X142742000Y-44706000D01*
G75*
G02*
X142691000Y-44655000I0J51000D01*
G01*
X142691000Y-43655000D01*
G75*
G02*
X142742000Y-43604000I51000J0D01*
G01*
X146542000Y-43604000D01*
G75*
G02*
X146593000Y-43655000I0J-51000D01*
G01*
G37*
G36*
G01*
X146593000Y-68855000D02*
X146593000Y-69855000D01*
G75*
G02*
X146542000Y-69906000I-51000J0D01*
G01*
X142742000Y-69906000D01*
G75*
G02*
X142691000Y-69855000I0J51000D01*
G01*
X142691000Y-68855000D01*
G75*
G02*
X142742000Y-68804000I51000J0D01*
G01*
X146542000Y-68804000D01*
G75*
G02*
X146593000Y-68855000I0J-51000D01*
G01*
G37*
G36*
G01*
X152593000Y-43655000D02*
X152593000Y-44655000D01*
G75*
G02*
X152542000Y-44706000I-51000J0D01*
G01*
X148742000Y-44706000D01*
G75*
G02*
X148691000Y-44655000I0J51000D01*
G01*
X148691000Y-43655000D01*
G75*
G02*
X148742000Y-43604000I51000J0D01*
G01*
X152542000Y-43604000D01*
G75*
G02*
X152593000Y-43655000I0J-51000D01*
G01*
G37*
G36*
G01*
X152593000Y-68855000D02*
X152593000Y-69855000D01*
G75*
G02*
X152542000Y-69906000I-51000J0D01*
G01*
X148742000Y-69906000D01*
G75*
G02*
X148691000Y-69855000I0J51000D01*
G01*
X148691000Y-68855000D01*
G75*
G02*
X148742000Y-68804000I51000J0D01*
G01*
X152542000Y-68804000D01*
G75*
G02*
X152593000Y-68855000I0J-51000D01*
G01*
G37*
G36*
G01*
X158593000Y-43655000D02*
X158593000Y-44655000D01*
G75*
G02*
X158542000Y-44706000I-51000J0D01*
G01*
X154742000Y-44706000D01*
G75*
G02*
X154691000Y-44655000I0J51000D01*
G01*
X154691000Y-43655000D01*
G75*
G02*
X154742000Y-43604000I51000J0D01*
G01*
X158542000Y-43604000D01*
G75*
G02*
X158593000Y-43655000I0J-51000D01*
G01*
G37*
G36*
G01*
X158593000Y-68855000D02*
X158593000Y-69855000D01*
G75*
G02*
X158542000Y-69906000I-51000J0D01*
G01*
X154742000Y-69906000D01*
G75*
G02*
X154691000Y-69855000I0J51000D01*
G01*
X154691000Y-68855000D01*
G75*
G02*
X154742000Y-68804000I51000J0D01*
G01*
X158542000Y-68804000D01*
G75*
G02*
X158593000Y-68855000I0J-51000D01*
G01*
G37*
G36*
G01*
X164593000Y-43655000D02*
X164593000Y-44655000D01*
G75*
G02*
X164542000Y-44706000I-51000J0D01*
G01*
X160742000Y-44706000D01*
G75*
G02*
X160691000Y-44655000I0J51000D01*
G01*
X160691000Y-43655000D01*
G75*
G02*
X160742000Y-43604000I51000J0D01*
G01*
X164542000Y-43604000D01*
G75*
G02*
X164593000Y-43655000I0J-51000D01*
G01*
G37*
G36*
G01*
X164593000Y-68855000D02*
X164593000Y-69855000D01*
G75*
G02*
X164542000Y-69906000I-51000J0D01*
G01*
X160742000Y-69906000D01*
G75*
G02*
X160691000Y-69855000I0J51000D01*
G01*
X160691000Y-68855000D01*
G75*
G02*
X160742000Y-68804000I51000J0D01*
G01*
X164542000Y-68804000D01*
G75*
G02*
X164593000Y-68855000I0J-51000D01*
G01*
G37*
G36*
G01*
X170593000Y-43655000D02*
X170593000Y-44655000D01*
G75*
G02*
X170542000Y-44706000I-51000J0D01*
G01*
X166742000Y-44706000D01*
G75*
G02*
X166691000Y-44655000I0J51000D01*
G01*
X166691000Y-43655000D01*
G75*
G02*
X166742000Y-43604000I51000J0D01*
G01*
X170542000Y-43604000D01*
G75*
G02*
X170593000Y-43655000I0J-51000D01*
G01*
G37*
G36*
G01*
X170593000Y-68855000D02*
X170593000Y-69855000D01*
G75*
G02*
X170542000Y-69906000I-51000J0D01*
G01*
X166742000Y-69906000D01*
G75*
G02*
X166691000Y-69855000I0J51000D01*
G01*
X166691000Y-68855000D01*
G75*
G02*
X166742000Y-68804000I51000J0D01*
G01*
X170542000Y-68804000D01*
G75*
G02*
X170593000Y-68855000I0J-51000D01*
G01*
G37*
G36*
G01*
X175143000Y-43655000D02*
X175143000Y-44655000D01*
G75*
G02*
X175092000Y-44706000I-51000J0D01*
G01*
X172752000Y-44706000D01*
G75*
G02*
X172701000Y-44655000I0J51000D01*
G01*
X172701000Y-43655000D01*
G75*
G02*
X172752000Y-43604000I51000J0D01*
G01*
X175092000Y-43604000D01*
G75*
G02*
X175143000Y-43655000I0J-51000D01*
G01*
G37*
G36*
G01*
X175143000Y-68855000D02*
X175143000Y-69855000D01*
G75*
G02*
X175092000Y-69906000I-51000J0D01*
G01*
X172752000Y-69906000D01*
G75*
G02*
X172701000Y-69855000I0J51000D01*
G01*
X172701000Y-68855000D01*
G75*
G02*
X172752000Y-68804000I51000J0D01*
G01*
X175092000Y-68804000D01*
G75*
G02*
X175143000Y-68855000I0J-51000D01*
G01*
G37*
G36*
G01*
X176143000Y-43655000D02*
X176143000Y-44655000D01*
G75*
G02*
X176092000Y-44706000I-51000J0D01*
G01*
X175092000Y-44706000D01*
G75*
G02*
X175041000Y-44655000I0J51000D01*
G01*
X175041000Y-43655000D01*
G75*
G02*
X175092000Y-43604000I51000J0D01*
G01*
X176092000Y-43604000D01*
G75*
G02*
X176143000Y-43655000I0J-51000D01*
G01*
G37*
G36*
G01*
X138243000Y-43655000D02*
X138243000Y-44655000D01*
G75*
G02*
X138192000Y-44706000I-51000J0D01*
G01*
X137192000Y-44706000D01*
G75*
G02*
X137141000Y-44655000I0J51000D01*
G01*
X137141000Y-43655000D01*
G75*
G02*
X137192000Y-43604000I51000J0D01*
G01*
X138192000Y-43604000D01*
G75*
G02*
X138243000Y-43655000I0J-51000D01*
G01*
G37*
G36*
G01*
X138243000Y-68855000D02*
X138243000Y-69855000D01*
G75*
G02*
X138192000Y-69906000I-51000J0D01*
G01*
X137192000Y-69906000D01*
G75*
G02*
X137141000Y-69855000I0J51000D01*
G01*
X137141000Y-68855000D01*
G75*
G02*
X137192000Y-68804000I51000J0D01*
G01*
X138192000Y-68804000D01*
G75*
G02*
X138243000Y-68855000I0J-51000D01*
G01*
G37*
G36*
G01*
X176143000Y-68855000D02*
X176143000Y-69855000D01*
G75*
G02*
X176092000Y-69906000I-51000J0D01*
G01*
X175092000Y-69906000D01*
G75*
G02*
X175041000Y-69855000I0J51000D01*
G01*
X175041000Y-68855000D01*
G75*
G02*
X175092000Y-68804000I51000J0D01*
G01*
X176092000Y-68804000D01*
G75*
G02*
X176143000Y-68855000I0J-51000D01*
G01*
G37*
D12*
X149653000Y-61231000D03*
G36*
G01*
X147132000Y-111454000D02*
X148832000Y-111454000D01*
G75*
G02*
X148883000Y-111505000I0J-51000D01*
G01*
X148883000Y-113205000D01*
G75*
G02*
X148832000Y-113256000I-51000J0D01*
G01*
X147132000Y-113256000D01*
G75*
G02*
X147081000Y-113205000I0J51000D01*
G01*
X147081000Y-111505000D01*
G75*
G02*
X147132000Y-111454000I51000J0D01*
G01*
G37*
D13*
X145442000Y-112355000D03*
X142902000Y-112355000D03*
X140362000Y-112355000D03*
X137822000Y-112355000D03*
X135282000Y-112355000D03*
X132742000Y-112355000D03*
X130202000Y-112355000D03*
D14*
X144342000Y-133945000D03*
X140842000Y-133945000D03*
X137342000Y-133945000D03*
X133842000Y-133995000D03*
G36*
G01*
X124116000Y-90380000D02*
X124116000Y-88730000D01*
G75*
G02*
X124167000Y-88679000I51000J0D01*
G01*
X125817000Y-88679000D01*
G75*
G02*
X125868000Y-88730000I0J-51000D01*
G01*
X125868000Y-90380000D01*
G75*
G02*
X125817000Y-90431000I-51000J0D01*
G01*
X124167000Y-90431000D01*
G75*
G02*
X124116000Y-90380000I0J51000D01*
G01*
G37*
D15*
X129992000Y-97955000D03*
X133092000Y-92755000D03*
X124992000Y-98855000D03*
D16*
X124992000Y-94355000D03*
X129992000Y-94355000D03*
D15*
X133092000Y-95955000D03*
D13*
X187782000Y-127295000D03*
X190322000Y-127295000D03*
X182702000Y-127295000D03*
X180162000Y-127295000D03*
X177622000Y-127295000D03*
X175082000Y-127295000D03*
X185242000Y-127295000D03*
G36*
G01*
X192012000Y-126394000D02*
X193712000Y-126394000D01*
G75*
G02*
X193763000Y-126445000I0J-51000D01*
G01*
X193763000Y-128145000D01*
G75*
G02*
X193712000Y-128196000I-51000J0D01*
G01*
X192012000Y-128196000D01*
G75*
G02*
X191961000Y-128145000I0J51000D01*
G01*
X191961000Y-126445000D01*
G75*
G02*
X192012000Y-126394000I51000J0D01*
G01*
G37*
G36*
G01*
X192012000Y-113694000D02*
X193712000Y-113694000D01*
G75*
G02*
X193763000Y-113745000I0J-51000D01*
G01*
X193763000Y-115445000D01*
G75*
G02*
X193712000Y-115496000I-51000J0D01*
G01*
X192012000Y-115496000D01*
G75*
G02*
X191961000Y-115445000I0J51000D01*
G01*
X191961000Y-113745000D01*
G75*
G02*
X192012000Y-113694000I51000J0D01*
G01*
G37*
X190322000Y-114595000D03*
X187782000Y-114595000D03*
X185242000Y-114595000D03*
X182702000Y-114595000D03*
X180162000Y-114595000D03*
X177622000Y-114595000D03*
X175082000Y-114595000D03*
G36*
G01*
X191124000Y-97438000D02*
X189600000Y-97438000D01*
G75*
G02*
X189549000Y-97387000I0J51000D01*
G01*
X189549000Y-95863000D01*
G75*
G02*
X189600000Y-95812000I51000J0D01*
G01*
X191124000Y-95812000D01*
G75*
G02*
X191175000Y-95863000I0J-51000D01*
G01*
X191175000Y-97387000D01*
G75*
G02*
X191124000Y-97438000I-51000J0D01*
G01*
G37*
D17*
X187822000Y-96625000D03*
X185282000Y-96625000D03*
X182742000Y-96625000D03*
G36*
G01*
X180964000Y-97438000D02*
X179440000Y-97438000D01*
G75*
G02*
X179389000Y-97387000I0J51000D01*
G01*
X179389000Y-95863000D01*
G75*
G02*
X179440000Y-95812000I51000J0D01*
G01*
X180964000Y-95812000D01*
G75*
G02*
X181015000Y-95863000I0J-51000D01*
G01*
X181015000Y-97387000D01*
G75*
G02*
X180964000Y-97438000I-51000J0D01*
G01*
G37*
X177662000Y-96625000D03*
X190362000Y-109325000D03*
X187822000Y-109325000D03*
X185282000Y-109325000D03*
X182742000Y-109325000D03*
X180202000Y-109325000D03*
X177662000Y-109325000D03*
D13*
X205092000Y-91455000D03*
X205092000Y-88915000D03*
X205092000Y-86375000D03*
X205092000Y-83835000D03*
X205092000Y-81295000D03*
X205092000Y-78755000D03*
X205092000Y-76215000D03*
X205092000Y-73675000D03*
X205092000Y-71135000D03*
X205092000Y-68595000D03*
X205092000Y-66055000D03*
X205092000Y-63515000D03*
X205092000Y-60975000D03*
X205092000Y-58435000D03*
X205092000Y-55895000D03*
G36*
G01*
X205993000Y-52505000D02*
X205993000Y-54205000D01*
G75*
G02*
X205942000Y-54256000I-51000J0D01*
G01*
X204242000Y-54256000D01*
G75*
G02*
X204191000Y-54205000I0J51000D01*
G01*
X204191000Y-52505000D01*
G75*
G02*
X204242000Y-52454000I51000J0D01*
G01*
X205942000Y-52454000D01*
G75*
G02*
X205993000Y-52505000I0J-51000D01*
G01*
G37*
G36*
G01*
X205993000Y-94505000D02*
X205993000Y-96205000D01*
G75*
G02*
X205942000Y-96256000I-51000J0D01*
G01*
X204242000Y-96256000D01*
G75*
G02*
X204191000Y-96205000I0J51000D01*
G01*
X204191000Y-94505000D01*
G75*
G02*
X204242000Y-94454000I51000J0D01*
G01*
X205942000Y-94454000D01*
G75*
G02*
X205993000Y-94505000I0J-51000D01*
G01*
G37*
X205092000Y-97895000D03*
X205092000Y-120635000D03*
X205092000Y-118095000D03*
X205092000Y-115555000D03*
X205092000Y-113015000D03*
X205092000Y-110475000D03*
X205092000Y-107935000D03*
X205092000Y-105395000D03*
G36*
G01*
X205993000Y-102005000D02*
X205993000Y-103705000D01*
G75*
G02*
X205942000Y-103756000I-51000J0D01*
G01*
X204242000Y-103756000D01*
G75*
G02*
X204191000Y-103705000I0J51000D01*
G01*
X204191000Y-102005000D01*
G75*
G02*
X204242000Y-101954000I51000J0D01*
G01*
X205942000Y-101954000D01*
G75*
G02*
X205993000Y-102005000I0J-51000D01*
G01*
G37*
D18*
X129512000Y-45775000D03*
X129512000Y-55935000D03*
D19*
X134592000Y-53395000D03*
X134592000Y-50855000D03*
D20*
X198592000Y-54105000D03*
X201092000Y-54105000D03*
X172592000Y-50855000D03*
X172592000Y-48355000D03*
X195842000Y-54105000D03*
X193342000Y-54105000D03*
X165592000Y-131355000D03*
X165592000Y-133855000D03*
X144592000Y-56855000D03*
X144592000Y-59355000D03*
X164592000Y-53855000D03*
X162092000Y-53855000D03*
X162592000Y-49855000D03*
X162592000Y-47355000D03*
D21*
X179962000Y-63105000D03*
G36*
G01*
X171191000Y-64205000D02*
X171191000Y-62005000D01*
G75*
G02*
X171242000Y-61954000I51000J0D01*
G01*
X173442000Y-61954000D01*
G75*
G02*
X173493000Y-62005000I0J-51000D01*
G01*
X173493000Y-64205000D01*
G75*
G02*
X173442000Y-64256000I-51000J0D01*
G01*
X171242000Y-64256000D01*
G75*
G02*
X171191000Y-64205000I0J51000D01*
G01*
G37*
X172342000Y-67105000D03*
G36*
G01*
X181113000Y-66005000D02*
X181113000Y-68205000D01*
G75*
G02*
X181062000Y-68256000I-51000J0D01*
G01*
X178862000Y-68256000D01*
G75*
G02*
X178811000Y-68205000I0J51000D01*
G01*
X178811000Y-66005000D01*
G75*
G02*
X178862000Y-65954000I51000J0D01*
G01*
X181062000Y-65954000D01*
G75*
G02*
X181113000Y-66005000I0J-51000D01*
G01*
G37*
D12*
X198653000Y-61231000D03*
X198653000Y-119289000D03*
X149625000Y-119289000D03*
X126592000Y-76355000D03*
X126592000Y-138355000D03*
D13*
X199915000Y-114610000D03*
X197375000Y-114610000D03*
X199915000Y-112070000D03*
X197375000Y-112070000D03*
X199915000Y-109530000D03*
X197375000Y-109530000D03*
X199915000Y-106990000D03*
X197375000Y-106990000D03*
X199915000Y-104450000D03*
X197375000Y-104450000D03*
X199915000Y-101910000D03*
X197375000Y-101910000D03*
X199915000Y-99370000D03*
X197375000Y-99370000D03*
X199915000Y-96830000D03*
X197375000Y-96830000D03*
X199915000Y-94290000D03*
X197375000Y-94290000D03*
X199915000Y-91750000D03*
X197375000Y-91750000D03*
X199915000Y-89210000D03*
X197375000Y-89210000D03*
X199915000Y-86670000D03*
X197375000Y-86670000D03*
X199915000Y-84130000D03*
X197375000Y-84130000D03*
X199915000Y-81590000D03*
X197375000Y-81590000D03*
X199915000Y-79050000D03*
X197375000Y-79050000D03*
X199915000Y-76510000D03*
X197375000Y-76510000D03*
X199915000Y-73970000D03*
X197375000Y-73970000D03*
X199915000Y-71430000D03*
X197375000Y-71430000D03*
X199915000Y-68890000D03*
X197375000Y-68890000D03*
X199915000Y-66350000D03*
G36*
G01*
X198276000Y-65500000D02*
X198276000Y-67200000D01*
G75*
G02*
X198225000Y-67251000I-51000J0D01*
G01*
X196525000Y-67251000D01*
G75*
G02*
X196474000Y-67200000I0J51000D01*
G01*
X196474000Y-65500000D01*
G75*
G02*
X196525000Y-65449000I51000J0D01*
G01*
X198225000Y-65449000D01*
G75*
G02*
X198276000Y-65500000I0J-51000D01*
G01*
G37*
D12*
X191582000Y-134855000D03*
G36*
G01*
X174791000Y-136355000D02*
X174791000Y-133355000D01*
G75*
G02*
X174842000Y-133304000I51000J0D01*
G01*
X177842000Y-133304000D01*
G75*
G02*
X177893000Y-133355000I0J-51000D01*
G01*
X177893000Y-136355000D01*
G75*
G02*
X177842000Y-136406000I-51000J0D01*
G01*
X174842000Y-136406000D01*
G75*
G02*
X174791000Y-136355000I0J51000D01*
G01*
G37*
X186502000Y-134855000D03*
X181422000Y-134855000D03*
G36*
G01*
X124116000Y-118880000D02*
X124116000Y-117230000D01*
G75*
G02*
X124167000Y-117179000I51000J0D01*
G01*
X125817000Y-117179000D01*
G75*
G02*
X125868000Y-117230000I0J-51000D01*
G01*
X125868000Y-118880000D01*
G75*
G02*
X125817000Y-118931000I-51000J0D01*
G01*
X124167000Y-118931000D01*
G75*
G02*
X124116000Y-118880000I0J51000D01*
G01*
G37*
D15*
X129992000Y-126455000D03*
X133092000Y-121255000D03*
X124992000Y-127355000D03*
D16*
X124992000Y-122855000D03*
X129992000Y-122855000D03*
D15*
X133092000Y-124455000D03*
D12*
X190932000Y-45355000D03*
X196012000Y-45355000D03*
G36*
G01*
X202643000Y-43855000D02*
X202643000Y-46855000D01*
G75*
G02*
X202592000Y-46906000I-51000J0D01*
G01*
X199592000Y-46906000D01*
G75*
G02*
X199541000Y-46855000I0J51000D01*
G01*
X199541000Y-43855000D01*
G75*
G02*
X199592000Y-43804000I51000J0D01*
G01*
X202592000Y-43804000D01*
G75*
G02*
X202643000Y-43855000I0J-51000D01*
G01*
G37*
X202592000Y-133275000D03*
G36*
G01*
X204092000Y-139906000D02*
X201092000Y-139906000D01*
G75*
G02*
X201041000Y-139855000I0J51000D01*
G01*
X201041000Y-136855000D01*
G75*
G02*
X201092000Y-136804000I51000J0D01*
G01*
X204092000Y-136804000D01*
G75*
G02*
X204143000Y-136855000I0J-51000D01*
G01*
X204143000Y-139855000D01*
G75*
G02*
X204092000Y-139906000I-51000J0D01*
G01*
G37*
D11*
X141092000Y-58735000D03*
D20*
X141092000Y-66355000D03*
D11*
X152212000Y-66355000D03*
D20*
X144592000Y-66355000D03*
D11*
X151972000Y-54355000D03*
D20*
X159592000Y-54355000D03*
D11*
X159592000Y-50855000D03*
D20*
X151972000Y-50855000D03*
D11*
X151972000Y-47355000D03*
D20*
X159592000Y-47355000D03*
D11*
X168092000Y-55975000D03*
D20*
X168092000Y-48355000D03*
D22*
X186842000Y-62355000D03*
X189342000Y-67355000D03*
X191842000Y-62355000D03*
D13*
X152732000Y-73355000D03*
X155272000Y-73355000D03*
X157812000Y-73355000D03*
X160352000Y-73355000D03*
X162892000Y-73355000D03*
X165432000Y-73355000D03*
X167972000Y-73355000D03*
X170512000Y-73355000D03*
X173052000Y-73355000D03*
G36*
G01*
X174742000Y-72454000D02*
X176442000Y-72454000D01*
G75*
G02*
X176493000Y-72505000I0J-51000D01*
G01*
X176493000Y-74205000D01*
G75*
G02*
X176442000Y-74256000I-51000J0D01*
G01*
X174742000Y-74256000D01*
G75*
G02*
X174691000Y-74205000I0J51000D01*
G01*
X174691000Y-72505000D01*
G75*
G02*
X174742000Y-72454000I51000J0D01*
G01*
G37*
G36*
G01*
X147132000Y-82954000D02*
X148832000Y-82954000D01*
G75*
G02*
X148883000Y-83005000I0J-51000D01*
G01*
X148883000Y-84705000D01*
G75*
G02*
X148832000Y-84756000I-51000J0D01*
G01*
X147132000Y-84756000D01*
G75*
G02*
X147081000Y-84705000I0J51000D01*
G01*
X147081000Y-83005000D01*
G75*
G02*
X147132000Y-82954000I51000J0D01*
G01*
G37*
X145442000Y-83855000D03*
X142902000Y-83855000D03*
X140362000Y-83855000D03*
X137822000Y-83855000D03*
X135282000Y-83855000D03*
X132742000Y-83855000D03*
X130202000Y-83855000D03*
D14*
X144342000Y-105445000D03*
X140842000Y-105445000D03*
X137342000Y-105445000D03*
X133842000Y-105495000D03*
G36*
G01*
X167342000Y-58779000D02*
X168842000Y-58779000D01*
G75*
G02*
X168893000Y-58830000I0J-51000D01*
G01*
X168893000Y-59880000D01*
G75*
G02*
X168842000Y-59931000I-51000J0D01*
G01*
X167342000Y-59931000D01*
G75*
G02*
X167291000Y-59880000I0J51000D01*
G01*
X167291000Y-58830000D01*
G75*
G02*
X167342000Y-58779000I51000J0D01*
G01*
G37*
D23*
X168092000Y-61895000D03*
X168092000Y-60625000D03*
D11*
X148592000Y-54475000D03*
X140972000Y-46855000D03*
X146052000Y-54475000D03*
X143512000Y-46855000D03*
X143512000Y-54475000D03*
X146052000Y-46855000D03*
X140972000Y-54475000D03*
G36*
G01*
X147792000Y-46004000D02*
X149392000Y-46004000D01*
G75*
G02*
X149443000Y-46055000I0J-51000D01*
G01*
X149443000Y-47655000D01*
G75*
G02*
X149392000Y-47706000I-51000J0D01*
G01*
X147792000Y-47706000D01*
G75*
G02*
X147741000Y-47655000I0J51000D01*
G01*
X147741000Y-46055000D01*
G75*
G02*
X147792000Y-46004000I51000J0D01*
G01*
G37*
X163212000Y-58855000D03*
X155592000Y-66475000D03*
X163212000Y-61395000D03*
X155592000Y-63935000D03*
X163212000Y-63935000D03*
X155592000Y-61395000D03*
X163212000Y-66475000D03*
G36*
G01*
X154741000Y-59655000D02*
X154741000Y-58055000D01*
G75*
G02*
X154792000Y-58004000I51000J0D01*
G01*
X156392000Y-58004000D01*
G75*
G02*
X156443000Y-58055000I0J-51000D01*
G01*
X156443000Y-59655000D01*
G75*
G02*
X156392000Y-59706000I-51000J0D01*
G01*
X154792000Y-59706000D01*
G75*
G02*
X154741000Y-59655000I0J51000D01*
G01*
G37*
D20*
X179842000Y-45605000D03*
X184842000Y-45605000D03*
X185942000Y-50855000D03*
X185942000Y-55855000D03*
D24*
G36*
X167640067Y-61151409D02*
G01*
X167647343Y-61155298D01*
X167755023Y-61187962D01*
X167867094Y-61199000D01*
X168316906Y-61199000D01*
X168428977Y-61187962D01*
X168536657Y-61155298D01*
X168543933Y-61151409D01*
X168545932Y-61151475D01*
X168546875Y-61153238D01*
X168545987Y-61154836D01*
X168530882Y-61164929D01*
X168513835Y-61181976D01*
X168500440Y-61202024D01*
X168491214Y-61224298D01*
X168486510Y-61247948D01*
X168486510Y-61272054D01*
X168491215Y-61295704D01*
X168500441Y-61317978D01*
X168513836Y-61338025D01*
X168530883Y-61355072D01*
X168545987Y-61365164D01*
X168546872Y-61366958D01*
X168545761Y-61368621D01*
X168543933Y-61368591D01*
X168536657Y-61364702D01*
X168428977Y-61332038D01*
X168316906Y-61321000D01*
X167867094Y-61321000D01*
X167755023Y-61332038D01*
X167647343Y-61364702D01*
X167640067Y-61368591D01*
X167638068Y-61368525D01*
X167637125Y-61366762D01*
X167638013Y-61365164D01*
X167653118Y-61355071D01*
X167670165Y-61338024D01*
X167683560Y-61317976D01*
X167692786Y-61295702D01*
X167697490Y-61272052D01*
X167697490Y-61247946D01*
X167692785Y-61224296D01*
X167683559Y-61202022D01*
X167670164Y-61181975D01*
X167653117Y-61164928D01*
X167638013Y-61154836D01*
X167637128Y-61153042D01*
X167638239Y-61151379D01*
X167640067Y-61151409D01*
G37*
G36*
X168725072Y-59930000D02*
G01*
X168725072Y-59932000D01*
X168723536Y-59932990D01*
X168699349Y-59935372D01*
X168676274Y-59942372D01*
X168655010Y-59953737D01*
X168636373Y-59969032D01*
X168621078Y-59987669D01*
X168609713Y-60008933D01*
X168602713Y-60032008D01*
X168600350Y-60055999D01*
X168602713Y-60079990D01*
X168609713Y-60103065D01*
X168621078Y-60124329D01*
X168636405Y-60143005D01*
X168637877Y-60144339D01*
X168638489Y-60146243D01*
X168637146Y-60147725D01*
X168635591Y-60147585D01*
X168536657Y-60094702D01*
X168428977Y-60062038D01*
X168316906Y-60051000D01*
X167867094Y-60051000D01*
X167755023Y-60062038D01*
X167647343Y-60094702D01*
X167548108Y-60147745D01*
X167545568Y-60149830D01*
X167543594Y-60150156D01*
X167542326Y-60148610D01*
X167542885Y-60146870D01*
X167555731Y-60134024D01*
X167569126Y-60113976D01*
X167578353Y-60091703D01*
X167583057Y-60068052D01*
X167583057Y-60043946D01*
X167578353Y-60020296D01*
X167569126Y-59998022D01*
X167555732Y-59977975D01*
X167538685Y-59960928D01*
X167518637Y-59947533D01*
X167496364Y-59938306D01*
X167472667Y-59933593D01*
X167460562Y-59932998D01*
X167458881Y-59931914D01*
X167458979Y-59929916D01*
X167460660Y-59929000D01*
X168723340Y-59929000D01*
X168725072Y-59930000D01*
G37*
M02*
