%FSLAX45Y45*%
G04 Gerber Fmt 4.5, Leading zero omitted, Abs format (unit mm)*
G04 Created by KiCad (PCBNEW (5.1.9)-1) date 2021-06-09 22:03:52*
%MOMM*%
%LPD*%
G01*
G04 APERTURE LIST*
%TA.AperFunction,Profile*%
%ADD10C,0.050000*%
%TD*%
%ADD11C,0.200000*%
%ADD12C,0.300000*%
G04 APERTURE END LIST*
D10*
X12159200Y-4235500D02*
X20659200Y-4235500D01*
X12159200Y-14235500D02*
X12159200Y-4235500D01*
X20659200Y-14235500D02*
X12159200Y-14235500D01*
X20659200Y-4235500D02*
X20659200Y-14235500D01*
D11*
X13039200Y-10415500D02*
X13079200Y-10455500D01*
X13079200Y-10415500D02*
X13039200Y-10455500D01*
X13139200Y-9615500D02*
X13179200Y-9655500D01*
X13179200Y-9615500D02*
X13139200Y-9655500D01*
X13239200Y-8615500D02*
X13279200Y-8655500D01*
X13279200Y-8615500D02*
X13239200Y-8655500D01*
X13639200Y-10815500D02*
X13679200Y-10855500D01*
X13679200Y-10815500D02*
X13639200Y-10855500D01*
X13739200Y-8715500D02*
X13779200Y-8755500D01*
X13779200Y-8715500D02*
X13739200Y-8755500D01*
X13739200Y-9815500D02*
X13779200Y-9855500D01*
X13779200Y-9815500D02*
X13739200Y-9855500D01*
X14039200Y-8815500D02*
X14079200Y-8855500D01*
X14079200Y-8815500D02*
X14039200Y-8855500D01*
X14039200Y-10815500D02*
X14079200Y-10855500D01*
X14079200Y-10815500D02*
X14039200Y-10855500D01*
X14339200Y-10015500D02*
X14379200Y-10055500D01*
X14379200Y-10015500D02*
X14339200Y-10055500D01*
X15139200Y-10815500D02*
X15179200Y-10855500D01*
X15179200Y-10815500D02*
X15139200Y-10855500D01*
X15289200Y-6115500D02*
X15329200Y-6155500D01*
X15329200Y-6115500D02*
X15289200Y-6155500D01*
X15889200Y-6315500D02*
X15929200Y-6355500D01*
X15929200Y-6315500D02*
X15889200Y-6355500D01*
X15939200Y-6515500D02*
X15979200Y-6555500D01*
X15979200Y-6515500D02*
X15939200Y-6555500D01*
X16139200Y-10715500D02*
X16179200Y-10755500D01*
X16179200Y-10715500D02*
X16139200Y-10755500D01*
X16539200Y-9815500D02*
X16579200Y-9855500D01*
X16579200Y-9815500D02*
X16539200Y-9855500D01*
X16639200Y-11215500D02*
X16679200Y-11255500D01*
X16679200Y-11215500D02*
X16639200Y-11255500D01*
X16639200Y-11715500D02*
X16679200Y-11755500D01*
X16679200Y-11715500D02*
X16639200Y-11755500D01*
X17039200Y-9015500D02*
X17079200Y-9055500D01*
X17079200Y-9015500D02*
X17039200Y-9055500D01*
X17139200Y-6615500D02*
X17179200Y-6655500D01*
X17179200Y-6615500D02*
X17139200Y-6655500D01*
X17139200Y-8415500D02*
X17179200Y-8455500D01*
X17179200Y-8415500D02*
X17139200Y-8455500D01*
X17707700Y-8647000D02*
X17747700Y-8687000D01*
X17747700Y-8647000D02*
X17707700Y-8687000D01*
X18439200Y-7275500D02*
X18479200Y-7315500D01*
X18479200Y-7275500D02*
X18439200Y-7315500D01*
X18864200Y-5190500D02*
X18904200Y-5230500D01*
X18904200Y-5190500D02*
X18864200Y-5230500D01*
X19079200Y-7135500D02*
X19119200Y-7175500D01*
X19119200Y-7135500D02*
X19079200Y-7175500D01*
X19239200Y-10815500D02*
X19279200Y-10855500D01*
X19279200Y-10815500D02*
X19239200Y-10855500D01*
X19339200Y-7615500D02*
X19379200Y-7655500D01*
X19379200Y-7615500D02*
X19339200Y-7655500D01*
X19339200Y-9315500D02*
X19379200Y-9355500D01*
X19379200Y-9315500D02*
X19339200Y-9355500D01*
X19339200Y-9615500D02*
X19379200Y-9655500D01*
X19379200Y-9615500D02*
X19339200Y-9655500D01*
X19470700Y-8647000D02*
X19510700Y-8687000D01*
X19510700Y-8647000D02*
X19470700Y-8687000D01*
X19489200Y-7215500D02*
X19529200Y-7255500D01*
X19529200Y-7215500D02*
X19489200Y-7255500D01*
X19556200Y-10615500D02*
X19596200Y-10655500D01*
X19596200Y-10615500D02*
X19556200Y-10655500D01*
X19589200Y-7015500D02*
X19629200Y-7055500D01*
X19629200Y-7015500D02*
X19589200Y-7055500D01*
X19822885Y-7249185D02*
X19862885Y-7289185D01*
X19862885Y-7249185D02*
X19822885Y-7289185D01*
X20139200Y-8015500D02*
X20179200Y-8055500D01*
X20179200Y-8015500D02*
X20139200Y-8055500D01*
X20189200Y-10165500D02*
X20229200Y-10205500D01*
X20229200Y-10165500D02*
X20189200Y-10205500D01*
X20239200Y-6915500D02*
X20279200Y-6955500D01*
X20279200Y-6915500D02*
X20239200Y-6955500D01*
X20239200Y-7515500D02*
X20279200Y-7555500D01*
X20279200Y-7515500D02*
X20239200Y-7555500D01*
X20239200Y-9615500D02*
X20279200Y-9655500D01*
X20279200Y-9615500D02*
X20239200Y-9655500D01*
X20289200Y-10465500D02*
X20329200Y-10505500D01*
X20329200Y-10465500D02*
X20289200Y-10505500D01*
X20339200Y-9915500D02*
X20379200Y-9955500D01*
X20379200Y-9915500D02*
X20339200Y-9955500D01*
X16846700Y-5935500D02*
G75*
G03*
X16846700Y-5935500I-37500J0D01*
G01*
X16846700Y-6062500D02*
G75*
G03*
X16846700Y-6062500I-37500J0D01*
G01*
X16846700Y-6189500D02*
G75*
G03*
X16846700Y-6189500I-37500J0D01*
G01*
X14097200Y-4645500D02*
X14097200Y-4725500D01*
X14057200Y-4685500D02*
X14137200Y-4685500D01*
X14097200Y-5407500D02*
X14097200Y-5487500D01*
X14057200Y-5447500D02*
X14137200Y-5447500D01*
X14109200Y-5833500D02*
X14109200Y-5913500D01*
X14069200Y-5873500D02*
X14149200Y-5873500D01*
X14109200Y-6595500D02*
X14109200Y-6675500D01*
X14069200Y-6635500D02*
X14149200Y-6635500D01*
X14351200Y-4645500D02*
X14351200Y-4725500D01*
X14311200Y-4685500D02*
X14391200Y-4685500D01*
X14351200Y-5407500D02*
X14351200Y-5487500D01*
X14311200Y-5447500D02*
X14391200Y-5447500D01*
X14459200Y-5645500D02*
X14459200Y-5725500D01*
X14419200Y-5685500D02*
X14499200Y-5685500D01*
X14459200Y-5895500D02*
X14459200Y-5975500D01*
X14419200Y-5935500D02*
X14499200Y-5935500D01*
X14459200Y-6595500D02*
X14459200Y-6675500D01*
X14419200Y-6635500D02*
X14499200Y-6635500D01*
X14605200Y-4645500D02*
X14605200Y-4725500D01*
X14565200Y-4685500D02*
X14645200Y-4685500D01*
X14605200Y-5407500D02*
X14605200Y-5487500D01*
X14565200Y-5447500D02*
X14645200Y-5447500D01*
X14859200Y-4645500D02*
X14859200Y-4725500D01*
X14819200Y-4685500D02*
X14899200Y-4685500D01*
X14859200Y-5407500D02*
X14859200Y-5487500D01*
X14819200Y-5447500D02*
X14899200Y-5447500D01*
X15197200Y-4695500D02*
X15197200Y-4775500D01*
X15157200Y-4735500D02*
X15237200Y-4735500D01*
X15197200Y-5045500D02*
X15197200Y-5125500D01*
X15157200Y-5085500D02*
X15237200Y-5085500D01*
X15197200Y-5395500D02*
X15197200Y-5475500D01*
X15157200Y-5435500D02*
X15237200Y-5435500D01*
X15221200Y-6595500D02*
X15221200Y-6675500D01*
X15181200Y-6635500D02*
X15261200Y-6635500D01*
X15559200Y-5845500D02*
X15559200Y-5925500D01*
X15519200Y-5885500D02*
X15599200Y-5885500D01*
X15559200Y-6099500D02*
X15559200Y-6179500D01*
X15519200Y-6139500D02*
X15599200Y-6139500D01*
X15559200Y-6353500D02*
X15559200Y-6433500D01*
X15519200Y-6393500D02*
X15599200Y-6393500D01*
X15559200Y-6607500D02*
X15559200Y-6687500D01*
X15519200Y-6647500D02*
X15599200Y-6647500D01*
X15959200Y-4695500D02*
X15959200Y-4775500D01*
X15919200Y-4735500D02*
X15999200Y-4735500D01*
X15959200Y-5045500D02*
X15959200Y-5125500D01*
X15919200Y-5085500D02*
X15999200Y-5085500D01*
X15959200Y-5395500D02*
X15959200Y-5475500D01*
X15919200Y-5435500D02*
X15999200Y-5435500D01*
X16209200Y-5345500D02*
X16209200Y-5425500D01*
X16169200Y-5385500D02*
X16249200Y-5385500D01*
X16259200Y-4695500D02*
X16259200Y-4775500D01*
X16219200Y-4735500D02*
X16299200Y-4735500D01*
X16259200Y-4945500D02*
X16259200Y-5025500D01*
X16219200Y-4985500D02*
X16299200Y-4985500D01*
X16321200Y-5845500D02*
X16321200Y-5925500D01*
X16281200Y-5885500D02*
X16361200Y-5885500D01*
X16321200Y-6099500D02*
X16321200Y-6179500D01*
X16281200Y-6139500D02*
X16361200Y-6139500D01*
X16321200Y-6353500D02*
X16321200Y-6433500D01*
X16281200Y-6393500D02*
X16361200Y-6393500D01*
X16321200Y-6607500D02*
X16321200Y-6687500D01*
X16281200Y-6647500D02*
X16361200Y-6647500D01*
X16459200Y-5345500D02*
X16459200Y-5425500D01*
X16419200Y-5385500D02*
X16499200Y-5385500D01*
X16559200Y-13095500D02*
X16559200Y-13175500D01*
X16519200Y-13135500D02*
X16599200Y-13135500D01*
X16559200Y-13345500D02*
X16559200Y-13425500D01*
X16519200Y-13385500D02*
X16599200Y-13385500D01*
X16809200Y-4795500D02*
X16809200Y-4875500D01*
X16769200Y-4835500D02*
X16849200Y-4835500D01*
X16809200Y-5557500D02*
X16809200Y-5637500D01*
X16769200Y-5597500D02*
X16849200Y-5597500D01*
X17259200Y-4795500D02*
X17259200Y-4875500D01*
X17219200Y-4835500D02*
X17299200Y-4835500D01*
X17259200Y-5045500D02*
X17259200Y-5125500D01*
X17219200Y-5085500D02*
X17299200Y-5085500D01*
X17984200Y-4520500D02*
X17984200Y-4600500D01*
X17944200Y-4560500D02*
X18024200Y-4560500D01*
X18484200Y-4520500D02*
X18484200Y-4600500D01*
X18444200Y-4560500D02*
X18524200Y-4560500D01*
X18594200Y-5045500D02*
X18594200Y-5125500D01*
X18554200Y-5085500D02*
X18634200Y-5085500D01*
X18594200Y-5545500D02*
X18594200Y-5625500D01*
X18554200Y-5585500D02*
X18634200Y-5585500D01*
X19334200Y-5370500D02*
X19334200Y-5450500D01*
X19294200Y-5410500D02*
X19374200Y-5410500D01*
X19584200Y-5370500D02*
X19584200Y-5450500D01*
X19544200Y-5410500D02*
X19624200Y-5410500D01*
X19859200Y-5370500D02*
X19859200Y-5450500D01*
X19819200Y-5410500D02*
X19899200Y-5410500D01*
X20109200Y-5370500D02*
X20109200Y-5450500D01*
X20069200Y-5410500D02*
X20149200Y-5410500D01*
X13490631Y-5116931D02*
X13490631Y-5054069D01*
X13427769Y-5054069D01*
X13427769Y-5116931D01*
X13490631Y-5116931D01*
X13490631Y-5370931D02*
X13490631Y-5308069D01*
X13427769Y-5308069D01*
X13427769Y-5370931D01*
X13490631Y-5370931D01*
X18684200Y-6280500D02*
X18729200Y-6235500D01*
X18684200Y-6190500D01*
X18639200Y-6235500D01*
X18684200Y-6280500D01*
X18934200Y-6780500D02*
X18979200Y-6735500D01*
X18934200Y-6690500D01*
X18889200Y-6735500D01*
X18934200Y-6780500D01*
X19184200Y-6280500D02*
X19229200Y-6235500D01*
X19184200Y-6190500D01*
X19139200Y-6235500D01*
X19184200Y-6280500D01*
X12970200Y-8335500D02*
X13070200Y-8435500D01*
X13070200Y-8335500D02*
X12970200Y-8435500D01*
X13070200Y-8385500D02*
G75*
G03*
X13070200Y-8385500I-50000J0D01*
G01*
X12970200Y-11185500D02*
X13070200Y-11285500D01*
X13070200Y-11185500D02*
X12970200Y-11285500D01*
X13070200Y-11235500D02*
G75*
G03*
X13070200Y-11235500I-50000J0D01*
G01*
X13224200Y-8335500D02*
X13324200Y-8435500D01*
X13324200Y-8335500D02*
X13224200Y-8435500D01*
X13324200Y-8385500D02*
G75*
G03*
X13324200Y-8385500I-50000J0D01*
G01*
X13224200Y-11185500D02*
X13324200Y-11285500D01*
X13324200Y-11185500D02*
X13224200Y-11285500D01*
X13324200Y-11235500D02*
G75*
G03*
X13324200Y-11235500I-50000J0D01*
G01*
X13478200Y-8335500D02*
X13578200Y-8435500D01*
X13578200Y-8335500D02*
X13478200Y-8435500D01*
X13578200Y-8385500D02*
G75*
G03*
X13578200Y-8385500I-50000J0D01*
G01*
X13478200Y-11185500D02*
X13578200Y-11285500D01*
X13578200Y-11185500D02*
X13478200Y-11285500D01*
X13578200Y-11235500D02*
G75*
G03*
X13578200Y-11235500I-50000J0D01*
G01*
X13732200Y-8335500D02*
X13832200Y-8435500D01*
X13832200Y-8335500D02*
X13732200Y-8435500D01*
X13832200Y-8385500D02*
G75*
G03*
X13832200Y-8385500I-50000J0D01*
G01*
X13732200Y-11185500D02*
X13832200Y-11285500D01*
X13832200Y-11185500D02*
X13732200Y-11285500D01*
X13832200Y-11235500D02*
G75*
G03*
X13832200Y-11235500I-50000J0D01*
G01*
X13986200Y-8335500D02*
X14086200Y-8435500D01*
X14086200Y-8335500D02*
X13986200Y-8435500D01*
X14086200Y-8385500D02*
G75*
G03*
X14086200Y-8385500I-50000J0D01*
G01*
X13986200Y-11185500D02*
X14086200Y-11285500D01*
X14086200Y-11185500D02*
X13986200Y-11285500D01*
X14086200Y-11235500D02*
G75*
G03*
X14086200Y-11235500I-50000J0D01*
G01*
X14240200Y-8335500D02*
X14340200Y-8435500D01*
X14340200Y-8335500D02*
X14240200Y-8435500D01*
X14340200Y-8385500D02*
G75*
G03*
X14340200Y-8385500I-50000J0D01*
G01*
X14240200Y-11185500D02*
X14340200Y-11285500D01*
X14340200Y-11185500D02*
X14240200Y-11285500D01*
X14340200Y-11235500D02*
G75*
G03*
X14340200Y-11235500I-50000J0D01*
G01*
X14494200Y-8335500D02*
X14594200Y-8435500D01*
X14594200Y-8335500D02*
X14494200Y-8435500D01*
X14594200Y-8385500D02*
G75*
G03*
X14594200Y-8385500I-50000J0D01*
G01*
X14494200Y-11185500D02*
X14594200Y-11285500D01*
X14594200Y-11185500D02*
X14494200Y-11285500D01*
X14594200Y-11235500D02*
G75*
G03*
X14594200Y-11235500I-50000J0D01*
G01*
X14748200Y-8335500D02*
X14848200Y-8435500D01*
X14848200Y-8335500D02*
X14748200Y-8435500D01*
X14848200Y-8385500D02*
G75*
G03*
X14848200Y-8385500I-50000J0D01*
G01*
X14748200Y-11185500D02*
X14848200Y-11285500D01*
X14848200Y-11185500D02*
X14748200Y-11285500D01*
X14848200Y-11235500D02*
G75*
G03*
X14848200Y-11235500I-50000J0D01*
G01*
X15223200Y-7285500D02*
X15323200Y-7385500D01*
X15323200Y-7285500D02*
X15223200Y-7385500D01*
X15323200Y-7335500D02*
G75*
G03*
X15323200Y-7335500I-50000J0D01*
G01*
X15459200Y-10185500D02*
X15559200Y-10285500D01*
X15559200Y-10185500D02*
X15459200Y-10285500D01*
X15559200Y-10235500D02*
G75*
G03*
X15559200Y-10235500I-50000J0D01*
G01*
X15459200Y-10439500D02*
X15559200Y-10539500D01*
X15559200Y-10439500D02*
X15459200Y-10539500D01*
X15559200Y-10489500D02*
G75*
G03*
X15559200Y-10489500I-50000J0D01*
G01*
X15459200Y-10693500D02*
X15559200Y-10793500D01*
X15559200Y-10693500D02*
X15459200Y-10793500D01*
X15559200Y-10743500D02*
G75*
G03*
X15559200Y-10743500I-50000J0D01*
G01*
X15459200Y-10947500D02*
X15559200Y-11047500D01*
X15559200Y-10947500D02*
X15459200Y-11047500D01*
X15559200Y-10997500D02*
G75*
G03*
X15559200Y-10997500I-50000J0D01*
G01*
X15459200Y-11201500D02*
X15559200Y-11301500D01*
X15559200Y-11201500D02*
X15459200Y-11301500D01*
X15559200Y-11251500D02*
G75*
G03*
X15559200Y-11251500I-50000J0D01*
G01*
X15459200Y-11455500D02*
X15559200Y-11555500D01*
X15559200Y-11455500D02*
X15459200Y-11555500D01*
X15559200Y-11505500D02*
G75*
G03*
X15559200Y-11505500I-50000J0D01*
G01*
X15459200Y-11709500D02*
X15559200Y-11809500D01*
X15559200Y-11709500D02*
X15459200Y-11809500D01*
X15559200Y-11759500D02*
G75*
G03*
X15559200Y-11759500I-50000J0D01*
G01*
X15459200Y-11963500D02*
X15559200Y-12063500D01*
X15559200Y-11963500D02*
X15459200Y-12063500D01*
X15559200Y-12013500D02*
G75*
G03*
X15559200Y-12013500I-50000J0D01*
G01*
X15459200Y-12217500D02*
X15559200Y-12317500D01*
X15559200Y-12217500D02*
X15459200Y-12317500D01*
X15559200Y-12267500D02*
G75*
G03*
X15559200Y-12267500I-50000J0D01*
G01*
X15459200Y-12471500D02*
X15559200Y-12571500D01*
X15559200Y-12471500D02*
X15459200Y-12571500D01*
X15559200Y-12521500D02*
G75*
G03*
X15559200Y-12521500I-50000J0D01*
G01*
X15459200Y-12725500D02*
X15559200Y-12825500D01*
X15559200Y-12725500D02*
X15459200Y-12825500D01*
X15559200Y-12775500D02*
G75*
G03*
X15559200Y-12775500I-50000J0D01*
G01*
X15459200Y-12979500D02*
X15559200Y-13079500D01*
X15559200Y-12979500D02*
X15459200Y-13079500D01*
X15559200Y-13029500D02*
G75*
G03*
X15559200Y-13029500I-50000J0D01*
G01*
X15459200Y-13233500D02*
X15559200Y-13333500D01*
X15559200Y-13233500D02*
X15459200Y-13333500D01*
X15559200Y-13283500D02*
G75*
G03*
X15559200Y-13283500I-50000J0D01*
G01*
X15459200Y-13487500D02*
X15559200Y-13587500D01*
X15559200Y-13487500D02*
X15459200Y-13587500D01*
X15559200Y-13537500D02*
G75*
G03*
X15559200Y-13537500I-50000J0D01*
G01*
X15459200Y-13741500D02*
X15559200Y-13841500D01*
X15559200Y-13741500D02*
X15459200Y-13841500D01*
X15559200Y-13791500D02*
G75*
G03*
X15559200Y-13791500I-50000J0D01*
G01*
X15477200Y-7285500D02*
X15577200Y-7385500D01*
X15577200Y-7285500D02*
X15477200Y-7385500D01*
X15577200Y-7335500D02*
G75*
G03*
X15577200Y-7335500I-50000J0D01*
G01*
X15731200Y-7285500D02*
X15831200Y-7385500D01*
X15831200Y-7285500D02*
X15731200Y-7385500D01*
X15831200Y-7335500D02*
G75*
G03*
X15831200Y-7335500I-50000J0D01*
G01*
X15985200Y-7285500D02*
X16085200Y-7385500D01*
X16085200Y-7285500D02*
X15985200Y-7385500D01*
X16085200Y-7335500D02*
G75*
G03*
X16085200Y-7335500I-50000J0D01*
G01*
X16239200Y-7285500D02*
X16339200Y-7385500D01*
X16339200Y-7285500D02*
X16239200Y-7385500D01*
X16339200Y-7335500D02*
G75*
G03*
X16339200Y-7335500I-50000J0D01*
G01*
X16493200Y-7285500D02*
X16593200Y-7385500D01*
X16593200Y-7285500D02*
X16493200Y-7385500D01*
X16593200Y-7335500D02*
G75*
G03*
X16593200Y-7335500I-50000J0D01*
G01*
X16747200Y-7285500D02*
X16847200Y-7385500D01*
X16847200Y-7285500D02*
X16747200Y-7385500D01*
X16847200Y-7335500D02*
G75*
G03*
X16847200Y-7335500I-50000J0D01*
G01*
X16983200Y-10185500D02*
X17083200Y-10285500D01*
X17083200Y-10185500D02*
X16983200Y-10285500D01*
X17083200Y-10235500D02*
G75*
G03*
X17083200Y-10235500I-50000J0D01*
G01*
X16983200Y-10439500D02*
X17083200Y-10539500D01*
X17083200Y-10439500D02*
X16983200Y-10539500D01*
X17083200Y-10489500D02*
G75*
G03*
X17083200Y-10489500I-50000J0D01*
G01*
X16983200Y-10693500D02*
X17083200Y-10793500D01*
X17083200Y-10693500D02*
X16983200Y-10793500D01*
X17083200Y-10743500D02*
G75*
G03*
X17083200Y-10743500I-50000J0D01*
G01*
X16983200Y-10947500D02*
X17083200Y-11047500D01*
X17083200Y-10947500D02*
X16983200Y-11047500D01*
X17083200Y-10997500D02*
G75*
G03*
X17083200Y-10997500I-50000J0D01*
G01*
X16983200Y-11201500D02*
X17083200Y-11301500D01*
X17083200Y-11201500D02*
X16983200Y-11301500D01*
X17083200Y-11251500D02*
G75*
G03*
X17083200Y-11251500I-50000J0D01*
G01*
X16983200Y-11455500D02*
X17083200Y-11555500D01*
X17083200Y-11455500D02*
X16983200Y-11555500D01*
X17083200Y-11505500D02*
G75*
G03*
X17083200Y-11505500I-50000J0D01*
G01*
X16983200Y-11709500D02*
X17083200Y-11809500D01*
X17083200Y-11709500D02*
X16983200Y-11809500D01*
X17083200Y-11759500D02*
G75*
G03*
X17083200Y-11759500I-50000J0D01*
G01*
X16983200Y-11963500D02*
X17083200Y-12063500D01*
X17083200Y-11963500D02*
X16983200Y-12063500D01*
X17083200Y-12013500D02*
G75*
G03*
X17083200Y-12013500I-50000J0D01*
G01*
X16983200Y-12217500D02*
X17083200Y-12317500D01*
X17083200Y-12217500D02*
X16983200Y-12317500D01*
X17083200Y-12267500D02*
G75*
G03*
X17083200Y-12267500I-50000J0D01*
G01*
X16983200Y-12471500D02*
X17083200Y-12571500D01*
X17083200Y-12471500D02*
X16983200Y-12571500D01*
X17083200Y-12521500D02*
G75*
G03*
X17083200Y-12521500I-50000J0D01*
G01*
X16983200Y-12725500D02*
X17083200Y-12825500D01*
X17083200Y-12725500D02*
X16983200Y-12825500D01*
X17083200Y-12775500D02*
G75*
G03*
X17083200Y-12775500I-50000J0D01*
G01*
X16983200Y-12979500D02*
X17083200Y-13079500D01*
X17083200Y-12979500D02*
X16983200Y-13079500D01*
X17083200Y-13029500D02*
G75*
G03*
X17083200Y-13029500I-50000J0D01*
G01*
X16983200Y-13233500D02*
X17083200Y-13333500D01*
X17083200Y-13233500D02*
X16983200Y-13333500D01*
X17083200Y-13283500D02*
G75*
G03*
X17083200Y-13283500I-50000J0D01*
G01*
X16983200Y-13487500D02*
X17083200Y-13587500D01*
X17083200Y-13487500D02*
X16983200Y-13587500D01*
X17083200Y-13537500D02*
G75*
G03*
X17083200Y-13537500I-50000J0D01*
G01*
X16983200Y-13741500D02*
X17083200Y-13841500D01*
X17083200Y-13741500D02*
X16983200Y-13841500D01*
X17083200Y-13791500D02*
G75*
G03*
X17083200Y-13791500I-50000J0D01*
G01*
X17001200Y-7285500D02*
X17101200Y-7385500D01*
X17101200Y-7285500D02*
X17001200Y-7385500D01*
X17101200Y-7335500D02*
G75*
G03*
X17101200Y-7335500I-50000J0D01*
G01*
X17255200Y-7285500D02*
X17355200Y-7385500D01*
X17355200Y-7285500D02*
X17255200Y-7385500D01*
X17355200Y-7335500D02*
G75*
G03*
X17355200Y-7335500I-50000J0D01*
G01*
X17458200Y-11409500D02*
X17558200Y-11509500D01*
X17558200Y-11409500D02*
X17458200Y-11509500D01*
X17558200Y-11459500D02*
G75*
G03*
X17558200Y-11459500I-50000J0D01*
G01*
X17458200Y-12679500D02*
X17558200Y-12779500D01*
X17558200Y-12679500D02*
X17458200Y-12779500D01*
X17558200Y-12729500D02*
G75*
G03*
X17558200Y-12729500I-50000J0D01*
G01*
X17509200Y-7285500D02*
X17609200Y-7385500D01*
X17609200Y-7285500D02*
X17509200Y-7385500D01*
X17609200Y-7335500D02*
G75*
G03*
X17609200Y-7335500I-50000J0D01*
G01*
X17712200Y-11409500D02*
X17812200Y-11509500D01*
X17812200Y-11409500D02*
X17712200Y-11509500D01*
X17812200Y-11459500D02*
G75*
G03*
X17812200Y-11459500I-50000J0D01*
G01*
X17712200Y-12679500D02*
X17812200Y-12779500D01*
X17812200Y-12679500D02*
X17712200Y-12779500D01*
X17812200Y-12729500D02*
G75*
G03*
X17812200Y-12729500I-50000J0D01*
G01*
X17966200Y-11409500D02*
X18066200Y-11509500D01*
X18066200Y-11409500D02*
X17966200Y-11509500D01*
X18066200Y-11459500D02*
G75*
G03*
X18066200Y-11459500I-50000J0D01*
G01*
X17966200Y-12679500D02*
X18066200Y-12779500D01*
X18066200Y-12679500D02*
X17966200Y-12779500D01*
X18066200Y-12729500D02*
G75*
G03*
X18066200Y-12729500I-50000J0D01*
G01*
X18220200Y-11409500D02*
X18320200Y-11509500D01*
X18320200Y-11409500D02*
X18220200Y-11509500D01*
X18320200Y-11459500D02*
G75*
G03*
X18320200Y-11459500I-50000J0D01*
G01*
X18220200Y-12679500D02*
X18320200Y-12779500D01*
X18320200Y-12679500D02*
X18220200Y-12779500D01*
X18320200Y-12729500D02*
G75*
G03*
X18320200Y-12729500I-50000J0D01*
G01*
X18474200Y-11409500D02*
X18574200Y-11509500D01*
X18574200Y-11409500D02*
X18474200Y-11509500D01*
X18574200Y-11459500D02*
G75*
G03*
X18574200Y-11459500I-50000J0D01*
G01*
X18474200Y-12679500D02*
X18574200Y-12779500D01*
X18574200Y-12679500D02*
X18474200Y-12779500D01*
X18574200Y-12729500D02*
G75*
G03*
X18574200Y-12729500I-50000J0D01*
G01*
X18728200Y-11409500D02*
X18828200Y-11509500D01*
X18828200Y-11409500D02*
X18728200Y-11509500D01*
X18828200Y-11459500D02*
G75*
G03*
X18828200Y-11459500I-50000J0D01*
G01*
X18728200Y-12679500D02*
X18828200Y-12779500D01*
X18828200Y-12679500D02*
X18728200Y-12779500D01*
X18828200Y-12729500D02*
G75*
G03*
X18828200Y-12729500I-50000J0D01*
G01*
X18982200Y-11409500D02*
X19082200Y-11509500D01*
X19082200Y-11409500D02*
X18982200Y-11509500D01*
X19082200Y-11459500D02*
G75*
G03*
X19082200Y-11459500I-50000J0D01*
G01*
X18982200Y-12679500D02*
X19082200Y-12779500D01*
X19082200Y-12679500D02*
X18982200Y-12779500D01*
X19082200Y-12729500D02*
G75*
G03*
X19082200Y-12729500I-50000J0D01*
G01*
X19236200Y-11409500D02*
X19336200Y-11509500D01*
X19336200Y-11409500D02*
X19236200Y-11509500D01*
X19336200Y-11459500D02*
G75*
G03*
X19336200Y-11459500I-50000J0D01*
G01*
X19236200Y-12679500D02*
X19336200Y-12779500D01*
X19336200Y-12679500D02*
X19236200Y-12779500D01*
X19336200Y-12729500D02*
G75*
G03*
X19336200Y-12729500I-50000J0D01*
G01*
X19687500Y-6585000D02*
X19787500Y-6685000D01*
X19787500Y-6585000D02*
X19687500Y-6685000D01*
X19787500Y-6635000D02*
G75*
G03*
X19787500Y-6635000I-50000J0D01*
G01*
X19687500Y-6839000D02*
X19787500Y-6939000D01*
X19787500Y-6839000D02*
X19687500Y-6939000D01*
X19787500Y-6889000D02*
G75*
G03*
X19787500Y-6889000I-50000J0D01*
G01*
X19687500Y-7093000D02*
X19787500Y-7193000D01*
X19787500Y-7093000D02*
X19687500Y-7193000D01*
X19787500Y-7143000D02*
G75*
G03*
X19787500Y-7143000I-50000J0D01*
G01*
X19687500Y-7347000D02*
X19787500Y-7447000D01*
X19787500Y-7347000D02*
X19687500Y-7447000D01*
X19787500Y-7397000D02*
G75*
G03*
X19787500Y-7397000I-50000J0D01*
G01*
X19687500Y-7601000D02*
X19787500Y-7701000D01*
X19787500Y-7601000D02*
X19687500Y-7701000D01*
X19787500Y-7651000D02*
G75*
G03*
X19787500Y-7651000I-50000J0D01*
G01*
X19687500Y-7855000D02*
X19787500Y-7955000D01*
X19787500Y-7855000D02*
X19687500Y-7955000D01*
X19787500Y-7905000D02*
G75*
G03*
X19787500Y-7905000I-50000J0D01*
G01*
X19687500Y-8109000D02*
X19787500Y-8209000D01*
X19787500Y-8109000D02*
X19687500Y-8209000D01*
X19787500Y-8159000D02*
G75*
G03*
X19787500Y-8159000I-50000J0D01*
G01*
X19687500Y-8363000D02*
X19787500Y-8463000D01*
X19787500Y-8363000D02*
X19687500Y-8463000D01*
X19787500Y-8413000D02*
G75*
G03*
X19787500Y-8413000I-50000J0D01*
G01*
X19687500Y-8617000D02*
X19787500Y-8717000D01*
X19787500Y-8617000D02*
X19687500Y-8717000D01*
X19787500Y-8667000D02*
G75*
G03*
X19787500Y-8667000I-50000J0D01*
G01*
X19687500Y-8871000D02*
X19787500Y-8971000D01*
X19787500Y-8871000D02*
X19687500Y-8971000D01*
X19787500Y-8921000D02*
G75*
G03*
X19787500Y-8921000I-50000J0D01*
G01*
X19687500Y-9125000D02*
X19787500Y-9225000D01*
X19787500Y-9125000D02*
X19687500Y-9225000D01*
X19787500Y-9175000D02*
G75*
G03*
X19787500Y-9175000I-50000J0D01*
G01*
X19687500Y-9379000D02*
X19787500Y-9479000D01*
X19787500Y-9379000D02*
X19687500Y-9479000D01*
X19787500Y-9429000D02*
G75*
G03*
X19787500Y-9429000I-50000J0D01*
G01*
X19687500Y-9633000D02*
X19787500Y-9733000D01*
X19787500Y-9633000D02*
X19687500Y-9733000D01*
X19787500Y-9683000D02*
G75*
G03*
X19787500Y-9683000I-50000J0D01*
G01*
X19687500Y-9887000D02*
X19787500Y-9987000D01*
X19787500Y-9887000D02*
X19687500Y-9987000D01*
X19787500Y-9937000D02*
G75*
G03*
X19787500Y-9937000I-50000J0D01*
G01*
X19687500Y-10141000D02*
X19787500Y-10241000D01*
X19787500Y-10141000D02*
X19687500Y-10241000D01*
X19787500Y-10191000D02*
G75*
G03*
X19787500Y-10191000I-50000J0D01*
G01*
X19687500Y-10395000D02*
X19787500Y-10495000D01*
X19787500Y-10395000D02*
X19687500Y-10495000D01*
X19787500Y-10445000D02*
G75*
G03*
X19787500Y-10445000I-50000J0D01*
G01*
X19687500Y-10649000D02*
X19787500Y-10749000D01*
X19787500Y-10649000D02*
X19687500Y-10749000D01*
X19787500Y-10699000D02*
G75*
G03*
X19787500Y-10699000I-50000J0D01*
G01*
X19687500Y-10903000D02*
X19787500Y-11003000D01*
X19787500Y-10903000D02*
X19687500Y-11003000D01*
X19787500Y-10953000D02*
G75*
G03*
X19787500Y-10953000I-50000J0D01*
G01*
X19687500Y-11157000D02*
X19787500Y-11257000D01*
X19787500Y-11157000D02*
X19687500Y-11257000D01*
X19787500Y-11207000D02*
G75*
G03*
X19787500Y-11207000I-50000J0D01*
G01*
X19687500Y-11411000D02*
X19787500Y-11511000D01*
X19787500Y-11411000D02*
X19687500Y-11511000D01*
X19787500Y-11461000D02*
G75*
G03*
X19787500Y-11461000I-50000J0D01*
G01*
X19941500Y-6585000D02*
X20041500Y-6685000D01*
X20041500Y-6585000D02*
X19941500Y-6685000D01*
X20041500Y-6635000D02*
G75*
G03*
X20041500Y-6635000I-50000J0D01*
G01*
X19941500Y-6839000D02*
X20041500Y-6939000D01*
X20041500Y-6839000D02*
X19941500Y-6939000D01*
X20041500Y-6889000D02*
G75*
G03*
X20041500Y-6889000I-50000J0D01*
G01*
X19941500Y-7093000D02*
X20041500Y-7193000D01*
X20041500Y-7093000D02*
X19941500Y-7193000D01*
X20041500Y-7143000D02*
G75*
G03*
X20041500Y-7143000I-50000J0D01*
G01*
X19941500Y-7347000D02*
X20041500Y-7447000D01*
X20041500Y-7347000D02*
X19941500Y-7447000D01*
X20041500Y-7397000D02*
G75*
G03*
X20041500Y-7397000I-50000J0D01*
G01*
X19941500Y-7601000D02*
X20041500Y-7701000D01*
X20041500Y-7601000D02*
X19941500Y-7701000D01*
X20041500Y-7651000D02*
G75*
G03*
X20041500Y-7651000I-50000J0D01*
G01*
X19941500Y-7855000D02*
X20041500Y-7955000D01*
X20041500Y-7855000D02*
X19941500Y-7955000D01*
X20041500Y-7905000D02*
G75*
G03*
X20041500Y-7905000I-50000J0D01*
G01*
X19941500Y-8109000D02*
X20041500Y-8209000D01*
X20041500Y-8109000D02*
X19941500Y-8209000D01*
X20041500Y-8159000D02*
G75*
G03*
X20041500Y-8159000I-50000J0D01*
G01*
X19941500Y-8363000D02*
X20041500Y-8463000D01*
X20041500Y-8363000D02*
X19941500Y-8463000D01*
X20041500Y-8413000D02*
G75*
G03*
X20041500Y-8413000I-50000J0D01*
G01*
X19941500Y-8617000D02*
X20041500Y-8717000D01*
X20041500Y-8617000D02*
X19941500Y-8717000D01*
X20041500Y-8667000D02*
G75*
G03*
X20041500Y-8667000I-50000J0D01*
G01*
X19941500Y-8871000D02*
X20041500Y-8971000D01*
X20041500Y-8871000D02*
X19941500Y-8971000D01*
X20041500Y-8921000D02*
G75*
G03*
X20041500Y-8921000I-50000J0D01*
G01*
X19941500Y-9125000D02*
X20041500Y-9225000D01*
X20041500Y-9125000D02*
X19941500Y-9225000D01*
X20041500Y-9175000D02*
G75*
G03*
X20041500Y-9175000I-50000J0D01*
G01*
X19941500Y-9379000D02*
X20041500Y-9479000D01*
X20041500Y-9379000D02*
X19941500Y-9479000D01*
X20041500Y-9429000D02*
G75*
G03*
X20041500Y-9429000I-50000J0D01*
G01*
X19941500Y-9633000D02*
X20041500Y-9733000D01*
X20041500Y-9633000D02*
X19941500Y-9733000D01*
X20041500Y-9683000D02*
G75*
G03*
X20041500Y-9683000I-50000J0D01*
G01*
X19941500Y-9887000D02*
X20041500Y-9987000D01*
X20041500Y-9887000D02*
X19941500Y-9987000D01*
X20041500Y-9937000D02*
G75*
G03*
X20041500Y-9937000I-50000J0D01*
G01*
X19941500Y-10141000D02*
X20041500Y-10241000D01*
X20041500Y-10141000D02*
X19941500Y-10241000D01*
X20041500Y-10191000D02*
G75*
G03*
X20041500Y-10191000I-50000J0D01*
G01*
X19941500Y-10395000D02*
X20041500Y-10495000D01*
X20041500Y-10395000D02*
X19941500Y-10495000D01*
X20041500Y-10445000D02*
G75*
G03*
X20041500Y-10445000I-50000J0D01*
G01*
X19941500Y-10649000D02*
X20041500Y-10749000D01*
X20041500Y-10649000D02*
X19941500Y-10749000D01*
X20041500Y-10699000D02*
G75*
G03*
X20041500Y-10699000I-50000J0D01*
G01*
X19941500Y-10903000D02*
X20041500Y-11003000D01*
X20041500Y-10903000D02*
X19941500Y-11003000D01*
X20041500Y-10953000D02*
G75*
G03*
X20041500Y-10953000I-50000J0D01*
G01*
X19941500Y-11157000D02*
X20041500Y-11257000D01*
X20041500Y-11157000D02*
X19941500Y-11257000D01*
X20041500Y-11207000D02*
G75*
G03*
X20041500Y-11207000I-50000J0D01*
G01*
X19941500Y-11411000D02*
X20041500Y-11511000D01*
X20041500Y-11411000D02*
X19941500Y-11511000D01*
X20041500Y-11461000D02*
G75*
G03*
X20041500Y-11461000I-50000J0D01*
G01*
X20459200Y-5285500D02*
X20559200Y-5385500D01*
X20559200Y-5285500D02*
X20459200Y-5385500D01*
X20559200Y-5335500D02*
G75*
G03*
X20559200Y-5335500I-50000J0D01*
G01*
X20459200Y-5539500D02*
X20559200Y-5639500D01*
X20559200Y-5539500D02*
X20459200Y-5639500D01*
X20559200Y-5589500D02*
G75*
G03*
X20559200Y-5589500I-50000J0D01*
G01*
X20459200Y-5793500D02*
X20559200Y-5893500D01*
X20559200Y-5793500D02*
X20459200Y-5893500D01*
X20559200Y-5843500D02*
G75*
G03*
X20559200Y-5843500I-50000J0D01*
G01*
X20459200Y-6047500D02*
X20559200Y-6147500D01*
X20559200Y-6047500D02*
X20459200Y-6147500D01*
X20559200Y-6097500D02*
G75*
G03*
X20559200Y-6097500I-50000J0D01*
G01*
X20459200Y-6301500D02*
X20559200Y-6401500D01*
X20559200Y-6301500D02*
X20459200Y-6401500D01*
X20559200Y-6351500D02*
G75*
G03*
X20559200Y-6351500I-50000J0D01*
G01*
X20459200Y-6555500D02*
X20559200Y-6655500D01*
X20559200Y-6555500D02*
X20459200Y-6655500D01*
X20559200Y-6605500D02*
G75*
G03*
X20559200Y-6605500I-50000J0D01*
G01*
X20459200Y-6809500D02*
X20559200Y-6909500D01*
X20559200Y-6809500D02*
X20459200Y-6909500D01*
X20559200Y-6859500D02*
G75*
G03*
X20559200Y-6859500I-50000J0D01*
G01*
X20459200Y-7063500D02*
X20559200Y-7163500D01*
X20559200Y-7063500D02*
X20459200Y-7163500D01*
X20559200Y-7113500D02*
G75*
G03*
X20559200Y-7113500I-50000J0D01*
G01*
X20459200Y-7317500D02*
X20559200Y-7417500D01*
X20559200Y-7317500D02*
X20459200Y-7417500D01*
X20559200Y-7367500D02*
G75*
G03*
X20559200Y-7367500I-50000J0D01*
G01*
X20459200Y-7571500D02*
X20559200Y-7671500D01*
X20559200Y-7571500D02*
X20459200Y-7671500D01*
X20559200Y-7621500D02*
G75*
G03*
X20559200Y-7621500I-50000J0D01*
G01*
X20459200Y-7825500D02*
X20559200Y-7925500D01*
X20559200Y-7825500D02*
X20459200Y-7925500D01*
X20559200Y-7875500D02*
G75*
G03*
X20559200Y-7875500I-50000J0D01*
G01*
X20459200Y-8079500D02*
X20559200Y-8179500D01*
X20559200Y-8079500D02*
X20459200Y-8179500D01*
X20559200Y-8129500D02*
G75*
G03*
X20559200Y-8129500I-50000J0D01*
G01*
X20459200Y-8333500D02*
X20559200Y-8433500D01*
X20559200Y-8333500D02*
X20459200Y-8433500D01*
X20559200Y-8383500D02*
G75*
G03*
X20559200Y-8383500I-50000J0D01*
G01*
X20459200Y-8587500D02*
X20559200Y-8687500D01*
X20559200Y-8587500D02*
X20459200Y-8687500D01*
X20559200Y-8637500D02*
G75*
G03*
X20559200Y-8637500I-50000J0D01*
G01*
X20459200Y-8841500D02*
X20559200Y-8941500D01*
X20559200Y-8841500D02*
X20459200Y-8941500D01*
X20559200Y-8891500D02*
G75*
G03*
X20559200Y-8891500I-50000J0D01*
G01*
X20459200Y-9095500D02*
X20559200Y-9195500D01*
X20559200Y-9095500D02*
X20459200Y-9195500D01*
X20559200Y-9145500D02*
G75*
G03*
X20559200Y-9145500I-50000J0D01*
G01*
X20459200Y-9485500D02*
X20559200Y-9585500D01*
X20559200Y-9485500D02*
X20459200Y-9585500D01*
X20559200Y-9535500D02*
G75*
G03*
X20559200Y-9535500I-50000J0D01*
G01*
X20459200Y-9739500D02*
X20559200Y-9839500D01*
X20559200Y-9739500D02*
X20459200Y-9839500D01*
X20559200Y-9789500D02*
G75*
G03*
X20559200Y-9789500I-50000J0D01*
G01*
X20459200Y-10235500D02*
X20559200Y-10335500D01*
X20559200Y-10235500D02*
X20459200Y-10335500D01*
X20559200Y-10285500D02*
G75*
G03*
X20559200Y-10285500I-50000J0D01*
G01*
X20459200Y-10489500D02*
X20559200Y-10589500D01*
X20559200Y-10489500D02*
X20459200Y-10589500D01*
X20559200Y-10539500D02*
G75*
G03*
X20559200Y-10539500I-50000J0D01*
G01*
X20459200Y-10743500D02*
X20559200Y-10843500D01*
X20559200Y-10743500D02*
X20459200Y-10843500D01*
X20559200Y-10793500D02*
G75*
G03*
X20559200Y-10793500I-50000J0D01*
G01*
X20459200Y-10997500D02*
X20559200Y-11097500D01*
X20559200Y-10997500D02*
X20459200Y-11097500D01*
X20559200Y-11047500D02*
G75*
G03*
X20559200Y-11047500I-50000J0D01*
G01*
X20459200Y-11251500D02*
X20559200Y-11351500D01*
X20559200Y-11251500D02*
X20459200Y-11351500D01*
X20559200Y-11301500D02*
G75*
G03*
X20559200Y-11301500I-50000J0D01*
G01*
X20459200Y-11505500D02*
X20559200Y-11605500D01*
X20559200Y-11505500D02*
X20459200Y-11605500D01*
X20559200Y-11555500D02*
G75*
G03*
X20559200Y-11555500I-50000J0D01*
G01*
X20459200Y-11759500D02*
X20559200Y-11859500D01*
X20559200Y-11759500D02*
X20459200Y-11859500D01*
X20559200Y-11809500D02*
G75*
G03*
X20559200Y-11809500I-50000J0D01*
G01*
X20459200Y-12013500D02*
X20559200Y-12113500D01*
X20559200Y-12013500D02*
X20459200Y-12113500D01*
X20559200Y-12063500D02*
G75*
G03*
X20559200Y-12063500I-50000J0D01*
G01*
X17715400Y-9611700D02*
X17817000Y-9713300D01*
X17817000Y-9611700D02*
X17715400Y-9713300D01*
X17766200Y-9611700D02*
X17766200Y-9713300D01*
X17715400Y-9662500D02*
X17817000Y-9662500D01*
X17715400Y-10881700D02*
X17817000Y-10983300D01*
X17817000Y-10881700D02*
X17715400Y-10983300D01*
X17766200Y-10881700D02*
X17766200Y-10983300D01*
X17715400Y-10932500D02*
X17817000Y-10932500D01*
X17954400Y-5030700D02*
X18056000Y-5132300D01*
X18056000Y-5030700D02*
X17954400Y-5132300D01*
X18005200Y-5030700D02*
X18005200Y-5132300D01*
X17954400Y-5081500D02*
X18056000Y-5081500D01*
X17954400Y-5284700D02*
X18056000Y-5386300D01*
X18056000Y-5284700D02*
X17954400Y-5386300D01*
X18005200Y-5284700D02*
X18005200Y-5386300D01*
X17954400Y-5335500D02*
X18056000Y-5335500D01*
X17954400Y-5538700D02*
X18056000Y-5640300D01*
X18056000Y-5538700D02*
X17954400Y-5640300D01*
X18005200Y-5538700D02*
X18005200Y-5640300D01*
X17954400Y-5589500D02*
X18056000Y-5589500D01*
X17969400Y-9611700D02*
X18071000Y-9713300D01*
X18071000Y-9611700D02*
X17969400Y-9713300D01*
X18020200Y-9611700D02*
X18020200Y-9713300D01*
X17969400Y-9662500D02*
X18071000Y-9662500D01*
X17969400Y-10881700D02*
X18071000Y-10983300D01*
X18071000Y-10881700D02*
X17969400Y-10983300D01*
X18020200Y-10881700D02*
X18020200Y-10983300D01*
X17969400Y-10932500D02*
X18071000Y-10932500D01*
X18223400Y-9611700D02*
X18325000Y-9713300D01*
X18325000Y-9611700D02*
X18223400Y-9713300D01*
X18274200Y-9611700D02*
X18274200Y-9713300D01*
X18223400Y-9662500D02*
X18325000Y-9662500D01*
X18223400Y-10881700D02*
X18325000Y-10983300D01*
X18325000Y-10881700D02*
X18223400Y-10983300D01*
X18274200Y-10881700D02*
X18274200Y-10983300D01*
X18223400Y-10932500D02*
X18325000Y-10932500D01*
X18477400Y-9611700D02*
X18579000Y-9713300D01*
X18579000Y-9611700D02*
X18477400Y-9713300D01*
X18528200Y-9611700D02*
X18528200Y-9713300D01*
X18477400Y-9662500D02*
X18579000Y-9662500D01*
X18477400Y-10881700D02*
X18579000Y-10983300D01*
X18579000Y-10881700D02*
X18477400Y-10983300D01*
X18528200Y-10881700D02*
X18528200Y-10983300D01*
X18477400Y-10932500D02*
X18579000Y-10932500D01*
X18731400Y-9611700D02*
X18833000Y-9713300D01*
X18833000Y-9611700D02*
X18731400Y-9713300D01*
X18782200Y-9611700D02*
X18782200Y-9713300D01*
X18731400Y-9662500D02*
X18833000Y-9662500D01*
X18731400Y-10881700D02*
X18833000Y-10983300D01*
X18833000Y-10881700D02*
X18731400Y-10983300D01*
X18782200Y-10881700D02*
X18782200Y-10983300D01*
X18731400Y-10932500D02*
X18833000Y-10932500D01*
X18985400Y-9611700D02*
X19087000Y-9713300D01*
X19087000Y-9611700D02*
X18985400Y-9713300D01*
X19036200Y-9611700D02*
X19036200Y-9713300D01*
X18985400Y-9662500D02*
X19087000Y-9662500D01*
X18985400Y-10881700D02*
X19087000Y-10983300D01*
X19087000Y-10881700D02*
X18985400Y-10983300D01*
X19036200Y-10881700D02*
X19036200Y-10983300D01*
X18985400Y-10932500D02*
X19087000Y-10932500D01*
X12444200Y-8900500D02*
X12554200Y-9010500D01*
X12554200Y-8900500D02*
X12444200Y-9010500D01*
X12538091Y-8994391D02*
X12538091Y-8916609D01*
X12460309Y-8916609D01*
X12460309Y-8994391D01*
X12538091Y-8994391D01*
X12444200Y-9830500D02*
X12554200Y-9940500D01*
X12554200Y-9830500D02*
X12444200Y-9940500D01*
X12538091Y-9924391D02*
X12538091Y-9846609D01*
X12460309Y-9846609D01*
X12460309Y-9924391D01*
X12538091Y-9924391D01*
X12444200Y-11750500D02*
X12554200Y-11860500D01*
X12554200Y-11750500D02*
X12444200Y-11860500D01*
X12538091Y-11844391D02*
X12538091Y-11766609D01*
X12460309Y-11766609D01*
X12460309Y-11844391D01*
X12538091Y-11844391D01*
X12444200Y-12680500D02*
X12554200Y-12790500D01*
X12554200Y-12680500D02*
X12444200Y-12790500D01*
X12538091Y-12774391D02*
X12538091Y-12696609D01*
X12460309Y-12696609D01*
X12460309Y-12774391D01*
X12538091Y-12774391D01*
X12944200Y-9740500D02*
X13054200Y-9850500D01*
X13054200Y-9740500D02*
X12944200Y-9850500D01*
X13038091Y-9834391D02*
X13038091Y-9756609D01*
X12960309Y-9756609D01*
X12960309Y-9834391D01*
X13038091Y-9834391D01*
X12944200Y-12590500D02*
X13054200Y-12700500D01*
X13054200Y-12590500D02*
X12944200Y-12700500D01*
X13038091Y-12684391D02*
X13038091Y-12606609D01*
X12960309Y-12606609D01*
X12960309Y-12684391D01*
X13038091Y-12684391D01*
X13254200Y-9220500D02*
X13364200Y-9330500D01*
X13364200Y-9220500D02*
X13254200Y-9330500D01*
X13348091Y-9314391D02*
X13348091Y-9236609D01*
X13270309Y-9236609D01*
X13270309Y-9314391D01*
X13348091Y-9314391D01*
X13254200Y-9540500D02*
X13364200Y-9650500D01*
X13364200Y-9540500D02*
X13254200Y-9650500D01*
X13348091Y-9634391D02*
X13348091Y-9556609D01*
X13270309Y-9556609D01*
X13270309Y-9634391D01*
X13348091Y-9634391D01*
X13254200Y-12070500D02*
X13364200Y-12180500D01*
X13364200Y-12070500D02*
X13254200Y-12180500D01*
X13348091Y-12164391D02*
X13348091Y-12086609D01*
X13270309Y-12086609D01*
X13270309Y-12164391D01*
X13348091Y-12164391D01*
X13254200Y-12390500D02*
X13364200Y-12500500D01*
X13364200Y-12390500D02*
X13254200Y-12500500D01*
X13348091Y-12484391D02*
X13348091Y-12406609D01*
X13270309Y-12406609D01*
X13270309Y-12484391D01*
X13348091Y-12484391D01*
X17179200Y-6255500D02*
X17289200Y-6365500D01*
X17289200Y-6255500D02*
X17179200Y-6365500D01*
X17273091Y-6349391D02*
X17273091Y-6271609D01*
X17195309Y-6271609D01*
X17195309Y-6349391D01*
X17273091Y-6349391D01*
X17179200Y-6655500D02*
X17289200Y-6765500D01*
X17289200Y-6655500D02*
X17179200Y-6765500D01*
X17273091Y-6749391D02*
X17273091Y-6671609D01*
X17195309Y-6671609D01*
X17195309Y-6749391D01*
X17273091Y-6749391D01*
X17941200Y-6255500D02*
X18051200Y-6365500D01*
X18051200Y-6255500D02*
X17941200Y-6365500D01*
X18035091Y-6349391D02*
X18035091Y-6271609D01*
X17957309Y-6271609D01*
X17957309Y-6349391D01*
X18035091Y-6349391D01*
X17941200Y-6655500D02*
X18051200Y-6765500D01*
X18051200Y-6655500D02*
X17941200Y-6765500D01*
X18035091Y-6749391D02*
X18035091Y-6671609D01*
X17957309Y-6671609D01*
X17957309Y-6749391D01*
X18035091Y-6749391D01*
X13313080Y-10478380D02*
X13455320Y-10620620D01*
X13455320Y-10478380D02*
X13313080Y-10620620D01*
X13384200Y-10620620D02*
X13455320Y-10549500D01*
X13384200Y-10478380D01*
X13313080Y-10549500D01*
X13384200Y-10620620D01*
X13313080Y-13328380D02*
X13455320Y-13470620D01*
X13455320Y-13328380D02*
X13313080Y-13470620D01*
X13384200Y-13470620D02*
X13455320Y-13399500D01*
X13384200Y-13328380D01*
X13313080Y-13399500D01*
X13384200Y-13470620D01*
X13663080Y-10473380D02*
X13805320Y-10615620D01*
X13805320Y-10473380D02*
X13663080Y-10615620D01*
X13734200Y-10615620D02*
X13805320Y-10544500D01*
X13734200Y-10473380D01*
X13663080Y-10544500D01*
X13734200Y-10615620D01*
X13663080Y-13323380D02*
X13805320Y-13465620D01*
X13805320Y-13323380D02*
X13663080Y-13465620D01*
X13734200Y-13465620D02*
X13805320Y-13394500D01*
X13734200Y-13323380D01*
X13663080Y-13394500D01*
X13734200Y-13465620D01*
X14013080Y-10473380D02*
X14155320Y-10615620D01*
X14155320Y-10473380D02*
X14013080Y-10615620D01*
X14084200Y-10615620D02*
X14155320Y-10544500D01*
X14084200Y-10473380D01*
X14013080Y-10544500D01*
X14084200Y-10615620D01*
X14013080Y-13323380D02*
X14155320Y-13465620D01*
X14155320Y-13323380D02*
X14013080Y-13465620D01*
X14084200Y-13465620D02*
X14155320Y-13394500D01*
X14084200Y-13323380D01*
X14013080Y-13394500D01*
X14084200Y-13465620D01*
X14363080Y-10473380D02*
X14505320Y-10615620D01*
X14505320Y-10473380D02*
X14363080Y-10615620D01*
X14434200Y-10615620D02*
X14505320Y-10544500D01*
X14434200Y-10473380D01*
X14363080Y-10544500D01*
X14434200Y-10615620D01*
X14363080Y-13323380D02*
X14505320Y-13465620D01*
X14505320Y-13323380D02*
X14363080Y-13465620D01*
X14434200Y-13465620D02*
X14505320Y-13394500D01*
X14434200Y-13323380D01*
X14363080Y-13394500D01*
X14434200Y-13465620D01*
X17634200Y-13409500D02*
X17634200Y-13561500D01*
X17558200Y-13485500D02*
X17710200Y-13485500D01*
X17710200Y-13485500D02*
G75*
G03*
X17710200Y-13485500I-76000J0D01*
G01*
X18142200Y-13409500D02*
X18142200Y-13561500D01*
X18066200Y-13485500D02*
X18218200Y-13485500D01*
X18218200Y-13485500D02*
G75*
G03*
X18218200Y-13485500I-76000J0D01*
G01*
X18650200Y-13409500D02*
X18650200Y-13561500D01*
X18574200Y-13485500D02*
X18726200Y-13485500D01*
X18726200Y-13485500D02*
G75*
G03*
X18726200Y-13485500I-76000J0D01*
G01*
X19093200Y-4459500D02*
X19093200Y-4611500D01*
X19017200Y-4535500D02*
X19169200Y-4535500D01*
X19169200Y-4535500D02*
G75*
G03*
X19169200Y-4535500I-76000J0D01*
G01*
X19158200Y-13409500D02*
X19158200Y-13561500D01*
X19082200Y-13485500D02*
X19234200Y-13485500D01*
X19234200Y-13485500D02*
G75*
G03*
X19234200Y-13485500I-76000J0D01*
G01*
X19601200Y-4459500D02*
X19601200Y-4611500D01*
X19525200Y-4535500D02*
X19677200Y-4535500D01*
X19677200Y-4535500D02*
G75*
G03*
X19677200Y-4535500I-76000J0D01*
G01*
X20109200Y-4459500D02*
X20109200Y-4611500D01*
X20033200Y-4535500D02*
X20185200Y-4535500D01*
X20185200Y-4535500D02*
G75*
G03*
X20185200Y-4535500I-76000J0D01*
G01*
X20259200Y-13251500D02*
X20259200Y-13403500D01*
X20183200Y-13327500D02*
X20335200Y-13327500D01*
X20335200Y-13327500D02*
G75*
G03*
X20335200Y-13327500I-76000J0D01*
G01*
X20259200Y-13759500D02*
X20259200Y-13911500D01*
X20183200Y-13835500D02*
X20335200Y-13835500D01*
X20335200Y-13835500D02*
G75*
G03*
X20335200Y-13835500I-76000J0D01*
G01*
X13023043Y-4649343D02*
X13023043Y-4505657D01*
X12879357Y-4505657D01*
X12879357Y-4649343D01*
X13023043Y-4649343D01*
X13052800Y-4577500D02*
G75*
G03*
X13052800Y-4577500I-101600J0D01*
G01*
X13023043Y-5665343D02*
X13023043Y-5521657D01*
X12879357Y-5521657D01*
X12879357Y-5665343D01*
X13023043Y-5665343D01*
X13052800Y-5593500D02*
G75*
G03*
X13052800Y-5593500I-101600J0D01*
G01*
D12*
X12443128Y-14703714D02*
X12443128Y-14403714D01*
X12514557Y-14403714D01*
X12557414Y-14418000D01*
X12585986Y-14446571D01*
X12600271Y-14475143D01*
X12614557Y-14532286D01*
X12614557Y-14575143D01*
X12600271Y-14632286D01*
X12585986Y-14660857D01*
X12557414Y-14689429D01*
X12514557Y-14703714D01*
X12443128Y-14703714D01*
X12743128Y-14703714D02*
X12743128Y-14503714D01*
X12743128Y-14560857D02*
X12757414Y-14532286D01*
X12771700Y-14518000D01*
X12800271Y-14503714D01*
X12828843Y-14503714D01*
X12928843Y-14703714D02*
X12928843Y-14503714D01*
X12928843Y-14403714D02*
X12914557Y-14418000D01*
X12928843Y-14432286D01*
X12943128Y-14418000D01*
X12928843Y-14403714D01*
X12928843Y-14432286D01*
X13114557Y-14703714D02*
X13085986Y-14689429D01*
X13071700Y-14660857D01*
X13071700Y-14403714D01*
X13271700Y-14703714D02*
X13243128Y-14689429D01*
X13228843Y-14660857D01*
X13228843Y-14403714D01*
X13614557Y-14703714D02*
X13614557Y-14403714D01*
X13714557Y-14618000D01*
X13814557Y-14403714D01*
X13814557Y-14703714D01*
X14085986Y-14703714D02*
X14085986Y-14546571D01*
X14071700Y-14518000D01*
X14043128Y-14503714D01*
X13985986Y-14503714D01*
X13957414Y-14518000D01*
X14085986Y-14689429D02*
X14057414Y-14703714D01*
X13985986Y-14703714D01*
X13957414Y-14689429D01*
X13943128Y-14660857D01*
X13943128Y-14632286D01*
X13957414Y-14603714D01*
X13985986Y-14589429D01*
X14057414Y-14589429D01*
X14085986Y-14575143D01*
X14228843Y-14503714D02*
X14228843Y-14803714D01*
X14228843Y-14518000D02*
X14257414Y-14503714D01*
X14314557Y-14503714D01*
X14343128Y-14518000D01*
X14357414Y-14532286D01*
X14371700Y-14560857D01*
X14371700Y-14646571D01*
X14357414Y-14675143D01*
X14343128Y-14689429D01*
X14314557Y-14703714D01*
X14257414Y-14703714D01*
X14228843Y-14689429D01*
X14500271Y-14675143D02*
X14514557Y-14689429D01*
X14500271Y-14703714D01*
X14485986Y-14689429D01*
X14500271Y-14675143D01*
X14500271Y-14703714D01*
X14500271Y-14518000D02*
X14514557Y-14532286D01*
X14500271Y-14546571D01*
X14485986Y-14532286D01*
X14500271Y-14518000D01*
X14500271Y-14546571D01*
X12116700Y-15178000D02*
X12156700Y-15218000D01*
X12156700Y-15178000D02*
X12116700Y-15218000D01*
X12500271Y-15033714D02*
X12528843Y-15033714D01*
X12557414Y-15048000D01*
X12571700Y-15062286D01*
X12585986Y-15090857D01*
X12600271Y-15148000D01*
X12600271Y-15219429D01*
X12585986Y-15276571D01*
X12571700Y-15305143D01*
X12557414Y-15319429D01*
X12528843Y-15333714D01*
X12500271Y-15333714D01*
X12471700Y-15319429D01*
X12457414Y-15305143D01*
X12443128Y-15276571D01*
X12428843Y-15219429D01*
X12428843Y-15148000D01*
X12443128Y-15090857D01*
X12457414Y-15062286D01*
X12471700Y-15048000D01*
X12500271Y-15033714D01*
X12728843Y-15305143D02*
X12743128Y-15319429D01*
X12728843Y-15333714D01*
X12714557Y-15319429D01*
X12728843Y-15305143D01*
X12728843Y-15333714D01*
X13000271Y-15133714D02*
X13000271Y-15333714D01*
X12928843Y-15019429D02*
X12857414Y-15233714D01*
X13043128Y-15233714D01*
X13214557Y-15033714D02*
X13243128Y-15033714D01*
X13271700Y-15048000D01*
X13285986Y-15062286D01*
X13300271Y-15090857D01*
X13314557Y-15148000D01*
X13314557Y-15219429D01*
X13300271Y-15276571D01*
X13285986Y-15305143D01*
X13271700Y-15319429D01*
X13243128Y-15333714D01*
X13214557Y-15333714D01*
X13185986Y-15319429D01*
X13171700Y-15305143D01*
X13157414Y-15276571D01*
X13143128Y-15219429D01*
X13143128Y-15148000D01*
X13157414Y-15090857D01*
X13171700Y-15062286D01*
X13185986Y-15048000D01*
X13214557Y-15033714D01*
X13443128Y-15333714D02*
X13443128Y-15133714D01*
X13443128Y-15162286D02*
X13457414Y-15148000D01*
X13485986Y-15133714D01*
X13528843Y-15133714D01*
X13557414Y-15148000D01*
X13571700Y-15176571D01*
X13571700Y-15333714D01*
X13571700Y-15176571D02*
X13585986Y-15148000D01*
X13614557Y-15133714D01*
X13657414Y-15133714D01*
X13685986Y-15148000D01*
X13700271Y-15176571D01*
X13700271Y-15333714D01*
X13843128Y-15333714D02*
X13843128Y-15133714D01*
X13843128Y-15162286D02*
X13857414Y-15148000D01*
X13885986Y-15133714D01*
X13928843Y-15133714D01*
X13957414Y-15148000D01*
X13971700Y-15176571D01*
X13971700Y-15333714D01*
X13971700Y-15176571D02*
X13985986Y-15148000D01*
X14014557Y-15133714D01*
X14057414Y-15133714D01*
X14085986Y-15148000D01*
X14100271Y-15176571D01*
X14100271Y-15333714D01*
X14685986Y-15019429D02*
X14428843Y-15405143D01*
X15071700Y-15033714D02*
X15100271Y-15033714D01*
X15128843Y-15048000D01*
X15143128Y-15062286D01*
X15157414Y-15090857D01*
X15171700Y-15148000D01*
X15171700Y-15219429D01*
X15157414Y-15276571D01*
X15143128Y-15305143D01*
X15128843Y-15319429D01*
X15100271Y-15333714D01*
X15071700Y-15333714D01*
X15043128Y-15319429D01*
X15028843Y-15305143D01*
X15014557Y-15276571D01*
X15000271Y-15219429D01*
X15000271Y-15148000D01*
X15014557Y-15090857D01*
X15028843Y-15062286D01*
X15043128Y-15048000D01*
X15071700Y-15033714D01*
X15300271Y-15305143D02*
X15314557Y-15319429D01*
X15300271Y-15333714D01*
X15285986Y-15319429D01*
X15300271Y-15305143D01*
X15300271Y-15333714D01*
X15500271Y-15033714D02*
X15528843Y-15033714D01*
X15557414Y-15048000D01*
X15571700Y-15062286D01*
X15585986Y-15090857D01*
X15600271Y-15148000D01*
X15600271Y-15219429D01*
X15585986Y-15276571D01*
X15571700Y-15305143D01*
X15557414Y-15319429D01*
X15528843Y-15333714D01*
X15500271Y-15333714D01*
X15471700Y-15319429D01*
X15457414Y-15305143D01*
X15443128Y-15276571D01*
X15428843Y-15219429D01*
X15428843Y-15148000D01*
X15443128Y-15090857D01*
X15457414Y-15062286D01*
X15471700Y-15048000D01*
X15500271Y-15033714D01*
X15885986Y-15333714D02*
X15714557Y-15333714D01*
X15800271Y-15333714D02*
X15800271Y-15033714D01*
X15771700Y-15076571D01*
X15743128Y-15105143D01*
X15714557Y-15119429D01*
X16143128Y-15033714D02*
X16085986Y-15033714D01*
X16057414Y-15048000D01*
X16043128Y-15062286D01*
X16014557Y-15105143D01*
X16000271Y-15162286D01*
X16000271Y-15276571D01*
X16014557Y-15305143D01*
X16028843Y-15319429D01*
X16057414Y-15333714D01*
X16114557Y-15333714D01*
X16143128Y-15319429D01*
X16157414Y-15305143D01*
X16171700Y-15276571D01*
X16171700Y-15205143D01*
X16157414Y-15176571D01*
X16143128Y-15162286D01*
X16114557Y-15148000D01*
X16057414Y-15148000D01*
X16028843Y-15162286D01*
X16014557Y-15176571D01*
X16000271Y-15205143D01*
X16285986Y-15033714D02*
X16285986Y-15090857D01*
X16400271Y-15033714D02*
X16400271Y-15090857D01*
X16843128Y-15448000D02*
X16828843Y-15433714D01*
X16800271Y-15390857D01*
X16785986Y-15362286D01*
X16771700Y-15319429D01*
X16757414Y-15248000D01*
X16757414Y-15190857D01*
X16771700Y-15119429D01*
X16785986Y-15076571D01*
X16800271Y-15048000D01*
X16828843Y-15005143D01*
X16843128Y-14990857D01*
X17085986Y-15133714D02*
X17085986Y-15333714D01*
X17014557Y-15019429D02*
X16943128Y-15233714D01*
X17128843Y-15233714D01*
X17300271Y-15033714D02*
X17328843Y-15033714D01*
X17357414Y-15048000D01*
X17371700Y-15062286D01*
X17385986Y-15090857D01*
X17400271Y-15148000D01*
X17400271Y-15219429D01*
X17385986Y-15276571D01*
X17371700Y-15305143D01*
X17357414Y-15319429D01*
X17328843Y-15333714D01*
X17300271Y-15333714D01*
X17271700Y-15319429D01*
X17257414Y-15305143D01*
X17243128Y-15276571D01*
X17228843Y-15219429D01*
X17228843Y-15148000D01*
X17243128Y-15090857D01*
X17257414Y-15062286D01*
X17271700Y-15048000D01*
X17300271Y-15033714D01*
X17757414Y-15333714D02*
X17757414Y-15033714D01*
X17885986Y-15333714D02*
X17885986Y-15176571D01*
X17871700Y-15148000D01*
X17843128Y-15133714D01*
X17800271Y-15133714D01*
X17771700Y-15148000D01*
X17757414Y-15162286D01*
X18071700Y-15333714D02*
X18043128Y-15319429D01*
X18028843Y-15305143D01*
X18014557Y-15276571D01*
X18014557Y-15190857D01*
X18028843Y-15162286D01*
X18043128Y-15148000D01*
X18071700Y-15133714D01*
X18114557Y-15133714D01*
X18143128Y-15148000D01*
X18157414Y-15162286D01*
X18171700Y-15190857D01*
X18171700Y-15276571D01*
X18157414Y-15305143D01*
X18143128Y-15319429D01*
X18114557Y-15333714D01*
X18071700Y-15333714D01*
X18343128Y-15333714D02*
X18314557Y-15319429D01*
X18300271Y-15290857D01*
X18300271Y-15033714D01*
X18571700Y-15319429D02*
X18543128Y-15333714D01*
X18485986Y-15333714D01*
X18457414Y-15319429D01*
X18443128Y-15290857D01*
X18443128Y-15176571D01*
X18457414Y-15148000D01*
X18485986Y-15133714D01*
X18543128Y-15133714D01*
X18571700Y-15148000D01*
X18585986Y-15176571D01*
X18585986Y-15205143D01*
X18443128Y-15233714D01*
X18700271Y-15319429D02*
X18728843Y-15333714D01*
X18785986Y-15333714D01*
X18814557Y-15319429D01*
X18828843Y-15290857D01*
X18828843Y-15276571D01*
X18814557Y-15248000D01*
X18785986Y-15233714D01*
X18743128Y-15233714D01*
X18714557Y-15219429D01*
X18700271Y-15190857D01*
X18700271Y-15176571D01*
X18714557Y-15148000D01*
X18743128Y-15133714D01*
X18785986Y-15133714D01*
X18814557Y-15148000D01*
X18928843Y-15448000D02*
X18943128Y-15433714D01*
X18971700Y-15390857D01*
X18985986Y-15362286D01*
X19000271Y-15319429D01*
X19014557Y-15248000D01*
X19014557Y-15190857D01*
X19000271Y-15119429D01*
X18985986Y-15076571D01*
X18971700Y-15048000D01*
X18943128Y-15005143D01*
X18928843Y-14990857D01*
X12156700Y-15594000D02*
G75*
G03*
X12156700Y-15594000I-37500J0D01*
G01*
X12500271Y-15429714D02*
X12528843Y-15429714D01*
X12557414Y-15444000D01*
X12571700Y-15458286D01*
X12585986Y-15486857D01*
X12600271Y-15544000D01*
X12600271Y-15615429D01*
X12585986Y-15672571D01*
X12571700Y-15701143D01*
X12557414Y-15715429D01*
X12528843Y-15729714D01*
X12500271Y-15729714D01*
X12471700Y-15715429D01*
X12457414Y-15701143D01*
X12443128Y-15672571D01*
X12428843Y-15615429D01*
X12428843Y-15544000D01*
X12443128Y-15486857D01*
X12457414Y-15458286D01*
X12471700Y-15444000D01*
X12500271Y-15429714D01*
X12728843Y-15701143D02*
X12743128Y-15715429D01*
X12728843Y-15729714D01*
X12714557Y-15715429D01*
X12728843Y-15701143D01*
X12728843Y-15729714D01*
X12843128Y-15429714D02*
X13043128Y-15429714D01*
X12914557Y-15729714D01*
X13300271Y-15429714D02*
X13157414Y-15429714D01*
X13143128Y-15572571D01*
X13157414Y-15558286D01*
X13185986Y-15544000D01*
X13257414Y-15544000D01*
X13285986Y-15558286D01*
X13300271Y-15572571D01*
X13314557Y-15601143D01*
X13314557Y-15672571D01*
X13300271Y-15701143D01*
X13285986Y-15715429D01*
X13257414Y-15729714D01*
X13185986Y-15729714D01*
X13157414Y-15715429D01*
X13143128Y-15701143D01*
X13443128Y-15729714D02*
X13443128Y-15529714D01*
X13443128Y-15558286D02*
X13457414Y-15544000D01*
X13485986Y-15529714D01*
X13528843Y-15529714D01*
X13557414Y-15544000D01*
X13571700Y-15572571D01*
X13571700Y-15729714D01*
X13571700Y-15572571D02*
X13585986Y-15544000D01*
X13614557Y-15529714D01*
X13657414Y-15529714D01*
X13685986Y-15544000D01*
X13700271Y-15572571D01*
X13700271Y-15729714D01*
X13843128Y-15729714D02*
X13843128Y-15529714D01*
X13843128Y-15558286D02*
X13857414Y-15544000D01*
X13885986Y-15529714D01*
X13928843Y-15529714D01*
X13957414Y-15544000D01*
X13971700Y-15572571D01*
X13971700Y-15729714D01*
X13971700Y-15572571D02*
X13985986Y-15544000D01*
X14014557Y-15529714D01*
X14057414Y-15529714D01*
X14085986Y-15544000D01*
X14100271Y-15572571D01*
X14100271Y-15729714D01*
X14685986Y-15415429D02*
X14428843Y-15801143D01*
X15071700Y-15429714D02*
X15100271Y-15429714D01*
X15128843Y-15444000D01*
X15143128Y-15458286D01*
X15157414Y-15486857D01*
X15171700Y-15544000D01*
X15171700Y-15615429D01*
X15157414Y-15672571D01*
X15143128Y-15701143D01*
X15128843Y-15715429D01*
X15100271Y-15729714D01*
X15071700Y-15729714D01*
X15043128Y-15715429D01*
X15028843Y-15701143D01*
X15014557Y-15672571D01*
X15000271Y-15615429D01*
X15000271Y-15544000D01*
X15014557Y-15486857D01*
X15028843Y-15458286D01*
X15043128Y-15444000D01*
X15071700Y-15429714D01*
X15300271Y-15701143D02*
X15314557Y-15715429D01*
X15300271Y-15729714D01*
X15285986Y-15715429D01*
X15300271Y-15701143D01*
X15300271Y-15729714D01*
X15500271Y-15429714D02*
X15528843Y-15429714D01*
X15557414Y-15444000D01*
X15571700Y-15458286D01*
X15585986Y-15486857D01*
X15600271Y-15544000D01*
X15600271Y-15615429D01*
X15585986Y-15672571D01*
X15571700Y-15701143D01*
X15557414Y-15715429D01*
X15528843Y-15729714D01*
X15500271Y-15729714D01*
X15471700Y-15715429D01*
X15457414Y-15701143D01*
X15443128Y-15672571D01*
X15428843Y-15615429D01*
X15428843Y-15544000D01*
X15443128Y-15486857D01*
X15457414Y-15458286D01*
X15471700Y-15444000D01*
X15500271Y-15429714D01*
X15700271Y-15429714D02*
X15885986Y-15429714D01*
X15785986Y-15544000D01*
X15828843Y-15544000D01*
X15857414Y-15558286D01*
X15871700Y-15572571D01*
X15885986Y-15601143D01*
X15885986Y-15672571D01*
X15871700Y-15701143D01*
X15857414Y-15715429D01*
X15828843Y-15729714D01*
X15743128Y-15729714D01*
X15714557Y-15715429D01*
X15700271Y-15701143D01*
X16071700Y-15429714D02*
X16100271Y-15429714D01*
X16128843Y-15444000D01*
X16143128Y-15458286D01*
X16157414Y-15486857D01*
X16171700Y-15544000D01*
X16171700Y-15615429D01*
X16157414Y-15672571D01*
X16143128Y-15701143D01*
X16128843Y-15715429D01*
X16100271Y-15729714D01*
X16071700Y-15729714D01*
X16043128Y-15715429D01*
X16028843Y-15701143D01*
X16014557Y-15672571D01*
X16000271Y-15615429D01*
X16000271Y-15544000D01*
X16014557Y-15486857D01*
X16028843Y-15458286D01*
X16043128Y-15444000D01*
X16071700Y-15429714D01*
X16285986Y-15429714D02*
X16285986Y-15486857D01*
X16400271Y-15429714D02*
X16400271Y-15486857D01*
X16843128Y-15844000D02*
X16828843Y-15829714D01*
X16800271Y-15786857D01*
X16785986Y-15758286D01*
X16771700Y-15715429D01*
X16757414Y-15644000D01*
X16757414Y-15586857D01*
X16771700Y-15515429D01*
X16785986Y-15472571D01*
X16800271Y-15444000D01*
X16828843Y-15401143D01*
X16843128Y-15386857D01*
X16928843Y-15429714D02*
X17114557Y-15429714D01*
X17014557Y-15544000D01*
X17057414Y-15544000D01*
X17085986Y-15558286D01*
X17100271Y-15572571D01*
X17114557Y-15601143D01*
X17114557Y-15672571D01*
X17100271Y-15701143D01*
X17085986Y-15715429D01*
X17057414Y-15729714D01*
X16971700Y-15729714D01*
X16943128Y-15715429D01*
X16928843Y-15701143D01*
X17471700Y-15729714D02*
X17471700Y-15429714D01*
X17600271Y-15729714D02*
X17600271Y-15572571D01*
X17585986Y-15544000D01*
X17557414Y-15529714D01*
X17514557Y-15529714D01*
X17485986Y-15544000D01*
X17471700Y-15558286D01*
X17785986Y-15729714D02*
X17757414Y-15715429D01*
X17743128Y-15701143D01*
X17728843Y-15672571D01*
X17728843Y-15586857D01*
X17743128Y-15558286D01*
X17757414Y-15544000D01*
X17785986Y-15529714D01*
X17828843Y-15529714D01*
X17857414Y-15544000D01*
X17871700Y-15558286D01*
X17885986Y-15586857D01*
X17885986Y-15672571D01*
X17871700Y-15701143D01*
X17857414Y-15715429D01*
X17828843Y-15729714D01*
X17785986Y-15729714D01*
X18057414Y-15729714D02*
X18028843Y-15715429D01*
X18014557Y-15686857D01*
X18014557Y-15429714D01*
X18285986Y-15715429D02*
X18257414Y-15729714D01*
X18200271Y-15729714D01*
X18171700Y-15715429D01*
X18157414Y-15686857D01*
X18157414Y-15572571D01*
X18171700Y-15544000D01*
X18200271Y-15529714D01*
X18257414Y-15529714D01*
X18285986Y-15544000D01*
X18300271Y-15572571D01*
X18300271Y-15601143D01*
X18157414Y-15629714D01*
X18414557Y-15715429D02*
X18443128Y-15729714D01*
X18500271Y-15729714D01*
X18528843Y-15715429D01*
X18543128Y-15686857D01*
X18543128Y-15672571D01*
X18528843Y-15644000D01*
X18500271Y-15629714D01*
X18457414Y-15629714D01*
X18428843Y-15615429D01*
X18414557Y-15586857D01*
X18414557Y-15572571D01*
X18428843Y-15544000D01*
X18457414Y-15529714D01*
X18500271Y-15529714D01*
X18528843Y-15544000D01*
X18643128Y-15844000D02*
X18657414Y-15829714D01*
X18685986Y-15786857D01*
X18700271Y-15758286D01*
X18714557Y-15715429D01*
X18728843Y-15644000D01*
X18728843Y-15586857D01*
X18714557Y-15515429D01*
X18700271Y-15472571D01*
X18685986Y-15444000D01*
X18657414Y-15401143D01*
X18643128Y-15386857D01*
X12116700Y-15950000D02*
X12116700Y-16030000D01*
X12076700Y-15990000D02*
X12156700Y-15990000D01*
X12500271Y-15825714D02*
X12528843Y-15825714D01*
X12557414Y-15840000D01*
X12571700Y-15854286D01*
X12585986Y-15882857D01*
X12600271Y-15940000D01*
X12600271Y-16011429D01*
X12585986Y-16068571D01*
X12571700Y-16097143D01*
X12557414Y-16111429D01*
X12528843Y-16125714D01*
X12500271Y-16125714D01*
X12471700Y-16111429D01*
X12457414Y-16097143D01*
X12443128Y-16068571D01*
X12428843Y-16011429D01*
X12428843Y-15940000D01*
X12443128Y-15882857D01*
X12457414Y-15854286D01*
X12471700Y-15840000D01*
X12500271Y-15825714D01*
X12728843Y-16097143D02*
X12743128Y-16111429D01*
X12728843Y-16125714D01*
X12714557Y-16111429D01*
X12728843Y-16097143D01*
X12728843Y-16125714D01*
X12914557Y-15954286D02*
X12885986Y-15940000D01*
X12871700Y-15925714D01*
X12857414Y-15897143D01*
X12857414Y-15882857D01*
X12871700Y-15854286D01*
X12885986Y-15840000D01*
X12914557Y-15825714D01*
X12971700Y-15825714D01*
X13000271Y-15840000D01*
X13014557Y-15854286D01*
X13028843Y-15882857D01*
X13028843Y-15897143D01*
X13014557Y-15925714D01*
X13000271Y-15940000D01*
X12971700Y-15954286D01*
X12914557Y-15954286D01*
X12885986Y-15968571D01*
X12871700Y-15982857D01*
X12857414Y-16011429D01*
X12857414Y-16068571D01*
X12871700Y-16097143D01*
X12885986Y-16111429D01*
X12914557Y-16125714D01*
X12971700Y-16125714D01*
X13000271Y-16111429D01*
X13014557Y-16097143D01*
X13028843Y-16068571D01*
X13028843Y-16011429D01*
X13014557Y-15982857D01*
X13000271Y-15968571D01*
X12971700Y-15954286D01*
X13214557Y-15825714D02*
X13243128Y-15825714D01*
X13271700Y-15840000D01*
X13285986Y-15854286D01*
X13300271Y-15882857D01*
X13314557Y-15940000D01*
X13314557Y-16011429D01*
X13300271Y-16068571D01*
X13285986Y-16097143D01*
X13271700Y-16111429D01*
X13243128Y-16125714D01*
X13214557Y-16125714D01*
X13185986Y-16111429D01*
X13171700Y-16097143D01*
X13157414Y-16068571D01*
X13143128Y-16011429D01*
X13143128Y-15940000D01*
X13157414Y-15882857D01*
X13171700Y-15854286D01*
X13185986Y-15840000D01*
X13214557Y-15825714D01*
X13443128Y-16125714D02*
X13443128Y-15925714D01*
X13443128Y-15954286D02*
X13457414Y-15940000D01*
X13485986Y-15925714D01*
X13528843Y-15925714D01*
X13557414Y-15940000D01*
X13571700Y-15968571D01*
X13571700Y-16125714D01*
X13571700Y-15968571D02*
X13585986Y-15940000D01*
X13614557Y-15925714D01*
X13657414Y-15925714D01*
X13685986Y-15940000D01*
X13700271Y-15968571D01*
X13700271Y-16125714D01*
X13843128Y-16125714D02*
X13843128Y-15925714D01*
X13843128Y-15954286D02*
X13857414Y-15940000D01*
X13885986Y-15925714D01*
X13928843Y-15925714D01*
X13957414Y-15940000D01*
X13971700Y-15968571D01*
X13971700Y-16125714D01*
X13971700Y-15968571D02*
X13985986Y-15940000D01*
X14014557Y-15925714D01*
X14057414Y-15925714D01*
X14085986Y-15940000D01*
X14100271Y-15968571D01*
X14100271Y-16125714D01*
X14685986Y-15811429D02*
X14428843Y-16197143D01*
X15071700Y-15825714D02*
X15100271Y-15825714D01*
X15128843Y-15840000D01*
X15143128Y-15854286D01*
X15157414Y-15882857D01*
X15171700Y-15940000D01*
X15171700Y-16011429D01*
X15157414Y-16068571D01*
X15143128Y-16097143D01*
X15128843Y-16111429D01*
X15100271Y-16125714D01*
X15071700Y-16125714D01*
X15043128Y-16111429D01*
X15028843Y-16097143D01*
X15014557Y-16068571D01*
X15000271Y-16011429D01*
X15000271Y-15940000D01*
X15014557Y-15882857D01*
X15028843Y-15854286D01*
X15043128Y-15840000D01*
X15071700Y-15825714D01*
X15300271Y-16097143D02*
X15314557Y-16111429D01*
X15300271Y-16125714D01*
X15285986Y-16111429D01*
X15300271Y-16097143D01*
X15300271Y-16125714D01*
X15500271Y-15825714D02*
X15528843Y-15825714D01*
X15557414Y-15840000D01*
X15571700Y-15854286D01*
X15585986Y-15882857D01*
X15600271Y-15940000D01*
X15600271Y-16011429D01*
X15585986Y-16068571D01*
X15571700Y-16097143D01*
X15557414Y-16111429D01*
X15528843Y-16125714D01*
X15500271Y-16125714D01*
X15471700Y-16111429D01*
X15457414Y-16097143D01*
X15443128Y-16068571D01*
X15428843Y-16011429D01*
X15428843Y-15940000D01*
X15443128Y-15882857D01*
X15457414Y-15854286D01*
X15471700Y-15840000D01*
X15500271Y-15825714D01*
X15700271Y-15825714D02*
X15885986Y-15825714D01*
X15785986Y-15940000D01*
X15828843Y-15940000D01*
X15857414Y-15954286D01*
X15871700Y-15968571D01*
X15885986Y-15997143D01*
X15885986Y-16068571D01*
X15871700Y-16097143D01*
X15857414Y-16111429D01*
X15828843Y-16125714D01*
X15743128Y-16125714D01*
X15714557Y-16111429D01*
X15700271Y-16097143D01*
X16171700Y-16125714D02*
X16000271Y-16125714D01*
X16085986Y-16125714D02*
X16085986Y-15825714D01*
X16057414Y-15868571D01*
X16028843Y-15897143D01*
X16000271Y-15911429D01*
X16285986Y-15825714D02*
X16285986Y-15882857D01*
X16400271Y-15825714D02*
X16400271Y-15882857D01*
X16843128Y-16240000D02*
X16828843Y-16225714D01*
X16800271Y-16182857D01*
X16785986Y-16154286D01*
X16771700Y-16111429D01*
X16757414Y-16040000D01*
X16757414Y-15982857D01*
X16771700Y-15911429D01*
X16785986Y-15868571D01*
X16800271Y-15840000D01*
X16828843Y-15797143D01*
X16843128Y-15782857D01*
X17085986Y-15925714D02*
X17085986Y-16125714D01*
X17014557Y-15811429D02*
X16943128Y-16025714D01*
X17128843Y-16025714D01*
X17371700Y-15825714D02*
X17314557Y-15825714D01*
X17285986Y-15840000D01*
X17271700Y-15854286D01*
X17243128Y-15897143D01*
X17228843Y-15954286D01*
X17228843Y-16068571D01*
X17243128Y-16097143D01*
X17257414Y-16111429D01*
X17285986Y-16125714D01*
X17343128Y-16125714D01*
X17371700Y-16111429D01*
X17385986Y-16097143D01*
X17400271Y-16068571D01*
X17400271Y-15997143D01*
X17385986Y-15968571D01*
X17371700Y-15954286D01*
X17343128Y-15940000D01*
X17285986Y-15940000D01*
X17257414Y-15954286D01*
X17243128Y-15968571D01*
X17228843Y-15997143D01*
X17757414Y-16125714D02*
X17757414Y-15825714D01*
X17885986Y-16125714D02*
X17885986Y-15968571D01*
X17871700Y-15940000D01*
X17843128Y-15925714D01*
X17800271Y-15925714D01*
X17771700Y-15940000D01*
X17757414Y-15954286D01*
X18071700Y-16125714D02*
X18043128Y-16111429D01*
X18028843Y-16097143D01*
X18014557Y-16068571D01*
X18014557Y-15982857D01*
X18028843Y-15954286D01*
X18043128Y-15940000D01*
X18071700Y-15925714D01*
X18114557Y-15925714D01*
X18143128Y-15940000D01*
X18157414Y-15954286D01*
X18171700Y-15982857D01*
X18171700Y-16068571D01*
X18157414Y-16097143D01*
X18143128Y-16111429D01*
X18114557Y-16125714D01*
X18071700Y-16125714D01*
X18343128Y-16125714D02*
X18314557Y-16111429D01*
X18300271Y-16082857D01*
X18300271Y-15825714D01*
X18571700Y-16111429D02*
X18543128Y-16125714D01*
X18485986Y-16125714D01*
X18457414Y-16111429D01*
X18443128Y-16082857D01*
X18443128Y-15968571D01*
X18457414Y-15940000D01*
X18485986Y-15925714D01*
X18543128Y-15925714D01*
X18571700Y-15940000D01*
X18585986Y-15968571D01*
X18585986Y-15997143D01*
X18443128Y-16025714D01*
X18700271Y-16111429D02*
X18728843Y-16125714D01*
X18785986Y-16125714D01*
X18814557Y-16111429D01*
X18828843Y-16082857D01*
X18828843Y-16068571D01*
X18814557Y-16040000D01*
X18785986Y-16025714D01*
X18743128Y-16025714D01*
X18714557Y-16011429D01*
X18700271Y-15982857D01*
X18700271Y-15968571D01*
X18714557Y-15940000D01*
X18743128Y-15925714D01*
X18785986Y-15925714D01*
X18814557Y-15940000D01*
X18928843Y-16240000D02*
X18943128Y-16225714D01*
X18971700Y-16182857D01*
X18985986Y-16154286D01*
X19000271Y-16111429D01*
X19014557Y-16040000D01*
X19014557Y-15982857D01*
X19000271Y-15911429D01*
X18985986Y-15868571D01*
X18971700Y-15840000D01*
X18943128Y-15797143D01*
X18928843Y-15782857D01*
X12143681Y-16417431D02*
X12143681Y-16354569D01*
X12080819Y-16354569D01*
X12080819Y-16417431D01*
X12143681Y-16417431D01*
X12500271Y-16221714D02*
X12528843Y-16221714D01*
X12557414Y-16236000D01*
X12571700Y-16250286D01*
X12585986Y-16278857D01*
X12600271Y-16336000D01*
X12600271Y-16407429D01*
X12585986Y-16464571D01*
X12571700Y-16493143D01*
X12557414Y-16507429D01*
X12528843Y-16521714D01*
X12500271Y-16521714D01*
X12471700Y-16507429D01*
X12457414Y-16493143D01*
X12443128Y-16464571D01*
X12428843Y-16407429D01*
X12428843Y-16336000D01*
X12443128Y-16278857D01*
X12457414Y-16250286D01*
X12471700Y-16236000D01*
X12500271Y-16221714D01*
X12728843Y-16493143D02*
X12743128Y-16507429D01*
X12728843Y-16521714D01*
X12714557Y-16507429D01*
X12728843Y-16493143D01*
X12728843Y-16521714D01*
X12914557Y-16350286D02*
X12885986Y-16336000D01*
X12871700Y-16321714D01*
X12857414Y-16293143D01*
X12857414Y-16278857D01*
X12871700Y-16250286D01*
X12885986Y-16236000D01*
X12914557Y-16221714D01*
X12971700Y-16221714D01*
X13000271Y-16236000D01*
X13014557Y-16250286D01*
X13028843Y-16278857D01*
X13028843Y-16293143D01*
X13014557Y-16321714D01*
X13000271Y-16336000D01*
X12971700Y-16350286D01*
X12914557Y-16350286D01*
X12885986Y-16364571D01*
X12871700Y-16378857D01*
X12857414Y-16407429D01*
X12857414Y-16464571D01*
X12871700Y-16493143D01*
X12885986Y-16507429D01*
X12914557Y-16521714D01*
X12971700Y-16521714D01*
X13000271Y-16507429D01*
X13014557Y-16493143D01*
X13028843Y-16464571D01*
X13028843Y-16407429D01*
X13014557Y-16378857D01*
X13000271Y-16364571D01*
X12971700Y-16350286D01*
X13171700Y-16521714D02*
X13228843Y-16521714D01*
X13257414Y-16507429D01*
X13271700Y-16493143D01*
X13300271Y-16450286D01*
X13314557Y-16393143D01*
X13314557Y-16278857D01*
X13300271Y-16250286D01*
X13285986Y-16236000D01*
X13257414Y-16221714D01*
X13200271Y-16221714D01*
X13171700Y-16236000D01*
X13157414Y-16250286D01*
X13143128Y-16278857D01*
X13143128Y-16350286D01*
X13157414Y-16378857D01*
X13171700Y-16393143D01*
X13200271Y-16407429D01*
X13257414Y-16407429D01*
X13285986Y-16393143D01*
X13300271Y-16378857D01*
X13314557Y-16350286D01*
X13443128Y-16521714D02*
X13443128Y-16321714D01*
X13443128Y-16350286D02*
X13457414Y-16336000D01*
X13485986Y-16321714D01*
X13528843Y-16321714D01*
X13557414Y-16336000D01*
X13571700Y-16364571D01*
X13571700Y-16521714D01*
X13571700Y-16364571D02*
X13585986Y-16336000D01*
X13614557Y-16321714D01*
X13657414Y-16321714D01*
X13685986Y-16336000D01*
X13700271Y-16364571D01*
X13700271Y-16521714D01*
X13843128Y-16521714D02*
X13843128Y-16321714D01*
X13843128Y-16350286D02*
X13857414Y-16336000D01*
X13885986Y-16321714D01*
X13928843Y-16321714D01*
X13957414Y-16336000D01*
X13971700Y-16364571D01*
X13971700Y-16521714D01*
X13971700Y-16364571D02*
X13985986Y-16336000D01*
X14014557Y-16321714D01*
X14057414Y-16321714D01*
X14085986Y-16336000D01*
X14100271Y-16364571D01*
X14100271Y-16521714D01*
X14685986Y-16207429D02*
X14428843Y-16593143D01*
X15071700Y-16221714D02*
X15100271Y-16221714D01*
X15128843Y-16236000D01*
X15143128Y-16250286D01*
X15157414Y-16278857D01*
X15171700Y-16336000D01*
X15171700Y-16407429D01*
X15157414Y-16464571D01*
X15143128Y-16493143D01*
X15128843Y-16507429D01*
X15100271Y-16521714D01*
X15071700Y-16521714D01*
X15043128Y-16507429D01*
X15028843Y-16493143D01*
X15014557Y-16464571D01*
X15000271Y-16407429D01*
X15000271Y-16336000D01*
X15014557Y-16278857D01*
X15028843Y-16250286D01*
X15043128Y-16236000D01*
X15071700Y-16221714D01*
X15300271Y-16493143D02*
X15314557Y-16507429D01*
X15300271Y-16521714D01*
X15285986Y-16507429D01*
X15300271Y-16493143D01*
X15300271Y-16521714D01*
X15500271Y-16221714D02*
X15528843Y-16221714D01*
X15557414Y-16236000D01*
X15571700Y-16250286D01*
X15585986Y-16278857D01*
X15600271Y-16336000D01*
X15600271Y-16407429D01*
X15585986Y-16464571D01*
X15571700Y-16493143D01*
X15557414Y-16507429D01*
X15528843Y-16521714D01*
X15500271Y-16521714D01*
X15471700Y-16507429D01*
X15457414Y-16493143D01*
X15443128Y-16464571D01*
X15428843Y-16407429D01*
X15428843Y-16336000D01*
X15443128Y-16278857D01*
X15457414Y-16250286D01*
X15471700Y-16236000D01*
X15500271Y-16221714D01*
X15700271Y-16221714D02*
X15885986Y-16221714D01*
X15785986Y-16336000D01*
X15828843Y-16336000D01*
X15857414Y-16350286D01*
X15871700Y-16364571D01*
X15885986Y-16393143D01*
X15885986Y-16464571D01*
X15871700Y-16493143D01*
X15857414Y-16507429D01*
X15828843Y-16521714D01*
X15743128Y-16521714D01*
X15714557Y-16507429D01*
X15700271Y-16493143D01*
X16157414Y-16221714D02*
X16014557Y-16221714D01*
X16000271Y-16364571D01*
X16014557Y-16350286D01*
X16043128Y-16336000D01*
X16114557Y-16336000D01*
X16143128Y-16350286D01*
X16157414Y-16364571D01*
X16171700Y-16393143D01*
X16171700Y-16464571D01*
X16157414Y-16493143D01*
X16143128Y-16507429D01*
X16114557Y-16521714D01*
X16043128Y-16521714D01*
X16014557Y-16507429D01*
X16000271Y-16493143D01*
X16285986Y-16221714D02*
X16285986Y-16278857D01*
X16400271Y-16221714D02*
X16400271Y-16278857D01*
X16843128Y-16636000D02*
X16828843Y-16621714D01*
X16800271Y-16578857D01*
X16785986Y-16550286D01*
X16771700Y-16507429D01*
X16757414Y-16436000D01*
X16757414Y-16378857D01*
X16771700Y-16307429D01*
X16785986Y-16264571D01*
X16800271Y-16236000D01*
X16828843Y-16193143D01*
X16843128Y-16178857D01*
X16943128Y-16250286D02*
X16957414Y-16236000D01*
X16985986Y-16221714D01*
X17057414Y-16221714D01*
X17085986Y-16236000D01*
X17100271Y-16250286D01*
X17114557Y-16278857D01*
X17114557Y-16307429D01*
X17100271Y-16350286D01*
X16928843Y-16521714D01*
X17114557Y-16521714D01*
X17471700Y-16521714D02*
X17471700Y-16221714D01*
X17600271Y-16521714D02*
X17600271Y-16364571D01*
X17585986Y-16336000D01*
X17557414Y-16321714D01*
X17514557Y-16321714D01*
X17485986Y-16336000D01*
X17471700Y-16350286D01*
X17785986Y-16521714D02*
X17757414Y-16507429D01*
X17743128Y-16493143D01*
X17728843Y-16464571D01*
X17728843Y-16378857D01*
X17743128Y-16350286D01*
X17757414Y-16336000D01*
X17785986Y-16321714D01*
X17828843Y-16321714D01*
X17857414Y-16336000D01*
X17871700Y-16350286D01*
X17885986Y-16378857D01*
X17885986Y-16464571D01*
X17871700Y-16493143D01*
X17857414Y-16507429D01*
X17828843Y-16521714D01*
X17785986Y-16521714D01*
X18057414Y-16521714D02*
X18028843Y-16507429D01*
X18014557Y-16478857D01*
X18014557Y-16221714D01*
X18285986Y-16507429D02*
X18257414Y-16521714D01*
X18200271Y-16521714D01*
X18171700Y-16507429D01*
X18157414Y-16478857D01*
X18157414Y-16364571D01*
X18171700Y-16336000D01*
X18200271Y-16321714D01*
X18257414Y-16321714D01*
X18285986Y-16336000D01*
X18300271Y-16364571D01*
X18300271Y-16393143D01*
X18157414Y-16421714D01*
X18414557Y-16507429D02*
X18443128Y-16521714D01*
X18500271Y-16521714D01*
X18528843Y-16507429D01*
X18543128Y-16478857D01*
X18543128Y-16464571D01*
X18528843Y-16436000D01*
X18500271Y-16421714D01*
X18457414Y-16421714D01*
X18428843Y-16407429D01*
X18414557Y-16378857D01*
X18414557Y-16364571D01*
X18428843Y-16336000D01*
X18457414Y-16321714D01*
X18500271Y-16321714D01*
X18528843Y-16336000D01*
X18643128Y-16636000D02*
X18657414Y-16621714D01*
X18685986Y-16578857D01*
X18700271Y-16550286D01*
X18714557Y-16507429D01*
X18728843Y-16436000D01*
X18728843Y-16378857D01*
X18714557Y-16307429D01*
X18700271Y-16264571D01*
X18685986Y-16236000D01*
X18657414Y-16193143D01*
X18643128Y-16178857D01*
X12111700Y-16827000D02*
X12156700Y-16782000D01*
X12111700Y-16737000D01*
X12066700Y-16782000D01*
X12111700Y-16827000D01*
X12500271Y-16617714D02*
X12528843Y-16617714D01*
X12557414Y-16632000D01*
X12571700Y-16646286D01*
X12585986Y-16674857D01*
X12600271Y-16732000D01*
X12600271Y-16803429D01*
X12585986Y-16860572D01*
X12571700Y-16889143D01*
X12557414Y-16903429D01*
X12528843Y-16917714D01*
X12500271Y-16917714D01*
X12471700Y-16903429D01*
X12457414Y-16889143D01*
X12443128Y-16860572D01*
X12428843Y-16803429D01*
X12428843Y-16732000D01*
X12443128Y-16674857D01*
X12457414Y-16646286D01*
X12471700Y-16632000D01*
X12500271Y-16617714D01*
X12728843Y-16889143D02*
X12743128Y-16903429D01*
X12728843Y-16917714D01*
X12714557Y-16903429D01*
X12728843Y-16889143D01*
X12728843Y-16917714D01*
X12885986Y-16917714D02*
X12943128Y-16917714D01*
X12971700Y-16903429D01*
X12985986Y-16889143D01*
X13014557Y-16846286D01*
X13028843Y-16789143D01*
X13028843Y-16674857D01*
X13014557Y-16646286D01*
X13000271Y-16632000D01*
X12971700Y-16617714D01*
X12914557Y-16617714D01*
X12885986Y-16632000D01*
X12871700Y-16646286D01*
X12857414Y-16674857D01*
X12857414Y-16746286D01*
X12871700Y-16774857D01*
X12885986Y-16789143D01*
X12914557Y-16803429D01*
X12971700Y-16803429D01*
X13000271Y-16789143D01*
X13014557Y-16774857D01*
X13028843Y-16746286D01*
X13214557Y-16617714D02*
X13243128Y-16617714D01*
X13271700Y-16632000D01*
X13285986Y-16646286D01*
X13300271Y-16674857D01*
X13314557Y-16732000D01*
X13314557Y-16803429D01*
X13300271Y-16860572D01*
X13285986Y-16889143D01*
X13271700Y-16903429D01*
X13243128Y-16917714D01*
X13214557Y-16917714D01*
X13185986Y-16903429D01*
X13171700Y-16889143D01*
X13157414Y-16860572D01*
X13143128Y-16803429D01*
X13143128Y-16732000D01*
X13157414Y-16674857D01*
X13171700Y-16646286D01*
X13185986Y-16632000D01*
X13214557Y-16617714D01*
X13443128Y-16917714D02*
X13443128Y-16717714D01*
X13443128Y-16746286D02*
X13457414Y-16732000D01*
X13485986Y-16717714D01*
X13528843Y-16717714D01*
X13557414Y-16732000D01*
X13571700Y-16760571D01*
X13571700Y-16917714D01*
X13571700Y-16760571D02*
X13585986Y-16732000D01*
X13614557Y-16717714D01*
X13657414Y-16717714D01*
X13685986Y-16732000D01*
X13700271Y-16760571D01*
X13700271Y-16917714D01*
X13843128Y-16917714D02*
X13843128Y-16717714D01*
X13843128Y-16746286D02*
X13857414Y-16732000D01*
X13885986Y-16717714D01*
X13928843Y-16717714D01*
X13957414Y-16732000D01*
X13971700Y-16760571D01*
X13971700Y-16917714D01*
X13971700Y-16760571D02*
X13985986Y-16732000D01*
X14014557Y-16717714D01*
X14057414Y-16717714D01*
X14085986Y-16732000D01*
X14100271Y-16760571D01*
X14100271Y-16917714D01*
X14685986Y-16603429D02*
X14428843Y-16989143D01*
X15071700Y-16617714D02*
X15100271Y-16617714D01*
X15128843Y-16632000D01*
X15143128Y-16646286D01*
X15157414Y-16674857D01*
X15171700Y-16732000D01*
X15171700Y-16803429D01*
X15157414Y-16860572D01*
X15143128Y-16889143D01*
X15128843Y-16903429D01*
X15100271Y-16917714D01*
X15071700Y-16917714D01*
X15043128Y-16903429D01*
X15028843Y-16889143D01*
X15014557Y-16860572D01*
X15000271Y-16803429D01*
X15000271Y-16732000D01*
X15014557Y-16674857D01*
X15028843Y-16646286D01*
X15043128Y-16632000D01*
X15071700Y-16617714D01*
X15300271Y-16889143D02*
X15314557Y-16903429D01*
X15300271Y-16917714D01*
X15285986Y-16903429D01*
X15300271Y-16889143D01*
X15300271Y-16917714D01*
X15500271Y-16617714D02*
X15528843Y-16617714D01*
X15557414Y-16632000D01*
X15571700Y-16646286D01*
X15585986Y-16674857D01*
X15600271Y-16732000D01*
X15600271Y-16803429D01*
X15585986Y-16860572D01*
X15571700Y-16889143D01*
X15557414Y-16903429D01*
X15528843Y-16917714D01*
X15500271Y-16917714D01*
X15471700Y-16903429D01*
X15457414Y-16889143D01*
X15443128Y-16860572D01*
X15428843Y-16803429D01*
X15428843Y-16732000D01*
X15443128Y-16674857D01*
X15457414Y-16646286D01*
X15471700Y-16632000D01*
X15500271Y-16617714D01*
X15700271Y-16617714D02*
X15885986Y-16617714D01*
X15785986Y-16732000D01*
X15828843Y-16732000D01*
X15857414Y-16746286D01*
X15871700Y-16760571D01*
X15885986Y-16789143D01*
X15885986Y-16860572D01*
X15871700Y-16889143D01*
X15857414Y-16903429D01*
X15828843Y-16917714D01*
X15743128Y-16917714D01*
X15714557Y-16903429D01*
X15700271Y-16889143D01*
X16157414Y-16617714D02*
X16014557Y-16617714D01*
X16000271Y-16760571D01*
X16014557Y-16746286D01*
X16043128Y-16732000D01*
X16114557Y-16732000D01*
X16143128Y-16746286D01*
X16157414Y-16760571D01*
X16171700Y-16789143D01*
X16171700Y-16860572D01*
X16157414Y-16889143D01*
X16143128Y-16903429D01*
X16114557Y-16917714D01*
X16043128Y-16917714D01*
X16014557Y-16903429D01*
X16000271Y-16889143D01*
X16285986Y-16617714D02*
X16285986Y-16674857D01*
X16400271Y-16617714D02*
X16400271Y-16674857D01*
X16843128Y-17032000D02*
X16828843Y-17017714D01*
X16800271Y-16974857D01*
X16785986Y-16946286D01*
X16771700Y-16903429D01*
X16757414Y-16832000D01*
X16757414Y-16774857D01*
X16771700Y-16703429D01*
X16785986Y-16660571D01*
X16800271Y-16632000D01*
X16828843Y-16589143D01*
X16843128Y-16574857D01*
X16928843Y-16617714D02*
X17114557Y-16617714D01*
X17014557Y-16732000D01*
X17057414Y-16732000D01*
X17085986Y-16746286D01*
X17100271Y-16760571D01*
X17114557Y-16789143D01*
X17114557Y-16860572D01*
X17100271Y-16889143D01*
X17085986Y-16903429D01*
X17057414Y-16917714D01*
X16971700Y-16917714D01*
X16943128Y-16903429D01*
X16928843Y-16889143D01*
X17471700Y-16917714D02*
X17471700Y-16617714D01*
X17600271Y-16917714D02*
X17600271Y-16760571D01*
X17585986Y-16732000D01*
X17557414Y-16717714D01*
X17514557Y-16717714D01*
X17485986Y-16732000D01*
X17471700Y-16746286D01*
X17785986Y-16917714D02*
X17757414Y-16903429D01*
X17743128Y-16889143D01*
X17728843Y-16860572D01*
X17728843Y-16774857D01*
X17743128Y-16746286D01*
X17757414Y-16732000D01*
X17785986Y-16717714D01*
X17828843Y-16717714D01*
X17857414Y-16732000D01*
X17871700Y-16746286D01*
X17885986Y-16774857D01*
X17885986Y-16860572D01*
X17871700Y-16889143D01*
X17857414Y-16903429D01*
X17828843Y-16917714D01*
X17785986Y-16917714D01*
X18057414Y-16917714D02*
X18028843Y-16903429D01*
X18014557Y-16874857D01*
X18014557Y-16617714D01*
X18285986Y-16903429D02*
X18257414Y-16917714D01*
X18200271Y-16917714D01*
X18171700Y-16903429D01*
X18157414Y-16874857D01*
X18157414Y-16760571D01*
X18171700Y-16732000D01*
X18200271Y-16717714D01*
X18257414Y-16717714D01*
X18285986Y-16732000D01*
X18300271Y-16760571D01*
X18300271Y-16789143D01*
X18157414Y-16817714D01*
X18414557Y-16903429D02*
X18443128Y-16917714D01*
X18500271Y-16917714D01*
X18528843Y-16903429D01*
X18543128Y-16874857D01*
X18543128Y-16860572D01*
X18528843Y-16832000D01*
X18500271Y-16817714D01*
X18457414Y-16817714D01*
X18428843Y-16803429D01*
X18414557Y-16774857D01*
X18414557Y-16760571D01*
X18428843Y-16732000D01*
X18457414Y-16717714D01*
X18500271Y-16717714D01*
X18528843Y-16732000D01*
X18643128Y-17032000D02*
X18657414Y-17017714D01*
X18685986Y-16974857D01*
X18700271Y-16946286D01*
X18714557Y-16903429D01*
X18728843Y-16832000D01*
X18728843Y-16774857D01*
X18714557Y-16703429D01*
X18700271Y-16660571D01*
X18685986Y-16632000D01*
X18657414Y-16589143D01*
X18643128Y-16574857D01*
X12056700Y-17128000D02*
X12156700Y-17228000D01*
X12156700Y-17128000D02*
X12056700Y-17228000D01*
X12156700Y-17178000D02*
G75*
G03*
X12156700Y-17178000I-50000J0D01*
G01*
X12600271Y-17313714D02*
X12428843Y-17313714D01*
X12514557Y-17313714D02*
X12514557Y-17013714D01*
X12485986Y-17056572D01*
X12457414Y-17085143D01*
X12428843Y-17099429D01*
X12728843Y-17285143D02*
X12743128Y-17299429D01*
X12728843Y-17313714D01*
X12714557Y-17299429D01*
X12728843Y-17285143D01*
X12728843Y-17313714D01*
X12928843Y-17013714D02*
X12957414Y-17013714D01*
X12985986Y-17028000D01*
X13000271Y-17042286D01*
X13014557Y-17070857D01*
X13028843Y-17128000D01*
X13028843Y-17199429D01*
X13014557Y-17256572D01*
X13000271Y-17285143D01*
X12985986Y-17299429D01*
X12957414Y-17313714D01*
X12928843Y-17313714D01*
X12900271Y-17299429D01*
X12885986Y-17285143D01*
X12871700Y-17256572D01*
X12857414Y-17199429D01*
X12857414Y-17128000D01*
X12871700Y-17070857D01*
X12885986Y-17042286D01*
X12900271Y-17028000D01*
X12928843Y-17013714D01*
X13214557Y-17013714D02*
X13243128Y-17013714D01*
X13271700Y-17028000D01*
X13285986Y-17042286D01*
X13300271Y-17070857D01*
X13314557Y-17128000D01*
X13314557Y-17199429D01*
X13300271Y-17256572D01*
X13285986Y-17285143D01*
X13271700Y-17299429D01*
X13243128Y-17313714D01*
X13214557Y-17313714D01*
X13185986Y-17299429D01*
X13171700Y-17285143D01*
X13157414Y-17256572D01*
X13143128Y-17199429D01*
X13143128Y-17128000D01*
X13157414Y-17070857D01*
X13171700Y-17042286D01*
X13185986Y-17028000D01*
X13214557Y-17013714D01*
X13443128Y-17313714D02*
X13443128Y-17113714D01*
X13443128Y-17142286D02*
X13457414Y-17128000D01*
X13485986Y-17113714D01*
X13528843Y-17113714D01*
X13557414Y-17128000D01*
X13571700Y-17156572D01*
X13571700Y-17313714D01*
X13571700Y-17156572D02*
X13585986Y-17128000D01*
X13614557Y-17113714D01*
X13657414Y-17113714D01*
X13685986Y-17128000D01*
X13700271Y-17156572D01*
X13700271Y-17313714D01*
X13843128Y-17313714D02*
X13843128Y-17113714D01*
X13843128Y-17142286D02*
X13857414Y-17128000D01*
X13885986Y-17113714D01*
X13928843Y-17113714D01*
X13957414Y-17128000D01*
X13971700Y-17156572D01*
X13971700Y-17313714D01*
X13971700Y-17156572D02*
X13985986Y-17128000D01*
X14014557Y-17113714D01*
X14057414Y-17113714D01*
X14085986Y-17128000D01*
X14100271Y-17156572D01*
X14100271Y-17313714D01*
X14685986Y-16999429D02*
X14428843Y-17385143D01*
X15071700Y-17013714D02*
X15100271Y-17013714D01*
X15128843Y-17028000D01*
X15143128Y-17042286D01*
X15157414Y-17070857D01*
X15171700Y-17128000D01*
X15171700Y-17199429D01*
X15157414Y-17256572D01*
X15143128Y-17285143D01*
X15128843Y-17299429D01*
X15100271Y-17313714D01*
X15071700Y-17313714D01*
X15043128Y-17299429D01*
X15028843Y-17285143D01*
X15014557Y-17256572D01*
X15000271Y-17199429D01*
X15000271Y-17128000D01*
X15014557Y-17070857D01*
X15028843Y-17042286D01*
X15043128Y-17028000D01*
X15071700Y-17013714D01*
X15300271Y-17285143D02*
X15314557Y-17299429D01*
X15300271Y-17313714D01*
X15285986Y-17299429D01*
X15300271Y-17285143D01*
X15300271Y-17313714D01*
X15500271Y-17013714D02*
X15528843Y-17013714D01*
X15557414Y-17028000D01*
X15571700Y-17042286D01*
X15585986Y-17070857D01*
X15600271Y-17128000D01*
X15600271Y-17199429D01*
X15585986Y-17256572D01*
X15571700Y-17285143D01*
X15557414Y-17299429D01*
X15528843Y-17313714D01*
X15500271Y-17313714D01*
X15471700Y-17299429D01*
X15457414Y-17285143D01*
X15443128Y-17256572D01*
X15428843Y-17199429D01*
X15428843Y-17128000D01*
X15443128Y-17070857D01*
X15457414Y-17042286D01*
X15471700Y-17028000D01*
X15500271Y-17013714D01*
X15700271Y-17013714D02*
X15885986Y-17013714D01*
X15785986Y-17128000D01*
X15828843Y-17128000D01*
X15857414Y-17142286D01*
X15871700Y-17156572D01*
X15885986Y-17185143D01*
X15885986Y-17256572D01*
X15871700Y-17285143D01*
X15857414Y-17299429D01*
X15828843Y-17313714D01*
X15743128Y-17313714D01*
X15714557Y-17299429D01*
X15700271Y-17285143D01*
X16028843Y-17313714D02*
X16085986Y-17313714D01*
X16114557Y-17299429D01*
X16128843Y-17285143D01*
X16157414Y-17242286D01*
X16171700Y-17185143D01*
X16171700Y-17070857D01*
X16157414Y-17042286D01*
X16143128Y-17028000D01*
X16114557Y-17013714D01*
X16057414Y-17013714D01*
X16028843Y-17028000D01*
X16014557Y-17042286D01*
X16000271Y-17070857D01*
X16000271Y-17142286D01*
X16014557Y-17170857D01*
X16028843Y-17185143D01*
X16057414Y-17199429D01*
X16114557Y-17199429D01*
X16143128Y-17185143D01*
X16157414Y-17170857D01*
X16171700Y-17142286D01*
X16285986Y-17013714D02*
X16285986Y-17070857D01*
X16400271Y-17013714D02*
X16400271Y-17070857D01*
X16843128Y-17428000D02*
X16828843Y-17413714D01*
X16800271Y-17370857D01*
X16785986Y-17342286D01*
X16771700Y-17299429D01*
X16757414Y-17228000D01*
X16757414Y-17170857D01*
X16771700Y-17099429D01*
X16785986Y-17056572D01*
X16800271Y-17028000D01*
X16828843Y-16985143D01*
X16843128Y-16970857D01*
X17114557Y-17313714D02*
X16943128Y-17313714D01*
X17028843Y-17313714D02*
X17028843Y-17013714D01*
X17000271Y-17056572D01*
X16971700Y-17085143D01*
X16943128Y-17099429D01*
X17214557Y-17013714D02*
X17400271Y-17013714D01*
X17300271Y-17128000D01*
X17343128Y-17128000D01*
X17371700Y-17142286D01*
X17385986Y-17156572D01*
X17400271Y-17185143D01*
X17400271Y-17256572D01*
X17385986Y-17285143D01*
X17371700Y-17299429D01*
X17343128Y-17313714D01*
X17257414Y-17313714D01*
X17228843Y-17299429D01*
X17214557Y-17285143D01*
X17571700Y-17142286D02*
X17543128Y-17128000D01*
X17528843Y-17113714D01*
X17514557Y-17085143D01*
X17514557Y-17070857D01*
X17528843Y-17042286D01*
X17543128Y-17028000D01*
X17571700Y-17013714D01*
X17628843Y-17013714D01*
X17657414Y-17028000D01*
X17671700Y-17042286D01*
X17685986Y-17070857D01*
X17685986Y-17085143D01*
X17671700Y-17113714D01*
X17657414Y-17128000D01*
X17628843Y-17142286D01*
X17571700Y-17142286D01*
X17543128Y-17156572D01*
X17528843Y-17170857D01*
X17514557Y-17199429D01*
X17514557Y-17256572D01*
X17528843Y-17285143D01*
X17543128Y-17299429D01*
X17571700Y-17313714D01*
X17628843Y-17313714D01*
X17657414Y-17299429D01*
X17671700Y-17285143D01*
X17685986Y-17256572D01*
X17685986Y-17199429D01*
X17671700Y-17170857D01*
X17657414Y-17156572D01*
X17628843Y-17142286D01*
X18043128Y-17313714D02*
X18043128Y-17013714D01*
X18171700Y-17313714D02*
X18171700Y-17156572D01*
X18157414Y-17128000D01*
X18128843Y-17113714D01*
X18085986Y-17113714D01*
X18057414Y-17128000D01*
X18043128Y-17142286D01*
X18357414Y-17313714D02*
X18328843Y-17299429D01*
X18314557Y-17285143D01*
X18300271Y-17256572D01*
X18300271Y-17170857D01*
X18314557Y-17142286D01*
X18328843Y-17128000D01*
X18357414Y-17113714D01*
X18400271Y-17113714D01*
X18428843Y-17128000D01*
X18443128Y-17142286D01*
X18457414Y-17170857D01*
X18457414Y-17256572D01*
X18443128Y-17285143D01*
X18428843Y-17299429D01*
X18400271Y-17313714D01*
X18357414Y-17313714D01*
X18628843Y-17313714D02*
X18600271Y-17299429D01*
X18585986Y-17270857D01*
X18585986Y-17013714D01*
X18857414Y-17299429D02*
X18828843Y-17313714D01*
X18771700Y-17313714D01*
X18743128Y-17299429D01*
X18728843Y-17270857D01*
X18728843Y-17156572D01*
X18743128Y-17128000D01*
X18771700Y-17113714D01*
X18828843Y-17113714D01*
X18857414Y-17128000D01*
X18871700Y-17156572D01*
X18871700Y-17185143D01*
X18728843Y-17213714D01*
X18985986Y-17299429D02*
X19014557Y-17313714D01*
X19071700Y-17313714D01*
X19100271Y-17299429D01*
X19114557Y-17270857D01*
X19114557Y-17256572D01*
X19100271Y-17228000D01*
X19071700Y-17213714D01*
X19028843Y-17213714D01*
X19000271Y-17199429D01*
X18985986Y-17170857D01*
X18985986Y-17156572D01*
X19000271Y-17128000D01*
X19028843Y-17113714D01*
X19071700Y-17113714D01*
X19100271Y-17128000D01*
X19214557Y-17428000D02*
X19228843Y-17413714D01*
X19257414Y-17370857D01*
X19271700Y-17342286D01*
X19285986Y-17299429D01*
X19300271Y-17228000D01*
X19300271Y-17170857D01*
X19285986Y-17099429D01*
X19271700Y-17056572D01*
X19257414Y-17028000D01*
X19228843Y-16985143D01*
X19214557Y-16970857D01*
X12055100Y-17523200D02*
X12156700Y-17624800D01*
X12156700Y-17523200D02*
X12055100Y-17624800D01*
X12105900Y-17523200D02*
X12105900Y-17624800D01*
X12055100Y-17574000D02*
X12156700Y-17574000D01*
X12600271Y-17709714D02*
X12428843Y-17709714D01*
X12514557Y-17709714D02*
X12514557Y-17409714D01*
X12485986Y-17452572D01*
X12457414Y-17481143D01*
X12428843Y-17495429D01*
X12728843Y-17681143D02*
X12743128Y-17695429D01*
X12728843Y-17709714D01*
X12714557Y-17695429D01*
X12728843Y-17681143D01*
X12728843Y-17709714D01*
X12928843Y-17409714D02*
X12957414Y-17409714D01*
X12985986Y-17424000D01*
X13000271Y-17438286D01*
X13014557Y-17466857D01*
X13028843Y-17524000D01*
X13028843Y-17595429D01*
X13014557Y-17652572D01*
X13000271Y-17681143D01*
X12985986Y-17695429D01*
X12957414Y-17709714D01*
X12928843Y-17709714D01*
X12900271Y-17695429D01*
X12885986Y-17681143D01*
X12871700Y-17652572D01*
X12857414Y-17595429D01*
X12857414Y-17524000D01*
X12871700Y-17466857D01*
X12885986Y-17438286D01*
X12900271Y-17424000D01*
X12928843Y-17409714D01*
X13143128Y-17438286D02*
X13157414Y-17424000D01*
X13185986Y-17409714D01*
X13257414Y-17409714D01*
X13285986Y-17424000D01*
X13300271Y-17438286D01*
X13314557Y-17466857D01*
X13314557Y-17495429D01*
X13300271Y-17538286D01*
X13128843Y-17709714D01*
X13314557Y-17709714D01*
X13443128Y-17709714D02*
X13443128Y-17509714D01*
X13443128Y-17538286D02*
X13457414Y-17524000D01*
X13485986Y-17509714D01*
X13528843Y-17509714D01*
X13557414Y-17524000D01*
X13571700Y-17552572D01*
X13571700Y-17709714D01*
X13571700Y-17552572D02*
X13585986Y-17524000D01*
X13614557Y-17509714D01*
X13657414Y-17509714D01*
X13685986Y-17524000D01*
X13700271Y-17552572D01*
X13700271Y-17709714D01*
X13843128Y-17709714D02*
X13843128Y-17509714D01*
X13843128Y-17538286D02*
X13857414Y-17524000D01*
X13885986Y-17509714D01*
X13928843Y-17509714D01*
X13957414Y-17524000D01*
X13971700Y-17552572D01*
X13971700Y-17709714D01*
X13971700Y-17552572D02*
X13985986Y-17524000D01*
X14014557Y-17509714D01*
X14057414Y-17509714D01*
X14085986Y-17524000D01*
X14100271Y-17552572D01*
X14100271Y-17709714D01*
X14685986Y-17395429D02*
X14428843Y-17781143D01*
X15071700Y-17409714D02*
X15100271Y-17409714D01*
X15128843Y-17424000D01*
X15143128Y-17438286D01*
X15157414Y-17466857D01*
X15171700Y-17524000D01*
X15171700Y-17595429D01*
X15157414Y-17652572D01*
X15143128Y-17681143D01*
X15128843Y-17695429D01*
X15100271Y-17709714D01*
X15071700Y-17709714D01*
X15043128Y-17695429D01*
X15028843Y-17681143D01*
X15014557Y-17652572D01*
X15000271Y-17595429D01*
X15000271Y-17524000D01*
X15014557Y-17466857D01*
X15028843Y-17438286D01*
X15043128Y-17424000D01*
X15071700Y-17409714D01*
X15300271Y-17681143D02*
X15314557Y-17695429D01*
X15300271Y-17709714D01*
X15285986Y-17695429D01*
X15300271Y-17681143D01*
X15300271Y-17709714D01*
X15500271Y-17409714D02*
X15528843Y-17409714D01*
X15557414Y-17424000D01*
X15571700Y-17438286D01*
X15585986Y-17466857D01*
X15600271Y-17524000D01*
X15600271Y-17595429D01*
X15585986Y-17652572D01*
X15571700Y-17681143D01*
X15557414Y-17695429D01*
X15528843Y-17709714D01*
X15500271Y-17709714D01*
X15471700Y-17695429D01*
X15457414Y-17681143D01*
X15443128Y-17652572D01*
X15428843Y-17595429D01*
X15428843Y-17524000D01*
X15443128Y-17466857D01*
X15457414Y-17438286D01*
X15471700Y-17424000D01*
X15500271Y-17409714D01*
X15857414Y-17509714D02*
X15857414Y-17709714D01*
X15785986Y-17395429D02*
X15714557Y-17609714D01*
X15900271Y-17609714D01*
X16071700Y-17409714D02*
X16100271Y-17409714D01*
X16128843Y-17424000D01*
X16143128Y-17438286D01*
X16157414Y-17466857D01*
X16171700Y-17524000D01*
X16171700Y-17595429D01*
X16157414Y-17652572D01*
X16143128Y-17681143D01*
X16128843Y-17695429D01*
X16100271Y-17709714D01*
X16071700Y-17709714D01*
X16043128Y-17695429D01*
X16028843Y-17681143D01*
X16014557Y-17652572D01*
X16000271Y-17595429D01*
X16000271Y-17524000D01*
X16014557Y-17466857D01*
X16028843Y-17438286D01*
X16043128Y-17424000D01*
X16071700Y-17409714D01*
X16285986Y-17409714D02*
X16285986Y-17466857D01*
X16400271Y-17409714D02*
X16400271Y-17466857D01*
X16843128Y-17824000D02*
X16828843Y-17809714D01*
X16800271Y-17766857D01*
X16785986Y-17738286D01*
X16771700Y-17695429D01*
X16757414Y-17624000D01*
X16757414Y-17566857D01*
X16771700Y-17495429D01*
X16785986Y-17452572D01*
X16800271Y-17424000D01*
X16828843Y-17381143D01*
X16843128Y-17366857D01*
X17114557Y-17709714D02*
X16943128Y-17709714D01*
X17028843Y-17709714D02*
X17028843Y-17409714D01*
X17000271Y-17452572D01*
X16971700Y-17481143D01*
X16943128Y-17495429D01*
X17385986Y-17409714D02*
X17243128Y-17409714D01*
X17228843Y-17552572D01*
X17243128Y-17538286D01*
X17271700Y-17524000D01*
X17343128Y-17524000D01*
X17371700Y-17538286D01*
X17385986Y-17552572D01*
X17400271Y-17581143D01*
X17400271Y-17652572D01*
X17385986Y-17681143D01*
X17371700Y-17695429D01*
X17343128Y-17709714D01*
X17271700Y-17709714D01*
X17243128Y-17695429D01*
X17228843Y-17681143D01*
X17757414Y-17709714D02*
X17757414Y-17409714D01*
X17885986Y-17709714D02*
X17885986Y-17552572D01*
X17871700Y-17524000D01*
X17843128Y-17509714D01*
X17800271Y-17509714D01*
X17771700Y-17524000D01*
X17757414Y-17538286D01*
X18071700Y-17709714D02*
X18043128Y-17695429D01*
X18028843Y-17681143D01*
X18014557Y-17652572D01*
X18014557Y-17566857D01*
X18028843Y-17538286D01*
X18043128Y-17524000D01*
X18071700Y-17509714D01*
X18114557Y-17509714D01*
X18143128Y-17524000D01*
X18157414Y-17538286D01*
X18171700Y-17566857D01*
X18171700Y-17652572D01*
X18157414Y-17681143D01*
X18143128Y-17695429D01*
X18114557Y-17709714D01*
X18071700Y-17709714D01*
X18343128Y-17709714D02*
X18314557Y-17695429D01*
X18300271Y-17666857D01*
X18300271Y-17409714D01*
X18571700Y-17695429D02*
X18543128Y-17709714D01*
X18485986Y-17709714D01*
X18457414Y-17695429D01*
X18443128Y-17666857D01*
X18443128Y-17552572D01*
X18457414Y-17524000D01*
X18485986Y-17509714D01*
X18543128Y-17509714D01*
X18571700Y-17524000D01*
X18585986Y-17552572D01*
X18585986Y-17581143D01*
X18443128Y-17609714D01*
X18700271Y-17695429D02*
X18728843Y-17709714D01*
X18785986Y-17709714D01*
X18814557Y-17695429D01*
X18828843Y-17666857D01*
X18828843Y-17652572D01*
X18814557Y-17624000D01*
X18785986Y-17609714D01*
X18743128Y-17609714D01*
X18714557Y-17595429D01*
X18700271Y-17566857D01*
X18700271Y-17552572D01*
X18714557Y-17524000D01*
X18743128Y-17509714D01*
X18785986Y-17509714D01*
X18814557Y-17524000D01*
X18928843Y-17824000D02*
X18943128Y-17809714D01*
X18971700Y-17766857D01*
X18985986Y-17738286D01*
X19000271Y-17695429D01*
X19014557Y-17624000D01*
X19014557Y-17566857D01*
X19000271Y-17495429D01*
X18985986Y-17452572D01*
X18971700Y-17424000D01*
X18943128Y-17381143D01*
X18928843Y-17366857D01*
X12046700Y-17915000D02*
X12156700Y-18025000D01*
X12156700Y-17915000D02*
X12046700Y-18025000D01*
X12140591Y-18008891D02*
X12140591Y-17931109D01*
X12062809Y-17931109D01*
X12062809Y-18008891D01*
X12140591Y-18008891D01*
X12600271Y-18105714D02*
X12428843Y-18105714D01*
X12514557Y-18105714D02*
X12514557Y-17805714D01*
X12485986Y-17848572D01*
X12457414Y-17877143D01*
X12428843Y-17891429D01*
X12728843Y-18077143D02*
X12743128Y-18091429D01*
X12728843Y-18105714D01*
X12714557Y-18091429D01*
X12728843Y-18077143D01*
X12728843Y-18105714D01*
X13028843Y-18105714D02*
X12857414Y-18105714D01*
X12943128Y-18105714D02*
X12943128Y-17805714D01*
X12914557Y-17848572D01*
X12885986Y-17877143D01*
X12857414Y-17891429D01*
X13214557Y-17805714D02*
X13243128Y-17805714D01*
X13271700Y-17820000D01*
X13285986Y-17834286D01*
X13300271Y-17862857D01*
X13314557Y-17920000D01*
X13314557Y-17991429D01*
X13300271Y-18048572D01*
X13285986Y-18077143D01*
X13271700Y-18091429D01*
X13243128Y-18105714D01*
X13214557Y-18105714D01*
X13185986Y-18091429D01*
X13171700Y-18077143D01*
X13157414Y-18048572D01*
X13143128Y-17991429D01*
X13143128Y-17920000D01*
X13157414Y-17862857D01*
X13171700Y-17834286D01*
X13185986Y-17820000D01*
X13214557Y-17805714D01*
X13443128Y-18105714D02*
X13443128Y-17905714D01*
X13443128Y-17934286D02*
X13457414Y-17920000D01*
X13485986Y-17905714D01*
X13528843Y-17905714D01*
X13557414Y-17920000D01*
X13571700Y-17948572D01*
X13571700Y-18105714D01*
X13571700Y-17948572D02*
X13585986Y-17920000D01*
X13614557Y-17905714D01*
X13657414Y-17905714D01*
X13685986Y-17920000D01*
X13700271Y-17948572D01*
X13700271Y-18105714D01*
X13843128Y-18105714D02*
X13843128Y-17905714D01*
X13843128Y-17934286D02*
X13857414Y-17920000D01*
X13885986Y-17905714D01*
X13928843Y-17905714D01*
X13957414Y-17920000D01*
X13971700Y-17948572D01*
X13971700Y-18105714D01*
X13971700Y-17948572D02*
X13985986Y-17920000D01*
X14014557Y-17905714D01*
X14057414Y-17905714D01*
X14085986Y-17920000D01*
X14100271Y-17948572D01*
X14100271Y-18105714D01*
X14685986Y-17791429D02*
X14428843Y-18177143D01*
X15071700Y-17805714D02*
X15100271Y-17805714D01*
X15128843Y-17820000D01*
X15143128Y-17834286D01*
X15157414Y-17862857D01*
X15171700Y-17920000D01*
X15171700Y-17991429D01*
X15157414Y-18048572D01*
X15143128Y-18077143D01*
X15128843Y-18091429D01*
X15100271Y-18105714D01*
X15071700Y-18105714D01*
X15043128Y-18091429D01*
X15028843Y-18077143D01*
X15014557Y-18048572D01*
X15000271Y-17991429D01*
X15000271Y-17920000D01*
X15014557Y-17862857D01*
X15028843Y-17834286D01*
X15043128Y-17820000D01*
X15071700Y-17805714D01*
X15300271Y-18077143D02*
X15314557Y-18091429D01*
X15300271Y-18105714D01*
X15285986Y-18091429D01*
X15300271Y-18077143D01*
X15300271Y-18105714D01*
X15500271Y-17805714D02*
X15528843Y-17805714D01*
X15557414Y-17820000D01*
X15571700Y-17834286D01*
X15585986Y-17862857D01*
X15600271Y-17920000D01*
X15600271Y-17991429D01*
X15585986Y-18048572D01*
X15571700Y-18077143D01*
X15557414Y-18091429D01*
X15528843Y-18105714D01*
X15500271Y-18105714D01*
X15471700Y-18091429D01*
X15457414Y-18077143D01*
X15443128Y-18048572D01*
X15428843Y-17991429D01*
X15428843Y-17920000D01*
X15443128Y-17862857D01*
X15457414Y-17834286D01*
X15471700Y-17820000D01*
X15500271Y-17805714D01*
X15857414Y-17905714D02*
X15857414Y-18105714D01*
X15785986Y-17791429D02*
X15714557Y-18005714D01*
X15900271Y-18005714D01*
X15985986Y-17805714D02*
X16171700Y-17805714D01*
X16071700Y-17920000D01*
X16114557Y-17920000D01*
X16143128Y-17934286D01*
X16157414Y-17948572D01*
X16171700Y-17977143D01*
X16171700Y-18048572D01*
X16157414Y-18077143D01*
X16143128Y-18091429D01*
X16114557Y-18105714D01*
X16028843Y-18105714D01*
X16000271Y-18091429D01*
X15985986Y-18077143D01*
X16285986Y-17805714D02*
X16285986Y-17862857D01*
X16400271Y-17805714D02*
X16400271Y-17862857D01*
X16843128Y-18220000D02*
X16828843Y-18205714D01*
X16800271Y-18162857D01*
X16785986Y-18134286D01*
X16771700Y-18091429D01*
X16757414Y-18020000D01*
X16757414Y-17962857D01*
X16771700Y-17891429D01*
X16785986Y-17848572D01*
X16800271Y-17820000D01*
X16828843Y-17777143D01*
X16843128Y-17762857D01*
X17114557Y-18105714D02*
X16943128Y-18105714D01*
X17028843Y-18105714D02*
X17028843Y-17805714D01*
X17000271Y-17848572D01*
X16971700Y-17877143D01*
X16943128Y-17891429D01*
X17371700Y-17905714D02*
X17371700Y-18105714D01*
X17300271Y-17791429D02*
X17228843Y-18005714D01*
X17414557Y-18005714D01*
X17757414Y-18105714D02*
X17757414Y-17805714D01*
X17885986Y-18105714D02*
X17885986Y-17948572D01*
X17871700Y-17920000D01*
X17843128Y-17905714D01*
X17800271Y-17905714D01*
X17771700Y-17920000D01*
X17757414Y-17934286D01*
X18071700Y-18105714D02*
X18043128Y-18091429D01*
X18028843Y-18077143D01*
X18014557Y-18048572D01*
X18014557Y-17962857D01*
X18028843Y-17934286D01*
X18043128Y-17920000D01*
X18071700Y-17905714D01*
X18114557Y-17905714D01*
X18143128Y-17920000D01*
X18157414Y-17934286D01*
X18171700Y-17962857D01*
X18171700Y-18048572D01*
X18157414Y-18077143D01*
X18143128Y-18091429D01*
X18114557Y-18105714D01*
X18071700Y-18105714D01*
X18343128Y-18105714D02*
X18314557Y-18091429D01*
X18300271Y-18062857D01*
X18300271Y-17805714D01*
X18571700Y-18091429D02*
X18543128Y-18105714D01*
X18485986Y-18105714D01*
X18457414Y-18091429D01*
X18443128Y-18062857D01*
X18443128Y-17948572D01*
X18457414Y-17920000D01*
X18485986Y-17905714D01*
X18543128Y-17905714D01*
X18571700Y-17920000D01*
X18585986Y-17948572D01*
X18585986Y-17977143D01*
X18443128Y-18005714D01*
X18700271Y-18091429D02*
X18728843Y-18105714D01*
X18785986Y-18105714D01*
X18814557Y-18091429D01*
X18828843Y-18062857D01*
X18828843Y-18048572D01*
X18814557Y-18020000D01*
X18785986Y-18005714D01*
X18743128Y-18005714D01*
X18714557Y-17991429D01*
X18700271Y-17962857D01*
X18700271Y-17948572D01*
X18714557Y-17920000D01*
X18743128Y-17905714D01*
X18785986Y-17905714D01*
X18814557Y-17920000D01*
X18928843Y-18220000D02*
X18943128Y-18205714D01*
X18971700Y-18162857D01*
X18985986Y-18134286D01*
X19000271Y-18091429D01*
X19014557Y-18020000D01*
X19014557Y-17962857D01*
X19000271Y-17891429D01*
X18985986Y-17848572D01*
X18971700Y-17820000D01*
X18943128Y-17777143D01*
X18928843Y-17762857D01*
X12014460Y-18294880D02*
X12156700Y-18437120D01*
X12156700Y-18294880D02*
X12014460Y-18437120D01*
X12085580Y-18437120D02*
X12156700Y-18366000D01*
X12085580Y-18294880D01*
X12014460Y-18366000D01*
X12085580Y-18437120D01*
X12600271Y-18501714D02*
X12428843Y-18501714D01*
X12514557Y-18501714D02*
X12514557Y-18201714D01*
X12485986Y-18244572D01*
X12457414Y-18273143D01*
X12428843Y-18287429D01*
X12728843Y-18473143D02*
X12743128Y-18487429D01*
X12728843Y-18501714D01*
X12714557Y-18487429D01*
X12728843Y-18473143D01*
X12728843Y-18501714D01*
X13000271Y-18301714D02*
X13000271Y-18501714D01*
X12928843Y-18187429D02*
X12857414Y-18401714D01*
X13043128Y-18401714D01*
X13143128Y-18230286D02*
X13157414Y-18216000D01*
X13185986Y-18201714D01*
X13257414Y-18201714D01*
X13285986Y-18216000D01*
X13300271Y-18230286D01*
X13314557Y-18258857D01*
X13314557Y-18287429D01*
X13300271Y-18330286D01*
X13128843Y-18501714D01*
X13314557Y-18501714D01*
X13443128Y-18501714D02*
X13443128Y-18301714D01*
X13443128Y-18330286D02*
X13457414Y-18316000D01*
X13485986Y-18301714D01*
X13528843Y-18301714D01*
X13557414Y-18316000D01*
X13571700Y-18344572D01*
X13571700Y-18501714D01*
X13571700Y-18344572D02*
X13585986Y-18316000D01*
X13614557Y-18301714D01*
X13657414Y-18301714D01*
X13685986Y-18316000D01*
X13700271Y-18344572D01*
X13700271Y-18501714D01*
X13843128Y-18501714D02*
X13843128Y-18301714D01*
X13843128Y-18330286D02*
X13857414Y-18316000D01*
X13885986Y-18301714D01*
X13928843Y-18301714D01*
X13957414Y-18316000D01*
X13971700Y-18344572D01*
X13971700Y-18501714D01*
X13971700Y-18344572D02*
X13985986Y-18316000D01*
X14014557Y-18301714D01*
X14057414Y-18301714D01*
X14085986Y-18316000D01*
X14100271Y-18344572D01*
X14100271Y-18501714D01*
X14685986Y-18187429D02*
X14428843Y-18573143D01*
X15071700Y-18201714D02*
X15100271Y-18201714D01*
X15128843Y-18216000D01*
X15143128Y-18230286D01*
X15157414Y-18258857D01*
X15171700Y-18316000D01*
X15171700Y-18387429D01*
X15157414Y-18444572D01*
X15143128Y-18473143D01*
X15128843Y-18487429D01*
X15100271Y-18501714D01*
X15071700Y-18501714D01*
X15043128Y-18487429D01*
X15028843Y-18473143D01*
X15014557Y-18444572D01*
X15000271Y-18387429D01*
X15000271Y-18316000D01*
X15014557Y-18258857D01*
X15028843Y-18230286D01*
X15043128Y-18216000D01*
X15071700Y-18201714D01*
X15300271Y-18473143D02*
X15314557Y-18487429D01*
X15300271Y-18501714D01*
X15285986Y-18487429D01*
X15300271Y-18473143D01*
X15300271Y-18501714D01*
X15500271Y-18201714D02*
X15528843Y-18201714D01*
X15557414Y-18216000D01*
X15571700Y-18230286D01*
X15585986Y-18258857D01*
X15600271Y-18316000D01*
X15600271Y-18387429D01*
X15585986Y-18444572D01*
X15571700Y-18473143D01*
X15557414Y-18487429D01*
X15528843Y-18501714D01*
X15500271Y-18501714D01*
X15471700Y-18487429D01*
X15457414Y-18473143D01*
X15443128Y-18444572D01*
X15428843Y-18387429D01*
X15428843Y-18316000D01*
X15443128Y-18258857D01*
X15457414Y-18230286D01*
X15471700Y-18216000D01*
X15500271Y-18201714D01*
X15871700Y-18201714D02*
X15728843Y-18201714D01*
X15714557Y-18344572D01*
X15728843Y-18330286D01*
X15757414Y-18316000D01*
X15828843Y-18316000D01*
X15857414Y-18330286D01*
X15871700Y-18344572D01*
X15885986Y-18373143D01*
X15885986Y-18444572D01*
X15871700Y-18473143D01*
X15857414Y-18487429D01*
X15828843Y-18501714D01*
X15757414Y-18501714D01*
X15728843Y-18487429D01*
X15714557Y-18473143D01*
X16143128Y-18201714D02*
X16085986Y-18201714D01*
X16057414Y-18216000D01*
X16043128Y-18230286D01*
X16014557Y-18273143D01*
X16000271Y-18330286D01*
X16000271Y-18444572D01*
X16014557Y-18473143D01*
X16028843Y-18487429D01*
X16057414Y-18501714D01*
X16114557Y-18501714D01*
X16143128Y-18487429D01*
X16157414Y-18473143D01*
X16171700Y-18444572D01*
X16171700Y-18373143D01*
X16157414Y-18344572D01*
X16143128Y-18330286D01*
X16114557Y-18316000D01*
X16057414Y-18316000D01*
X16028843Y-18330286D01*
X16014557Y-18344572D01*
X16000271Y-18373143D01*
X16285986Y-18201714D02*
X16285986Y-18258857D01*
X16400271Y-18201714D02*
X16400271Y-18258857D01*
X16843128Y-18616000D02*
X16828843Y-18601714D01*
X16800271Y-18558857D01*
X16785986Y-18530286D01*
X16771700Y-18487429D01*
X16757414Y-18416000D01*
X16757414Y-18358857D01*
X16771700Y-18287429D01*
X16785986Y-18244572D01*
X16800271Y-18216000D01*
X16828843Y-18173143D01*
X16843128Y-18158857D01*
X17000271Y-18330286D02*
X16971700Y-18316000D01*
X16957414Y-18301714D01*
X16943128Y-18273143D01*
X16943128Y-18258857D01*
X16957414Y-18230286D01*
X16971700Y-18216000D01*
X17000271Y-18201714D01*
X17057414Y-18201714D01*
X17085986Y-18216000D01*
X17100271Y-18230286D01*
X17114557Y-18258857D01*
X17114557Y-18273143D01*
X17100271Y-18301714D01*
X17085986Y-18316000D01*
X17057414Y-18330286D01*
X17000271Y-18330286D01*
X16971700Y-18344572D01*
X16957414Y-18358857D01*
X16943128Y-18387429D01*
X16943128Y-18444572D01*
X16957414Y-18473143D01*
X16971700Y-18487429D01*
X17000271Y-18501714D01*
X17057414Y-18501714D01*
X17085986Y-18487429D01*
X17100271Y-18473143D01*
X17114557Y-18444572D01*
X17114557Y-18387429D01*
X17100271Y-18358857D01*
X17085986Y-18344572D01*
X17057414Y-18330286D01*
X17471700Y-18501714D02*
X17471700Y-18201714D01*
X17600271Y-18501714D02*
X17600271Y-18344572D01*
X17585986Y-18316000D01*
X17557414Y-18301714D01*
X17514557Y-18301714D01*
X17485986Y-18316000D01*
X17471700Y-18330286D01*
X17785986Y-18501714D02*
X17757414Y-18487429D01*
X17743128Y-18473143D01*
X17728843Y-18444572D01*
X17728843Y-18358857D01*
X17743128Y-18330286D01*
X17757414Y-18316000D01*
X17785986Y-18301714D01*
X17828843Y-18301714D01*
X17857414Y-18316000D01*
X17871700Y-18330286D01*
X17885986Y-18358857D01*
X17885986Y-18444572D01*
X17871700Y-18473143D01*
X17857414Y-18487429D01*
X17828843Y-18501714D01*
X17785986Y-18501714D01*
X18057414Y-18501714D02*
X18028843Y-18487429D01*
X18014557Y-18458857D01*
X18014557Y-18201714D01*
X18285986Y-18487429D02*
X18257414Y-18501714D01*
X18200271Y-18501714D01*
X18171700Y-18487429D01*
X18157414Y-18458857D01*
X18157414Y-18344572D01*
X18171700Y-18316000D01*
X18200271Y-18301714D01*
X18257414Y-18301714D01*
X18285986Y-18316000D01*
X18300271Y-18344572D01*
X18300271Y-18373143D01*
X18157414Y-18401714D01*
X18414557Y-18487429D02*
X18443128Y-18501714D01*
X18500271Y-18501714D01*
X18528843Y-18487429D01*
X18543128Y-18458857D01*
X18543128Y-18444572D01*
X18528843Y-18416000D01*
X18500271Y-18401714D01*
X18457414Y-18401714D01*
X18428843Y-18387429D01*
X18414557Y-18358857D01*
X18414557Y-18344572D01*
X18428843Y-18316000D01*
X18457414Y-18301714D01*
X18500271Y-18301714D01*
X18528843Y-18316000D01*
X18643128Y-18616000D02*
X18657414Y-18601714D01*
X18685986Y-18558857D01*
X18700271Y-18530286D01*
X18714557Y-18487429D01*
X18728843Y-18416000D01*
X18728843Y-18358857D01*
X18714557Y-18287429D01*
X18700271Y-18244572D01*
X18685986Y-18216000D01*
X18657414Y-18173143D01*
X18643128Y-18158857D01*
X12080700Y-18686000D02*
X12080700Y-18838000D01*
X12004700Y-18762000D02*
X12156700Y-18762000D01*
X12156700Y-18762000D02*
G75*
G03*
X12156700Y-18762000I-76000J0D01*
G01*
X12600271Y-18897714D02*
X12428843Y-18897714D01*
X12514557Y-18897714D02*
X12514557Y-18597714D01*
X12485986Y-18640572D01*
X12457414Y-18669143D01*
X12428843Y-18683429D01*
X12728843Y-18869143D02*
X12743128Y-18883429D01*
X12728843Y-18897714D01*
X12714557Y-18883429D01*
X12728843Y-18869143D01*
X12728843Y-18897714D01*
X13014557Y-18597714D02*
X12871700Y-18597714D01*
X12857414Y-18740572D01*
X12871700Y-18726286D01*
X12900271Y-18712000D01*
X12971700Y-18712000D01*
X13000271Y-18726286D01*
X13014557Y-18740572D01*
X13028843Y-18769143D01*
X13028843Y-18840572D01*
X13014557Y-18869143D01*
X13000271Y-18883429D01*
X12971700Y-18897714D01*
X12900271Y-18897714D01*
X12871700Y-18883429D01*
X12857414Y-18869143D01*
X13143128Y-18626286D02*
X13157414Y-18612000D01*
X13185986Y-18597714D01*
X13257414Y-18597714D01*
X13285986Y-18612000D01*
X13300271Y-18626286D01*
X13314557Y-18654857D01*
X13314557Y-18683429D01*
X13300271Y-18726286D01*
X13128843Y-18897714D01*
X13314557Y-18897714D01*
X13443128Y-18897714D02*
X13443128Y-18697714D01*
X13443128Y-18726286D02*
X13457414Y-18712000D01*
X13485986Y-18697714D01*
X13528843Y-18697714D01*
X13557414Y-18712000D01*
X13571700Y-18740572D01*
X13571700Y-18897714D01*
X13571700Y-18740572D02*
X13585986Y-18712000D01*
X13614557Y-18697714D01*
X13657414Y-18697714D01*
X13685986Y-18712000D01*
X13700271Y-18740572D01*
X13700271Y-18897714D01*
X13843128Y-18897714D02*
X13843128Y-18697714D01*
X13843128Y-18726286D02*
X13857414Y-18712000D01*
X13885986Y-18697714D01*
X13928843Y-18697714D01*
X13957414Y-18712000D01*
X13971700Y-18740572D01*
X13971700Y-18897714D01*
X13971700Y-18740572D02*
X13985986Y-18712000D01*
X14014557Y-18697714D01*
X14057414Y-18697714D01*
X14085986Y-18712000D01*
X14100271Y-18740572D01*
X14100271Y-18897714D01*
X14685986Y-18583429D02*
X14428843Y-18969143D01*
X15071700Y-18597714D02*
X15100271Y-18597714D01*
X15128843Y-18612000D01*
X15143128Y-18626286D01*
X15157414Y-18654857D01*
X15171700Y-18712000D01*
X15171700Y-18783429D01*
X15157414Y-18840572D01*
X15143128Y-18869143D01*
X15128843Y-18883429D01*
X15100271Y-18897714D01*
X15071700Y-18897714D01*
X15043128Y-18883429D01*
X15028843Y-18869143D01*
X15014557Y-18840572D01*
X15000271Y-18783429D01*
X15000271Y-18712000D01*
X15014557Y-18654857D01*
X15028843Y-18626286D01*
X15043128Y-18612000D01*
X15071700Y-18597714D01*
X15300271Y-18869143D02*
X15314557Y-18883429D01*
X15300271Y-18897714D01*
X15285986Y-18883429D01*
X15300271Y-18869143D01*
X15300271Y-18897714D01*
X15500271Y-18597714D02*
X15528843Y-18597714D01*
X15557414Y-18612000D01*
X15571700Y-18626286D01*
X15585986Y-18654857D01*
X15600271Y-18712000D01*
X15600271Y-18783429D01*
X15585986Y-18840572D01*
X15571700Y-18869143D01*
X15557414Y-18883429D01*
X15528843Y-18897714D01*
X15500271Y-18897714D01*
X15471700Y-18883429D01*
X15457414Y-18869143D01*
X15443128Y-18840572D01*
X15428843Y-18783429D01*
X15428843Y-18712000D01*
X15443128Y-18654857D01*
X15457414Y-18626286D01*
X15471700Y-18612000D01*
X15500271Y-18597714D01*
X15857414Y-18597714D02*
X15800271Y-18597714D01*
X15771700Y-18612000D01*
X15757414Y-18626286D01*
X15728843Y-18669143D01*
X15714557Y-18726286D01*
X15714557Y-18840572D01*
X15728843Y-18869143D01*
X15743128Y-18883429D01*
X15771700Y-18897714D01*
X15828843Y-18897714D01*
X15857414Y-18883429D01*
X15871700Y-18869143D01*
X15885986Y-18840572D01*
X15885986Y-18769143D01*
X15871700Y-18740572D01*
X15857414Y-18726286D01*
X15828843Y-18712000D01*
X15771700Y-18712000D01*
X15743128Y-18726286D01*
X15728843Y-18740572D01*
X15714557Y-18769143D01*
X16071700Y-18597714D02*
X16100271Y-18597714D01*
X16128843Y-18612000D01*
X16143128Y-18626286D01*
X16157414Y-18654857D01*
X16171700Y-18712000D01*
X16171700Y-18783429D01*
X16157414Y-18840572D01*
X16143128Y-18869143D01*
X16128843Y-18883429D01*
X16100271Y-18897714D01*
X16071700Y-18897714D01*
X16043128Y-18883429D01*
X16028843Y-18869143D01*
X16014557Y-18840572D01*
X16000271Y-18783429D01*
X16000271Y-18712000D01*
X16014557Y-18654857D01*
X16028843Y-18626286D01*
X16043128Y-18612000D01*
X16071700Y-18597714D01*
X16285986Y-18597714D02*
X16285986Y-18654857D01*
X16400271Y-18597714D02*
X16400271Y-18654857D01*
X16843128Y-19012000D02*
X16828843Y-18997714D01*
X16800271Y-18954857D01*
X16785986Y-18926286D01*
X16771700Y-18883429D01*
X16757414Y-18812000D01*
X16757414Y-18754857D01*
X16771700Y-18683429D01*
X16785986Y-18640572D01*
X16800271Y-18612000D01*
X16828843Y-18569143D01*
X16843128Y-18554857D01*
X16971700Y-18897714D02*
X17028843Y-18897714D01*
X17057414Y-18883429D01*
X17071700Y-18869143D01*
X17100271Y-18826286D01*
X17114557Y-18769143D01*
X17114557Y-18654857D01*
X17100271Y-18626286D01*
X17085986Y-18612000D01*
X17057414Y-18597714D01*
X17000271Y-18597714D01*
X16971700Y-18612000D01*
X16957414Y-18626286D01*
X16943128Y-18654857D01*
X16943128Y-18726286D01*
X16957414Y-18754857D01*
X16971700Y-18769143D01*
X17000271Y-18783429D01*
X17057414Y-18783429D01*
X17085986Y-18769143D01*
X17100271Y-18754857D01*
X17114557Y-18726286D01*
X17471700Y-18897714D02*
X17471700Y-18597714D01*
X17600271Y-18897714D02*
X17600271Y-18740572D01*
X17585986Y-18712000D01*
X17557414Y-18697714D01*
X17514557Y-18697714D01*
X17485986Y-18712000D01*
X17471700Y-18726286D01*
X17785986Y-18897714D02*
X17757414Y-18883429D01*
X17743128Y-18869143D01*
X17728843Y-18840572D01*
X17728843Y-18754857D01*
X17743128Y-18726286D01*
X17757414Y-18712000D01*
X17785986Y-18697714D01*
X17828843Y-18697714D01*
X17857414Y-18712000D01*
X17871700Y-18726286D01*
X17885986Y-18754857D01*
X17885986Y-18840572D01*
X17871700Y-18869143D01*
X17857414Y-18883429D01*
X17828843Y-18897714D01*
X17785986Y-18897714D01*
X18057414Y-18897714D02*
X18028843Y-18883429D01*
X18014557Y-18854857D01*
X18014557Y-18597714D01*
X18285986Y-18883429D02*
X18257414Y-18897714D01*
X18200271Y-18897714D01*
X18171700Y-18883429D01*
X18157414Y-18854857D01*
X18157414Y-18740572D01*
X18171700Y-18712000D01*
X18200271Y-18697714D01*
X18257414Y-18697714D01*
X18285986Y-18712000D01*
X18300271Y-18740572D01*
X18300271Y-18769143D01*
X18157414Y-18797714D01*
X18414557Y-18883429D02*
X18443128Y-18897714D01*
X18500271Y-18897714D01*
X18528843Y-18883429D01*
X18543128Y-18854857D01*
X18543128Y-18840572D01*
X18528843Y-18812000D01*
X18500271Y-18797714D01*
X18457414Y-18797714D01*
X18428843Y-18783429D01*
X18414557Y-18754857D01*
X18414557Y-18740572D01*
X18428843Y-18712000D01*
X18457414Y-18697714D01*
X18500271Y-18697714D01*
X18528843Y-18712000D01*
X18643128Y-19012000D02*
X18657414Y-18997714D01*
X18685986Y-18954857D01*
X18700271Y-18926286D01*
X18714557Y-18883429D01*
X18728843Y-18812000D01*
X18728843Y-18754857D01*
X18714557Y-18683429D01*
X18700271Y-18640572D01*
X18685986Y-18612000D01*
X18657414Y-18569143D01*
X18643128Y-18554857D01*
X12126943Y-19229843D02*
X12126943Y-19086157D01*
X11983257Y-19086157D01*
X11983257Y-19229843D01*
X12126943Y-19229843D01*
X12156700Y-19158000D02*
G75*
G03*
X12156700Y-19158000I-101600J0D01*
G01*
X12428843Y-19022286D02*
X12443128Y-19008000D01*
X12471700Y-18993714D01*
X12543128Y-18993714D01*
X12571700Y-19008000D01*
X12585986Y-19022286D01*
X12600271Y-19050857D01*
X12600271Y-19079429D01*
X12585986Y-19122286D01*
X12414557Y-19293714D01*
X12600271Y-19293714D01*
X12728843Y-19265143D02*
X12743128Y-19279429D01*
X12728843Y-19293714D01*
X12714557Y-19279429D01*
X12728843Y-19265143D01*
X12728843Y-19293714D01*
X12928843Y-18993714D02*
X12957414Y-18993714D01*
X12985986Y-19008000D01*
X13000271Y-19022286D01*
X13014557Y-19050857D01*
X13028843Y-19108000D01*
X13028843Y-19179429D01*
X13014557Y-19236572D01*
X13000271Y-19265143D01*
X12985986Y-19279429D01*
X12957414Y-19293714D01*
X12928843Y-19293714D01*
X12900271Y-19279429D01*
X12885986Y-19265143D01*
X12871700Y-19236572D01*
X12857414Y-19179429D01*
X12857414Y-19108000D01*
X12871700Y-19050857D01*
X12885986Y-19022286D01*
X12900271Y-19008000D01*
X12928843Y-18993714D01*
X13128843Y-18993714D02*
X13314557Y-18993714D01*
X13214557Y-19108000D01*
X13257414Y-19108000D01*
X13285986Y-19122286D01*
X13300271Y-19136572D01*
X13314557Y-19165143D01*
X13314557Y-19236572D01*
X13300271Y-19265143D01*
X13285986Y-19279429D01*
X13257414Y-19293714D01*
X13171700Y-19293714D01*
X13143128Y-19279429D01*
X13128843Y-19265143D01*
X13443128Y-19293714D02*
X13443128Y-19093714D01*
X13443128Y-19122286D02*
X13457414Y-19108000D01*
X13485986Y-19093714D01*
X13528843Y-19093714D01*
X13557414Y-19108000D01*
X13571700Y-19136572D01*
X13571700Y-19293714D01*
X13571700Y-19136572D02*
X13585986Y-19108000D01*
X13614557Y-19093714D01*
X13657414Y-19093714D01*
X13685986Y-19108000D01*
X13700271Y-19136572D01*
X13700271Y-19293714D01*
X13843128Y-19293714D02*
X13843128Y-19093714D01*
X13843128Y-19122286D02*
X13857414Y-19108000D01*
X13885986Y-19093714D01*
X13928843Y-19093714D01*
X13957414Y-19108000D01*
X13971700Y-19136572D01*
X13971700Y-19293714D01*
X13971700Y-19136572D02*
X13985986Y-19108000D01*
X14014557Y-19093714D01*
X14057414Y-19093714D01*
X14085986Y-19108000D01*
X14100271Y-19136572D01*
X14100271Y-19293714D01*
X14685986Y-18979429D02*
X14428843Y-19365143D01*
X15071700Y-18993714D02*
X15100271Y-18993714D01*
X15128843Y-19008000D01*
X15143128Y-19022286D01*
X15157414Y-19050857D01*
X15171700Y-19108000D01*
X15171700Y-19179429D01*
X15157414Y-19236572D01*
X15143128Y-19265143D01*
X15128843Y-19279429D01*
X15100271Y-19293714D01*
X15071700Y-19293714D01*
X15043128Y-19279429D01*
X15028843Y-19265143D01*
X15014557Y-19236572D01*
X15000271Y-19179429D01*
X15000271Y-19108000D01*
X15014557Y-19050857D01*
X15028843Y-19022286D01*
X15043128Y-19008000D01*
X15071700Y-18993714D01*
X15300271Y-19265143D02*
X15314557Y-19279429D01*
X15300271Y-19293714D01*
X15285986Y-19279429D01*
X15300271Y-19265143D01*
X15300271Y-19293714D01*
X15500271Y-18993714D02*
X15528843Y-18993714D01*
X15557414Y-19008000D01*
X15571700Y-19022286D01*
X15585986Y-19050857D01*
X15600271Y-19108000D01*
X15600271Y-19179429D01*
X15585986Y-19236572D01*
X15571700Y-19265143D01*
X15557414Y-19279429D01*
X15528843Y-19293714D01*
X15500271Y-19293714D01*
X15471700Y-19279429D01*
X15457414Y-19265143D01*
X15443128Y-19236572D01*
X15428843Y-19179429D01*
X15428843Y-19108000D01*
X15443128Y-19050857D01*
X15457414Y-19022286D01*
X15471700Y-19008000D01*
X15500271Y-18993714D01*
X15771700Y-19122286D02*
X15743128Y-19108000D01*
X15728843Y-19093714D01*
X15714557Y-19065143D01*
X15714557Y-19050857D01*
X15728843Y-19022286D01*
X15743128Y-19008000D01*
X15771700Y-18993714D01*
X15828843Y-18993714D01*
X15857414Y-19008000D01*
X15871700Y-19022286D01*
X15885986Y-19050857D01*
X15885986Y-19065143D01*
X15871700Y-19093714D01*
X15857414Y-19108000D01*
X15828843Y-19122286D01*
X15771700Y-19122286D01*
X15743128Y-19136572D01*
X15728843Y-19150857D01*
X15714557Y-19179429D01*
X15714557Y-19236572D01*
X15728843Y-19265143D01*
X15743128Y-19279429D01*
X15771700Y-19293714D01*
X15828843Y-19293714D01*
X15857414Y-19279429D01*
X15871700Y-19265143D01*
X15885986Y-19236572D01*
X15885986Y-19179429D01*
X15871700Y-19150857D01*
X15857414Y-19136572D01*
X15828843Y-19122286D01*
X16071700Y-18993714D02*
X16100271Y-18993714D01*
X16128843Y-19008000D01*
X16143128Y-19022286D01*
X16157414Y-19050857D01*
X16171700Y-19108000D01*
X16171700Y-19179429D01*
X16157414Y-19236572D01*
X16143128Y-19265143D01*
X16128843Y-19279429D01*
X16100271Y-19293714D01*
X16071700Y-19293714D01*
X16043128Y-19279429D01*
X16028843Y-19265143D01*
X16014557Y-19236572D01*
X16000271Y-19179429D01*
X16000271Y-19108000D01*
X16014557Y-19050857D01*
X16028843Y-19022286D01*
X16043128Y-19008000D01*
X16071700Y-18993714D01*
X16285986Y-18993714D02*
X16285986Y-19050857D01*
X16400271Y-18993714D02*
X16400271Y-19050857D01*
X16843128Y-19408000D02*
X16828843Y-19393714D01*
X16800271Y-19350857D01*
X16785986Y-19322286D01*
X16771700Y-19279429D01*
X16757414Y-19208000D01*
X16757414Y-19150857D01*
X16771700Y-19079429D01*
X16785986Y-19036572D01*
X16800271Y-19008000D01*
X16828843Y-18965143D01*
X16843128Y-18950857D01*
X16943128Y-19022286D02*
X16957414Y-19008000D01*
X16985986Y-18993714D01*
X17057414Y-18993714D01*
X17085986Y-19008000D01*
X17100271Y-19022286D01*
X17114557Y-19050857D01*
X17114557Y-19079429D01*
X17100271Y-19122286D01*
X16928843Y-19293714D01*
X17114557Y-19293714D01*
X17471700Y-19293714D02*
X17471700Y-18993714D01*
X17600271Y-19293714D02*
X17600271Y-19136572D01*
X17585986Y-19108000D01*
X17557414Y-19093714D01*
X17514557Y-19093714D01*
X17485986Y-19108000D01*
X17471700Y-19122286D01*
X17785986Y-19293714D02*
X17757414Y-19279429D01*
X17743128Y-19265143D01*
X17728843Y-19236572D01*
X17728843Y-19150857D01*
X17743128Y-19122286D01*
X17757414Y-19108000D01*
X17785986Y-19093714D01*
X17828843Y-19093714D01*
X17857414Y-19108000D01*
X17871700Y-19122286D01*
X17885986Y-19150857D01*
X17885986Y-19236572D01*
X17871700Y-19265143D01*
X17857414Y-19279429D01*
X17828843Y-19293714D01*
X17785986Y-19293714D01*
X18057414Y-19293714D02*
X18028843Y-19279429D01*
X18014557Y-19250857D01*
X18014557Y-18993714D01*
X18285986Y-19279429D02*
X18257414Y-19293714D01*
X18200271Y-19293714D01*
X18171700Y-19279429D01*
X18157414Y-19250857D01*
X18157414Y-19136572D01*
X18171700Y-19108000D01*
X18200271Y-19093714D01*
X18257414Y-19093714D01*
X18285986Y-19108000D01*
X18300271Y-19136572D01*
X18300271Y-19165143D01*
X18157414Y-19193714D01*
X18414557Y-19279429D02*
X18443128Y-19293714D01*
X18500271Y-19293714D01*
X18528843Y-19279429D01*
X18543128Y-19250857D01*
X18543128Y-19236572D01*
X18528843Y-19208000D01*
X18500271Y-19193714D01*
X18457414Y-19193714D01*
X18428843Y-19179429D01*
X18414557Y-19150857D01*
X18414557Y-19136572D01*
X18428843Y-19108000D01*
X18457414Y-19093714D01*
X18500271Y-19093714D01*
X18528843Y-19108000D01*
X18643128Y-19408000D02*
X18657414Y-19393714D01*
X18685986Y-19350857D01*
X18700271Y-19322286D01*
X18714557Y-19279429D01*
X18728843Y-19208000D01*
X18728843Y-19150857D01*
X18714557Y-19079429D01*
X18700271Y-19036572D01*
X18685986Y-19008000D01*
X18657414Y-18965143D01*
X18643128Y-18950857D01*
M02*
