G04 #@! TF.GenerationSoftware,KiCad,Pcbnew,(5.1.5)-3*
G04 #@! TF.CreationDate,2020-07-21T16:33:31-04:00*
G04 #@! TF.ProjectId,full_project,66756c6c-5f70-4726-9f6a-6563742e6b69,rev?*
G04 #@! TF.SameCoordinates,Original*
G04 #@! TF.FileFunction,Copper,L2,Bot*
G04 #@! TF.FilePolarity,Positive*
%FSLAX46Y46*%
G04 Gerber Fmt 4.6, Leading zero omitted, Abs format (unit mm)*
G04 Created by KiCad (PCBNEW (5.1.5)-3) date 2020-07-21 16:33:31*
%MOMM*%
%LPD*%
G04 APERTURE LIST*
%ADD10C,1.600000*%
%ADD11R,1.700000X1.700000*%
%ADD12O,1.700000X1.700000*%
%ADD13C,3.000000*%
%ADD14R,3.000000X3.000000*%
%ADD15C,1.397000*%
%ADD16C,2.540000*%
%ADD17C,2.400000*%
%ADD18O,2.400000X2.400000*%
%ADD19R,1.600000X1.600000*%
%ADD20O,1.600000X1.600000*%
%ADD21C,0.800000*%
%ADD22C,0.250000*%
%ADD23C,0.254000*%
G04 APERTURE END LIST*
D10*
X167081200Y-119583200D03*
X167081200Y-117083200D03*
D11*
X143535400Y-97002600D03*
D12*
X140995400Y-97002600D03*
X138455400Y-97002600D03*
D11*
X174688500Y-48831500D03*
D12*
X177228500Y-48831500D03*
X174688500Y-51371500D03*
X177228500Y-51371500D03*
X174688500Y-53911500D03*
X177228500Y-53911500D03*
X174688500Y-56451500D03*
X177228500Y-56451500D03*
X174688500Y-58991500D03*
X177228500Y-58991500D03*
X174688500Y-61531500D03*
X177228500Y-61531500D03*
X174688500Y-64071500D03*
X177228500Y-64071500D03*
X174688500Y-66611500D03*
X177228500Y-66611500D03*
X174688500Y-69151500D03*
X177228500Y-69151500D03*
X174688500Y-71691500D03*
X177228500Y-71691500D03*
X174688500Y-74231500D03*
X177228500Y-74231500D03*
X174688500Y-76771500D03*
X177228500Y-76771500D03*
X174688500Y-79311500D03*
X177228500Y-79311500D03*
X174688500Y-81851500D03*
X177228500Y-81851500D03*
X174688500Y-84391500D03*
X177228500Y-84391500D03*
X174688500Y-86931500D03*
X177228500Y-86931500D03*
X174688500Y-89471500D03*
X177228500Y-89471500D03*
X174688500Y-92011500D03*
X177228500Y-92011500D03*
X174688500Y-94551500D03*
X177228500Y-94551500D03*
X174688500Y-97091500D03*
X177228500Y-97091500D03*
D11*
X171881800Y-120827800D03*
D12*
X171881800Y-118287800D03*
X171881800Y-115747800D03*
X171881800Y-113207800D03*
X171881800Y-110667800D03*
D13*
X127330200Y-109321600D03*
X127330200Y-114401600D03*
D14*
X127330200Y-104241600D03*
D13*
X127330200Y-119481600D03*
D15*
X159575500Y-61658500D03*
X157035500Y-61658500D03*
D16*
X154495500Y-56578500D03*
X164655500Y-56578500D03*
D17*
X163334700Y-79489300D03*
D18*
X163334700Y-92189300D03*
X158254700Y-92189300D03*
D17*
X158254700Y-79489300D03*
D11*
X143573500Y-89154000D03*
D12*
X143573500Y-86614000D03*
X143573500Y-84074000D03*
X143573500Y-81534000D03*
X143573500Y-78994000D03*
X143573500Y-76454000D03*
X143573500Y-73914000D03*
X143573500Y-71374000D03*
X143573500Y-68834000D03*
X143573500Y-66294000D03*
X161823400Y-100380800D03*
X161823400Y-102920800D03*
X161823400Y-105460800D03*
X161823400Y-108000800D03*
X161823400Y-110540800D03*
X161823400Y-113080800D03*
X161823400Y-115620800D03*
D11*
X161823400Y-118160800D03*
X149123400Y-118160800D03*
D12*
X149123400Y-110540800D03*
X149123400Y-100380800D03*
X149123400Y-102920800D03*
X149123400Y-105460800D03*
X149123400Y-108000800D03*
X149123400Y-115620800D03*
X149123400Y-113080800D03*
D11*
X175260000Y-126873000D03*
D12*
X172720000Y-126873000D03*
X170180000Y-126873000D03*
X167640000Y-126873000D03*
X165100000Y-126873000D03*
X162560000Y-126873000D03*
X160020000Y-126873000D03*
X157480000Y-126873000D03*
X131191000Y-127254000D03*
X133731000Y-127254000D03*
X136271000Y-127254000D03*
X138811000Y-127254000D03*
X141351000Y-127254000D03*
X143891000Y-127254000D03*
X146431000Y-127254000D03*
D11*
X148971000Y-127254000D03*
D19*
X164350700Y-68313300D03*
D20*
X156730700Y-75933300D03*
X161810700Y-68313300D03*
X159270700Y-75933300D03*
X159270700Y-68313300D03*
X161810700Y-75933300D03*
X156730700Y-68313300D03*
X164350700Y-75933300D03*
D11*
X175437800Y-103860600D03*
D12*
X172897800Y-103860600D03*
D21*
X151079200Y-109499400D03*
X151968200Y-106654600D03*
X148361400Y-90678000D03*
X151485600Y-81965800D03*
X143129000Y-53670200D03*
X143129000Y-53670200D03*
X141249400Y-80035400D03*
X141249400Y-57023000D03*
X140524399Y-81672599D03*
X164261800Y-122886300D03*
X168275000Y-122072400D03*
X169810600Y-87299800D03*
X147015200Y-119989600D03*
X170027600Y-121552800D03*
D22*
X151079200Y-104876600D02*
X149123400Y-102920800D01*
X151079200Y-109499400D02*
X151079200Y-104876600D01*
X165618800Y-115620800D02*
X161823400Y-115620800D01*
X167081200Y-117083200D02*
X165618800Y-115620800D01*
X161823400Y-114418719D02*
X161823400Y-113080800D01*
X161823400Y-115620800D02*
X161823400Y-114418719D01*
X161823400Y-111742881D02*
X161823400Y-113080800D01*
X161823400Y-110540800D02*
X161823400Y-111742881D01*
X149123400Y-100380800D02*
X151968200Y-103225600D01*
X151968200Y-103225600D02*
X151968200Y-106654600D01*
X148023400Y-118160800D02*
X149123400Y-118160800D01*
X143535400Y-113672800D02*
X148023400Y-118160800D01*
X143535400Y-97002600D02*
X143535400Y-113672800D01*
X163550701Y-76733299D02*
X164350700Y-75933300D01*
X150005999Y-90278001D02*
X163550701Y-76733299D01*
X148761399Y-90278001D02*
X150005999Y-90278001D01*
X148361400Y-90678000D02*
X148761399Y-90278001D01*
X147948399Y-99130597D02*
X147948399Y-114445799D01*
X148273401Y-114770801D02*
X149123400Y-115620800D01*
X144645401Y-95827599D02*
X147948399Y-99130597D01*
X147948399Y-114445799D02*
X148273401Y-114770801D01*
X142170401Y-95827599D02*
X144645401Y-95827599D01*
X140995400Y-97002600D02*
X142170401Y-95827599D01*
X145808700Y-92189300D02*
X158254700Y-92189300D01*
X140995400Y-97002600D02*
X145808700Y-92189300D01*
X151485600Y-83972400D02*
X138455400Y-97002600D01*
X151485600Y-81965800D02*
X151485600Y-83972400D01*
X175260000Y-125773000D02*
X175184999Y-125697999D01*
X142473500Y-89154000D02*
X143573500Y-89154000D01*
X142398499Y-89078999D02*
X142473500Y-89154000D01*
X142398499Y-65729999D02*
X142398499Y-89078999D01*
X159296998Y-48831500D02*
X142398499Y-65729999D01*
X174688500Y-48831500D02*
X159296998Y-48831500D01*
X142473500Y-89154000D02*
X131724400Y-99903100D01*
X148971000Y-126154000D02*
X148971000Y-127254000D01*
X131724400Y-108907400D02*
X148971000Y-126154000D01*
X131724400Y-99903100D02*
X131724400Y-108907400D01*
X175260000Y-125773000D02*
X175260000Y-126873000D01*
X174262799Y-124775799D02*
X175260000Y-125773000D01*
X174262799Y-103486597D02*
X174262799Y-124775799D01*
X175863501Y-101149897D02*
X174262799Y-102750599D01*
X174688500Y-69151500D02*
X175863501Y-70326501D01*
X175863501Y-70326501D02*
X175863501Y-101149897D01*
X174262799Y-102750599D02*
X174262799Y-103181401D01*
X174262799Y-102750599D02*
X174262799Y-103733600D01*
X142729001Y-64763087D02*
X141249400Y-66242688D01*
X143129000Y-53670200D02*
X142729001Y-54070199D01*
X142729001Y-54070199D02*
X142729001Y-64763087D01*
X141249400Y-66242688D02*
X141249400Y-80035400D01*
X140524399Y-57748001D02*
X140524399Y-81672599D01*
X141249400Y-57023000D02*
X140524399Y-57748001D01*
X165100000Y-123621800D02*
X165100000Y-126873000D01*
X167411400Y-121386600D02*
X167335200Y-121386600D01*
X168206201Y-116009201D02*
X168206201Y-120591799D01*
X170535600Y-75844400D02*
X170535600Y-99542600D01*
X168206201Y-120591799D02*
X167411400Y-121386600D01*
X170535600Y-99542600D02*
X168198800Y-101879400D01*
X168198800Y-101879400D02*
X168198800Y-116001800D01*
X174688500Y-71691500D02*
X170535600Y-75844400D01*
X168198800Y-116001800D02*
X168206201Y-116009201D01*
X165963600Y-122758200D02*
X164261800Y-122758200D01*
X165963600Y-122758200D02*
X165100000Y-123621800D01*
X167335200Y-121386600D02*
X165963600Y-122758200D01*
X164261800Y-122758200D02*
X164261800Y-122886300D01*
X174688500Y-74231500D02*
X171221400Y-77698600D01*
X171221400Y-77698600D02*
X171221400Y-99974400D01*
X171221400Y-99974400D02*
X168808400Y-102387400D01*
X168808400Y-102387400D02*
X168808400Y-121462800D01*
X168808400Y-121462800D02*
X168808400Y-121539000D01*
X168808400Y-121539000D02*
X168275000Y-122072400D01*
X169302599Y-125210401D02*
X167640000Y-126873000D01*
X174688500Y-77572498D02*
X171907200Y-80353798D01*
X174688500Y-76771500D02*
X174688500Y-77572498D01*
X171907200Y-80353798D02*
X171907200Y-100304600D01*
X171907200Y-100304600D02*
X169302599Y-102909201D01*
X169302599Y-102909201D02*
X169302599Y-125210401D01*
X142526001Y-128429001D02*
X142200999Y-128103999D01*
X142200999Y-128103999D02*
X141351000Y-127254000D01*
X166083999Y-128429001D02*
X142526001Y-128429001D01*
X167640000Y-126873000D02*
X166083999Y-128429001D01*
X169810600Y-87299800D02*
X169810600Y-99226200D01*
X169810600Y-99226200D02*
X167563800Y-101473000D01*
X167563800Y-101473000D02*
X163423600Y-105613200D01*
X162197403Y-109365799D02*
X160203403Y-109365799D01*
X163423600Y-105613200D02*
X163423600Y-108139602D01*
X160203403Y-109365799D02*
X149579602Y-119989600D01*
X163423600Y-108139602D02*
X162197403Y-109365799D01*
X149579602Y-119989600D02*
X147015200Y-119989600D01*
X170027600Y-121513600D02*
X170027600Y-121552800D01*
X174688500Y-84391500D02*
X172567600Y-86512400D01*
X172567600Y-86512400D02*
X172567600Y-100812600D01*
X170027600Y-103352600D02*
X170027600Y-121552800D01*
X172567600Y-100812600D02*
X170027600Y-103352600D01*
X178078499Y-87781499D02*
X177228500Y-86931500D01*
X178403501Y-99794899D02*
X178403501Y-88106501D01*
X175437800Y-102760600D02*
X178403501Y-99794899D01*
X178403501Y-88106501D02*
X178078499Y-87781499D01*
X175437800Y-103860600D02*
X175437800Y-102760600D01*
X159575500Y-68008500D02*
X159270700Y-68313300D01*
X159575500Y-61658500D02*
X159575500Y-68008500D01*
X154711400Y-68834000D02*
X161810700Y-75933300D01*
X143573500Y-68834000D02*
X154711400Y-68834000D01*
X154711400Y-73914000D02*
X156730700Y-75933300D01*
X143573500Y-73914000D02*
X154711400Y-73914000D01*
X161823400Y-106662881D02*
X161823400Y-108000800D01*
X161823400Y-105460800D02*
X161823400Y-106662881D01*
D23*
G36*
X173484006Y-47450963D02*
G01*
X173387315Y-47530315D01*
X173307963Y-47627006D01*
X173248998Y-47737320D01*
X173212688Y-47857018D01*
X173200428Y-47981500D01*
X173200428Y-48071500D01*
X159334320Y-48071500D01*
X159296997Y-48067824D01*
X159259674Y-48071500D01*
X159259665Y-48071500D01*
X159148012Y-48082497D01*
X159004751Y-48125954D01*
X158872722Y-48196526D01*
X158872720Y-48196527D01*
X158872721Y-48196527D01*
X158785994Y-48267701D01*
X158785990Y-48267705D01*
X158756997Y-48291499D01*
X158733203Y-48320492D01*
X143489001Y-63564696D01*
X143489001Y-54641359D01*
X143619256Y-54587405D01*
X143788774Y-54474137D01*
X143932937Y-54329974D01*
X144046205Y-54160456D01*
X144124226Y-53972098D01*
X144164000Y-53772139D01*
X144164000Y-53568261D01*
X144124226Y-53368302D01*
X144046205Y-53179944D01*
X143932937Y-53010426D01*
X143788774Y-52866263D01*
X143619256Y-52752995D01*
X143430898Y-52674974D01*
X143230939Y-52635200D01*
X143027061Y-52635200D01*
X142827102Y-52674974D01*
X142638744Y-52752995D01*
X142469226Y-52866263D01*
X142325063Y-53010426D01*
X142211795Y-53179944D01*
X142133774Y-53368302D01*
X142094000Y-53568261D01*
X142094000Y-53645974D01*
X142081050Y-53670201D01*
X142023455Y-53777953D01*
X141979998Y-53921214D01*
X141969001Y-54032867D01*
X141969001Y-54032877D01*
X141965325Y-54070199D01*
X141969001Y-54107521D01*
X141969001Y-56278890D01*
X141909174Y-56219063D01*
X141739656Y-56105795D01*
X141551298Y-56027774D01*
X141351339Y-55988000D01*
X141147461Y-55988000D01*
X140947502Y-56027774D01*
X140759144Y-56105795D01*
X140589626Y-56219063D01*
X140445463Y-56363226D01*
X140332195Y-56532744D01*
X140254174Y-56721102D01*
X140214400Y-56921061D01*
X140214400Y-56983199D01*
X140013401Y-57184198D01*
X139984398Y-57208000D01*
X139929270Y-57275175D01*
X139889425Y-57323725D01*
X139823385Y-57447277D01*
X139818853Y-57455755D01*
X139775396Y-57599016D01*
X139764399Y-57710669D01*
X139764399Y-57710679D01*
X139760723Y-57748001D01*
X139764399Y-57785323D01*
X139764400Y-80968887D01*
X139720462Y-81012825D01*
X139607194Y-81182343D01*
X139529173Y-81370701D01*
X139489399Y-81570660D01*
X139489399Y-81774538D01*
X139529173Y-81974497D01*
X139607194Y-82162855D01*
X139720462Y-82332373D01*
X139864625Y-82476536D01*
X140034143Y-82589804D01*
X140222501Y-82667825D01*
X140422460Y-82707599D01*
X140626338Y-82707599D01*
X140826297Y-82667825D01*
X141014655Y-82589804D01*
X141184173Y-82476536D01*
X141328336Y-82332373D01*
X141441604Y-82162855D01*
X141519625Y-81974497D01*
X141559399Y-81774538D01*
X141559399Y-81570660D01*
X141519625Y-81370701D01*
X141441604Y-81182343D01*
X141364992Y-81067684D01*
X141551298Y-81030626D01*
X141638500Y-80994506D01*
X141638500Y-88914198D01*
X131213403Y-99339296D01*
X131184399Y-99363099D01*
X131135369Y-99422843D01*
X131089426Y-99478824D01*
X131051315Y-99550125D01*
X131018854Y-99610854D01*
X130975397Y-99754115D01*
X130964400Y-99865768D01*
X130964400Y-99865778D01*
X130960724Y-99903100D01*
X130964400Y-99940422D01*
X130964401Y-108870068D01*
X130960724Y-108907400D01*
X130964401Y-108944733D01*
X130975398Y-109056386D01*
X130988580Y-109099842D01*
X131018854Y-109199646D01*
X131089426Y-109331676D01*
X131143415Y-109397461D01*
X131184400Y-109447401D01*
X131213398Y-109471199D01*
X147683655Y-125941457D01*
X147669815Y-125952815D01*
X147590463Y-126049506D01*
X147531498Y-126159820D01*
X147507034Y-126240466D01*
X147431269Y-126156412D01*
X147197920Y-125982359D01*
X146935099Y-125857175D01*
X146787890Y-125812524D01*
X146558000Y-125933845D01*
X146558000Y-127127000D01*
X146578000Y-127127000D01*
X146578000Y-127381000D01*
X146558000Y-127381000D01*
X146558000Y-127401000D01*
X146304000Y-127401000D01*
X146304000Y-127381000D01*
X146284000Y-127381000D01*
X146284000Y-127127000D01*
X146304000Y-127127000D01*
X146304000Y-125933845D01*
X146074110Y-125812524D01*
X145926901Y-125857175D01*
X145664080Y-125982359D01*
X145430731Y-126156412D01*
X145235822Y-126372645D01*
X145166195Y-126489534D01*
X145044475Y-126307368D01*
X144837632Y-126100525D01*
X144594411Y-125938010D01*
X144324158Y-125826068D01*
X144037260Y-125769000D01*
X143744740Y-125769000D01*
X143457842Y-125826068D01*
X143187589Y-125938010D01*
X142944368Y-126100525D01*
X142737525Y-126307368D01*
X142621000Y-126481760D01*
X142504475Y-126307368D01*
X142297632Y-126100525D01*
X142054411Y-125938010D01*
X141784158Y-125826068D01*
X141497260Y-125769000D01*
X141204740Y-125769000D01*
X140917842Y-125826068D01*
X140647589Y-125938010D01*
X140404368Y-126100525D01*
X140197525Y-126307368D01*
X140081000Y-126481760D01*
X139964475Y-126307368D01*
X139757632Y-126100525D01*
X139514411Y-125938010D01*
X139244158Y-125826068D01*
X138957260Y-125769000D01*
X138664740Y-125769000D01*
X138377842Y-125826068D01*
X138107589Y-125938010D01*
X137864368Y-126100525D01*
X137657525Y-126307368D01*
X137541000Y-126481760D01*
X137424475Y-126307368D01*
X137217632Y-126100525D01*
X136974411Y-125938010D01*
X136704158Y-125826068D01*
X136417260Y-125769000D01*
X136124740Y-125769000D01*
X135837842Y-125826068D01*
X135567589Y-125938010D01*
X135324368Y-126100525D01*
X135117525Y-126307368D01*
X135001000Y-126481760D01*
X134884475Y-126307368D01*
X134677632Y-126100525D01*
X134434411Y-125938010D01*
X134164158Y-125826068D01*
X133877260Y-125769000D01*
X133584740Y-125769000D01*
X133297842Y-125826068D01*
X133027589Y-125938010D01*
X132784368Y-126100525D01*
X132577525Y-126307368D01*
X132461000Y-126481760D01*
X132344475Y-126307368D01*
X132137632Y-126100525D01*
X131894411Y-125938010D01*
X131624158Y-125826068D01*
X131337260Y-125769000D01*
X131044740Y-125769000D01*
X130757842Y-125826068D01*
X130487589Y-125938010D01*
X130244368Y-126100525D01*
X130037525Y-126307368D01*
X129875010Y-126550589D01*
X129763068Y-126820842D01*
X129706000Y-127107740D01*
X129706000Y-127400260D01*
X129763068Y-127687158D01*
X129875010Y-127957411D01*
X130037525Y-128200632D01*
X130244368Y-128407475D01*
X130487589Y-128569990D01*
X130757842Y-128681932D01*
X131044740Y-128739000D01*
X131337260Y-128739000D01*
X131624158Y-128681932D01*
X131894411Y-128569990D01*
X132137632Y-128407475D01*
X132344475Y-128200632D01*
X132461000Y-128026240D01*
X132577525Y-128200632D01*
X132784368Y-128407475D01*
X133027589Y-128569990D01*
X133297842Y-128681932D01*
X133584740Y-128739000D01*
X133877260Y-128739000D01*
X134164158Y-128681932D01*
X134434411Y-128569990D01*
X134677632Y-128407475D01*
X134884475Y-128200632D01*
X135001000Y-128026240D01*
X135117525Y-128200632D01*
X135324368Y-128407475D01*
X135567589Y-128569990D01*
X135837842Y-128681932D01*
X136124740Y-128739000D01*
X136417260Y-128739000D01*
X136704158Y-128681932D01*
X136974411Y-128569990D01*
X137217632Y-128407475D01*
X137424475Y-128200632D01*
X137541000Y-128026240D01*
X137657525Y-128200632D01*
X137864368Y-128407475D01*
X138107589Y-128569990D01*
X138377842Y-128681932D01*
X138664740Y-128739000D01*
X138957260Y-128739000D01*
X139244158Y-128681932D01*
X139514411Y-128569990D01*
X139757632Y-128407475D01*
X139964475Y-128200632D01*
X140081000Y-128026240D01*
X140197525Y-128200632D01*
X140404368Y-128407475D01*
X140647589Y-128569990D01*
X140917842Y-128681932D01*
X141204740Y-128739000D01*
X141497260Y-128739000D01*
X141717408Y-128695209D01*
X141962197Y-128939998D01*
X141986000Y-128969002D01*
X142101725Y-129063975D01*
X142233754Y-129134547D01*
X142377015Y-129178004D01*
X142488668Y-129189001D01*
X142488677Y-129189001D01*
X142526000Y-129192677D01*
X142563323Y-129189001D01*
X166046677Y-129189001D01*
X166083999Y-129192677D01*
X166121321Y-129189001D01*
X166121332Y-129189001D01*
X166232985Y-129178004D01*
X166376246Y-129134547D01*
X166508275Y-129063975D01*
X166624000Y-128969002D01*
X166647803Y-128939998D01*
X167273592Y-128314209D01*
X167493740Y-128358000D01*
X167786260Y-128358000D01*
X168073158Y-128300932D01*
X168343411Y-128188990D01*
X168586632Y-128026475D01*
X168793475Y-127819632D01*
X168910000Y-127645240D01*
X169026525Y-127819632D01*
X169233368Y-128026475D01*
X169476589Y-128188990D01*
X169746842Y-128300932D01*
X170033740Y-128358000D01*
X170326260Y-128358000D01*
X170613158Y-128300932D01*
X170883411Y-128188990D01*
X171126632Y-128026475D01*
X171333475Y-127819632D01*
X171455195Y-127637466D01*
X171524822Y-127754355D01*
X171719731Y-127970588D01*
X171953080Y-128144641D01*
X172215901Y-128269825D01*
X172363110Y-128314476D01*
X172593000Y-128193155D01*
X172593000Y-127000000D01*
X172573000Y-127000000D01*
X172573000Y-126746000D01*
X172593000Y-126746000D01*
X172593000Y-125552845D01*
X172363110Y-125431524D01*
X172215901Y-125476175D01*
X171953080Y-125601359D01*
X171719731Y-125775412D01*
X171524822Y-125991645D01*
X171455195Y-126108534D01*
X171333475Y-125926368D01*
X171126632Y-125719525D01*
X170883411Y-125557010D01*
X170613158Y-125445068D01*
X170326260Y-125388000D01*
X170042922Y-125388000D01*
X170051602Y-125359387D01*
X170062599Y-125247734D01*
X170062599Y-125247725D01*
X170066275Y-125210402D01*
X170062599Y-125173079D01*
X170062599Y-122587800D01*
X170129539Y-122587800D01*
X170329498Y-122548026D01*
X170517856Y-122470005D01*
X170687374Y-122356737D01*
X170780575Y-122263536D01*
X170787620Y-122267302D01*
X170907318Y-122303612D01*
X171031800Y-122315872D01*
X172731800Y-122315872D01*
X172856282Y-122303612D01*
X172975980Y-122267302D01*
X173086294Y-122208337D01*
X173182985Y-122128985D01*
X173262337Y-122032294D01*
X173321302Y-121921980D01*
X173357612Y-121802282D01*
X173369872Y-121677800D01*
X173369872Y-119977800D01*
X173357612Y-119853318D01*
X173321302Y-119733620D01*
X173262337Y-119623306D01*
X173182985Y-119526615D01*
X173086294Y-119447263D01*
X172975980Y-119388298D01*
X172903420Y-119366287D01*
X173035275Y-119234432D01*
X173197790Y-118991211D01*
X173309732Y-118720958D01*
X173366800Y-118434060D01*
X173366800Y-118141540D01*
X173309732Y-117854642D01*
X173197790Y-117584389D01*
X173035275Y-117341168D01*
X172828432Y-117134325D01*
X172654040Y-117017800D01*
X172828432Y-116901275D01*
X173035275Y-116694432D01*
X173197790Y-116451211D01*
X173309732Y-116180958D01*
X173366800Y-115894060D01*
X173366800Y-115601540D01*
X173309732Y-115314642D01*
X173197790Y-115044389D01*
X173035275Y-114801168D01*
X172828432Y-114594325D01*
X172654040Y-114477800D01*
X172828432Y-114361275D01*
X173035275Y-114154432D01*
X173197790Y-113911211D01*
X173309732Y-113640958D01*
X173366800Y-113354060D01*
X173366800Y-113061540D01*
X173309732Y-112774642D01*
X173197790Y-112504389D01*
X173035275Y-112261168D01*
X172828432Y-112054325D01*
X172654040Y-111937800D01*
X172828432Y-111821275D01*
X173035275Y-111614432D01*
X173197790Y-111371211D01*
X173309732Y-111100958D01*
X173366800Y-110814060D01*
X173366800Y-110521540D01*
X173309732Y-110234642D01*
X173197790Y-109964389D01*
X173035275Y-109721168D01*
X172828432Y-109514325D01*
X172585211Y-109351810D01*
X172314958Y-109239868D01*
X172028060Y-109182800D01*
X171735540Y-109182800D01*
X171448642Y-109239868D01*
X171178389Y-109351810D01*
X170935168Y-109514325D01*
X170787600Y-109661893D01*
X170787600Y-104217491D01*
X171456319Y-104217491D01*
X171553643Y-104491852D01*
X171702622Y-104741955D01*
X171897531Y-104958188D01*
X172130880Y-105132241D01*
X172393701Y-105257425D01*
X172540910Y-105302076D01*
X172770800Y-105180755D01*
X172770800Y-103987600D01*
X171576986Y-103987600D01*
X171456319Y-104217491D01*
X170787600Y-104217491D01*
X170787600Y-103667401D01*
X170951292Y-103503709D01*
X171456319Y-103503709D01*
X171576986Y-103733600D01*
X172770800Y-103733600D01*
X172770800Y-102540445D01*
X172540910Y-102419124D01*
X172393701Y-102463775D01*
X172130880Y-102588959D01*
X171897531Y-102763012D01*
X171702622Y-102979245D01*
X171553643Y-103229348D01*
X171456319Y-103503709D01*
X170951292Y-103503709D01*
X173078608Y-101376395D01*
X173107601Y-101352601D01*
X173131395Y-101323608D01*
X173131399Y-101323604D01*
X173202573Y-101236877D01*
X173202574Y-101236876D01*
X173273146Y-101104847D01*
X173316603Y-100961586D01*
X173327600Y-100849933D01*
X173327600Y-100849924D01*
X173331276Y-100812601D01*
X173327600Y-100775278D01*
X173327600Y-97671023D01*
X173416859Y-97858420D01*
X173590912Y-98091769D01*
X173807145Y-98286678D01*
X174057248Y-98435657D01*
X174331609Y-98532981D01*
X174561500Y-98412314D01*
X174561500Y-97218500D01*
X174541500Y-97218500D01*
X174541500Y-96964500D01*
X174561500Y-96964500D01*
X174561500Y-96944500D01*
X174815500Y-96944500D01*
X174815500Y-96964500D01*
X174835500Y-96964500D01*
X174835500Y-97218500D01*
X174815500Y-97218500D01*
X174815500Y-98412314D01*
X175045391Y-98532981D01*
X175103502Y-98512367D01*
X175103502Y-100835093D01*
X173751801Y-102186796D01*
X173722798Y-102210598D01*
X173690792Y-102249598D01*
X173627825Y-102326323D01*
X173565353Y-102443199D01*
X173557253Y-102458353D01*
X173536203Y-102527745D01*
X173401899Y-102463775D01*
X173254690Y-102419124D01*
X173024800Y-102540445D01*
X173024800Y-103733600D01*
X173044800Y-103733600D01*
X173044800Y-103987600D01*
X173024800Y-103987600D01*
X173024800Y-105180755D01*
X173254690Y-105302076D01*
X173401899Y-105257425D01*
X173502799Y-105209365D01*
X173502800Y-124738466D01*
X173499123Y-124775799D01*
X173502800Y-124813132D01*
X173513797Y-124924785D01*
X173521142Y-124948997D01*
X173557253Y-125068045D01*
X173627825Y-125200075D01*
X173678644Y-125261997D01*
X173722799Y-125315800D01*
X173751797Y-125339598D01*
X173972655Y-125560457D01*
X173958815Y-125571815D01*
X173879463Y-125668506D01*
X173820498Y-125778820D01*
X173796034Y-125859466D01*
X173720269Y-125775412D01*
X173486920Y-125601359D01*
X173224099Y-125476175D01*
X173076890Y-125431524D01*
X172847000Y-125552845D01*
X172847000Y-126746000D01*
X172867000Y-126746000D01*
X172867000Y-127000000D01*
X172847000Y-127000000D01*
X172847000Y-128193155D01*
X173076890Y-128314476D01*
X173224099Y-128269825D01*
X173486920Y-128144641D01*
X173720269Y-127970588D01*
X173796034Y-127886534D01*
X173820498Y-127967180D01*
X173879463Y-128077494D01*
X173958815Y-128174185D01*
X174055506Y-128253537D01*
X174165820Y-128312502D01*
X174285518Y-128348812D01*
X174410000Y-128361072D01*
X176110000Y-128361072D01*
X176234482Y-128348812D01*
X176354180Y-128312502D01*
X176464494Y-128253537D01*
X176561185Y-128174185D01*
X176640537Y-128077494D01*
X176699502Y-127967180D01*
X176735812Y-127847482D01*
X176748072Y-127723000D01*
X176748072Y-126023000D01*
X176735812Y-125898518D01*
X176699502Y-125778820D01*
X176640537Y-125668506D01*
X176561185Y-125571815D01*
X176464494Y-125492463D01*
X176354180Y-125433498D01*
X176234482Y-125397188D01*
X176110000Y-125384928D01*
X175914326Y-125384928D01*
X175894974Y-125348724D01*
X175800001Y-125232999D01*
X175771004Y-125209202D01*
X175022799Y-124460998D01*
X175022799Y-105348672D01*
X176287800Y-105348672D01*
X176412282Y-105336412D01*
X176531980Y-105300102D01*
X176642294Y-105241137D01*
X176738985Y-105161785D01*
X176818337Y-105065094D01*
X176877302Y-104954780D01*
X176913612Y-104835082D01*
X176925872Y-104710600D01*
X176925872Y-103010600D01*
X176913612Y-102886118D01*
X176877302Y-102766420D01*
X176818337Y-102656106D01*
X176738985Y-102559415D01*
X176725145Y-102548057D01*
X178664000Y-100609202D01*
X178664000Y-131928000D01*
X123088000Y-131928000D01*
X123088000Y-119271321D01*
X125195200Y-119271321D01*
X125195200Y-119691879D01*
X125277247Y-120104356D01*
X125438188Y-120492902D01*
X125671837Y-120842583D01*
X125969217Y-121139963D01*
X126318898Y-121373612D01*
X126707444Y-121534553D01*
X127119921Y-121616600D01*
X127540479Y-121616600D01*
X127952956Y-121534553D01*
X128341502Y-121373612D01*
X128691183Y-121139963D01*
X128988563Y-120842583D01*
X129222212Y-120492902D01*
X129383153Y-120104356D01*
X129465200Y-119691879D01*
X129465200Y-119271321D01*
X129383153Y-118858844D01*
X129222212Y-118470298D01*
X128988563Y-118120617D01*
X128691183Y-117823237D01*
X128341502Y-117589588D01*
X127952956Y-117428647D01*
X127540479Y-117346600D01*
X127119921Y-117346600D01*
X126707444Y-117428647D01*
X126318898Y-117589588D01*
X125969217Y-117823237D01*
X125671837Y-118120617D01*
X125438188Y-118470298D01*
X125277247Y-118858844D01*
X125195200Y-119271321D01*
X123088000Y-119271321D01*
X123088000Y-114191321D01*
X125195200Y-114191321D01*
X125195200Y-114611879D01*
X125277247Y-115024356D01*
X125438188Y-115412902D01*
X125671837Y-115762583D01*
X125969217Y-116059963D01*
X126318898Y-116293612D01*
X126707444Y-116454553D01*
X127119921Y-116536600D01*
X127540479Y-116536600D01*
X127952956Y-116454553D01*
X128341502Y-116293612D01*
X128691183Y-116059963D01*
X128988563Y-115762583D01*
X129222212Y-115412902D01*
X129383153Y-115024356D01*
X129465200Y-114611879D01*
X129465200Y-114191321D01*
X129383153Y-113778844D01*
X129222212Y-113390298D01*
X128988563Y-113040617D01*
X128691183Y-112743237D01*
X128341502Y-112509588D01*
X127952956Y-112348647D01*
X127540479Y-112266600D01*
X127119921Y-112266600D01*
X126707444Y-112348647D01*
X126318898Y-112509588D01*
X125969217Y-112743237D01*
X125671837Y-113040617D01*
X125438188Y-113390298D01*
X125277247Y-113778844D01*
X125195200Y-114191321D01*
X123088000Y-114191321D01*
X123088000Y-109111321D01*
X125195200Y-109111321D01*
X125195200Y-109531879D01*
X125277247Y-109944356D01*
X125438188Y-110332902D01*
X125671837Y-110682583D01*
X125969217Y-110979963D01*
X126318898Y-111213612D01*
X126707444Y-111374553D01*
X127119921Y-111456600D01*
X127540479Y-111456600D01*
X127952956Y-111374553D01*
X128341502Y-111213612D01*
X128691183Y-110979963D01*
X128988563Y-110682583D01*
X129222212Y-110332902D01*
X129383153Y-109944356D01*
X129465200Y-109531879D01*
X129465200Y-109111321D01*
X129383153Y-108698844D01*
X129222212Y-108310298D01*
X128988563Y-107960617D01*
X128691183Y-107663237D01*
X128341502Y-107429588D01*
X127952956Y-107268647D01*
X127540479Y-107186600D01*
X127119921Y-107186600D01*
X126707444Y-107268647D01*
X126318898Y-107429588D01*
X125969217Y-107663237D01*
X125671837Y-107960617D01*
X125438188Y-108310298D01*
X125277247Y-108698844D01*
X125195200Y-109111321D01*
X123088000Y-109111321D01*
X123088000Y-102741600D01*
X125192128Y-102741600D01*
X125192128Y-105741600D01*
X125204388Y-105866082D01*
X125240698Y-105985780D01*
X125299663Y-106096094D01*
X125379015Y-106192785D01*
X125475706Y-106272137D01*
X125586020Y-106331102D01*
X125705718Y-106367412D01*
X125830200Y-106379672D01*
X128830200Y-106379672D01*
X128954682Y-106367412D01*
X129074380Y-106331102D01*
X129184694Y-106272137D01*
X129281385Y-106192785D01*
X129360737Y-106096094D01*
X129419702Y-105985780D01*
X129456012Y-105866082D01*
X129468272Y-105741600D01*
X129468272Y-102741600D01*
X129456012Y-102617118D01*
X129419702Y-102497420D01*
X129360737Y-102387106D01*
X129281385Y-102290415D01*
X129184694Y-102211063D01*
X129074380Y-102152098D01*
X128954682Y-102115788D01*
X128830200Y-102103528D01*
X125830200Y-102103528D01*
X125705718Y-102115788D01*
X125586020Y-102152098D01*
X125475706Y-102211063D01*
X125379015Y-102290415D01*
X125299663Y-102387106D01*
X125240698Y-102497420D01*
X125204388Y-102617118D01*
X125192128Y-102741600D01*
X123088000Y-102741600D01*
X123088000Y-47396000D01*
X173586833Y-47396000D01*
X173484006Y-47450963D01*
G37*
X173484006Y-47450963D02*
X173387315Y-47530315D01*
X173307963Y-47627006D01*
X173248998Y-47737320D01*
X173212688Y-47857018D01*
X173200428Y-47981500D01*
X173200428Y-48071500D01*
X159334320Y-48071500D01*
X159296997Y-48067824D01*
X159259674Y-48071500D01*
X159259665Y-48071500D01*
X159148012Y-48082497D01*
X159004751Y-48125954D01*
X158872722Y-48196526D01*
X158872720Y-48196527D01*
X158872721Y-48196527D01*
X158785994Y-48267701D01*
X158785990Y-48267705D01*
X158756997Y-48291499D01*
X158733203Y-48320492D01*
X143489001Y-63564696D01*
X143489001Y-54641359D01*
X143619256Y-54587405D01*
X143788774Y-54474137D01*
X143932937Y-54329974D01*
X144046205Y-54160456D01*
X144124226Y-53972098D01*
X144164000Y-53772139D01*
X144164000Y-53568261D01*
X144124226Y-53368302D01*
X144046205Y-53179944D01*
X143932937Y-53010426D01*
X143788774Y-52866263D01*
X143619256Y-52752995D01*
X143430898Y-52674974D01*
X143230939Y-52635200D01*
X143027061Y-52635200D01*
X142827102Y-52674974D01*
X142638744Y-52752995D01*
X142469226Y-52866263D01*
X142325063Y-53010426D01*
X142211795Y-53179944D01*
X142133774Y-53368302D01*
X142094000Y-53568261D01*
X142094000Y-53645974D01*
X142081050Y-53670201D01*
X142023455Y-53777953D01*
X141979998Y-53921214D01*
X141969001Y-54032867D01*
X141969001Y-54032877D01*
X141965325Y-54070199D01*
X141969001Y-54107521D01*
X141969001Y-56278890D01*
X141909174Y-56219063D01*
X141739656Y-56105795D01*
X141551298Y-56027774D01*
X141351339Y-55988000D01*
X141147461Y-55988000D01*
X140947502Y-56027774D01*
X140759144Y-56105795D01*
X140589626Y-56219063D01*
X140445463Y-56363226D01*
X140332195Y-56532744D01*
X140254174Y-56721102D01*
X140214400Y-56921061D01*
X140214400Y-56983199D01*
X140013401Y-57184198D01*
X139984398Y-57208000D01*
X139929270Y-57275175D01*
X139889425Y-57323725D01*
X139823385Y-57447277D01*
X139818853Y-57455755D01*
X139775396Y-57599016D01*
X139764399Y-57710669D01*
X139764399Y-57710679D01*
X139760723Y-57748001D01*
X139764399Y-57785323D01*
X139764400Y-80968887D01*
X139720462Y-81012825D01*
X139607194Y-81182343D01*
X139529173Y-81370701D01*
X139489399Y-81570660D01*
X139489399Y-81774538D01*
X139529173Y-81974497D01*
X139607194Y-82162855D01*
X139720462Y-82332373D01*
X139864625Y-82476536D01*
X140034143Y-82589804D01*
X140222501Y-82667825D01*
X140422460Y-82707599D01*
X140626338Y-82707599D01*
X140826297Y-82667825D01*
X141014655Y-82589804D01*
X141184173Y-82476536D01*
X141328336Y-82332373D01*
X141441604Y-82162855D01*
X141519625Y-81974497D01*
X141559399Y-81774538D01*
X141559399Y-81570660D01*
X141519625Y-81370701D01*
X141441604Y-81182343D01*
X141364992Y-81067684D01*
X141551298Y-81030626D01*
X141638500Y-80994506D01*
X141638500Y-88914198D01*
X131213403Y-99339296D01*
X131184399Y-99363099D01*
X131135369Y-99422843D01*
X131089426Y-99478824D01*
X131051315Y-99550125D01*
X131018854Y-99610854D01*
X130975397Y-99754115D01*
X130964400Y-99865768D01*
X130964400Y-99865778D01*
X130960724Y-99903100D01*
X130964400Y-99940422D01*
X130964401Y-108870068D01*
X130960724Y-108907400D01*
X130964401Y-108944733D01*
X130975398Y-109056386D01*
X130988580Y-109099842D01*
X131018854Y-109199646D01*
X131089426Y-109331676D01*
X131143415Y-109397461D01*
X131184400Y-109447401D01*
X131213398Y-109471199D01*
X147683655Y-125941457D01*
X147669815Y-125952815D01*
X147590463Y-126049506D01*
X147531498Y-126159820D01*
X147507034Y-126240466D01*
X147431269Y-126156412D01*
X147197920Y-125982359D01*
X146935099Y-125857175D01*
X146787890Y-125812524D01*
X146558000Y-125933845D01*
X146558000Y-127127000D01*
X146578000Y-127127000D01*
X146578000Y-127381000D01*
X146558000Y-127381000D01*
X146558000Y-127401000D01*
X146304000Y-127401000D01*
X146304000Y-127381000D01*
X146284000Y-127381000D01*
X146284000Y-127127000D01*
X146304000Y-127127000D01*
X146304000Y-125933845D01*
X146074110Y-125812524D01*
X145926901Y-125857175D01*
X145664080Y-125982359D01*
X145430731Y-126156412D01*
X145235822Y-126372645D01*
X145166195Y-126489534D01*
X145044475Y-126307368D01*
X144837632Y-126100525D01*
X144594411Y-125938010D01*
X144324158Y-125826068D01*
X144037260Y-125769000D01*
X143744740Y-125769000D01*
X143457842Y-125826068D01*
X143187589Y-125938010D01*
X142944368Y-126100525D01*
X142737525Y-126307368D01*
X142621000Y-126481760D01*
X142504475Y-126307368D01*
X142297632Y-126100525D01*
X142054411Y-125938010D01*
X141784158Y-125826068D01*
X141497260Y-125769000D01*
X141204740Y-125769000D01*
X140917842Y-125826068D01*
X140647589Y-125938010D01*
X140404368Y-126100525D01*
X140197525Y-126307368D01*
X140081000Y-126481760D01*
X139964475Y-126307368D01*
X139757632Y-126100525D01*
X139514411Y-125938010D01*
X139244158Y-125826068D01*
X138957260Y-125769000D01*
X138664740Y-125769000D01*
X138377842Y-125826068D01*
X138107589Y-125938010D01*
X137864368Y-126100525D01*
X137657525Y-126307368D01*
X137541000Y-126481760D01*
X137424475Y-126307368D01*
X137217632Y-126100525D01*
X136974411Y-125938010D01*
X136704158Y-125826068D01*
X136417260Y-125769000D01*
X136124740Y-125769000D01*
X135837842Y-125826068D01*
X135567589Y-125938010D01*
X135324368Y-126100525D01*
X135117525Y-126307368D01*
X135001000Y-126481760D01*
X134884475Y-126307368D01*
X134677632Y-126100525D01*
X134434411Y-125938010D01*
X134164158Y-125826068D01*
X133877260Y-125769000D01*
X133584740Y-125769000D01*
X133297842Y-125826068D01*
X133027589Y-125938010D01*
X132784368Y-126100525D01*
X132577525Y-126307368D01*
X132461000Y-126481760D01*
X132344475Y-126307368D01*
X132137632Y-126100525D01*
X131894411Y-125938010D01*
X131624158Y-125826068D01*
X131337260Y-125769000D01*
X131044740Y-125769000D01*
X130757842Y-125826068D01*
X130487589Y-125938010D01*
X130244368Y-126100525D01*
X130037525Y-126307368D01*
X129875010Y-126550589D01*
X129763068Y-126820842D01*
X129706000Y-127107740D01*
X129706000Y-127400260D01*
X129763068Y-127687158D01*
X129875010Y-127957411D01*
X130037525Y-128200632D01*
X130244368Y-128407475D01*
X130487589Y-128569990D01*
X130757842Y-128681932D01*
X131044740Y-128739000D01*
X131337260Y-128739000D01*
X131624158Y-128681932D01*
X131894411Y-128569990D01*
X132137632Y-128407475D01*
X132344475Y-128200632D01*
X132461000Y-128026240D01*
X132577525Y-128200632D01*
X132784368Y-128407475D01*
X133027589Y-128569990D01*
X133297842Y-128681932D01*
X133584740Y-128739000D01*
X133877260Y-128739000D01*
X134164158Y-128681932D01*
X134434411Y-128569990D01*
X134677632Y-128407475D01*
X134884475Y-128200632D01*
X135001000Y-128026240D01*
X135117525Y-128200632D01*
X135324368Y-128407475D01*
X135567589Y-128569990D01*
X135837842Y-128681932D01*
X136124740Y-128739000D01*
X136417260Y-128739000D01*
X136704158Y-128681932D01*
X136974411Y-128569990D01*
X137217632Y-128407475D01*
X137424475Y-128200632D01*
X137541000Y-128026240D01*
X137657525Y-128200632D01*
X137864368Y-128407475D01*
X138107589Y-128569990D01*
X138377842Y-128681932D01*
X138664740Y-128739000D01*
X138957260Y-128739000D01*
X139244158Y-128681932D01*
X139514411Y-128569990D01*
X139757632Y-128407475D01*
X139964475Y-128200632D01*
X140081000Y-128026240D01*
X140197525Y-128200632D01*
X140404368Y-128407475D01*
X140647589Y-128569990D01*
X140917842Y-128681932D01*
X141204740Y-128739000D01*
X141497260Y-128739000D01*
X141717408Y-128695209D01*
X141962197Y-128939998D01*
X141986000Y-128969002D01*
X142101725Y-129063975D01*
X142233754Y-129134547D01*
X142377015Y-129178004D01*
X142488668Y-129189001D01*
X142488677Y-129189001D01*
X142526000Y-129192677D01*
X142563323Y-129189001D01*
X166046677Y-129189001D01*
X166083999Y-129192677D01*
X166121321Y-129189001D01*
X166121332Y-129189001D01*
X166232985Y-129178004D01*
X166376246Y-129134547D01*
X166508275Y-129063975D01*
X166624000Y-128969002D01*
X166647803Y-128939998D01*
X167273592Y-128314209D01*
X167493740Y-128358000D01*
X167786260Y-128358000D01*
X168073158Y-128300932D01*
X168343411Y-128188990D01*
X168586632Y-128026475D01*
X168793475Y-127819632D01*
X168910000Y-127645240D01*
X169026525Y-127819632D01*
X169233368Y-128026475D01*
X169476589Y-128188990D01*
X169746842Y-128300932D01*
X170033740Y-128358000D01*
X170326260Y-128358000D01*
X170613158Y-128300932D01*
X170883411Y-128188990D01*
X171126632Y-128026475D01*
X171333475Y-127819632D01*
X171455195Y-127637466D01*
X171524822Y-127754355D01*
X171719731Y-127970588D01*
X171953080Y-128144641D01*
X172215901Y-128269825D01*
X172363110Y-128314476D01*
X172593000Y-128193155D01*
X172593000Y-127000000D01*
X172573000Y-127000000D01*
X172573000Y-126746000D01*
X172593000Y-126746000D01*
X172593000Y-125552845D01*
X172363110Y-125431524D01*
X172215901Y-125476175D01*
X171953080Y-125601359D01*
X171719731Y-125775412D01*
X171524822Y-125991645D01*
X171455195Y-126108534D01*
X171333475Y-125926368D01*
X171126632Y-125719525D01*
X170883411Y-125557010D01*
X170613158Y-125445068D01*
X170326260Y-125388000D01*
X170042922Y-125388000D01*
X170051602Y-125359387D01*
X170062599Y-125247734D01*
X170062599Y-125247725D01*
X170066275Y-125210402D01*
X170062599Y-125173079D01*
X170062599Y-122587800D01*
X170129539Y-122587800D01*
X170329498Y-122548026D01*
X170517856Y-122470005D01*
X170687374Y-122356737D01*
X170780575Y-122263536D01*
X170787620Y-122267302D01*
X170907318Y-122303612D01*
X171031800Y-122315872D01*
X172731800Y-122315872D01*
X172856282Y-122303612D01*
X172975980Y-122267302D01*
X173086294Y-122208337D01*
X173182985Y-122128985D01*
X173262337Y-122032294D01*
X173321302Y-121921980D01*
X173357612Y-121802282D01*
X173369872Y-121677800D01*
X173369872Y-119977800D01*
X173357612Y-119853318D01*
X173321302Y-119733620D01*
X173262337Y-119623306D01*
X173182985Y-119526615D01*
X173086294Y-119447263D01*
X172975980Y-119388298D01*
X172903420Y-119366287D01*
X173035275Y-119234432D01*
X173197790Y-118991211D01*
X173309732Y-118720958D01*
X173366800Y-118434060D01*
X173366800Y-118141540D01*
X173309732Y-117854642D01*
X173197790Y-117584389D01*
X173035275Y-117341168D01*
X172828432Y-117134325D01*
X172654040Y-117017800D01*
X172828432Y-116901275D01*
X173035275Y-116694432D01*
X173197790Y-116451211D01*
X173309732Y-116180958D01*
X173366800Y-115894060D01*
X173366800Y-115601540D01*
X173309732Y-115314642D01*
X173197790Y-115044389D01*
X173035275Y-114801168D01*
X172828432Y-114594325D01*
X172654040Y-114477800D01*
X172828432Y-114361275D01*
X173035275Y-114154432D01*
X173197790Y-113911211D01*
X173309732Y-113640958D01*
X173366800Y-113354060D01*
X173366800Y-113061540D01*
X173309732Y-112774642D01*
X173197790Y-112504389D01*
X173035275Y-112261168D01*
X172828432Y-112054325D01*
X172654040Y-111937800D01*
X172828432Y-111821275D01*
X173035275Y-111614432D01*
X173197790Y-111371211D01*
X173309732Y-111100958D01*
X173366800Y-110814060D01*
X173366800Y-110521540D01*
X173309732Y-110234642D01*
X173197790Y-109964389D01*
X173035275Y-109721168D01*
X172828432Y-109514325D01*
X172585211Y-109351810D01*
X172314958Y-109239868D01*
X172028060Y-109182800D01*
X171735540Y-109182800D01*
X171448642Y-109239868D01*
X171178389Y-109351810D01*
X170935168Y-109514325D01*
X170787600Y-109661893D01*
X170787600Y-104217491D01*
X171456319Y-104217491D01*
X171553643Y-104491852D01*
X171702622Y-104741955D01*
X171897531Y-104958188D01*
X172130880Y-105132241D01*
X172393701Y-105257425D01*
X172540910Y-105302076D01*
X172770800Y-105180755D01*
X172770800Y-103987600D01*
X171576986Y-103987600D01*
X171456319Y-104217491D01*
X170787600Y-104217491D01*
X170787600Y-103667401D01*
X170951292Y-103503709D01*
X171456319Y-103503709D01*
X171576986Y-103733600D01*
X172770800Y-103733600D01*
X172770800Y-102540445D01*
X172540910Y-102419124D01*
X172393701Y-102463775D01*
X172130880Y-102588959D01*
X171897531Y-102763012D01*
X171702622Y-102979245D01*
X171553643Y-103229348D01*
X171456319Y-103503709D01*
X170951292Y-103503709D01*
X173078608Y-101376395D01*
X173107601Y-101352601D01*
X173131395Y-101323608D01*
X173131399Y-101323604D01*
X173202573Y-101236877D01*
X173202574Y-101236876D01*
X173273146Y-101104847D01*
X173316603Y-100961586D01*
X173327600Y-100849933D01*
X173327600Y-100849924D01*
X173331276Y-100812601D01*
X173327600Y-100775278D01*
X173327600Y-97671023D01*
X173416859Y-97858420D01*
X173590912Y-98091769D01*
X173807145Y-98286678D01*
X174057248Y-98435657D01*
X174331609Y-98532981D01*
X174561500Y-98412314D01*
X174561500Y-97218500D01*
X174541500Y-97218500D01*
X174541500Y-96964500D01*
X174561500Y-96964500D01*
X174561500Y-96944500D01*
X174815500Y-96944500D01*
X174815500Y-96964500D01*
X174835500Y-96964500D01*
X174835500Y-97218500D01*
X174815500Y-97218500D01*
X174815500Y-98412314D01*
X175045391Y-98532981D01*
X175103502Y-98512367D01*
X175103502Y-100835093D01*
X173751801Y-102186796D01*
X173722798Y-102210598D01*
X173690792Y-102249598D01*
X173627825Y-102326323D01*
X173565353Y-102443199D01*
X173557253Y-102458353D01*
X173536203Y-102527745D01*
X173401899Y-102463775D01*
X173254690Y-102419124D01*
X173024800Y-102540445D01*
X173024800Y-103733600D01*
X173044800Y-103733600D01*
X173044800Y-103987600D01*
X173024800Y-103987600D01*
X173024800Y-105180755D01*
X173254690Y-105302076D01*
X173401899Y-105257425D01*
X173502799Y-105209365D01*
X173502800Y-124738466D01*
X173499123Y-124775799D01*
X173502800Y-124813132D01*
X173513797Y-124924785D01*
X173521142Y-124948997D01*
X173557253Y-125068045D01*
X173627825Y-125200075D01*
X173678644Y-125261997D01*
X173722799Y-125315800D01*
X173751797Y-125339598D01*
X173972655Y-125560457D01*
X173958815Y-125571815D01*
X173879463Y-125668506D01*
X173820498Y-125778820D01*
X173796034Y-125859466D01*
X173720269Y-125775412D01*
X173486920Y-125601359D01*
X173224099Y-125476175D01*
X173076890Y-125431524D01*
X172847000Y-125552845D01*
X172847000Y-126746000D01*
X172867000Y-126746000D01*
X172867000Y-127000000D01*
X172847000Y-127000000D01*
X172847000Y-128193155D01*
X173076890Y-128314476D01*
X173224099Y-128269825D01*
X173486920Y-128144641D01*
X173720269Y-127970588D01*
X173796034Y-127886534D01*
X173820498Y-127967180D01*
X173879463Y-128077494D01*
X173958815Y-128174185D01*
X174055506Y-128253537D01*
X174165820Y-128312502D01*
X174285518Y-128348812D01*
X174410000Y-128361072D01*
X176110000Y-128361072D01*
X176234482Y-128348812D01*
X176354180Y-128312502D01*
X176464494Y-128253537D01*
X176561185Y-128174185D01*
X176640537Y-128077494D01*
X176699502Y-127967180D01*
X176735812Y-127847482D01*
X176748072Y-127723000D01*
X176748072Y-126023000D01*
X176735812Y-125898518D01*
X176699502Y-125778820D01*
X176640537Y-125668506D01*
X176561185Y-125571815D01*
X176464494Y-125492463D01*
X176354180Y-125433498D01*
X176234482Y-125397188D01*
X176110000Y-125384928D01*
X175914326Y-125384928D01*
X175894974Y-125348724D01*
X175800001Y-125232999D01*
X175771004Y-125209202D01*
X175022799Y-124460998D01*
X175022799Y-105348672D01*
X176287800Y-105348672D01*
X176412282Y-105336412D01*
X176531980Y-105300102D01*
X176642294Y-105241137D01*
X176738985Y-105161785D01*
X176818337Y-105065094D01*
X176877302Y-104954780D01*
X176913612Y-104835082D01*
X176925872Y-104710600D01*
X176925872Y-103010600D01*
X176913612Y-102886118D01*
X176877302Y-102766420D01*
X176818337Y-102656106D01*
X176738985Y-102559415D01*
X176725145Y-102548057D01*
X178664000Y-100609202D01*
X178664000Y-131928000D01*
X123088000Y-131928000D01*
X123088000Y-119271321D01*
X125195200Y-119271321D01*
X125195200Y-119691879D01*
X125277247Y-120104356D01*
X125438188Y-120492902D01*
X125671837Y-120842583D01*
X125969217Y-121139963D01*
X126318898Y-121373612D01*
X126707444Y-121534553D01*
X127119921Y-121616600D01*
X127540479Y-121616600D01*
X127952956Y-121534553D01*
X128341502Y-121373612D01*
X128691183Y-121139963D01*
X128988563Y-120842583D01*
X129222212Y-120492902D01*
X129383153Y-120104356D01*
X129465200Y-119691879D01*
X129465200Y-119271321D01*
X129383153Y-118858844D01*
X129222212Y-118470298D01*
X128988563Y-118120617D01*
X128691183Y-117823237D01*
X128341502Y-117589588D01*
X127952956Y-117428647D01*
X127540479Y-117346600D01*
X127119921Y-117346600D01*
X126707444Y-117428647D01*
X126318898Y-117589588D01*
X125969217Y-117823237D01*
X125671837Y-118120617D01*
X125438188Y-118470298D01*
X125277247Y-118858844D01*
X125195200Y-119271321D01*
X123088000Y-119271321D01*
X123088000Y-114191321D01*
X125195200Y-114191321D01*
X125195200Y-114611879D01*
X125277247Y-115024356D01*
X125438188Y-115412902D01*
X125671837Y-115762583D01*
X125969217Y-116059963D01*
X126318898Y-116293612D01*
X126707444Y-116454553D01*
X127119921Y-116536600D01*
X127540479Y-116536600D01*
X127952956Y-116454553D01*
X128341502Y-116293612D01*
X128691183Y-116059963D01*
X128988563Y-115762583D01*
X129222212Y-115412902D01*
X129383153Y-115024356D01*
X129465200Y-114611879D01*
X129465200Y-114191321D01*
X129383153Y-113778844D01*
X129222212Y-113390298D01*
X128988563Y-113040617D01*
X128691183Y-112743237D01*
X128341502Y-112509588D01*
X127952956Y-112348647D01*
X127540479Y-112266600D01*
X127119921Y-112266600D01*
X126707444Y-112348647D01*
X126318898Y-112509588D01*
X125969217Y-112743237D01*
X125671837Y-113040617D01*
X125438188Y-113390298D01*
X125277247Y-113778844D01*
X125195200Y-114191321D01*
X123088000Y-114191321D01*
X123088000Y-109111321D01*
X125195200Y-109111321D01*
X125195200Y-109531879D01*
X125277247Y-109944356D01*
X125438188Y-110332902D01*
X125671837Y-110682583D01*
X125969217Y-110979963D01*
X126318898Y-111213612D01*
X126707444Y-111374553D01*
X127119921Y-111456600D01*
X127540479Y-111456600D01*
X127952956Y-111374553D01*
X128341502Y-111213612D01*
X128691183Y-110979963D01*
X128988563Y-110682583D01*
X129222212Y-110332902D01*
X129383153Y-109944356D01*
X129465200Y-109531879D01*
X129465200Y-109111321D01*
X129383153Y-108698844D01*
X129222212Y-108310298D01*
X128988563Y-107960617D01*
X128691183Y-107663237D01*
X128341502Y-107429588D01*
X127952956Y-107268647D01*
X127540479Y-107186600D01*
X127119921Y-107186600D01*
X126707444Y-107268647D01*
X126318898Y-107429588D01*
X125969217Y-107663237D01*
X125671837Y-107960617D01*
X125438188Y-108310298D01*
X125277247Y-108698844D01*
X125195200Y-109111321D01*
X123088000Y-109111321D01*
X123088000Y-102741600D01*
X125192128Y-102741600D01*
X125192128Y-105741600D01*
X125204388Y-105866082D01*
X125240698Y-105985780D01*
X125299663Y-106096094D01*
X125379015Y-106192785D01*
X125475706Y-106272137D01*
X125586020Y-106331102D01*
X125705718Y-106367412D01*
X125830200Y-106379672D01*
X128830200Y-106379672D01*
X128954682Y-106367412D01*
X129074380Y-106331102D01*
X129184694Y-106272137D01*
X129281385Y-106192785D01*
X129360737Y-106096094D01*
X129419702Y-105985780D01*
X129456012Y-105866082D01*
X129468272Y-105741600D01*
X129468272Y-102741600D01*
X129456012Y-102617118D01*
X129419702Y-102497420D01*
X129360737Y-102387106D01*
X129281385Y-102290415D01*
X129184694Y-102211063D01*
X129074380Y-102152098D01*
X128954682Y-102115788D01*
X128830200Y-102103528D01*
X125830200Y-102103528D01*
X125705718Y-102115788D01*
X125586020Y-102152098D01*
X125475706Y-102211063D01*
X125379015Y-102290415D01*
X125299663Y-102387106D01*
X125240698Y-102497420D01*
X125204388Y-102617118D01*
X125192128Y-102741600D01*
X123088000Y-102741600D01*
X123088000Y-47396000D01*
X173586833Y-47396000D01*
X173484006Y-47450963D01*
G36*
X173200428Y-49681500D02*
G01*
X173212688Y-49805982D01*
X173248998Y-49925680D01*
X173307963Y-50035994D01*
X173387315Y-50132685D01*
X173484006Y-50212037D01*
X173594320Y-50271002D01*
X173666880Y-50293013D01*
X173535025Y-50424868D01*
X173372510Y-50668089D01*
X173260568Y-50938342D01*
X173203500Y-51225240D01*
X173203500Y-51517760D01*
X173260568Y-51804658D01*
X173372510Y-52074911D01*
X173535025Y-52318132D01*
X173741868Y-52524975D01*
X173916260Y-52641500D01*
X173741868Y-52758025D01*
X173535025Y-52964868D01*
X173372510Y-53208089D01*
X173260568Y-53478342D01*
X173203500Y-53765240D01*
X173203500Y-54057760D01*
X173260568Y-54344658D01*
X173372510Y-54614911D01*
X173535025Y-54858132D01*
X173741868Y-55064975D01*
X173916260Y-55181500D01*
X173741868Y-55298025D01*
X173535025Y-55504868D01*
X173372510Y-55748089D01*
X173260568Y-56018342D01*
X173203500Y-56305240D01*
X173203500Y-56597760D01*
X173260568Y-56884658D01*
X173372510Y-57154911D01*
X173535025Y-57398132D01*
X173741868Y-57604975D01*
X173924034Y-57726695D01*
X173807145Y-57796322D01*
X173590912Y-57991231D01*
X173416859Y-58224580D01*
X173291675Y-58487401D01*
X173247024Y-58634610D01*
X173368345Y-58864500D01*
X174561500Y-58864500D01*
X174561500Y-58844500D01*
X174815500Y-58844500D01*
X174815500Y-58864500D01*
X174835500Y-58864500D01*
X174835500Y-59118500D01*
X174815500Y-59118500D01*
X174815500Y-59138500D01*
X174561500Y-59138500D01*
X174561500Y-59118500D01*
X173368345Y-59118500D01*
X173247024Y-59348390D01*
X173291675Y-59495599D01*
X173416859Y-59758420D01*
X173590912Y-59991769D01*
X173807145Y-60186678D01*
X173924034Y-60256305D01*
X173741868Y-60378025D01*
X173535025Y-60584868D01*
X173372510Y-60828089D01*
X173260568Y-61098342D01*
X173203500Y-61385240D01*
X173203500Y-61677760D01*
X173260568Y-61964658D01*
X173372510Y-62234911D01*
X173535025Y-62478132D01*
X173741868Y-62684975D01*
X173916260Y-62801500D01*
X173741868Y-62918025D01*
X173535025Y-63124868D01*
X173372510Y-63368089D01*
X173260568Y-63638342D01*
X173203500Y-63925240D01*
X173203500Y-64217760D01*
X173260568Y-64504658D01*
X173372510Y-64774911D01*
X173535025Y-65018132D01*
X173741868Y-65224975D01*
X173916260Y-65341500D01*
X173741868Y-65458025D01*
X173535025Y-65664868D01*
X173372510Y-65908089D01*
X173260568Y-66178342D01*
X173203500Y-66465240D01*
X173203500Y-66757760D01*
X173260568Y-67044658D01*
X173372510Y-67314911D01*
X173535025Y-67558132D01*
X173741868Y-67764975D01*
X173916260Y-67881500D01*
X173741868Y-67998025D01*
X173535025Y-68204868D01*
X173372510Y-68448089D01*
X173260568Y-68718342D01*
X173203500Y-69005240D01*
X173203500Y-69297760D01*
X173260568Y-69584658D01*
X173372510Y-69854911D01*
X173535025Y-70098132D01*
X173741868Y-70304975D01*
X173916260Y-70421500D01*
X173741868Y-70538025D01*
X173535025Y-70744868D01*
X173372510Y-70988089D01*
X173260568Y-71258342D01*
X173203500Y-71545240D01*
X173203500Y-71837760D01*
X173247290Y-72057908D01*
X170024603Y-75280596D01*
X169995599Y-75304399D01*
X169942172Y-75369501D01*
X169900626Y-75420124D01*
X169881712Y-75455510D01*
X169830054Y-75552154D01*
X169786597Y-75695415D01*
X169775600Y-75807068D01*
X169775600Y-75807078D01*
X169771924Y-75844400D01*
X169775600Y-75881722D01*
X169775600Y-86264800D01*
X169708661Y-86264800D01*
X169508702Y-86304574D01*
X169320344Y-86382595D01*
X169150826Y-86495863D01*
X169006663Y-86640026D01*
X168893395Y-86809544D01*
X168815374Y-86997902D01*
X168775600Y-87197861D01*
X168775600Y-87401739D01*
X168815374Y-87601698D01*
X168893395Y-87790056D01*
X169006663Y-87959574D01*
X169050600Y-88003511D01*
X169050601Y-98911397D01*
X167052802Y-100909197D01*
X167052797Y-100909201D01*
X163158492Y-104803507D01*
X163139390Y-104757389D01*
X162976875Y-104514168D01*
X162770032Y-104307325D01*
X162595640Y-104190800D01*
X162770032Y-104074275D01*
X162976875Y-103867432D01*
X163139390Y-103624211D01*
X163251332Y-103353958D01*
X163308400Y-103067060D01*
X163308400Y-102774540D01*
X163251332Y-102487642D01*
X163139390Y-102217389D01*
X162976875Y-101974168D01*
X162770032Y-101767325D01*
X162595640Y-101650800D01*
X162770032Y-101534275D01*
X162976875Y-101327432D01*
X163139390Y-101084211D01*
X163251332Y-100813958D01*
X163308400Y-100527060D01*
X163308400Y-100234540D01*
X163251332Y-99947642D01*
X163139390Y-99677389D01*
X162976875Y-99434168D01*
X162770032Y-99227325D01*
X162526811Y-99064810D01*
X162256558Y-98952868D01*
X161969660Y-98895800D01*
X161677140Y-98895800D01*
X161390242Y-98952868D01*
X161119989Y-99064810D01*
X160876768Y-99227325D01*
X160669925Y-99434168D01*
X160507410Y-99677389D01*
X160395468Y-99947642D01*
X160338400Y-100234540D01*
X160338400Y-100527060D01*
X160395468Y-100813958D01*
X160507410Y-101084211D01*
X160669925Y-101327432D01*
X160876768Y-101534275D01*
X161051160Y-101650800D01*
X160876768Y-101767325D01*
X160669925Y-101974168D01*
X160507410Y-102217389D01*
X160395468Y-102487642D01*
X160338400Y-102774540D01*
X160338400Y-103067060D01*
X160395468Y-103353958D01*
X160507410Y-103624211D01*
X160669925Y-103867432D01*
X160876768Y-104074275D01*
X161051160Y-104190800D01*
X160876768Y-104307325D01*
X160669925Y-104514168D01*
X160507410Y-104757389D01*
X160395468Y-105027642D01*
X160338400Y-105314540D01*
X160338400Y-105607060D01*
X160395468Y-105893958D01*
X160507410Y-106164211D01*
X160669925Y-106407432D01*
X160876768Y-106614275D01*
X161051160Y-106730800D01*
X160876768Y-106847325D01*
X160669925Y-107054168D01*
X160507410Y-107297389D01*
X160395468Y-107567642D01*
X160338400Y-107854540D01*
X160338400Y-108147060D01*
X160395468Y-108433958D01*
X160466647Y-108605799D01*
X160240725Y-108605799D01*
X160203402Y-108602123D01*
X160166079Y-108605799D01*
X160166070Y-108605799D01*
X160054417Y-108616796D01*
X159911156Y-108660253D01*
X159779127Y-108730825D01*
X159779125Y-108730826D01*
X159779126Y-108730826D01*
X159692399Y-108802000D01*
X159692395Y-108802004D01*
X159663402Y-108825798D01*
X159639608Y-108854791D01*
X150611472Y-117882929D01*
X150611472Y-117310800D01*
X150599212Y-117186318D01*
X150562902Y-117066620D01*
X150503937Y-116956306D01*
X150424585Y-116859615D01*
X150327894Y-116780263D01*
X150217580Y-116721298D01*
X150145020Y-116699287D01*
X150276875Y-116567432D01*
X150439390Y-116324211D01*
X150551332Y-116053958D01*
X150608400Y-115767060D01*
X150608400Y-115474540D01*
X150551332Y-115187642D01*
X150439390Y-114917389D01*
X150276875Y-114674168D01*
X150070032Y-114467325D01*
X149895640Y-114350800D01*
X150070032Y-114234275D01*
X150276875Y-114027432D01*
X150439390Y-113784211D01*
X150551332Y-113513958D01*
X150608400Y-113227060D01*
X150608400Y-112934540D01*
X150551332Y-112647642D01*
X150439390Y-112377389D01*
X150276875Y-112134168D01*
X150070032Y-111927325D01*
X149895640Y-111810800D01*
X150070032Y-111694275D01*
X150276875Y-111487432D01*
X150439390Y-111244211D01*
X150551332Y-110973958D01*
X150608400Y-110687060D01*
X150608400Y-110424664D01*
X150777302Y-110494626D01*
X150977261Y-110534400D01*
X151181139Y-110534400D01*
X151381098Y-110494626D01*
X151569456Y-110416605D01*
X151738974Y-110303337D01*
X151883137Y-110159174D01*
X151996405Y-109989656D01*
X152074426Y-109801298D01*
X152114200Y-109601339D01*
X152114200Y-109397461D01*
X152074426Y-109197502D01*
X151996405Y-109009144D01*
X151883137Y-108839626D01*
X151839200Y-108795689D01*
X151839200Y-107684217D01*
X151866261Y-107689600D01*
X152070139Y-107689600D01*
X152270098Y-107649826D01*
X152458456Y-107571805D01*
X152627974Y-107458537D01*
X152772137Y-107314374D01*
X152885405Y-107144856D01*
X152963426Y-106956498D01*
X153003200Y-106756539D01*
X153003200Y-106552661D01*
X152963426Y-106352702D01*
X152885405Y-106164344D01*
X152772137Y-105994826D01*
X152728200Y-105950889D01*
X152728200Y-103262925D01*
X152731876Y-103225600D01*
X152728200Y-103188275D01*
X152728200Y-103188267D01*
X152717203Y-103076614D01*
X152673746Y-102933353D01*
X152603174Y-102801324D01*
X152508201Y-102685599D01*
X152479204Y-102661802D01*
X150564609Y-100747208D01*
X150608400Y-100527060D01*
X150608400Y-100234540D01*
X150551332Y-99947642D01*
X150439390Y-99677389D01*
X150276875Y-99434168D01*
X150070032Y-99227325D01*
X149826811Y-99064810D01*
X149556558Y-98952868D01*
X149269660Y-98895800D01*
X148977140Y-98895800D01*
X148690242Y-98952868D01*
X148688857Y-98953442D01*
X148653945Y-98838350D01*
X148583373Y-98706321D01*
X148512198Y-98619594D01*
X148488400Y-98590596D01*
X148459403Y-98566799D01*
X145209205Y-95316602D01*
X145185402Y-95287598D01*
X145069677Y-95192625D01*
X144937648Y-95122053D01*
X144794387Y-95078596D01*
X144682734Y-95067599D01*
X144682723Y-95067599D01*
X144645401Y-95063923D01*
X144608079Y-95067599D01*
X144005203Y-95067599D01*
X146123502Y-92949300D01*
X156583312Y-92949300D01*
X156628544Y-93058499D01*
X156829362Y-93359044D01*
X157084956Y-93614638D01*
X157385501Y-93815456D01*
X157719450Y-93953782D01*
X158073968Y-94024300D01*
X158435432Y-94024300D01*
X158789950Y-93953782D01*
X159123899Y-93815456D01*
X159424444Y-93614638D01*
X159680038Y-93359044D01*
X159880856Y-93058499D01*
X160019182Y-92724550D01*
X160089700Y-92370032D01*
X160089700Y-92008568D01*
X161499700Y-92008568D01*
X161499700Y-92370032D01*
X161570218Y-92724550D01*
X161708544Y-93058499D01*
X161909362Y-93359044D01*
X162164956Y-93614638D01*
X162465501Y-93815456D01*
X162799450Y-93953782D01*
X163153968Y-94024300D01*
X163515432Y-94024300D01*
X163869950Y-93953782D01*
X164203899Y-93815456D01*
X164504444Y-93614638D01*
X164760038Y-93359044D01*
X164960856Y-93058499D01*
X165099182Y-92724550D01*
X165169700Y-92370032D01*
X165169700Y-92008568D01*
X165099182Y-91654050D01*
X164960856Y-91320101D01*
X164760038Y-91019556D01*
X164504444Y-90763962D01*
X164203899Y-90563144D01*
X163869950Y-90424818D01*
X163515432Y-90354300D01*
X163153968Y-90354300D01*
X162799450Y-90424818D01*
X162465501Y-90563144D01*
X162164956Y-90763962D01*
X161909362Y-91019556D01*
X161708544Y-91320101D01*
X161570218Y-91654050D01*
X161499700Y-92008568D01*
X160089700Y-92008568D01*
X160019182Y-91654050D01*
X159880856Y-91320101D01*
X159680038Y-91019556D01*
X159424444Y-90763962D01*
X159123899Y-90563144D01*
X158789950Y-90424818D01*
X158435432Y-90354300D01*
X158073968Y-90354300D01*
X157719450Y-90424818D01*
X157385501Y-90563144D01*
X157084956Y-90763962D01*
X156829362Y-91019556D01*
X156628544Y-91320101D01*
X156583312Y-91429300D01*
X149073811Y-91429300D01*
X149165337Y-91337774D01*
X149278605Y-91168256D01*
X149332559Y-91038001D01*
X149968677Y-91038001D01*
X150005999Y-91041677D01*
X150043321Y-91038001D01*
X150043332Y-91038001D01*
X150154985Y-91027004D01*
X150298246Y-90983547D01*
X150430275Y-90912975D01*
X150546000Y-90818002D01*
X150569803Y-90788998D01*
X161531069Y-79827733D01*
X161570218Y-80024550D01*
X161708544Y-80358499D01*
X161909362Y-80659044D01*
X162164956Y-80914638D01*
X162465501Y-81115456D01*
X162799450Y-81253782D01*
X163153968Y-81324300D01*
X163515432Y-81324300D01*
X163869950Y-81253782D01*
X164203899Y-81115456D01*
X164504444Y-80914638D01*
X164760038Y-80659044D01*
X164960856Y-80358499D01*
X165099182Y-80024550D01*
X165169700Y-79670032D01*
X165169700Y-79308568D01*
X165099182Y-78954050D01*
X164960856Y-78620101D01*
X164760038Y-78319556D01*
X164504444Y-78063962D01*
X164203899Y-77863144D01*
X163869950Y-77724818D01*
X163673133Y-77685669D01*
X164026814Y-77331988D01*
X164209365Y-77368300D01*
X164492035Y-77368300D01*
X164769274Y-77313153D01*
X165030427Y-77204980D01*
X165265459Y-77047937D01*
X165465337Y-76848059D01*
X165622380Y-76613027D01*
X165730553Y-76351874D01*
X165785700Y-76074635D01*
X165785700Y-75791965D01*
X165730553Y-75514726D01*
X165622380Y-75253573D01*
X165465337Y-75018541D01*
X165265459Y-74818663D01*
X165030427Y-74661620D01*
X164769274Y-74553447D01*
X164492035Y-74498300D01*
X164209365Y-74498300D01*
X163932126Y-74553447D01*
X163670973Y-74661620D01*
X163435941Y-74818663D01*
X163236063Y-75018541D01*
X163080700Y-75251059D01*
X162925337Y-75018541D01*
X162725459Y-74818663D01*
X162490427Y-74661620D01*
X162229274Y-74553447D01*
X161952035Y-74498300D01*
X161669365Y-74498300D01*
X161486814Y-74534612D01*
X156700501Y-69748300D01*
X156872035Y-69748300D01*
X157149274Y-69693153D01*
X157410427Y-69584980D01*
X157645459Y-69427937D01*
X157845337Y-69228059D01*
X158000700Y-68995541D01*
X158156063Y-69228059D01*
X158355941Y-69427937D01*
X158590973Y-69584980D01*
X158852126Y-69693153D01*
X159129365Y-69748300D01*
X159412035Y-69748300D01*
X159689274Y-69693153D01*
X159950427Y-69584980D01*
X160185459Y-69427937D01*
X160385337Y-69228059D01*
X160540700Y-68995541D01*
X160696063Y-69228059D01*
X160895941Y-69427937D01*
X161130973Y-69584980D01*
X161392126Y-69693153D01*
X161669365Y-69748300D01*
X161952035Y-69748300D01*
X162229274Y-69693153D01*
X162490427Y-69584980D01*
X162725459Y-69427937D01*
X162924057Y-69229339D01*
X162924888Y-69237782D01*
X162961198Y-69357480D01*
X163020163Y-69467794D01*
X163099515Y-69564485D01*
X163196206Y-69643837D01*
X163306520Y-69702802D01*
X163426218Y-69739112D01*
X163550700Y-69751372D01*
X165150700Y-69751372D01*
X165275182Y-69739112D01*
X165394880Y-69702802D01*
X165505194Y-69643837D01*
X165601885Y-69564485D01*
X165681237Y-69467794D01*
X165740202Y-69357480D01*
X165776512Y-69237782D01*
X165788772Y-69113300D01*
X165788772Y-67513300D01*
X165776512Y-67388818D01*
X165740202Y-67269120D01*
X165681237Y-67158806D01*
X165601885Y-67062115D01*
X165505194Y-66982763D01*
X165394880Y-66923798D01*
X165275182Y-66887488D01*
X165150700Y-66875228D01*
X163550700Y-66875228D01*
X163426218Y-66887488D01*
X163306520Y-66923798D01*
X163196206Y-66982763D01*
X163099515Y-67062115D01*
X163020163Y-67158806D01*
X162961198Y-67269120D01*
X162924888Y-67388818D01*
X162924057Y-67397261D01*
X162725459Y-67198663D01*
X162490427Y-67041620D01*
X162229274Y-66933447D01*
X161952035Y-66878300D01*
X161669365Y-66878300D01*
X161392126Y-66933447D01*
X161130973Y-67041620D01*
X160895941Y-67198663D01*
X160696063Y-67398541D01*
X160540700Y-67631059D01*
X160385337Y-67398541D01*
X160335500Y-67348704D01*
X160335500Y-62754471D01*
X160425557Y-62694297D01*
X160611297Y-62508557D01*
X160757232Y-62290149D01*
X160857754Y-62047468D01*
X160909000Y-61789838D01*
X160909000Y-61527162D01*
X160857754Y-61269532D01*
X160757232Y-61026851D01*
X160611297Y-60808443D01*
X160425557Y-60622703D01*
X160207149Y-60476768D01*
X159964468Y-60376246D01*
X159706838Y-60325000D01*
X159444162Y-60325000D01*
X159186532Y-60376246D01*
X158943851Y-60476768D01*
X158725443Y-60622703D01*
X158539703Y-60808443D01*
X158393768Y-61026851D01*
X158305500Y-61239948D01*
X158217232Y-61026851D01*
X158071297Y-60808443D01*
X157885557Y-60622703D01*
X157667149Y-60476768D01*
X157424468Y-60376246D01*
X157166838Y-60325000D01*
X156904162Y-60325000D01*
X156646532Y-60376246D01*
X156403851Y-60476768D01*
X156185443Y-60622703D01*
X155999703Y-60808443D01*
X155853768Y-61026851D01*
X155753246Y-61269532D01*
X155702000Y-61527162D01*
X155702000Y-61789838D01*
X155753246Y-62047468D01*
X155853768Y-62290149D01*
X155999703Y-62508557D01*
X156185443Y-62694297D01*
X156403851Y-62840232D01*
X156646532Y-62940754D01*
X156904162Y-62992000D01*
X157166838Y-62992000D01*
X157424468Y-62940754D01*
X157667149Y-62840232D01*
X157885557Y-62694297D01*
X158071297Y-62508557D01*
X158217232Y-62290149D01*
X158305500Y-62077052D01*
X158393768Y-62290149D01*
X158539703Y-62508557D01*
X158725443Y-62694297D01*
X158815500Y-62754471D01*
X158815501Y-66948618D01*
X158590973Y-67041620D01*
X158355941Y-67198663D01*
X158156063Y-67398541D01*
X158000700Y-67631059D01*
X157845337Y-67398541D01*
X157645459Y-67198663D01*
X157410427Y-67041620D01*
X157149274Y-66933447D01*
X156872035Y-66878300D01*
X156589365Y-66878300D01*
X156312126Y-66933447D01*
X156050973Y-67041620D01*
X155815941Y-67198663D01*
X155616063Y-67398541D01*
X155459020Y-67633573D01*
X155350847Y-67894726D01*
X155295700Y-68171965D01*
X155295700Y-68343499D01*
X155275204Y-68323003D01*
X155251401Y-68293999D01*
X155135676Y-68199026D01*
X155003647Y-68128454D01*
X154860386Y-68084997D01*
X154748733Y-68074000D01*
X154748722Y-68074000D01*
X154711400Y-68070324D01*
X154674078Y-68074000D01*
X144851678Y-68074000D01*
X144726975Y-67887368D01*
X144520132Y-67680525D01*
X144345740Y-67564000D01*
X144520132Y-67447475D01*
X144726975Y-67240632D01*
X144889490Y-66997411D01*
X145001432Y-66727158D01*
X145058500Y-66440260D01*
X145058500Y-66147740D01*
X145001432Y-65860842D01*
X144889490Y-65590589D01*
X144726975Y-65347368D01*
X144520132Y-65140525D01*
X144276911Y-64978010D01*
X144240409Y-64962890D01*
X152590500Y-56612800D01*
X152590500Y-56766126D01*
X152663709Y-57134168D01*
X152807311Y-57480856D01*
X153015790Y-57792866D01*
X153281134Y-58058210D01*
X153593144Y-58266689D01*
X153939832Y-58410291D01*
X154307874Y-58483500D01*
X154683126Y-58483500D01*
X155051168Y-58410291D01*
X155397856Y-58266689D01*
X155709866Y-58058210D01*
X155975210Y-57792866D01*
X156183689Y-57480856D01*
X156327291Y-57134168D01*
X156400500Y-56766126D01*
X156400500Y-56390874D01*
X162750500Y-56390874D01*
X162750500Y-56766126D01*
X162823709Y-57134168D01*
X162967311Y-57480856D01*
X163175790Y-57792866D01*
X163441134Y-58058210D01*
X163753144Y-58266689D01*
X164099832Y-58410291D01*
X164467874Y-58483500D01*
X164843126Y-58483500D01*
X165211168Y-58410291D01*
X165557856Y-58266689D01*
X165869866Y-58058210D01*
X166135210Y-57792866D01*
X166343689Y-57480856D01*
X166487291Y-57134168D01*
X166560500Y-56766126D01*
X166560500Y-56390874D01*
X166487291Y-56022832D01*
X166343689Y-55676144D01*
X166135210Y-55364134D01*
X165869866Y-55098790D01*
X165557856Y-54890311D01*
X165211168Y-54746709D01*
X164843126Y-54673500D01*
X164467874Y-54673500D01*
X164099832Y-54746709D01*
X163753144Y-54890311D01*
X163441134Y-55098790D01*
X163175790Y-55364134D01*
X162967311Y-55676144D01*
X162823709Y-56022832D01*
X162750500Y-56390874D01*
X156400500Y-56390874D01*
X156327291Y-56022832D01*
X156183689Y-55676144D01*
X155975210Y-55364134D01*
X155709866Y-55098790D01*
X155397856Y-54890311D01*
X155051168Y-54746709D01*
X154683126Y-54673500D01*
X154529800Y-54673500D01*
X159611801Y-49591500D01*
X173200428Y-49591500D01*
X173200428Y-49681500D01*
G37*
X173200428Y-49681500D02*
X173212688Y-49805982D01*
X173248998Y-49925680D01*
X173307963Y-50035994D01*
X173387315Y-50132685D01*
X173484006Y-50212037D01*
X173594320Y-50271002D01*
X173666880Y-50293013D01*
X173535025Y-50424868D01*
X173372510Y-50668089D01*
X173260568Y-50938342D01*
X173203500Y-51225240D01*
X173203500Y-51517760D01*
X173260568Y-51804658D01*
X173372510Y-52074911D01*
X173535025Y-52318132D01*
X173741868Y-52524975D01*
X173916260Y-52641500D01*
X173741868Y-52758025D01*
X173535025Y-52964868D01*
X173372510Y-53208089D01*
X173260568Y-53478342D01*
X173203500Y-53765240D01*
X173203500Y-54057760D01*
X173260568Y-54344658D01*
X173372510Y-54614911D01*
X173535025Y-54858132D01*
X173741868Y-55064975D01*
X173916260Y-55181500D01*
X173741868Y-55298025D01*
X173535025Y-55504868D01*
X173372510Y-55748089D01*
X173260568Y-56018342D01*
X173203500Y-56305240D01*
X173203500Y-56597760D01*
X173260568Y-56884658D01*
X173372510Y-57154911D01*
X173535025Y-57398132D01*
X173741868Y-57604975D01*
X173924034Y-57726695D01*
X173807145Y-57796322D01*
X173590912Y-57991231D01*
X173416859Y-58224580D01*
X173291675Y-58487401D01*
X173247024Y-58634610D01*
X173368345Y-58864500D01*
X174561500Y-58864500D01*
X174561500Y-58844500D01*
X174815500Y-58844500D01*
X174815500Y-58864500D01*
X174835500Y-58864500D01*
X174835500Y-59118500D01*
X174815500Y-59118500D01*
X174815500Y-59138500D01*
X174561500Y-59138500D01*
X174561500Y-59118500D01*
X173368345Y-59118500D01*
X173247024Y-59348390D01*
X173291675Y-59495599D01*
X173416859Y-59758420D01*
X173590912Y-59991769D01*
X173807145Y-60186678D01*
X173924034Y-60256305D01*
X173741868Y-60378025D01*
X173535025Y-60584868D01*
X173372510Y-60828089D01*
X173260568Y-61098342D01*
X173203500Y-61385240D01*
X173203500Y-61677760D01*
X173260568Y-61964658D01*
X173372510Y-62234911D01*
X173535025Y-62478132D01*
X173741868Y-62684975D01*
X173916260Y-62801500D01*
X173741868Y-62918025D01*
X173535025Y-63124868D01*
X173372510Y-63368089D01*
X173260568Y-63638342D01*
X173203500Y-63925240D01*
X173203500Y-64217760D01*
X173260568Y-64504658D01*
X173372510Y-64774911D01*
X173535025Y-65018132D01*
X173741868Y-65224975D01*
X173916260Y-65341500D01*
X173741868Y-65458025D01*
X173535025Y-65664868D01*
X173372510Y-65908089D01*
X173260568Y-66178342D01*
X173203500Y-66465240D01*
X173203500Y-66757760D01*
X173260568Y-67044658D01*
X173372510Y-67314911D01*
X173535025Y-67558132D01*
X173741868Y-67764975D01*
X173916260Y-67881500D01*
X173741868Y-67998025D01*
X173535025Y-68204868D01*
X173372510Y-68448089D01*
X173260568Y-68718342D01*
X173203500Y-69005240D01*
X173203500Y-69297760D01*
X173260568Y-69584658D01*
X173372510Y-69854911D01*
X173535025Y-70098132D01*
X173741868Y-70304975D01*
X173916260Y-70421500D01*
X173741868Y-70538025D01*
X173535025Y-70744868D01*
X173372510Y-70988089D01*
X173260568Y-71258342D01*
X173203500Y-71545240D01*
X173203500Y-71837760D01*
X173247290Y-72057908D01*
X170024603Y-75280596D01*
X169995599Y-75304399D01*
X169942172Y-75369501D01*
X169900626Y-75420124D01*
X169881712Y-75455510D01*
X169830054Y-75552154D01*
X169786597Y-75695415D01*
X169775600Y-75807068D01*
X169775600Y-75807078D01*
X169771924Y-75844400D01*
X169775600Y-75881722D01*
X169775600Y-86264800D01*
X169708661Y-86264800D01*
X169508702Y-86304574D01*
X169320344Y-86382595D01*
X169150826Y-86495863D01*
X169006663Y-86640026D01*
X168893395Y-86809544D01*
X168815374Y-86997902D01*
X168775600Y-87197861D01*
X168775600Y-87401739D01*
X168815374Y-87601698D01*
X168893395Y-87790056D01*
X169006663Y-87959574D01*
X169050600Y-88003511D01*
X169050601Y-98911397D01*
X167052802Y-100909197D01*
X167052797Y-100909201D01*
X163158492Y-104803507D01*
X163139390Y-104757389D01*
X162976875Y-104514168D01*
X162770032Y-104307325D01*
X162595640Y-104190800D01*
X162770032Y-104074275D01*
X162976875Y-103867432D01*
X163139390Y-103624211D01*
X163251332Y-103353958D01*
X163308400Y-103067060D01*
X163308400Y-102774540D01*
X163251332Y-102487642D01*
X163139390Y-102217389D01*
X162976875Y-101974168D01*
X162770032Y-101767325D01*
X162595640Y-101650800D01*
X162770032Y-101534275D01*
X162976875Y-101327432D01*
X163139390Y-101084211D01*
X163251332Y-100813958D01*
X163308400Y-100527060D01*
X163308400Y-100234540D01*
X163251332Y-99947642D01*
X163139390Y-99677389D01*
X162976875Y-99434168D01*
X162770032Y-99227325D01*
X162526811Y-99064810D01*
X162256558Y-98952868D01*
X161969660Y-98895800D01*
X161677140Y-98895800D01*
X161390242Y-98952868D01*
X161119989Y-99064810D01*
X160876768Y-99227325D01*
X160669925Y-99434168D01*
X160507410Y-99677389D01*
X160395468Y-99947642D01*
X160338400Y-100234540D01*
X160338400Y-100527060D01*
X160395468Y-100813958D01*
X160507410Y-101084211D01*
X160669925Y-101327432D01*
X160876768Y-101534275D01*
X161051160Y-101650800D01*
X160876768Y-101767325D01*
X160669925Y-101974168D01*
X160507410Y-102217389D01*
X160395468Y-102487642D01*
X160338400Y-102774540D01*
X160338400Y-103067060D01*
X160395468Y-103353958D01*
X160507410Y-103624211D01*
X160669925Y-103867432D01*
X160876768Y-104074275D01*
X161051160Y-104190800D01*
X160876768Y-104307325D01*
X160669925Y-104514168D01*
X160507410Y-104757389D01*
X160395468Y-105027642D01*
X160338400Y-105314540D01*
X160338400Y-105607060D01*
X160395468Y-105893958D01*
X160507410Y-106164211D01*
X160669925Y-106407432D01*
X160876768Y-106614275D01*
X161051160Y-106730800D01*
X160876768Y-106847325D01*
X160669925Y-107054168D01*
X160507410Y-107297389D01*
X160395468Y-107567642D01*
X160338400Y-107854540D01*
X160338400Y-108147060D01*
X160395468Y-108433958D01*
X160466647Y-108605799D01*
X160240725Y-108605799D01*
X160203402Y-108602123D01*
X160166079Y-108605799D01*
X160166070Y-108605799D01*
X160054417Y-108616796D01*
X159911156Y-108660253D01*
X159779127Y-108730825D01*
X159779125Y-108730826D01*
X159779126Y-108730826D01*
X159692399Y-108802000D01*
X159692395Y-108802004D01*
X159663402Y-108825798D01*
X159639608Y-108854791D01*
X150611472Y-117882929D01*
X150611472Y-117310800D01*
X150599212Y-117186318D01*
X150562902Y-117066620D01*
X150503937Y-116956306D01*
X150424585Y-116859615D01*
X150327894Y-116780263D01*
X150217580Y-116721298D01*
X150145020Y-116699287D01*
X150276875Y-116567432D01*
X150439390Y-116324211D01*
X150551332Y-116053958D01*
X150608400Y-115767060D01*
X150608400Y-115474540D01*
X150551332Y-115187642D01*
X150439390Y-114917389D01*
X150276875Y-114674168D01*
X150070032Y-114467325D01*
X149895640Y-114350800D01*
X150070032Y-114234275D01*
X150276875Y-114027432D01*
X150439390Y-113784211D01*
X150551332Y-113513958D01*
X150608400Y-113227060D01*
X150608400Y-112934540D01*
X150551332Y-112647642D01*
X150439390Y-112377389D01*
X150276875Y-112134168D01*
X150070032Y-111927325D01*
X149895640Y-111810800D01*
X150070032Y-111694275D01*
X150276875Y-111487432D01*
X150439390Y-111244211D01*
X150551332Y-110973958D01*
X150608400Y-110687060D01*
X150608400Y-110424664D01*
X150777302Y-110494626D01*
X150977261Y-110534400D01*
X151181139Y-110534400D01*
X151381098Y-110494626D01*
X151569456Y-110416605D01*
X151738974Y-110303337D01*
X151883137Y-110159174D01*
X151996405Y-109989656D01*
X152074426Y-109801298D01*
X152114200Y-109601339D01*
X152114200Y-109397461D01*
X152074426Y-109197502D01*
X151996405Y-109009144D01*
X151883137Y-108839626D01*
X151839200Y-108795689D01*
X151839200Y-107684217D01*
X151866261Y-107689600D01*
X152070139Y-107689600D01*
X152270098Y-107649826D01*
X152458456Y-107571805D01*
X152627974Y-107458537D01*
X152772137Y-107314374D01*
X152885405Y-107144856D01*
X152963426Y-106956498D01*
X153003200Y-106756539D01*
X153003200Y-106552661D01*
X152963426Y-106352702D01*
X152885405Y-106164344D01*
X152772137Y-105994826D01*
X152728200Y-105950889D01*
X152728200Y-103262925D01*
X152731876Y-103225600D01*
X152728200Y-103188275D01*
X152728200Y-103188267D01*
X152717203Y-103076614D01*
X152673746Y-102933353D01*
X152603174Y-102801324D01*
X152508201Y-102685599D01*
X152479204Y-102661802D01*
X150564609Y-100747208D01*
X150608400Y-100527060D01*
X150608400Y-100234540D01*
X150551332Y-99947642D01*
X150439390Y-99677389D01*
X150276875Y-99434168D01*
X150070032Y-99227325D01*
X149826811Y-99064810D01*
X149556558Y-98952868D01*
X149269660Y-98895800D01*
X148977140Y-98895800D01*
X148690242Y-98952868D01*
X148688857Y-98953442D01*
X148653945Y-98838350D01*
X148583373Y-98706321D01*
X148512198Y-98619594D01*
X148488400Y-98590596D01*
X148459403Y-98566799D01*
X145209205Y-95316602D01*
X145185402Y-95287598D01*
X145069677Y-95192625D01*
X144937648Y-95122053D01*
X144794387Y-95078596D01*
X144682734Y-95067599D01*
X144682723Y-95067599D01*
X144645401Y-95063923D01*
X144608079Y-95067599D01*
X144005203Y-95067599D01*
X146123502Y-92949300D01*
X156583312Y-92949300D01*
X156628544Y-93058499D01*
X156829362Y-93359044D01*
X157084956Y-93614638D01*
X157385501Y-93815456D01*
X157719450Y-93953782D01*
X158073968Y-94024300D01*
X158435432Y-94024300D01*
X158789950Y-93953782D01*
X159123899Y-93815456D01*
X159424444Y-93614638D01*
X159680038Y-93359044D01*
X159880856Y-93058499D01*
X160019182Y-92724550D01*
X160089700Y-92370032D01*
X160089700Y-92008568D01*
X161499700Y-92008568D01*
X161499700Y-92370032D01*
X161570218Y-92724550D01*
X161708544Y-93058499D01*
X161909362Y-93359044D01*
X162164956Y-93614638D01*
X162465501Y-93815456D01*
X162799450Y-93953782D01*
X163153968Y-94024300D01*
X163515432Y-94024300D01*
X163869950Y-93953782D01*
X164203899Y-93815456D01*
X164504444Y-93614638D01*
X164760038Y-93359044D01*
X164960856Y-93058499D01*
X165099182Y-92724550D01*
X165169700Y-92370032D01*
X165169700Y-92008568D01*
X165099182Y-91654050D01*
X164960856Y-91320101D01*
X164760038Y-91019556D01*
X164504444Y-90763962D01*
X164203899Y-90563144D01*
X163869950Y-90424818D01*
X163515432Y-90354300D01*
X163153968Y-90354300D01*
X162799450Y-90424818D01*
X162465501Y-90563144D01*
X162164956Y-90763962D01*
X161909362Y-91019556D01*
X161708544Y-91320101D01*
X161570218Y-91654050D01*
X161499700Y-92008568D01*
X160089700Y-92008568D01*
X160019182Y-91654050D01*
X159880856Y-91320101D01*
X159680038Y-91019556D01*
X159424444Y-90763962D01*
X159123899Y-90563144D01*
X158789950Y-90424818D01*
X158435432Y-90354300D01*
X158073968Y-90354300D01*
X157719450Y-90424818D01*
X157385501Y-90563144D01*
X157084956Y-90763962D01*
X156829362Y-91019556D01*
X156628544Y-91320101D01*
X156583312Y-91429300D01*
X149073811Y-91429300D01*
X149165337Y-91337774D01*
X149278605Y-91168256D01*
X149332559Y-91038001D01*
X149968677Y-91038001D01*
X150005999Y-91041677D01*
X150043321Y-91038001D01*
X150043332Y-91038001D01*
X150154985Y-91027004D01*
X150298246Y-90983547D01*
X150430275Y-90912975D01*
X150546000Y-90818002D01*
X150569803Y-90788998D01*
X161531069Y-79827733D01*
X161570218Y-80024550D01*
X161708544Y-80358499D01*
X161909362Y-80659044D01*
X162164956Y-80914638D01*
X162465501Y-81115456D01*
X162799450Y-81253782D01*
X163153968Y-81324300D01*
X163515432Y-81324300D01*
X163869950Y-81253782D01*
X164203899Y-81115456D01*
X164504444Y-80914638D01*
X164760038Y-80659044D01*
X164960856Y-80358499D01*
X165099182Y-80024550D01*
X165169700Y-79670032D01*
X165169700Y-79308568D01*
X165099182Y-78954050D01*
X164960856Y-78620101D01*
X164760038Y-78319556D01*
X164504444Y-78063962D01*
X164203899Y-77863144D01*
X163869950Y-77724818D01*
X163673133Y-77685669D01*
X164026814Y-77331988D01*
X164209365Y-77368300D01*
X164492035Y-77368300D01*
X164769274Y-77313153D01*
X165030427Y-77204980D01*
X165265459Y-77047937D01*
X165465337Y-76848059D01*
X165622380Y-76613027D01*
X165730553Y-76351874D01*
X165785700Y-76074635D01*
X165785700Y-75791965D01*
X165730553Y-75514726D01*
X165622380Y-75253573D01*
X165465337Y-75018541D01*
X165265459Y-74818663D01*
X165030427Y-74661620D01*
X164769274Y-74553447D01*
X164492035Y-74498300D01*
X164209365Y-74498300D01*
X163932126Y-74553447D01*
X163670973Y-74661620D01*
X163435941Y-74818663D01*
X163236063Y-75018541D01*
X163080700Y-75251059D01*
X162925337Y-75018541D01*
X162725459Y-74818663D01*
X162490427Y-74661620D01*
X162229274Y-74553447D01*
X161952035Y-74498300D01*
X161669365Y-74498300D01*
X161486814Y-74534612D01*
X156700501Y-69748300D01*
X156872035Y-69748300D01*
X157149274Y-69693153D01*
X157410427Y-69584980D01*
X157645459Y-69427937D01*
X157845337Y-69228059D01*
X158000700Y-68995541D01*
X158156063Y-69228059D01*
X158355941Y-69427937D01*
X158590973Y-69584980D01*
X158852126Y-69693153D01*
X159129365Y-69748300D01*
X159412035Y-69748300D01*
X159689274Y-69693153D01*
X159950427Y-69584980D01*
X160185459Y-69427937D01*
X160385337Y-69228059D01*
X160540700Y-68995541D01*
X160696063Y-69228059D01*
X160895941Y-69427937D01*
X161130973Y-69584980D01*
X161392126Y-69693153D01*
X161669365Y-69748300D01*
X161952035Y-69748300D01*
X162229274Y-69693153D01*
X162490427Y-69584980D01*
X162725459Y-69427937D01*
X162924057Y-69229339D01*
X162924888Y-69237782D01*
X162961198Y-69357480D01*
X163020163Y-69467794D01*
X163099515Y-69564485D01*
X163196206Y-69643837D01*
X163306520Y-69702802D01*
X163426218Y-69739112D01*
X163550700Y-69751372D01*
X165150700Y-69751372D01*
X165275182Y-69739112D01*
X165394880Y-69702802D01*
X165505194Y-69643837D01*
X165601885Y-69564485D01*
X165681237Y-69467794D01*
X165740202Y-69357480D01*
X165776512Y-69237782D01*
X165788772Y-69113300D01*
X165788772Y-67513300D01*
X165776512Y-67388818D01*
X165740202Y-67269120D01*
X165681237Y-67158806D01*
X165601885Y-67062115D01*
X165505194Y-66982763D01*
X165394880Y-66923798D01*
X165275182Y-66887488D01*
X165150700Y-66875228D01*
X163550700Y-66875228D01*
X163426218Y-66887488D01*
X163306520Y-66923798D01*
X163196206Y-66982763D01*
X163099515Y-67062115D01*
X163020163Y-67158806D01*
X162961198Y-67269120D01*
X162924888Y-67388818D01*
X162924057Y-67397261D01*
X162725459Y-67198663D01*
X162490427Y-67041620D01*
X162229274Y-66933447D01*
X161952035Y-66878300D01*
X161669365Y-66878300D01*
X161392126Y-66933447D01*
X161130973Y-67041620D01*
X160895941Y-67198663D01*
X160696063Y-67398541D01*
X160540700Y-67631059D01*
X160385337Y-67398541D01*
X160335500Y-67348704D01*
X160335500Y-62754471D01*
X160425557Y-62694297D01*
X160611297Y-62508557D01*
X160757232Y-62290149D01*
X160857754Y-62047468D01*
X160909000Y-61789838D01*
X160909000Y-61527162D01*
X160857754Y-61269532D01*
X160757232Y-61026851D01*
X160611297Y-60808443D01*
X160425557Y-60622703D01*
X160207149Y-60476768D01*
X159964468Y-60376246D01*
X159706838Y-60325000D01*
X159444162Y-60325000D01*
X159186532Y-60376246D01*
X158943851Y-60476768D01*
X158725443Y-60622703D01*
X158539703Y-60808443D01*
X158393768Y-61026851D01*
X158305500Y-61239948D01*
X158217232Y-61026851D01*
X158071297Y-60808443D01*
X157885557Y-60622703D01*
X157667149Y-60476768D01*
X157424468Y-60376246D01*
X157166838Y-60325000D01*
X156904162Y-60325000D01*
X156646532Y-60376246D01*
X156403851Y-60476768D01*
X156185443Y-60622703D01*
X155999703Y-60808443D01*
X155853768Y-61026851D01*
X155753246Y-61269532D01*
X155702000Y-61527162D01*
X155702000Y-61789838D01*
X155753246Y-62047468D01*
X155853768Y-62290149D01*
X155999703Y-62508557D01*
X156185443Y-62694297D01*
X156403851Y-62840232D01*
X156646532Y-62940754D01*
X156904162Y-62992000D01*
X157166838Y-62992000D01*
X157424468Y-62940754D01*
X157667149Y-62840232D01*
X157885557Y-62694297D01*
X158071297Y-62508557D01*
X158217232Y-62290149D01*
X158305500Y-62077052D01*
X158393768Y-62290149D01*
X158539703Y-62508557D01*
X158725443Y-62694297D01*
X158815500Y-62754471D01*
X158815501Y-66948618D01*
X158590973Y-67041620D01*
X158355941Y-67198663D01*
X158156063Y-67398541D01*
X158000700Y-67631059D01*
X157845337Y-67398541D01*
X157645459Y-67198663D01*
X157410427Y-67041620D01*
X157149274Y-66933447D01*
X156872035Y-66878300D01*
X156589365Y-66878300D01*
X156312126Y-66933447D01*
X156050973Y-67041620D01*
X155815941Y-67198663D01*
X155616063Y-67398541D01*
X155459020Y-67633573D01*
X155350847Y-67894726D01*
X155295700Y-68171965D01*
X155295700Y-68343499D01*
X155275204Y-68323003D01*
X155251401Y-68293999D01*
X155135676Y-68199026D01*
X155003647Y-68128454D01*
X154860386Y-68084997D01*
X154748733Y-68074000D01*
X154748722Y-68074000D01*
X154711400Y-68070324D01*
X154674078Y-68074000D01*
X144851678Y-68074000D01*
X144726975Y-67887368D01*
X144520132Y-67680525D01*
X144345740Y-67564000D01*
X144520132Y-67447475D01*
X144726975Y-67240632D01*
X144889490Y-66997411D01*
X145001432Y-66727158D01*
X145058500Y-66440260D01*
X145058500Y-66147740D01*
X145001432Y-65860842D01*
X144889490Y-65590589D01*
X144726975Y-65347368D01*
X144520132Y-65140525D01*
X144276911Y-64978010D01*
X144240409Y-64962890D01*
X152590500Y-56612800D01*
X152590500Y-56766126D01*
X152663709Y-57134168D01*
X152807311Y-57480856D01*
X153015790Y-57792866D01*
X153281134Y-58058210D01*
X153593144Y-58266689D01*
X153939832Y-58410291D01*
X154307874Y-58483500D01*
X154683126Y-58483500D01*
X155051168Y-58410291D01*
X155397856Y-58266689D01*
X155709866Y-58058210D01*
X155975210Y-57792866D01*
X156183689Y-57480856D01*
X156327291Y-57134168D01*
X156400500Y-56766126D01*
X156400500Y-56390874D01*
X162750500Y-56390874D01*
X162750500Y-56766126D01*
X162823709Y-57134168D01*
X162967311Y-57480856D01*
X163175790Y-57792866D01*
X163441134Y-58058210D01*
X163753144Y-58266689D01*
X164099832Y-58410291D01*
X164467874Y-58483500D01*
X164843126Y-58483500D01*
X165211168Y-58410291D01*
X165557856Y-58266689D01*
X165869866Y-58058210D01*
X166135210Y-57792866D01*
X166343689Y-57480856D01*
X166487291Y-57134168D01*
X166560500Y-56766126D01*
X166560500Y-56390874D01*
X166487291Y-56022832D01*
X166343689Y-55676144D01*
X166135210Y-55364134D01*
X165869866Y-55098790D01*
X165557856Y-54890311D01*
X165211168Y-54746709D01*
X164843126Y-54673500D01*
X164467874Y-54673500D01*
X164099832Y-54746709D01*
X163753144Y-54890311D01*
X163441134Y-55098790D01*
X163175790Y-55364134D01*
X162967311Y-55676144D01*
X162823709Y-56022832D01*
X162750500Y-56390874D01*
X156400500Y-56390874D01*
X156327291Y-56022832D01*
X156183689Y-55676144D01*
X155975210Y-55364134D01*
X155709866Y-55098790D01*
X155397856Y-54890311D01*
X155051168Y-54746709D01*
X154683126Y-54673500D01*
X154529800Y-54673500D01*
X159611801Y-49591500D01*
X173200428Y-49591500D01*
X173200428Y-49681500D01*
G36*
X155332012Y-75609414D02*
G01*
X155295700Y-75791965D01*
X155295700Y-76074635D01*
X155350847Y-76351874D01*
X155459020Y-76613027D01*
X155616063Y-76848059D01*
X155815941Y-77047937D01*
X156050973Y-77204980D01*
X156312126Y-77313153D01*
X156589365Y-77368300D01*
X156872035Y-77368300D01*
X157149274Y-77313153D01*
X157410427Y-77204980D01*
X157645459Y-77047937D01*
X157845337Y-76848059D01*
X158000700Y-76615541D01*
X158156063Y-76848059D01*
X158355941Y-77047937D01*
X158590973Y-77204980D01*
X158852126Y-77313153D01*
X159129365Y-77368300D01*
X159412035Y-77368300D01*
X159689274Y-77313153D01*
X159950427Y-77204980D01*
X160185459Y-77047937D01*
X160385337Y-76848059D01*
X160540700Y-76615541D01*
X160696063Y-76848059D01*
X160895941Y-77047937D01*
X161130973Y-77204980D01*
X161392126Y-77313153D01*
X161669365Y-77368300D01*
X161840898Y-77368300D01*
X160058331Y-79150867D01*
X160019182Y-78954050D01*
X159880856Y-78620101D01*
X159680038Y-78319556D01*
X159424444Y-78063962D01*
X159123899Y-77863144D01*
X158789950Y-77724818D01*
X158435432Y-77654300D01*
X158073968Y-77654300D01*
X157719450Y-77724818D01*
X157385501Y-77863144D01*
X157084956Y-78063962D01*
X156829362Y-78319556D01*
X156628544Y-78620101D01*
X156490218Y-78954050D01*
X156419700Y-79308568D01*
X156419700Y-79670032D01*
X156490218Y-80024550D01*
X156628544Y-80358499D01*
X156829362Y-80659044D01*
X157084956Y-80914638D01*
X157385501Y-81115456D01*
X157719450Y-81253782D01*
X157916267Y-81292931D01*
X149691198Y-89518001D01*
X148798721Y-89518001D01*
X148761398Y-89514325D01*
X148724076Y-89518001D01*
X148724066Y-89518001D01*
X148612413Y-89528998D01*
X148469152Y-89572455D01*
X148337174Y-89643000D01*
X148259461Y-89643000D01*
X148059502Y-89682774D01*
X147871144Y-89760795D01*
X147701626Y-89874063D01*
X147557463Y-90018226D01*
X147444195Y-90187744D01*
X147366174Y-90376102D01*
X147326400Y-90576061D01*
X147326400Y-90779939D01*
X147366174Y-90979898D01*
X147444195Y-91168256D01*
X147557463Y-91337774D01*
X147648989Y-91429300D01*
X145846022Y-91429300D01*
X145808699Y-91425624D01*
X145771376Y-91429300D01*
X145771367Y-91429300D01*
X145659714Y-91440297D01*
X145522443Y-91481937D01*
X145516453Y-91483754D01*
X145384423Y-91554326D01*
X145300783Y-91622968D01*
X145268699Y-91649299D01*
X145244901Y-91678297D01*
X141659402Y-95263796D01*
X141630400Y-95287598D01*
X141606602Y-95316596D01*
X141361808Y-95561390D01*
X141141660Y-95517600D01*
X141015201Y-95517600D01*
X151996603Y-84536199D01*
X152025601Y-84512401D01*
X152120574Y-84396676D01*
X152191146Y-84264647D01*
X152234603Y-84121386D01*
X152245600Y-84009733D01*
X152249277Y-83972400D01*
X152245600Y-83935067D01*
X152245600Y-82669511D01*
X152289537Y-82625574D01*
X152402805Y-82456056D01*
X152480826Y-82267698D01*
X152520600Y-82067739D01*
X152520600Y-81863861D01*
X152480826Y-81663902D01*
X152402805Y-81475544D01*
X152289537Y-81306026D01*
X152145374Y-81161863D01*
X151975856Y-81048595D01*
X151787498Y-80970574D01*
X151587539Y-80930800D01*
X151383661Y-80930800D01*
X151183702Y-80970574D01*
X150995344Y-81048595D01*
X150825826Y-81161863D01*
X150681663Y-81306026D01*
X150568395Y-81475544D01*
X150490374Y-81663902D01*
X150450600Y-81863861D01*
X150450600Y-82067739D01*
X150490374Y-82267698D01*
X150568395Y-82456056D01*
X150681663Y-82625574D01*
X150725600Y-82669511D01*
X150725601Y-83657597D01*
X145061572Y-89321626D01*
X145061572Y-88304000D01*
X145049312Y-88179518D01*
X145013002Y-88059820D01*
X144954037Y-87949506D01*
X144874685Y-87852815D01*
X144777994Y-87773463D01*
X144667680Y-87714498D01*
X144587034Y-87690034D01*
X144671088Y-87614269D01*
X144845141Y-87380920D01*
X144970325Y-87118099D01*
X145014976Y-86970890D01*
X144893655Y-86741000D01*
X143700500Y-86741000D01*
X143700500Y-86761000D01*
X143446500Y-86761000D01*
X143446500Y-86741000D01*
X143426500Y-86741000D01*
X143426500Y-86487000D01*
X143446500Y-86487000D01*
X143446500Y-86467000D01*
X143700500Y-86467000D01*
X143700500Y-86487000D01*
X144893655Y-86487000D01*
X145014976Y-86257110D01*
X144970325Y-86109901D01*
X144845141Y-85847080D01*
X144671088Y-85613731D01*
X144454855Y-85418822D01*
X144337966Y-85349195D01*
X144520132Y-85227475D01*
X144726975Y-85020632D01*
X144889490Y-84777411D01*
X145001432Y-84507158D01*
X145058500Y-84220260D01*
X145058500Y-83927740D01*
X145001432Y-83640842D01*
X144889490Y-83370589D01*
X144726975Y-83127368D01*
X144520132Y-82920525D01*
X144345740Y-82804000D01*
X144520132Y-82687475D01*
X144726975Y-82480632D01*
X144889490Y-82237411D01*
X145001432Y-81967158D01*
X145058500Y-81680260D01*
X145058500Y-81387740D01*
X145001432Y-81100842D01*
X144889490Y-80830589D01*
X144726975Y-80587368D01*
X144520132Y-80380525D01*
X144337966Y-80258805D01*
X144454855Y-80189178D01*
X144671088Y-79994269D01*
X144845141Y-79760920D01*
X144970325Y-79498099D01*
X145014976Y-79350890D01*
X144893655Y-79121000D01*
X143700500Y-79121000D01*
X143700500Y-79141000D01*
X143446500Y-79141000D01*
X143446500Y-79121000D01*
X143426500Y-79121000D01*
X143426500Y-78867000D01*
X143446500Y-78867000D01*
X143446500Y-78847000D01*
X143700500Y-78847000D01*
X143700500Y-78867000D01*
X144893655Y-78867000D01*
X145014976Y-78637110D01*
X144970325Y-78489901D01*
X144845141Y-78227080D01*
X144671088Y-77993731D01*
X144454855Y-77798822D01*
X144337966Y-77729195D01*
X144520132Y-77607475D01*
X144726975Y-77400632D01*
X144889490Y-77157411D01*
X145001432Y-76887158D01*
X145058500Y-76600260D01*
X145058500Y-76307740D01*
X145001432Y-76020842D01*
X144889490Y-75750589D01*
X144726975Y-75507368D01*
X144520132Y-75300525D01*
X144345740Y-75184000D01*
X144520132Y-75067475D01*
X144726975Y-74860632D01*
X144851678Y-74674000D01*
X154396599Y-74674000D01*
X155332012Y-75609414D01*
G37*
X155332012Y-75609414D02*
X155295700Y-75791965D01*
X155295700Y-76074635D01*
X155350847Y-76351874D01*
X155459020Y-76613027D01*
X155616063Y-76848059D01*
X155815941Y-77047937D01*
X156050973Y-77204980D01*
X156312126Y-77313153D01*
X156589365Y-77368300D01*
X156872035Y-77368300D01*
X157149274Y-77313153D01*
X157410427Y-77204980D01*
X157645459Y-77047937D01*
X157845337Y-76848059D01*
X158000700Y-76615541D01*
X158156063Y-76848059D01*
X158355941Y-77047937D01*
X158590973Y-77204980D01*
X158852126Y-77313153D01*
X159129365Y-77368300D01*
X159412035Y-77368300D01*
X159689274Y-77313153D01*
X159950427Y-77204980D01*
X160185459Y-77047937D01*
X160385337Y-76848059D01*
X160540700Y-76615541D01*
X160696063Y-76848059D01*
X160895941Y-77047937D01*
X161130973Y-77204980D01*
X161392126Y-77313153D01*
X161669365Y-77368300D01*
X161840898Y-77368300D01*
X160058331Y-79150867D01*
X160019182Y-78954050D01*
X159880856Y-78620101D01*
X159680038Y-78319556D01*
X159424444Y-78063962D01*
X159123899Y-77863144D01*
X158789950Y-77724818D01*
X158435432Y-77654300D01*
X158073968Y-77654300D01*
X157719450Y-77724818D01*
X157385501Y-77863144D01*
X157084956Y-78063962D01*
X156829362Y-78319556D01*
X156628544Y-78620101D01*
X156490218Y-78954050D01*
X156419700Y-79308568D01*
X156419700Y-79670032D01*
X156490218Y-80024550D01*
X156628544Y-80358499D01*
X156829362Y-80659044D01*
X157084956Y-80914638D01*
X157385501Y-81115456D01*
X157719450Y-81253782D01*
X157916267Y-81292931D01*
X149691198Y-89518001D01*
X148798721Y-89518001D01*
X148761398Y-89514325D01*
X148724076Y-89518001D01*
X148724066Y-89518001D01*
X148612413Y-89528998D01*
X148469152Y-89572455D01*
X148337174Y-89643000D01*
X148259461Y-89643000D01*
X148059502Y-89682774D01*
X147871144Y-89760795D01*
X147701626Y-89874063D01*
X147557463Y-90018226D01*
X147444195Y-90187744D01*
X147366174Y-90376102D01*
X147326400Y-90576061D01*
X147326400Y-90779939D01*
X147366174Y-90979898D01*
X147444195Y-91168256D01*
X147557463Y-91337774D01*
X147648989Y-91429300D01*
X145846022Y-91429300D01*
X145808699Y-91425624D01*
X145771376Y-91429300D01*
X145771367Y-91429300D01*
X145659714Y-91440297D01*
X145522443Y-91481937D01*
X145516453Y-91483754D01*
X145384423Y-91554326D01*
X145300783Y-91622968D01*
X145268699Y-91649299D01*
X145244901Y-91678297D01*
X141659402Y-95263796D01*
X141630400Y-95287598D01*
X141606602Y-95316596D01*
X141361808Y-95561390D01*
X141141660Y-95517600D01*
X141015201Y-95517600D01*
X151996603Y-84536199D01*
X152025601Y-84512401D01*
X152120574Y-84396676D01*
X152191146Y-84264647D01*
X152234603Y-84121386D01*
X152245600Y-84009733D01*
X152249277Y-83972400D01*
X152245600Y-83935067D01*
X152245600Y-82669511D01*
X152289537Y-82625574D01*
X152402805Y-82456056D01*
X152480826Y-82267698D01*
X152520600Y-82067739D01*
X152520600Y-81863861D01*
X152480826Y-81663902D01*
X152402805Y-81475544D01*
X152289537Y-81306026D01*
X152145374Y-81161863D01*
X151975856Y-81048595D01*
X151787498Y-80970574D01*
X151587539Y-80930800D01*
X151383661Y-80930800D01*
X151183702Y-80970574D01*
X150995344Y-81048595D01*
X150825826Y-81161863D01*
X150681663Y-81306026D01*
X150568395Y-81475544D01*
X150490374Y-81663902D01*
X150450600Y-81863861D01*
X150450600Y-82067739D01*
X150490374Y-82267698D01*
X150568395Y-82456056D01*
X150681663Y-82625574D01*
X150725600Y-82669511D01*
X150725601Y-83657597D01*
X145061572Y-89321626D01*
X145061572Y-88304000D01*
X145049312Y-88179518D01*
X145013002Y-88059820D01*
X144954037Y-87949506D01*
X144874685Y-87852815D01*
X144777994Y-87773463D01*
X144667680Y-87714498D01*
X144587034Y-87690034D01*
X144671088Y-87614269D01*
X144845141Y-87380920D01*
X144970325Y-87118099D01*
X145014976Y-86970890D01*
X144893655Y-86741000D01*
X143700500Y-86741000D01*
X143700500Y-86761000D01*
X143446500Y-86761000D01*
X143446500Y-86741000D01*
X143426500Y-86741000D01*
X143426500Y-86487000D01*
X143446500Y-86487000D01*
X143446500Y-86467000D01*
X143700500Y-86467000D01*
X143700500Y-86487000D01*
X144893655Y-86487000D01*
X145014976Y-86257110D01*
X144970325Y-86109901D01*
X144845141Y-85847080D01*
X144671088Y-85613731D01*
X144454855Y-85418822D01*
X144337966Y-85349195D01*
X144520132Y-85227475D01*
X144726975Y-85020632D01*
X144889490Y-84777411D01*
X145001432Y-84507158D01*
X145058500Y-84220260D01*
X145058500Y-83927740D01*
X145001432Y-83640842D01*
X144889490Y-83370589D01*
X144726975Y-83127368D01*
X144520132Y-82920525D01*
X144345740Y-82804000D01*
X144520132Y-82687475D01*
X144726975Y-82480632D01*
X144889490Y-82237411D01*
X145001432Y-81967158D01*
X145058500Y-81680260D01*
X145058500Y-81387740D01*
X145001432Y-81100842D01*
X144889490Y-80830589D01*
X144726975Y-80587368D01*
X144520132Y-80380525D01*
X144337966Y-80258805D01*
X144454855Y-80189178D01*
X144671088Y-79994269D01*
X144845141Y-79760920D01*
X144970325Y-79498099D01*
X145014976Y-79350890D01*
X144893655Y-79121000D01*
X143700500Y-79121000D01*
X143700500Y-79141000D01*
X143446500Y-79141000D01*
X143446500Y-79121000D01*
X143426500Y-79121000D01*
X143426500Y-78867000D01*
X143446500Y-78867000D01*
X143446500Y-78847000D01*
X143700500Y-78847000D01*
X143700500Y-78867000D01*
X144893655Y-78867000D01*
X145014976Y-78637110D01*
X144970325Y-78489901D01*
X144845141Y-78227080D01*
X144671088Y-77993731D01*
X144454855Y-77798822D01*
X144337966Y-77729195D01*
X144520132Y-77607475D01*
X144726975Y-77400632D01*
X144889490Y-77157411D01*
X145001432Y-76887158D01*
X145058500Y-76600260D01*
X145058500Y-76307740D01*
X145001432Y-76020842D01*
X144889490Y-75750589D01*
X144726975Y-75507368D01*
X144520132Y-75300525D01*
X144345740Y-75184000D01*
X144520132Y-75067475D01*
X144726975Y-74860632D01*
X144851678Y-74674000D01*
X154396599Y-74674000D01*
X155332012Y-75609414D01*
G36*
X177355500Y-89344500D02*
G01*
X177375500Y-89344500D01*
X177375500Y-89598500D01*
X177355500Y-89598500D01*
X177355500Y-89618500D01*
X177101500Y-89618500D01*
X177101500Y-89598500D01*
X177081500Y-89598500D01*
X177081500Y-89344500D01*
X177101500Y-89344500D01*
X177101500Y-89324500D01*
X177355500Y-89324500D01*
X177355500Y-89344500D01*
G37*
X177355500Y-89344500D02*
X177375500Y-89344500D01*
X177375500Y-89598500D01*
X177355500Y-89598500D01*
X177355500Y-89618500D01*
X177101500Y-89618500D01*
X177101500Y-89598500D01*
X177081500Y-89598500D01*
X177081500Y-89344500D01*
X177101500Y-89344500D01*
X177101500Y-89324500D01*
X177355500Y-89324500D01*
X177355500Y-89344500D01*
G36*
X177355500Y-84264500D02*
G01*
X177375500Y-84264500D01*
X177375500Y-84518500D01*
X177355500Y-84518500D01*
X177355500Y-84538500D01*
X177101500Y-84538500D01*
X177101500Y-84518500D01*
X177081500Y-84518500D01*
X177081500Y-84264500D01*
X177101500Y-84264500D01*
X177101500Y-84244500D01*
X177355500Y-84244500D01*
X177355500Y-84264500D01*
G37*
X177355500Y-84264500D02*
X177375500Y-84264500D01*
X177375500Y-84518500D01*
X177355500Y-84518500D01*
X177355500Y-84538500D01*
X177101500Y-84538500D01*
X177101500Y-84518500D01*
X177081500Y-84518500D01*
X177081500Y-84264500D01*
X177101500Y-84264500D01*
X177101500Y-84244500D01*
X177355500Y-84244500D01*
X177355500Y-84264500D01*
G36*
X174815500Y-79184500D02*
G01*
X174835500Y-79184500D01*
X174835500Y-79438500D01*
X174815500Y-79438500D01*
X174815500Y-79458500D01*
X174561500Y-79458500D01*
X174561500Y-79438500D01*
X174541500Y-79438500D01*
X174541500Y-79184500D01*
X174561500Y-79184500D01*
X174561500Y-79164500D01*
X174815500Y-79164500D01*
X174815500Y-79184500D01*
G37*
X174815500Y-79184500D02*
X174835500Y-79184500D01*
X174835500Y-79438500D01*
X174815500Y-79438500D01*
X174815500Y-79458500D01*
X174561500Y-79458500D01*
X174561500Y-79438500D01*
X174541500Y-79438500D01*
X174541500Y-79184500D01*
X174561500Y-79184500D01*
X174561500Y-79164500D01*
X174815500Y-79164500D01*
X174815500Y-79184500D01*
G36*
X177355500Y-71564500D02*
G01*
X177375500Y-71564500D01*
X177375500Y-71818500D01*
X177355500Y-71818500D01*
X177355500Y-71838500D01*
X177101500Y-71838500D01*
X177101500Y-71818500D01*
X177081500Y-71818500D01*
X177081500Y-71564500D01*
X177101500Y-71564500D01*
X177101500Y-71544500D01*
X177355500Y-71544500D01*
X177355500Y-71564500D01*
G37*
X177355500Y-71564500D02*
X177375500Y-71564500D01*
X177375500Y-71818500D01*
X177355500Y-71818500D01*
X177355500Y-71838500D01*
X177101500Y-71838500D01*
X177101500Y-71818500D01*
X177081500Y-71818500D01*
X177081500Y-71564500D01*
X177101500Y-71564500D01*
X177101500Y-71544500D01*
X177355500Y-71544500D01*
X177355500Y-71564500D01*
G36*
X177355500Y-63944500D02*
G01*
X177375500Y-63944500D01*
X177375500Y-64198500D01*
X177355500Y-64198500D01*
X177355500Y-64218500D01*
X177101500Y-64218500D01*
X177101500Y-64198500D01*
X177081500Y-64198500D01*
X177081500Y-63944500D01*
X177101500Y-63944500D01*
X177101500Y-63924500D01*
X177355500Y-63924500D01*
X177355500Y-63944500D01*
G37*
X177355500Y-63944500D02*
X177375500Y-63944500D01*
X177375500Y-64198500D01*
X177355500Y-64198500D01*
X177355500Y-64218500D01*
X177101500Y-64218500D01*
X177101500Y-64198500D01*
X177081500Y-64198500D01*
X177081500Y-63944500D01*
X177101500Y-63944500D01*
X177101500Y-63924500D01*
X177355500Y-63924500D01*
X177355500Y-63944500D01*
G36*
X177355500Y-53784500D02*
G01*
X177375500Y-53784500D01*
X177375500Y-54038500D01*
X177355500Y-54038500D01*
X177355500Y-54058500D01*
X177101500Y-54058500D01*
X177101500Y-54038500D01*
X177081500Y-54038500D01*
X177081500Y-53784500D01*
X177101500Y-53784500D01*
X177101500Y-53764500D01*
X177355500Y-53764500D01*
X177355500Y-53784500D01*
G37*
X177355500Y-53784500D02*
X177375500Y-53784500D01*
X177375500Y-54038500D01*
X177355500Y-54038500D01*
X177355500Y-54058500D01*
X177101500Y-54058500D01*
X177101500Y-54038500D01*
X177081500Y-54038500D01*
X177081500Y-53784500D01*
X177101500Y-53784500D01*
X177101500Y-53764500D01*
X177355500Y-53764500D01*
X177355500Y-53784500D01*
M02*
