M48
; DRILL file {KiCad (5.1.5)-3} date 7/21/2020 4:34:00 PM
; FORMAT={-:-/ absolute / inch / decimal}
; #@! TF.CreationDate,2020-07-21T16:34:00-04:00
; #@! TF.GenerationSoftware,Kicad,Pcbnew,(5.1.5)-3
FMAT,2
INCH
T1C0.0157
T2C0.0315
T3C0.0350
T4C0.0394
T5C0.0472
T6C0.0598
T7C0.0800
%
G90
G05
T1
X5.5325Y-3.2155
X5.561Y-2.245
X5.561Y-3.151
X5.635Y-2.113
X5.635Y-2.113
X5.788Y-4.724
X5.841Y-3.57
X5.948Y-4.311
X5.964Y-3.227
X5.983Y-4.199
X6.467Y-4.838
X6.625Y-4.806
X6.6855Y-3.437
X6.694Y-4.7855
T2
X6.1705Y-2.6895
X6.1705Y-2.9895
X6.2705Y-2.6895
X6.2705Y-2.9895
X6.3705Y-2.6895
X6.3705Y-2.9895
X6.4705Y-2.6895
X6.4705Y-2.9895
X6.578Y-4.6096
X6.578Y-4.708
T3
X6.1825Y-2.4275
X6.2825Y-2.4275
T4
X5.165Y-5.01
X5.265Y-5.01
X5.365Y-5.01
X5.465Y-5.01
X5.565Y-5.01
X5.665Y-5.01
X5.765Y-5.01
X5.865Y-5.01
X5.451Y-3.819
X5.551Y-3.819
X5.651Y-3.819
X6.2Y-4.995
X6.3Y-4.995
X6.4Y-4.995
X6.5Y-4.995
X6.6Y-4.995
X6.7Y-4.995
X6.8Y-4.995
X6.9Y-4.995
X6.767Y-4.357
X6.767Y-4.457
X6.767Y-4.557
X6.767Y-4.657
X6.767Y-4.757
X6.807Y-4.089
X6.907Y-4.089
X5.871Y-3.952
X5.871Y-4.052
X5.871Y-4.152
X5.871Y-4.252
X5.871Y-4.352
X5.871Y-4.452
X5.871Y-4.552
X5.871Y-4.652
X6.371Y-3.952
X6.371Y-4.052
X6.371Y-4.152
X6.371Y-4.252
X6.371Y-4.352
X6.371Y-4.452
X6.371Y-4.552
X6.371Y-4.652
X6.8775Y-1.9225
X6.8775Y-2.0225
X6.8775Y-2.1225
X6.8775Y-2.2225
X6.8775Y-2.3225
X6.8775Y-2.4225
X6.8775Y-2.5225
X6.8775Y-2.6225
X6.8775Y-2.7225
X6.8775Y-2.8225
X6.8775Y-2.9225
X6.8775Y-3.0225
X6.8775Y-3.1225
X6.8775Y-3.2225
X6.8775Y-3.3225
X6.8775Y-3.4225
X6.8775Y-3.5225
X6.8775Y-3.6225
X6.8775Y-3.7225
X6.8775Y-3.8225
X6.9775Y-1.9225
X6.9775Y-2.0225
X6.9775Y-2.1225
X6.9775Y-2.2225
X6.9775Y-2.3225
X6.9775Y-2.4225
X6.9775Y-2.5225
X6.9775Y-2.6225
X6.9775Y-2.7225
X6.9775Y-2.8225
X6.9775Y-2.9225
X6.9775Y-3.0225
X6.9775Y-3.1225
X6.9775Y-3.2225
X6.9775Y-3.3225
X6.9775Y-3.4225
X6.9775Y-3.5225
X6.9775Y-3.6225
X6.9775Y-3.7225
X6.9775Y-3.8225
X5.6525Y-2.61
X5.6525Y-2.71
X5.6525Y-2.81
X5.6525Y-2.91
X5.6525Y-3.01
X5.6525Y-3.11
X5.6525Y-3.21
X5.6525Y-3.31
X5.6525Y-3.41
X5.6525Y-3.51
T5
X6.4305Y-3.1295
X6.4305Y-3.6295
X6.2305Y-3.1295
X6.2305Y-3.6295
T6
X5.013Y-4.104
X5.013Y-4.304
X5.013Y-4.504
X5.013Y-4.704
T7
X6.0825Y-2.2275
X6.4825Y-2.2275
T0
M30
