M48
; DRILL file {KiCad (5.1.9)-1} date 03/09/21 13:03:28
; FORMAT={-:-/ absolute / inch / decimal}
; #@! TF.CreationDate,2021-03-09T13:03:28-08:00
; #@! TF.GenerationSoftware,Kicad,Pcbnew,(5.1.9)-1
FMAT,2
INCH
T1C0.0157
T2C0.0295
T3C0.0315
T4C0.0350
T5C0.0354
T6C0.0394
T7C0.0400
T8C0.0433
T9C0.0500
T10C0.0560
T11C0.0598
T12C0.0800
T13C0.0433
T14C0.1181
%
G90
G05
T1
X4.185Y-3.25
X4.24Y-3.45
X4.2657Y-4.5108
X4.4252Y-2.2628
X4.4281Y-3.1152
X4.46Y-3.465
X4.4636Y-4.6762
X4.5748Y-4.7589
X4.6368Y-3.8835
X4.655Y-3.405
X4.6683Y-4.1988
X4.6772Y-3.8549
X4.7283Y-4.7589
X4.7815Y-3.9537
X4.9675Y-3.1132
X4.9685Y-3.8209
X4.9803Y-4.2795
X5.0463Y-4.3366
X5.0886Y-2.6841
X5.1201Y-4.3996
X5.3219Y-4.4715
X5.3268Y-2.9508
X5.4705Y-3.8238
X5.5039Y-5.4035
X5.8455Y-2.9488
X5.878Y-2.5591
X5.9596Y-2.4803
X6.1339Y-4.311
X6.1732Y-2.437
X6.1919Y-3.1152
X6.1919Y-3.3337
X6.3799Y-2.4754
X6.395Y-4.758
X6.4262Y-4.0472
X6.4724Y-3.4616
X6.4872Y-2.6181
X6.5484Y-4.757
X6.5571Y-3.9783
X6.5657Y-4.8607
X6.57Y-5.15
X6.5738Y-4.3967
X6.5738Y-5.0
X6.623Y-2.4734
X6.6331Y-4.4985
X6.6732Y-3.4823
X6.7254Y-2.6929
X6.7327Y-2.6261
X6.7441Y-2.5738
X6.7558Y-2.5187
X6.823Y-5.3272
X6.8248Y-2.7324
X6.8248Y-4.1358
X6.8305Y-4.663
X6.8465Y-4.503
X6.876Y-3.2305
X6.876Y-4.2156
X6.8947Y-3.5866
X6.9006Y-3.8031
X6.9193Y-3.7057
X6.9301Y-3.8947
X6.9429Y-4.8602
X6.9478Y-3.6634
X6.9852Y-4.2392
X6.997Y-3.7844
X7.001Y-3.4606
X7.001Y-4.0423
X7.1447Y-3.7096
X7.2431Y-5.0551
X7.2575Y-4.2203
X7.2697Y-4.0039
X7.2709Y-3.0638
X7.3225Y-4.9894
X7.3238Y-3.9222
X7.3425Y-4.8967
X7.3691Y-3.8888
X7.3691Y-4.0453
T2
X6.1345Y-4.7171
X6.1845Y-4.7171
X6.2345Y-4.7171
X6.335Y-3.145
X6.335Y-3.195
X6.335Y-3.245
T3
X5.1761Y-2.7887
X5.1761Y-2.8887
X5.1761Y-2.9887
X5.1761Y-3.0887
X5.3709Y-3.378
X5.3709Y-3.5068
X5.3713Y-3.249
X5.4761Y-2.7887
X5.4761Y-2.8887
X5.4761Y-2.9887
X5.4761Y-3.0887
X5.645Y-2.815
X5.645Y-3.115
X5.6709Y-3.378
X5.6709Y-3.5068
X5.6713Y-3.249
X5.745Y-2.815
X5.745Y-3.115
X5.7717Y-3.5079
X5.7725Y-3.378
X5.7726Y-3.249
X5.845Y-2.815
X5.845Y-3.115
X5.8701Y-3.5079
X5.8709Y-3.378
X5.8711Y-3.249
X5.945Y-2.815
X5.945Y-3.115
X6.075Y-3.155
X6.075Y-3.2534
X6.105Y-2.875
X6.105Y-3.015
X6.105Y-3.385
X6.405Y-2.875
X6.405Y-3.015
X6.405Y-3.385
X6.4518Y-2.4596
X6.4537Y-2.3268
X6.4765Y-4.1189
X6.4765Y-4.2173
X6.4768Y-4.3283
X6.4768Y-4.6283
X6.4772Y-4.7161
X6.4772Y-4.8146
X6.5502Y-2.4596
X6.5522Y-2.3268
T4
X4.945Y-2.745
X4.945Y-2.845
T5
X6.7165Y-3.8583
X6.7165Y-4.0551
X6.9134Y-3.9567
T6
X4.17Y-4.075
X4.17Y-5.2
X4.27Y-4.075
X4.27Y-5.2
X4.37Y-4.075
X4.37Y-5.2
X4.47Y-4.075
X4.47Y-5.2
X4.57Y-4.075
X4.57Y-5.2
X4.67Y-4.075
X4.67Y-5.2
X4.77Y-4.075
X4.77Y-5.2
X4.87Y-4.075
X4.87Y-5.2
X4.945Y-2.32
X5.5075Y-4.7898
X5.6273Y-4.0641
X5.6273Y-4.5641
X5.723Y-4.9311
X5.723Y-5.5311
X5.7273Y-4.0641
X5.7273Y-4.5641
X5.823Y-4.9311
X5.823Y-5.5311
X5.8273Y-4.0641
X5.8273Y-4.5641
X5.923Y-4.9311
X5.923Y-5.5311
X5.9273Y-4.0641
X5.9273Y-4.5641
X6.0075Y-4.7898
X6.023Y-4.9311
X6.023Y-5.5311
X6.0273Y-4.0641
X6.0273Y-4.5641
X6.123Y-4.9311
X6.123Y-5.5311
X6.1273Y-4.0641
X6.1273Y-4.5641
X6.223Y-4.9311
X6.223Y-5.5311
X6.2273Y-4.0641
X6.2273Y-4.5641
X6.323Y-4.9311
X6.323Y-5.5311
X6.3273Y-4.0641
X6.3273Y-4.5641
X6.423Y-4.9311
X6.423Y-5.5311
X6.523Y-4.9311
X6.523Y-5.5311
X6.623Y-4.9311
X6.623Y-5.5311
X6.723Y-4.9311
X6.723Y-5.5311
X6.823Y-4.9311
X6.823Y-5.5311
X6.923Y-4.9311
X6.923Y-5.5311
X6.937Y-2.5915
X6.937Y-2.6915
X6.937Y-2.7915
X6.937Y-2.8915
X6.937Y-2.9915
X6.937Y-3.0915
X6.937Y-3.1915
X6.937Y-3.2915
X6.937Y-3.3915
X6.937Y-3.4915
X7.023Y-4.9311
X7.023Y-5.5311
X7.0961Y-2.5606
X7.0961Y-2.6606
X7.0961Y-2.7606
X7.0961Y-2.8606
X7.0961Y-2.9606
X7.0961Y-3.0606
X7.0961Y-3.1606
X7.0961Y-3.2606
X7.0961Y-3.3606
X7.0961Y-3.4606
X7.0961Y-3.5606
X7.0961Y-3.6606
X7.0961Y-3.7606
X7.0961Y-3.8606
X7.0961Y-3.9606
X7.0961Y-4.0606
X7.0961Y-4.1606
X7.0961Y-4.2606
X7.0961Y-4.3606
X7.0961Y-4.4606
X7.123Y-4.9311
X7.123Y-5.5311
X7.1961Y-2.5606
X7.1961Y-2.6606
X7.1961Y-2.7606
X7.1961Y-2.8606
X7.1961Y-2.9606
X7.1961Y-3.0606
X7.1961Y-3.1606
X7.1961Y-3.2606
X7.1961Y-3.3606
X7.1961Y-3.4606
X7.1961Y-3.5606
X7.1961Y-3.6606
X7.1961Y-3.7606
X7.1961Y-3.8606
X7.1961Y-3.9606
X7.1961Y-4.0606
X7.1961Y-4.1606
X7.1961Y-4.2606
X7.1961Y-4.3606
X7.1961Y-4.4606
X7.3398Y-4.1109
X7.3398Y-4.2109
X7.3398Y-4.3109
X7.3398Y-4.4109
X7.3398Y-4.5109
X7.3398Y-4.6109
X7.3398Y-4.7109
X7.3398Y-4.8109
X7.34Y-5.2
X7.34Y-5.3
X7.3435Y-2.3199
X7.3435Y-2.4199
X7.3435Y-2.5199
X7.3435Y-2.6199
X7.3435Y-2.7199
X7.3435Y-2.8199
X7.3435Y-2.9199
X7.3435Y-3.0199
X7.3435Y-3.1199
X7.3435Y-3.2199
X7.3435Y-3.3199
X7.3435Y-3.4199
X7.3435Y-3.5199
X7.3435Y-3.6199
X7.3435Y-3.7199
X7.3435Y-3.8199
T7
X6.712Y-2.3665
X6.812Y-2.3665
X6.912Y-2.3665
T8
X4.0026Y-4.556
X4.0026Y-4.9222
X4.0226Y-3.451
X4.0226Y-3.8172
X4.1995Y-4.8867
X4.2195Y-3.7817
X4.3215Y-4.682
X4.3215Y-4.808
X4.3415Y-3.577
X4.3415Y-3.703
T9
X5.0798Y-2.9326
X5.0798Y-3.4326
X5.3342Y-2.6766
X5.3342Y-3.6886
X5.8342Y-2.6766
X5.8342Y-3.6886
X6.3342Y-2.6766
X6.3342Y-3.6886
X6.5902Y-2.9326
X6.5902Y-3.4326
T10
X4.3133Y-3.225
X4.3133Y-4.35
X4.4511Y-3.225
X4.4511Y-4.35
X4.5889Y-3.225
X4.5889Y-4.35
X4.7267Y-3.223
X4.7267Y-4.348
T11
X4.63Y-5.475
X4.83Y-5.475
X5.03Y-5.475
X5.23Y-5.475
X5.4575Y-2.3917
X5.6575Y-2.3917
X5.8756Y-2.3927
X6.0756Y-2.3927
X6.2756Y-2.3927
T12
X4.745Y-2.545
X4.745Y-2.945
T13
X4.0026Y-4.745
X4.0226Y-3.64
X4.1995Y-4.745
X4.2195Y-3.64
T14
X4.0906Y-3.1998
X4.1191Y-5.4744
X5.2165Y-2.3677
X5.2165Y-4.6535
X7.1457Y-4.6535
X7.1465Y-2.3677
T0
M30
