G04 #@! TF.GenerationSoftware,KiCad,Pcbnew,(5.1.9)-1*
G04 #@! TF.CreationDate,2021-03-09T13:02:45-08:00*
G04 #@! TF.ProjectId,full_project,66756c6c-5f70-4726-9f6a-6563742e6b69,2.0*
G04 #@! TF.SameCoordinates,Original*
G04 #@! TF.FileFunction,Legend,Top*
G04 #@! TF.FilePolarity,Positive*
%FSLAX46Y46*%
G04 Gerber Fmt 4.6, Leading zero omitted, Abs format (unit mm)*
G04 Created by KiCad (PCBNEW (5.1.9)-1) date 2021-03-09 13:02:45*
%MOMM*%
%LPD*%
G01*
G04 APERTURE LIST*
G04 #@! TA.AperFunction,Profile*
%ADD10C,0.050000*%
G04 #@! TD*
%ADD11C,0.120000*%
%ADD12C,0.150000*%
%ADD13C,0.300000*%
%ADD14C,0.127000*%
%ADD15C,0.400000*%
%ADD16C,0.152400*%
%ADD17C,0.100000*%
%ADD18C,0.015000*%
%ADD19C,0.050000*%
G04 APERTURE END LIST*
D10*
X111379000Y-77851000D02*
X111379000Y-56636000D01*
X100457000Y-77851000D02*
X111379000Y-77851000D01*
D11*
X130964000Y-76420000D02*
X130456000Y-75912000D01*
X130456000Y-76928000D02*
X130964000Y-76420000D01*
X130964000Y-76420000D02*
X130456000Y-76928000D01*
X154432000Y-84455000D02*
X151511000Y-84455000D01*
X154305000Y-88138000D02*
X154305000Y-89281000D01*
X164719000Y-88138000D02*
X164719000Y-85852000D01*
X164084000Y-88138000D02*
X164719000Y-88138000D01*
X153162000Y-88138000D02*
X153162000Y-85979000D01*
X156210000Y-88138000D02*
X153162000Y-88138000D01*
D12*
X155836761Y-92304619D02*
X155265333Y-92304619D01*
X155551047Y-91304619D02*
X155551047Y-92304619D01*
X154551047Y-91352238D02*
X154646285Y-91304619D01*
X154836761Y-91304619D01*
X154932000Y-91352238D01*
X154979619Y-91447476D01*
X154979619Y-91828428D01*
X154932000Y-91923666D01*
X154836761Y-91971285D01*
X154646285Y-91971285D01*
X154551047Y-91923666D01*
X154503428Y-91828428D01*
X154503428Y-91733190D01*
X154979619Y-91637952D01*
X154122476Y-91352238D02*
X154027238Y-91304619D01*
X153836761Y-91304619D01*
X153741523Y-91352238D01*
X153693904Y-91447476D01*
X153693904Y-91495095D01*
X153741523Y-91590333D01*
X153836761Y-91637952D01*
X153979619Y-91637952D01*
X154074857Y-91685571D01*
X154122476Y-91780809D01*
X154122476Y-91828428D01*
X154074857Y-91923666D01*
X153979619Y-91971285D01*
X153836761Y-91971285D01*
X153741523Y-91923666D01*
X153408190Y-91971285D02*
X153027238Y-91971285D01*
X153265333Y-92304619D02*
X153265333Y-91447476D01*
X153217714Y-91352238D01*
X153122476Y-91304619D01*
X153027238Y-91304619D01*
X156122476Y-89654619D02*
X156122476Y-90654619D01*
X155741523Y-90654619D01*
X155646285Y-90607000D01*
X155598666Y-90559380D01*
X155551047Y-90464142D01*
X155551047Y-90321285D01*
X155598666Y-90226047D01*
X155646285Y-90178428D01*
X155741523Y-90130809D01*
X156122476Y-90130809D01*
X154979619Y-89654619D02*
X155074857Y-89702238D01*
X155122476Y-89749857D01*
X155170095Y-89845095D01*
X155170095Y-90130809D01*
X155122476Y-90226047D01*
X155074857Y-90273666D01*
X154979619Y-90321285D01*
X154836761Y-90321285D01*
X154741523Y-90273666D01*
X154693904Y-90226047D01*
X154646285Y-90130809D01*
X154646285Y-89845095D01*
X154693904Y-89749857D01*
X154741523Y-89702238D01*
X154836761Y-89654619D01*
X154979619Y-89654619D01*
X154217714Y-89654619D02*
X154217714Y-90321285D01*
X154217714Y-90654619D02*
X154265333Y-90607000D01*
X154217714Y-90559380D01*
X154170095Y-90607000D01*
X154217714Y-90654619D01*
X154217714Y-90559380D01*
X153741523Y-90321285D02*
X153741523Y-89654619D01*
X153741523Y-90226047D02*
X153693904Y-90273666D01*
X153598666Y-90321285D01*
X153455809Y-90321285D01*
X153360571Y-90273666D01*
X153312952Y-90178428D01*
X153312952Y-89654619D01*
X152979619Y-90321285D02*
X152598666Y-90321285D01*
X152836761Y-90654619D02*
X152836761Y-89797476D01*
X152789142Y-89702238D01*
X152693904Y-89654619D01*
X152598666Y-89654619D01*
X162940666Y-90526619D02*
X162607333Y-89526619D01*
X162274000Y-90526619D01*
X161797809Y-89526619D02*
X161893047Y-89574238D01*
X161940666Y-89621857D01*
X161988285Y-89717095D01*
X161988285Y-90002809D01*
X161940666Y-90098047D01*
X161893047Y-90145666D01*
X161797809Y-90193285D01*
X161654952Y-90193285D01*
X161559714Y-90145666D01*
X161512095Y-90098047D01*
X161464476Y-90002809D01*
X161464476Y-89717095D01*
X161512095Y-89621857D01*
X161559714Y-89574238D01*
X161654952Y-89526619D01*
X161797809Y-89526619D01*
X160893047Y-89526619D02*
X160988285Y-89574238D01*
X161035904Y-89669476D01*
X161035904Y-90526619D01*
X160654952Y-90193285D02*
X160274000Y-90193285D01*
X160512095Y-90526619D02*
X160512095Y-89669476D01*
X160464476Y-89574238D01*
X160369238Y-89526619D01*
X160274000Y-89526619D01*
X159512095Y-89526619D02*
X159512095Y-90050428D01*
X159559714Y-90145666D01*
X159654952Y-90193285D01*
X159845428Y-90193285D01*
X159940666Y-90145666D01*
X159512095Y-89574238D02*
X159607333Y-89526619D01*
X159845428Y-89526619D01*
X159940666Y-89574238D01*
X159988285Y-89669476D01*
X159988285Y-89764714D01*
X159940666Y-89859952D01*
X159845428Y-89907571D01*
X159607333Y-89907571D01*
X159512095Y-89955190D01*
X158607333Y-90193285D02*
X158607333Y-89383761D01*
X158654952Y-89288523D01*
X158702571Y-89240904D01*
X158797809Y-89193285D01*
X158940666Y-89193285D01*
X159035904Y-89240904D01*
X158607333Y-89574238D02*
X158702571Y-89526619D01*
X158893047Y-89526619D01*
X158988285Y-89574238D01*
X159035904Y-89621857D01*
X159083523Y-89717095D01*
X159083523Y-90002809D01*
X159035904Y-90098047D01*
X158988285Y-90145666D01*
X158893047Y-90193285D01*
X158702571Y-90193285D01*
X158607333Y-90145666D01*
X157750190Y-89574238D02*
X157845428Y-89526619D01*
X158035904Y-89526619D01*
X158131142Y-89574238D01*
X158178761Y-89669476D01*
X158178761Y-90050428D01*
X158131142Y-90145666D01*
X158035904Y-90193285D01*
X157845428Y-90193285D01*
X157750190Y-90145666D01*
X157702571Y-90050428D01*
X157702571Y-89955190D01*
X158178761Y-89859952D01*
X163154952Y-87876619D02*
X163488285Y-88352809D01*
X163726380Y-87876619D02*
X163726380Y-88876619D01*
X163345428Y-88876619D01*
X163250190Y-88829000D01*
X163202571Y-88781380D01*
X163154952Y-88686142D01*
X163154952Y-88543285D01*
X163202571Y-88448047D01*
X163250190Y-88400428D01*
X163345428Y-88352809D01*
X163726380Y-88352809D01*
X162345428Y-87924238D02*
X162440666Y-87876619D01*
X162631142Y-87876619D01*
X162726380Y-87924238D01*
X162774000Y-88019476D01*
X162774000Y-88400428D01*
X162726380Y-88495666D01*
X162631142Y-88543285D01*
X162440666Y-88543285D01*
X162345428Y-88495666D01*
X162297809Y-88400428D01*
X162297809Y-88305190D01*
X162774000Y-88209952D01*
X162012095Y-88543285D02*
X161631142Y-88543285D01*
X161869238Y-87876619D02*
X161869238Y-88733761D01*
X161821619Y-88829000D01*
X161726380Y-88876619D01*
X161631142Y-88876619D01*
X160916857Y-87924238D02*
X161012095Y-87876619D01*
X161202571Y-87876619D01*
X161297809Y-87924238D01*
X161345428Y-88019476D01*
X161345428Y-88400428D01*
X161297809Y-88495666D01*
X161202571Y-88543285D01*
X161012095Y-88543285D01*
X160916857Y-88495666D01*
X160869238Y-88400428D01*
X160869238Y-88305190D01*
X161345428Y-88209952D01*
X160440666Y-87876619D02*
X160440666Y-88543285D01*
X160440666Y-88352809D02*
X160393047Y-88448047D01*
X160345428Y-88495666D01*
X160250190Y-88543285D01*
X160154952Y-88543285D01*
X159440666Y-87924238D02*
X159535904Y-87876619D01*
X159726380Y-87876619D01*
X159821619Y-87924238D01*
X159869238Y-88019476D01*
X159869238Y-88400428D01*
X159821619Y-88495666D01*
X159726380Y-88543285D01*
X159535904Y-88543285D01*
X159440666Y-88495666D01*
X159393047Y-88400428D01*
X159393047Y-88305190D01*
X159869238Y-88209952D01*
X158964476Y-88543285D02*
X158964476Y-87876619D01*
X158964476Y-88448047D02*
X158916857Y-88495666D01*
X158821619Y-88543285D01*
X158678761Y-88543285D01*
X158583523Y-88495666D01*
X158535904Y-88400428D01*
X158535904Y-87876619D01*
X157631142Y-87924238D02*
X157726380Y-87876619D01*
X157916857Y-87876619D01*
X158012095Y-87924238D01*
X158059714Y-87971857D01*
X158107333Y-88067095D01*
X158107333Y-88352809D01*
X158059714Y-88448047D01*
X158012095Y-88495666D01*
X157916857Y-88543285D01*
X157726380Y-88543285D01*
X157631142Y-88495666D01*
X156821619Y-87924238D02*
X156916857Y-87876619D01*
X157107333Y-87876619D01*
X157202571Y-87924238D01*
X157250190Y-88019476D01*
X157250190Y-88400428D01*
X157202571Y-88495666D01*
X157107333Y-88543285D01*
X156916857Y-88543285D01*
X156821619Y-88495666D01*
X156774000Y-88400428D01*
X156774000Y-88305190D01*
X157250190Y-88209952D01*
X166314428Y-73691476D02*
X166314428Y-72929571D01*
X166409666Y-71739095D02*
X166409666Y-71262904D01*
X166695380Y-71834333D02*
X165695380Y-71501000D01*
X166695380Y-71167666D01*
X166695380Y-70834333D02*
X165695380Y-70834333D01*
X165695380Y-70596238D01*
X165743000Y-70453380D01*
X165838238Y-70358142D01*
X165933476Y-70310523D01*
X166123952Y-70262904D01*
X166266809Y-70262904D01*
X166457285Y-70310523D01*
X166552523Y-70358142D01*
X166647761Y-70453380D01*
X166695380Y-70596238D01*
X166695380Y-70834333D01*
X166600142Y-69262904D02*
X166647761Y-69310523D01*
X166695380Y-69453380D01*
X166695380Y-69548619D01*
X166647761Y-69691476D01*
X166552523Y-69786714D01*
X166457285Y-69834333D01*
X166266809Y-69881952D01*
X166123952Y-69881952D01*
X165933476Y-69834333D01*
X165838238Y-69786714D01*
X165743000Y-69691476D01*
X165695380Y-69548619D01*
X165695380Y-69453380D01*
X165743000Y-69310523D01*
X165790619Y-69262904D01*
X172243904Y-112228380D02*
X172862952Y-112228380D01*
X172529619Y-112609333D01*
X172672476Y-112609333D01*
X172767714Y-112656952D01*
X172815333Y-112704571D01*
X172862952Y-112799809D01*
X172862952Y-113037904D01*
X172815333Y-113133142D01*
X172767714Y-113180761D01*
X172672476Y-113228380D01*
X172386761Y-113228380D01*
X172291523Y-113180761D01*
X172243904Y-113133142D01*
X173148666Y-112228380D02*
X173482000Y-113228380D01*
X173815333Y-112228380D01*
X174053428Y-112228380D02*
X174672476Y-112228380D01*
X174339142Y-112609333D01*
X174482000Y-112609333D01*
X174577238Y-112656952D01*
X174624857Y-112704571D01*
X174672476Y-112799809D01*
X174672476Y-113037904D01*
X174624857Y-113133142D01*
X174577238Y-113180761D01*
X174482000Y-113228380D01*
X174196285Y-113228380D01*
X174101047Y-113180761D01*
X174053428Y-113133142D01*
X165806380Y-84216380D02*
X165330190Y-84549714D01*
X165806380Y-84787809D02*
X164806380Y-84787809D01*
X164806380Y-84406857D01*
X164854000Y-84311619D01*
X164901619Y-84264000D01*
X164996857Y-84216380D01*
X165139714Y-84216380D01*
X165234952Y-84264000D01*
X165282571Y-84311619D01*
X165330190Y-84406857D01*
X165330190Y-84787809D01*
X165282571Y-83454476D02*
X165282571Y-83787809D01*
X165806380Y-83787809D02*
X164806380Y-83787809D01*
X164806380Y-83311619D01*
X165758761Y-82216380D02*
X165806380Y-82073523D01*
X165806380Y-81835428D01*
X165758761Y-81740190D01*
X165711142Y-81692571D01*
X165615904Y-81644952D01*
X165520666Y-81644952D01*
X165425428Y-81692571D01*
X165377809Y-81740190D01*
X165330190Y-81835428D01*
X165282571Y-82025904D01*
X165234952Y-82121142D01*
X165187333Y-82168761D01*
X165092095Y-82216380D01*
X164996857Y-82216380D01*
X164901619Y-82168761D01*
X164854000Y-82121142D01*
X164806380Y-82025904D01*
X164806380Y-81787809D01*
X164854000Y-81644952D01*
X165806380Y-81216380D02*
X164806380Y-81216380D01*
X165806380Y-80787809D02*
X165282571Y-80787809D01*
X165187333Y-80835428D01*
X165139714Y-80930666D01*
X165139714Y-81073523D01*
X165187333Y-81168761D01*
X165234952Y-81216380D01*
X165758761Y-79930666D02*
X165806380Y-80025904D01*
X165806380Y-80216380D01*
X165758761Y-80311619D01*
X165663523Y-80359238D01*
X165282571Y-80359238D01*
X165187333Y-80311619D01*
X165139714Y-80216380D01*
X165139714Y-80025904D01*
X165187333Y-79930666D01*
X165282571Y-79883047D01*
X165377809Y-79883047D01*
X165473047Y-80359238D01*
X165806380Y-79454476D02*
X165139714Y-79454476D01*
X164806380Y-79454476D02*
X164854000Y-79502095D01*
X164901619Y-79454476D01*
X164854000Y-79406857D01*
X164806380Y-79454476D01*
X164901619Y-79454476D01*
X165806380Y-78835428D02*
X165758761Y-78930666D01*
X165663523Y-78978285D01*
X164806380Y-78978285D01*
X165806380Y-78025904D02*
X164806380Y-78025904D01*
X165758761Y-78025904D02*
X165806380Y-78121142D01*
X165806380Y-78311619D01*
X165758761Y-78406857D01*
X165711142Y-78454476D01*
X165615904Y-78502095D01*
X165330190Y-78502095D01*
X165234952Y-78454476D01*
X165187333Y-78406857D01*
X165139714Y-78311619D01*
X165139714Y-78121142D01*
X165187333Y-78025904D01*
X165806380Y-77549714D02*
X165139714Y-77549714D01*
X164806380Y-77549714D02*
X164854000Y-77597333D01*
X164901619Y-77549714D01*
X164854000Y-77502095D01*
X164806380Y-77549714D01*
X164901619Y-77549714D01*
X165139714Y-77073523D02*
X165806380Y-77073523D01*
X165234952Y-77073523D02*
X165187333Y-77025904D01*
X165139714Y-76930666D01*
X165139714Y-76787809D01*
X165187333Y-76692571D01*
X165282571Y-76644952D01*
X165806380Y-76644952D01*
X165139714Y-75740190D02*
X165949238Y-75740190D01*
X166044476Y-75787809D01*
X166092095Y-75835428D01*
X166139714Y-75930666D01*
X166139714Y-76073523D01*
X166092095Y-76168761D01*
X165758761Y-75740190D02*
X165806380Y-75835428D01*
X165806380Y-76025904D01*
X165758761Y-76121142D01*
X165711142Y-76168761D01*
X165615904Y-76216380D01*
X165330190Y-76216380D01*
X165234952Y-76168761D01*
X165187333Y-76121142D01*
X165139714Y-76025904D01*
X165139714Y-75835428D01*
X165187333Y-75740190D01*
D11*
X178562000Y-119634000D02*
X177165000Y-122428000D01*
X180213000Y-122428000D02*
X178562000Y-119634000D01*
X177165000Y-122428000D02*
X180213000Y-122428000D01*
D12*
X178562000Y-121947714D02*
X178633428Y-122019142D01*
X178562000Y-122090571D01*
X178490571Y-122019142D01*
X178562000Y-121947714D01*
X178562000Y-122090571D01*
X178562000Y-121519142D02*
X178490571Y-120662000D01*
X178562000Y-120590571D01*
X178633428Y-120662000D01*
X178562000Y-121519142D01*
X178562000Y-120590571D01*
D11*
X157861000Y-109220000D02*
X157480000Y-109982000D01*
X157861000Y-109220000D02*
X157099000Y-108966000D01*
X154940000Y-110236000D02*
X157861000Y-109220000D01*
D12*
X147026809Y-110435380D02*
X147026809Y-109435380D01*
X147360142Y-110149666D01*
X147693476Y-109435380D01*
X147693476Y-110435380D01*
X148598238Y-110435380D02*
X148598238Y-109911571D01*
X148550619Y-109816333D01*
X148455380Y-109768714D01*
X148264904Y-109768714D01*
X148169666Y-109816333D01*
X148598238Y-110387761D02*
X148503000Y-110435380D01*
X148264904Y-110435380D01*
X148169666Y-110387761D01*
X148122047Y-110292523D01*
X148122047Y-110197285D01*
X148169666Y-110102047D01*
X148264904Y-110054428D01*
X148503000Y-110054428D01*
X148598238Y-110006809D01*
X149074428Y-110435380D02*
X149074428Y-109435380D01*
X149169666Y-110054428D02*
X149455380Y-110435380D01*
X149455380Y-109768714D02*
X149074428Y-110149666D01*
X150264904Y-110387761D02*
X150169666Y-110435380D01*
X149979190Y-110435380D01*
X149883952Y-110387761D01*
X149836333Y-110292523D01*
X149836333Y-109911571D01*
X149883952Y-109816333D01*
X149979190Y-109768714D01*
X150169666Y-109768714D01*
X150264904Y-109816333D01*
X150312523Y-109911571D01*
X150312523Y-110006809D01*
X149836333Y-110102047D01*
X151455380Y-110387761D02*
X151550619Y-110435380D01*
X151741095Y-110435380D01*
X151836333Y-110387761D01*
X151883952Y-110292523D01*
X151883952Y-110244904D01*
X151836333Y-110149666D01*
X151741095Y-110102047D01*
X151598238Y-110102047D01*
X151503000Y-110054428D01*
X151455380Y-109959190D01*
X151455380Y-109911571D01*
X151503000Y-109816333D01*
X151598238Y-109768714D01*
X151741095Y-109768714D01*
X151836333Y-109816333D01*
X152741095Y-109768714D02*
X152741095Y-110435380D01*
X152312523Y-109768714D02*
X152312523Y-110292523D01*
X152360142Y-110387761D01*
X152455380Y-110435380D01*
X152598238Y-110435380D01*
X152693476Y-110387761D01*
X152741095Y-110340142D01*
X153217285Y-110435380D02*
X153217285Y-109768714D01*
X153217285Y-109959190D02*
X153264904Y-109863952D01*
X153312523Y-109816333D01*
X153407761Y-109768714D01*
X153503000Y-109768714D01*
X154217285Y-110387761D02*
X154122047Y-110435380D01*
X153931571Y-110435380D01*
X153836333Y-110387761D01*
X153788714Y-110292523D01*
X153788714Y-109911571D01*
X153836333Y-109816333D01*
X153931571Y-109768714D01*
X154122047Y-109768714D01*
X154217285Y-109816333D01*
X154264904Y-109911571D01*
X154264904Y-110006809D01*
X153788714Y-110102047D01*
X146407761Y-112037761D02*
X146503000Y-112085380D01*
X146693476Y-112085380D01*
X146788714Y-112037761D01*
X146836333Y-111942523D01*
X146836333Y-111894904D01*
X146788714Y-111799666D01*
X146693476Y-111752047D01*
X146550619Y-111752047D01*
X146455380Y-111704428D01*
X146407761Y-111609190D01*
X146407761Y-111561571D01*
X146455380Y-111466333D01*
X146550619Y-111418714D01*
X146693476Y-111418714D01*
X146788714Y-111466333D01*
X147693476Y-112037761D02*
X147598238Y-112085380D01*
X147407761Y-112085380D01*
X147312523Y-112037761D01*
X147264904Y-111990142D01*
X147217285Y-111894904D01*
X147217285Y-111609190D01*
X147264904Y-111513952D01*
X147312523Y-111466333D01*
X147407761Y-111418714D01*
X147598238Y-111418714D01*
X147693476Y-111466333D01*
X148122047Y-112085380D02*
X148122047Y-111418714D01*
X148122047Y-111609190D02*
X148169666Y-111513952D01*
X148217285Y-111466333D01*
X148312523Y-111418714D01*
X148407761Y-111418714D01*
X149122047Y-112037761D02*
X149026809Y-112085380D01*
X148836333Y-112085380D01*
X148741095Y-112037761D01*
X148693476Y-111942523D01*
X148693476Y-111561571D01*
X148741095Y-111466333D01*
X148836333Y-111418714D01*
X149026809Y-111418714D01*
X149122047Y-111466333D01*
X149169666Y-111561571D01*
X149169666Y-111656809D01*
X148693476Y-111752047D01*
X149503000Y-111418714D02*
X149693476Y-112085380D01*
X149883952Y-111609190D01*
X150074428Y-112085380D01*
X150264904Y-111418714D01*
X151407761Y-112085380D02*
X151407761Y-111418714D01*
X151407761Y-111085380D02*
X151360142Y-111133000D01*
X151407761Y-111180619D01*
X151455380Y-111133000D01*
X151407761Y-111085380D01*
X151407761Y-111180619D01*
X151836333Y-112037761D02*
X151931571Y-112085380D01*
X152122047Y-112085380D01*
X152217285Y-112037761D01*
X152264904Y-111942523D01*
X152264904Y-111894904D01*
X152217285Y-111799666D01*
X152122047Y-111752047D01*
X151979190Y-111752047D01*
X151883952Y-111704428D01*
X151836333Y-111609190D01*
X151836333Y-111561571D01*
X151883952Y-111466333D01*
X151979190Y-111418714D01*
X152122047Y-111418714D01*
X152217285Y-111466333D01*
X153598238Y-112085380D02*
X153503000Y-112037761D01*
X153455380Y-111990142D01*
X153407761Y-111894904D01*
X153407761Y-111609190D01*
X153455380Y-111513952D01*
X153503000Y-111466333D01*
X153598238Y-111418714D01*
X153741095Y-111418714D01*
X153836333Y-111466333D01*
X153883952Y-111513952D01*
X153931571Y-111609190D01*
X153931571Y-111894904D01*
X153883952Y-111990142D01*
X153836333Y-112037761D01*
X153741095Y-112085380D01*
X153598238Y-112085380D01*
X154360142Y-111418714D02*
X154360142Y-112085380D01*
X154360142Y-111513952D02*
X154407761Y-111466333D01*
X154503000Y-111418714D01*
X154645857Y-111418714D01*
X154741095Y-111466333D01*
X154788714Y-111561571D01*
X154788714Y-112085380D01*
X147360142Y-113735380D02*
X147360142Y-113068714D01*
X147360142Y-113259190D02*
X147407761Y-113163952D01*
X147455380Y-113116333D01*
X147550619Y-113068714D01*
X147645857Y-113068714D01*
X147979190Y-113735380D02*
X147979190Y-113068714D01*
X147979190Y-112735380D02*
X147931571Y-112783000D01*
X147979190Y-112830619D01*
X148026809Y-112783000D01*
X147979190Y-112735380D01*
X147979190Y-112830619D01*
X148883952Y-113068714D02*
X148883952Y-113878238D01*
X148836333Y-113973476D01*
X148788714Y-114021095D01*
X148693476Y-114068714D01*
X148550619Y-114068714D01*
X148455380Y-114021095D01*
X148883952Y-113687761D02*
X148788714Y-113735380D01*
X148598238Y-113735380D01*
X148503000Y-113687761D01*
X148455380Y-113640142D01*
X148407761Y-113544904D01*
X148407761Y-113259190D01*
X148455380Y-113163952D01*
X148503000Y-113116333D01*
X148598238Y-113068714D01*
X148788714Y-113068714D01*
X148883952Y-113116333D01*
X149360142Y-113735380D02*
X149360142Y-112735380D01*
X149788714Y-113735380D02*
X149788714Y-113211571D01*
X149741095Y-113116333D01*
X149645857Y-113068714D01*
X149503000Y-113068714D01*
X149407761Y-113116333D01*
X149360142Y-113163952D01*
X150122047Y-113068714D02*
X150503000Y-113068714D01*
X150264904Y-112735380D02*
X150264904Y-113592523D01*
X150312523Y-113687761D01*
X150407761Y-113735380D01*
X150503000Y-113735380D01*
X151550619Y-113687761D02*
X151645857Y-113735380D01*
X151836333Y-113735380D01*
X151931571Y-113687761D01*
X151979190Y-113592523D01*
X151979190Y-113544904D01*
X151931571Y-113449666D01*
X151836333Y-113402047D01*
X151693476Y-113402047D01*
X151598238Y-113354428D01*
X151550619Y-113259190D01*
X151550619Y-113211571D01*
X151598238Y-113116333D01*
X151693476Y-113068714D01*
X151836333Y-113068714D01*
X151931571Y-113116333D01*
X152407761Y-113735380D02*
X152407761Y-113068714D01*
X152407761Y-112735380D02*
X152360142Y-112783000D01*
X152407761Y-112830619D01*
X152455380Y-112783000D01*
X152407761Y-112735380D01*
X152407761Y-112830619D01*
X153312523Y-113735380D02*
X153312523Y-112735380D01*
X153312523Y-113687761D02*
X153217285Y-113735380D01*
X153026809Y-113735380D01*
X152931571Y-113687761D01*
X152883952Y-113640142D01*
X152836333Y-113544904D01*
X152836333Y-113259190D01*
X152883952Y-113163952D01*
X152931571Y-113116333D01*
X153026809Y-113068714D01*
X153217285Y-113068714D01*
X153312523Y-113116333D01*
X154169666Y-113687761D02*
X154074428Y-113735380D01*
X153883952Y-113735380D01*
X153788714Y-113687761D01*
X153741095Y-113592523D01*
X153741095Y-113211571D01*
X153788714Y-113116333D01*
X153883952Y-113068714D01*
X154074428Y-113068714D01*
X154169666Y-113116333D01*
X154217285Y-113211571D01*
X154217285Y-113306809D01*
X153741095Y-113402047D01*
X154645857Y-113640142D02*
X154693476Y-113687761D01*
X154645857Y-113735380D01*
X154598238Y-113687761D01*
X154645857Y-113640142D01*
X154645857Y-113735380D01*
X154645857Y-113354428D02*
X154598238Y-112783000D01*
X154645857Y-112735380D01*
X154693476Y-112783000D01*
X154645857Y-113354428D01*
X154645857Y-112735380D01*
X144272000Y-112168714D02*
X144343428Y-112240142D01*
X144272000Y-112311571D01*
X144200571Y-112240142D01*
X144272000Y-112168714D01*
X144272000Y-112311571D01*
X144272000Y-111740142D02*
X144200571Y-110883000D01*
X144272000Y-110811571D01*
X144343428Y-110883000D01*
X144272000Y-111740142D01*
X144272000Y-110811571D01*
D11*
X144272000Y-109855000D02*
X142875000Y-112649000D01*
X145923000Y-112649000D02*
X144272000Y-109855000D01*
X142875000Y-112649000D02*
X145923000Y-112649000D01*
X158242000Y-110490000D02*
X158242000Y-107950000D01*
X160782000Y-110490000D02*
X158242000Y-110490000D01*
X160782000Y-107950000D02*
X160782000Y-110490000D01*
X158242000Y-107950000D02*
X160782000Y-107950000D01*
X186563000Y-130683000D02*
X186055000Y-130175000D01*
X186563000Y-130683000D02*
X187071000Y-130175000D01*
X186563000Y-123444000D02*
X186563000Y-130683000D01*
X186436000Y-102235000D02*
X185420000Y-102235000D01*
X186436000Y-103124000D02*
X186436000Y-102235000D01*
X183515000Y-63754000D02*
X182753000Y-63754000D01*
X185293000Y-57531000D02*
X186563000Y-57531000D01*
X184277000Y-63754000D02*
X183515000Y-63754000D01*
X185547000Y-123444000D02*
X186563000Y-123444000D01*
X182880000Y-115443000D02*
X183896000Y-115443000D01*
X182880000Y-114935000D02*
X182880000Y-115443000D01*
X184658000Y-123444000D02*
X185547000Y-123444000D01*
X184658000Y-116713000D02*
X184658000Y-123444000D01*
X184658000Y-57531000D02*
X185293000Y-57531000D01*
X184658000Y-63754000D02*
X184658000Y-57531000D01*
X184658000Y-63754000D02*
X184277000Y-63754000D01*
X184658000Y-77216000D02*
X184658000Y-63754000D01*
D12*
X184237380Y-116186714D02*
X184237380Y-115615285D01*
X185237380Y-115901000D02*
X184237380Y-115901000D01*
X185237380Y-115281952D02*
X184237380Y-115281952D01*
X184713571Y-115281952D02*
X184713571Y-114710523D01*
X185237380Y-114710523D02*
X184237380Y-114710523D01*
X184713571Y-114234333D02*
X184713571Y-113901000D01*
X185237380Y-113758142D02*
X185237380Y-114234333D01*
X184237380Y-114234333D01*
X184237380Y-113758142D01*
X185189761Y-113377190D02*
X185237380Y-113234333D01*
X185237380Y-112996238D01*
X185189761Y-112901000D01*
X185142142Y-112853380D01*
X185046904Y-112805761D01*
X184951666Y-112805761D01*
X184856428Y-112853380D01*
X184808809Y-112901000D01*
X184761190Y-112996238D01*
X184713571Y-113186714D01*
X184665952Y-113281952D01*
X184618333Y-113329571D01*
X184523095Y-113377190D01*
X184427857Y-113377190D01*
X184332619Y-113329571D01*
X184285000Y-113281952D01*
X184237380Y-113186714D01*
X184237380Y-112948619D01*
X184285000Y-112805761D01*
X184713571Y-112377190D02*
X184713571Y-112043857D01*
X185237380Y-111901000D02*
X185237380Y-112377190D01*
X184237380Y-112377190D01*
X184237380Y-111901000D01*
X185189761Y-110758142D02*
X185237380Y-110615285D01*
X185237380Y-110377190D01*
X185189761Y-110281952D01*
X185142142Y-110234333D01*
X185046904Y-110186714D01*
X184951666Y-110186714D01*
X184856428Y-110234333D01*
X184808809Y-110281952D01*
X184761190Y-110377190D01*
X184713571Y-110567666D01*
X184665952Y-110662904D01*
X184618333Y-110710523D01*
X184523095Y-110758142D01*
X184427857Y-110758142D01*
X184332619Y-110710523D01*
X184285000Y-110662904D01*
X184237380Y-110567666D01*
X184237380Y-110329571D01*
X184285000Y-110186714D01*
X185237380Y-109758142D02*
X184237380Y-109758142D01*
X184713571Y-109758142D02*
X184713571Y-109186714D01*
X185237380Y-109186714D02*
X184237380Y-109186714D01*
X184237380Y-108520047D02*
X184237380Y-108329571D01*
X184285000Y-108234333D01*
X184380238Y-108139095D01*
X184570714Y-108091476D01*
X184904047Y-108091476D01*
X185094523Y-108139095D01*
X185189761Y-108234333D01*
X185237380Y-108329571D01*
X185237380Y-108520047D01*
X185189761Y-108615285D01*
X185094523Y-108710523D01*
X184904047Y-108758142D01*
X184570714Y-108758142D01*
X184380238Y-108710523D01*
X184285000Y-108615285D01*
X184237380Y-108520047D01*
X184237380Y-107662904D02*
X185046904Y-107662904D01*
X185142142Y-107615285D01*
X185189761Y-107567666D01*
X185237380Y-107472428D01*
X185237380Y-107281952D01*
X185189761Y-107186714D01*
X185142142Y-107139095D01*
X185046904Y-107091476D01*
X184237380Y-107091476D01*
X185237380Y-106139095D02*
X185237380Y-106615285D01*
X184237380Y-106615285D01*
X185237380Y-105805761D02*
X184237380Y-105805761D01*
X184237380Y-105567666D01*
X184285000Y-105424809D01*
X184380238Y-105329571D01*
X184475476Y-105281952D01*
X184665952Y-105234333D01*
X184808809Y-105234333D01*
X184999285Y-105281952D01*
X185094523Y-105329571D01*
X185189761Y-105424809D01*
X185237380Y-105567666D01*
X185237380Y-105805761D01*
X184713571Y-103710523D02*
X184761190Y-103567666D01*
X184808809Y-103520047D01*
X184904047Y-103472428D01*
X185046904Y-103472428D01*
X185142142Y-103520047D01*
X185189761Y-103567666D01*
X185237380Y-103662904D01*
X185237380Y-104043857D01*
X184237380Y-104043857D01*
X184237380Y-103710523D01*
X184285000Y-103615285D01*
X184332619Y-103567666D01*
X184427857Y-103520047D01*
X184523095Y-103520047D01*
X184618333Y-103567666D01*
X184665952Y-103615285D01*
X184713571Y-103710523D01*
X184713571Y-104043857D01*
X184713571Y-103043857D02*
X184713571Y-102710523D01*
X185237380Y-102567666D02*
X185237380Y-103043857D01*
X184237380Y-103043857D01*
X184237380Y-102567666D01*
X185189761Y-101424809D02*
X185237380Y-101281952D01*
X185237380Y-101043857D01*
X185189761Y-100948619D01*
X185142142Y-100901000D01*
X185046904Y-100853380D01*
X184951666Y-100853380D01*
X184856428Y-100901000D01*
X184808809Y-100948619D01*
X184761190Y-101043857D01*
X184713571Y-101234333D01*
X184665952Y-101329571D01*
X184618333Y-101377190D01*
X184523095Y-101424809D01*
X184427857Y-101424809D01*
X184332619Y-101377190D01*
X184285000Y-101329571D01*
X184237380Y-101234333D01*
X184237380Y-100996238D01*
X184285000Y-100853380D01*
X184237380Y-100234333D02*
X184237380Y-100043857D01*
X184285000Y-99948619D01*
X184380238Y-99853380D01*
X184570714Y-99805761D01*
X184904047Y-99805761D01*
X185094523Y-99853380D01*
X185189761Y-99948619D01*
X185237380Y-100043857D01*
X185237380Y-100234333D01*
X185189761Y-100329571D01*
X185094523Y-100424809D01*
X184904047Y-100472428D01*
X184570714Y-100472428D01*
X184380238Y-100424809D01*
X184285000Y-100329571D01*
X184237380Y-100234333D01*
X185237380Y-98901000D02*
X185237380Y-99377190D01*
X184237380Y-99377190D01*
X185237380Y-98567666D02*
X184237380Y-98567666D01*
X184237380Y-98329571D01*
X184285000Y-98186714D01*
X184380238Y-98091476D01*
X184475476Y-98043857D01*
X184665952Y-97996238D01*
X184808809Y-97996238D01*
X184999285Y-98043857D01*
X185094523Y-98091476D01*
X185189761Y-98186714D01*
X185237380Y-98329571D01*
X185237380Y-98567666D01*
X184713571Y-97567666D02*
X184713571Y-97234333D01*
X185237380Y-97091476D02*
X185237380Y-97567666D01*
X184237380Y-97567666D01*
X184237380Y-97091476D01*
X185237380Y-96091476D02*
X184761190Y-96424809D01*
X185237380Y-96662904D02*
X184237380Y-96662904D01*
X184237380Y-96281952D01*
X184285000Y-96186714D01*
X184332619Y-96139095D01*
X184427857Y-96091476D01*
X184570714Y-96091476D01*
X184665952Y-96139095D01*
X184713571Y-96186714D01*
X184761190Y-96281952D01*
X184761190Y-96662904D01*
X184713571Y-95662904D02*
X184713571Y-95329571D01*
X185237380Y-95186714D02*
X185237380Y-95662904D01*
X184237380Y-95662904D01*
X184237380Y-95186714D01*
X185237380Y-94758142D02*
X184237380Y-94758142D01*
X184237380Y-94520047D01*
X184285000Y-94377190D01*
X184380238Y-94281952D01*
X184475476Y-94234333D01*
X184665952Y-94186714D01*
X184808809Y-94186714D01*
X184999285Y-94234333D01*
X185094523Y-94281952D01*
X185189761Y-94377190D01*
X185237380Y-94520047D01*
X185237380Y-94758142D01*
X184237380Y-92805761D02*
X184237380Y-92615285D01*
X184285000Y-92520047D01*
X184380238Y-92424809D01*
X184570714Y-92377190D01*
X184904047Y-92377190D01*
X185094523Y-92424809D01*
X185189761Y-92520047D01*
X185237380Y-92615285D01*
X185237380Y-92805761D01*
X185189761Y-92901000D01*
X185094523Y-92996238D01*
X184904047Y-93043857D01*
X184570714Y-93043857D01*
X184380238Y-92996238D01*
X184285000Y-92901000D01*
X184237380Y-92805761D01*
X185237380Y-91948619D02*
X184237380Y-91948619D01*
X185237380Y-91377190D01*
X184237380Y-91377190D01*
X184237380Y-90281952D02*
X184237380Y-89710523D01*
X185237380Y-89996238D02*
X184237380Y-89996238D01*
X185237380Y-89377190D02*
X184237380Y-89377190D01*
X184713571Y-89377190D02*
X184713571Y-88805761D01*
X185237380Y-88805761D02*
X184237380Y-88805761D01*
X184713571Y-88329571D02*
X184713571Y-87996238D01*
X185237380Y-87853380D02*
X185237380Y-88329571D01*
X184237380Y-88329571D01*
X184237380Y-87853380D01*
X184713571Y-86329571D02*
X184761190Y-86186714D01*
X184808809Y-86139095D01*
X184904047Y-86091476D01*
X185046904Y-86091476D01*
X185142142Y-86139095D01*
X185189761Y-86186714D01*
X185237380Y-86281952D01*
X185237380Y-86662904D01*
X184237380Y-86662904D01*
X184237380Y-86329571D01*
X184285000Y-86234333D01*
X184332619Y-86186714D01*
X184427857Y-86139095D01*
X184523095Y-86139095D01*
X184618333Y-86186714D01*
X184665952Y-86234333D01*
X184713571Y-86329571D01*
X184713571Y-86662904D01*
X184951666Y-85710523D02*
X184951666Y-85234333D01*
X185237380Y-85805761D02*
X184237380Y-85472428D01*
X185237380Y-85139095D01*
X185142142Y-84234333D02*
X185189761Y-84281952D01*
X185237380Y-84424809D01*
X185237380Y-84520047D01*
X185189761Y-84662904D01*
X185094523Y-84758142D01*
X184999285Y-84805761D01*
X184808809Y-84853380D01*
X184665952Y-84853380D01*
X184475476Y-84805761D01*
X184380238Y-84758142D01*
X184285000Y-84662904D01*
X184237380Y-84520047D01*
X184237380Y-84424809D01*
X184285000Y-84281952D01*
X184332619Y-84234333D01*
X185237380Y-83805761D02*
X184237380Y-83805761D01*
X185237380Y-83234333D02*
X184665952Y-83662904D01*
X184237380Y-83234333D02*
X184808809Y-83805761D01*
X185189761Y-82091476D02*
X185237380Y-81948619D01*
X185237380Y-81710523D01*
X185189761Y-81615285D01*
X185142142Y-81567666D01*
X185046904Y-81520047D01*
X184951666Y-81520047D01*
X184856428Y-81567666D01*
X184808809Y-81615285D01*
X184761190Y-81710523D01*
X184713571Y-81901000D01*
X184665952Y-81996238D01*
X184618333Y-82043857D01*
X184523095Y-82091476D01*
X184427857Y-82091476D01*
X184332619Y-82043857D01*
X184285000Y-81996238D01*
X184237380Y-81901000D01*
X184237380Y-81662904D01*
X184285000Y-81520047D01*
X185237380Y-81091476D02*
X184237380Y-81091476D01*
X185237380Y-80615285D02*
X184237380Y-80615285D01*
X184237380Y-80377190D01*
X184285000Y-80234333D01*
X184380238Y-80139095D01*
X184475476Y-80091476D01*
X184665952Y-80043857D01*
X184808809Y-80043857D01*
X184999285Y-80091476D01*
X185094523Y-80139095D01*
X185189761Y-80234333D01*
X185237380Y-80377190D01*
X185237380Y-80615285D01*
X184713571Y-79615285D02*
X184713571Y-79281952D01*
X185237380Y-79139095D02*
X185237380Y-79615285D01*
X184237380Y-79615285D01*
X184237380Y-79139095D01*
X185142142Y-78710523D02*
X185189761Y-78662904D01*
X185237380Y-78710523D01*
X185189761Y-78758142D01*
X185142142Y-78710523D01*
X185237380Y-78710523D01*
X184856428Y-78710523D02*
X184285000Y-78758142D01*
X184237380Y-78710523D01*
X184285000Y-78662904D01*
X184856428Y-78710523D01*
X184237380Y-78710523D01*
X185142142Y-78234333D02*
X185189761Y-78186714D01*
X185237380Y-78234333D01*
X185189761Y-78281952D01*
X185142142Y-78234333D01*
X185237380Y-78234333D01*
X184856428Y-78234333D02*
X184285000Y-78281952D01*
X184237380Y-78234333D01*
X184285000Y-78186714D01*
X184856428Y-78234333D01*
X184237380Y-78234333D01*
X185142142Y-77758142D02*
X185189761Y-77710523D01*
X185237380Y-77758142D01*
X185189761Y-77805761D01*
X185142142Y-77758142D01*
X185237380Y-77758142D01*
X184856428Y-77758142D02*
X184285000Y-77805761D01*
X184237380Y-77758142D01*
X184285000Y-77710523D01*
X184856428Y-77758142D01*
X184237380Y-77758142D01*
X187860714Y-100203000D02*
X187932142Y-100131571D01*
X188003571Y-100203000D01*
X187932142Y-100274428D01*
X187860714Y-100203000D01*
X188003571Y-100203000D01*
X187432142Y-100203000D02*
X186575000Y-100274428D01*
X186503571Y-100203000D01*
X186575000Y-100131571D01*
X187432142Y-100203000D01*
X186503571Y-100203000D01*
D11*
X185547000Y-100203000D02*
X188341000Y-101600000D01*
X188341000Y-101600000D02*
X188341000Y-98552000D01*
X188341000Y-98552000D02*
X185547000Y-100203000D01*
X171450000Y-59690000D02*
X171450000Y-62103000D01*
X172593000Y-60833000D02*
X170180000Y-60833000D01*
D12*
X182562523Y-62444380D02*
X182086333Y-62444380D01*
X182038714Y-62920571D01*
X182086333Y-62872952D01*
X182181571Y-62825333D01*
X182419666Y-62825333D01*
X182514904Y-62872952D01*
X182562523Y-62920571D01*
X182610142Y-63015809D01*
X182610142Y-63253904D01*
X182562523Y-63349142D01*
X182514904Y-63396761D01*
X182419666Y-63444380D01*
X182181571Y-63444380D01*
X182086333Y-63396761D01*
X182038714Y-63349142D01*
X182895857Y-62444380D02*
X183229190Y-63444380D01*
X183562523Y-62444380D01*
X178974904Y-62444380D02*
X179593952Y-62444380D01*
X179260619Y-62825333D01*
X179403476Y-62825333D01*
X179498714Y-62872952D01*
X179546333Y-62920571D01*
X179593952Y-63015809D01*
X179593952Y-63253904D01*
X179546333Y-63349142D01*
X179498714Y-63396761D01*
X179403476Y-63444380D01*
X179117761Y-63444380D01*
X179022523Y-63396761D01*
X178974904Y-63349142D01*
X179879666Y-62444380D02*
X180213000Y-63444380D01*
X180546333Y-62444380D01*
X180784428Y-62444380D02*
X181403476Y-62444380D01*
X181070142Y-62825333D01*
X181213000Y-62825333D01*
X181308238Y-62872952D01*
X181355857Y-62920571D01*
X181403476Y-63015809D01*
X181403476Y-63253904D01*
X181355857Y-63349142D01*
X181308238Y-63396761D01*
X181213000Y-63444380D01*
X180927285Y-63444380D01*
X180832047Y-63396761D01*
X180784428Y-63349142D01*
D11*
X168656000Y-121158000D02*
X169291000Y-121793000D01*
X168656000Y-121158000D02*
X169291000Y-120523000D01*
X170688000Y-121158000D02*
X168656000Y-121158000D01*
D12*
X171069380Y-120737761D02*
X171212238Y-120785380D01*
X171450333Y-120785380D01*
X171545571Y-120737761D01*
X171593190Y-120690142D01*
X171640809Y-120594904D01*
X171640809Y-120499666D01*
X171593190Y-120404428D01*
X171545571Y-120356809D01*
X171450333Y-120309190D01*
X171259857Y-120261571D01*
X171164619Y-120213952D01*
X171117000Y-120166333D01*
X171069380Y-120071095D01*
X171069380Y-119975857D01*
X171117000Y-119880619D01*
X171164619Y-119833000D01*
X171259857Y-119785380D01*
X171497952Y-119785380D01*
X171640809Y-119833000D01*
X172259857Y-119785380D02*
X172450333Y-119785380D01*
X172545571Y-119833000D01*
X172640809Y-119928238D01*
X172688428Y-120118714D01*
X172688428Y-120452047D01*
X172640809Y-120642523D01*
X172545571Y-120737761D01*
X172450333Y-120785380D01*
X172259857Y-120785380D01*
X172164619Y-120737761D01*
X172069380Y-120642523D01*
X172021761Y-120452047D01*
X172021761Y-120118714D01*
X172069380Y-119928238D01*
X172164619Y-119833000D01*
X172259857Y-119785380D01*
X173593190Y-120785380D02*
X173117000Y-120785380D01*
X173117000Y-119785380D01*
X173926523Y-120785380D02*
X173926523Y-119785380D01*
X174164619Y-119785380D01*
X174307476Y-119833000D01*
X174402714Y-119928238D01*
X174450333Y-120023476D01*
X174497952Y-120213952D01*
X174497952Y-120356809D01*
X174450333Y-120547285D01*
X174402714Y-120642523D01*
X174307476Y-120737761D01*
X174164619Y-120785380D01*
X173926523Y-120785380D01*
X174926523Y-120261571D02*
X175259857Y-120261571D01*
X175402714Y-120785380D02*
X174926523Y-120785380D01*
X174926523Y-119785380D01*
X175402714Y-119785380D01*
X176402714Y-120785380D02*
X176069380Y-120309190D01*
X175831285Y-120785380D02*
X175831285Y-119785380D01*
X176212238Y-119785380D01*
X176307476Y-119833000D01*
X176355095Y-119880619D01*
X176402714Y-119975857D01*
X176402714Y-120118714D01*
X176355095Y-120213952D01*
X176307476Y-120261571D01*
X176212238Y-120309190D01*
X175831285Y-120309190D01*
X171950333Y-121911571D02*
X171617000Y-121911571D01*
X171617000Y-122435380D02*
X171617000Y-121435380D01*
X172093190Y-121435380D01*
X172474142Y-122435380D02*
X172474142Y-121435380D01*
X173521761Y-122435380D02*
X173188428Y-121959190D01*
X172950333Y-122435380D02*
X172950333Y-121435380D01*
X173331285Y-121435380D01*
X173426523Y-121483000D01*
X173474142Y-121530619D01*
X173521761Y-121625857D01*
X173521761Y-121768714D01*
X173474142Y-121863952D01*
X173426523Y-121911571D01*
X173331285Y-121959190D01*
X172950333Y-121959190D01*
X173902714Y-122387761D02*
X174045571Y-122435380D01*
X174283666Y-122435380D01*
X174378904Y-122387761D01*
X174426523Y-122340142D01*
X174474142Y-122244904D01*
X174474142Y-122149666D01*
X174426523Y-122054428D01*
X174378904Y-122006809D01*
X174283666Y-121959190D01*
X174093190Y-121911571D01*
X173997952Y-121863952D01*
X173950333Y-121816333D01*
X173902714Y-121721095D01*
X173902714Y-121625857D01*
X173950333Y-121530619D01*
X173997952Y-121483000D01*
X174093190Y-121435380D01*
X174331285Y-121435380D01*
X174474142Y-121483000D01*
X174759857Y-121435380D02*
X175331285Y-121435380D01*
X175045571Y-122435380D02*
X175045571Y-121435380D01*
X175664619Y-122340142D02*
X175712238Y-122387761D01*
X175664619Y-122435380D01*
X175617000Y-122387761D01*
X175664619Y-122340142D01*
X175664619Y-122435380D01*
X175664619Y-122054428D02*
X175617000Y-121483000D01*
X175664619Y-121435380D01*
X175712238Y-121483000D01*
X175664619Y-122054428D01*
X175664619Y-121435380D01*
X176140809Y-122340142D02*
X176188428Y-122387761D01*
X176140809Y-122435380D01*
X176093190Y-122387761D01*
X176140809Y-122340142D01*
X176140809Y-122435380D01*
X176140809Y-122054428D02*
X176093190Y-121483000D01*
X176140809Y-121435380D01*
X176188428Y-121483000D01*
X176140809Y-122054428D01*
X176140809Y-121435380D01*
X176617000Y-122340142D02*
X176664619Y-122387761D01*
X176617000Y-122435380D01*
X176569380Y-122387761D01*
X176617000Y-122340142D01*
X176617000Y-122435380D01*
X176617000Y-122054428D02*
X176569380Y-121483000D01*
X176617000Y-121435380D01*
X176664619Y-121483000D01*
X176617000Y-122054428D01*
X176617000Y-121435380D01*
D11*
X168275000Y-108712000D02*
X168275000Y-123444000D01*
X166624000Y-108712000D02*
X168275000Y-108712000D01*
X162560000Y-108712000D02*
X166624000Y-108712000D01*
X162560000Y-117602000D02*
X162560000Y-108712000D01*
X138176000Y-117602000D02*
X162560000Y-117602000D01*
X138176000Y-123825000D02*
X138176000Y-117602000D01*
X139954000Y-123825000D02*
X138176000Y-123825000D01*
D12*
X139510380Y-119403761D02*
X139653238Y-119451380D01*
X139891333Y-119451380D01*
X139986571Y-119403761D01*
X140034190Y-119356142D01*
X140081809Y-119260904D01*
X140081809Y-119165666D01*
X140034190Y-119070428D01*
X139986571Y-119022809D01*
X139891333Y-118975190D01*
X139700857Y-118927571D01*
X139605619Y-118879952D01*
X139558000Y-118832333D01*
X139510380Y-118737095D01*
X139510380Y-118641857D01*
X139558000Y-118546619D01*
X139605619Y-118499000D01*
X139700857Y-118451380D01*
X139938952Y-118451380D01*
X140081809Y-118499000D01*
X140367523Y-118784714D02*
X140748476Y-118784714D01*
X140510380Y-118451380D02*
X140510380Y-119308523D01*
X140558000Y-119403761D01*
X140653238Y-119451380D01*
X140748476Y-119451380D01*
X141081809Y-119451380D02*
X141081809Y-118784714D01*
X141081809Y-118451380D02*
X141034190Y-118499000D01*
X141081809Y-118546619D01*
X141129428Y-118499000D01*
X141081809Y-118451380D01*
X141081809Y-118546619D01*
X141558000Y-119451380D02*
X141558000Y-118784714D01*
X141558000Y-118975190D02*
X141605619Y-118879952D01*
X141653238Y-118832333D01*
X141748476Y-118784714D01*
X141843714Y-118784714D01*
X143510380Y-119356142D02*
X143462761Y-119403761D01*
X143319904Y-119451380D01*
X143224666Y-119451380D01*
X143081809Y-119403761D01*
X142986571Y-119308523D01*
X142938952Y-119213285D01*
X142891333Y-119022809D01*
X142891333Y-118879952D01*
X142938952Y-118689476D01*
X142986571Y-118594238D01*
X143081809Y-118499000D01*
X143224666Y-118451380D01*
X143319904Y-118451380D01*
X143462761Y-118499000D01*
X143510380Y-118546619D01*
X144081809Y-119451380D02*
X143986571Y-119403761D01*
X143938952Y-119356142D01*
X143891333Y-119260904D01*
X143891333Y-118975190D01*
X143938952Y-118879952D01*
X143986571Y-118832333D01*
X144081809Y-118784714D01*
X144224666Y-118784714D01*
X144319904Y-118832333D01*
X144367523Y-118879952D01*
X144415142Y-118975190D01*
X144415142Y-119260904D01*
X144367523Y-119356142D01*
X144319904Y-119403761D01*
X144224666Y-119451380D01*
X144081809Y-119451380D01*
X144843714Y-118784714D02*
X144843714Y-119451380D01*
X144843714Y-118879952D02*
X144891333Y-118832333D01*
X144986571Y-118784714D01*
X145129428Y-118784714D01*
X145224666Y-118832333D01*
X145272285Y-118927571D01*
X145272285Y-119451380D01*
X145605619Y-118784714D02*
X145986571Y-118784714D01*
X145748476Y-118451380D02*
X145748476Y-119308523D01*
X145796095Y-119403761D01*
X145891333Y-119451380D01*
X145986571Y-119451380D01*
X146319904Y-119451380D02*
X146319904Y-118784714D01*
X146319904Y-118975190D02*
X146367523Y-118879952D01*
X146415142Y-118832333D01*
X146510380Y-118784714D01*
X146605619Y-118784714D01*
X147081809Y-119451380D02*
X146986571Y-119403761D01*
X146938952Y-119356142D01*
X146891333Y-119260904D01*
X146891333Y-118975190D01*
X146938952Y-118879952D01*
X146986571Y-118832333D01*
X147081809Y-118784714D01*
X147224666Y-118784714D01*
X147319904Y-118832333D01*
X147367523Y-118879952D01*
X147415142Y-118975190D01*
X147415142Y-119260904D01*
X147367523Y-119356142D01*
X147319904Y-119403761D01*
X147224666Y-119451380D01*
X147081809Y-119451380D01*
X147986571Y-119451380D02*
X147891333Y-119403761D01*
X147843714Y-119308523D01*
X147843714Y-118451380D01*
X149700857Y-119356142D02*
X149653238Y-119403761D01*
X149510380Y-119451380D01*
X149415142Y-119451380D01*
X149272285Y-119403761D01*
X149177047Y-119308523D01*
X149129428Y-119213285D01*
X149081809Y-119022809D01*
X149081809Y-118879952D01*
X149129428Y-118689476D01*
X149177047Y-118594238D01*
X149272285Y-118499000D01*
X149415142Y-118451380D01*
X149510380Y-118451380D01*
X149653238Y-118499000D01*
X149700857Y-118546619D01*
X150129428Y-119451380D02*
X150129428Y-118784714D01*
X150129428Y-118451380D02*
X150081809Y-118499000D01*
X150129428Y-118546619D01*
X150177047Y-118499000D01*
X150129428Y-118451380D01*
X150129428Y-118546619D01*
X150605619Y-119451380D02*
X150605619Y-118784714D01*
X150605619Y-118975190D02*
X150653238Y-118879952D01*
X150700857Y-118832333D01*
X150796095Y-118784714D01*
X150891333Y-118784714D01*
X151653238Y-119403761D02*
X151558000Y-119451380D01*
X151367523Y-119451380D01*
X151272285Y-119403761D01*
X151224666Y-119356142D01*
X151177047Y-119260904D01*
X151177047Y-118975190D01*
X151224666Y-118879952D01*
X151272285Y-118832333D01*
X151367523Y-118784714D01*
X151558000Y-118784714D01*
X151653238Y-118832333D01*
X152510380Y-118784714D02*
X152510380Y-119451380D01*
X152081809Y-118784714D02*
X152081809Y-119308523D01*
X152129428Y-119403761D01*
X152224666Y-119451380D01*
X152367523Y-119451380D01*
X152462761Y-119403761D01*
X152510380Y-119356142D01*
X152986571Y-119451380D02*
X152986571Y-118784714D01*
X152986571Y-118451380D02*
X152938952Y-118499000D01*
X152986571Y-118546619D01*
X153034190Y-118499000D01*
X152986571Y-118451380D01*
X152986571Y-118546619D01*
X153319904Y-118784714D02*
X153700857Y-118784714D01*
X153462761Y-118451380D02*
X153462761Y-119308523D01*
X153510380Y-119403761D01*
X153605619Y-119451380D01*
X153700857Y-119451380D01*
D11*
X173609000Y-114808000D02*
X173609000Y-115443000D01*
X176149000Y-114808000D02*
X176149000Y-114173000D01*
X170815000Y-114808000D02*
X176149000Y-114808000D01*
X170815000Y-114173000D02*
X170815000Y-114808000D01*
D12*
X168982000Y-115467380D02*
X169553428Y-115467380D01*
X169267714Y-116467380D02*
X169267714Y-115467380D01*
X170267714Y-116419761D02*
X170172476Y-116467380D01*
X169982000Y-116467380D01*
X169886761Y-116419761D01*
X169839142Y-116324523D01*
X169839142Y-115943571D01*
X169886761Y-115848333D01*
X169982000Y-115800714D01*
X170172476Y-115800714D01*
X170267714Y-115848333D01*
X170315333Y-115943571D01*
X170315333Y-116038809D01*
X169839142Y-116134047D01*
X170743904Y-116467380D02*
X170743904Y-115800714D01*
X170743904Y-115895952D02*
X170791523Y-115848333D01*
X170886761Y-115800714D01*
X171029619Y-115800714D01*
X171124857Y-115848333D01*
X171172476Y-115943571D01*
X171172476Y-116467380D01*
X171172476Y-115943571D02*
X171220095Y-115848333D01*
X171315333Y-115800714D01*
X171458190Y-115800714D01*
X171553428Y-115848333D01*
X171601047Y-115943571D01*
X171601047Y-116467380D01*
X172077238Y-115800714D02*
X172077238Y-116800714D01*
X172077238Y-115848333D02*
X172172476Y-115800714D01*
X172362952Y-115800714D01*
X172458190Y-115848333D01*
X172505809Y-115895952D01*
X172553428Y-115991190D01*
X172553428Y-116276904D01*
X172505809Y-116372142D01*
X172458190Y-116419761D01*
X172362952Y-116467380D01*
X172172476Y-116467380D01*
X172077238Y-116419761D01*
X173362952Y-116419761D02*
X173267714Y-116467380D01*
X173077238Y-116467380D01*
X172982000Y-116419761D01*
X172934380Y-116324523D01*
X172934380Y-115943571D01*
X172982000Y-115848333D01*
X173077238Y-115800714D01*
X173267714Y-115800714D01*
X173362952Y-115848333D01*
X173410571Y-115943571D01*
X173410571Y-116038809D01*
X172934380Y-116134047D01*
X173839142Y-116467380D02*
X173839142Y-115800714D01*
X173839142Y-115991190D02*
X173886761Y-115895952D01*
X173934380Y-115848333D01*
X174029619Y-115800714D01*
X174124857Y-115800714D01*
X174886761Y-116467380D02*
X174886761Y-115943571D01*
X174839142Y-115848333D01*
X174743904Y-115800714D01*
X174553428Y-115800714D01*
X174458190Y-115848333D01*
X174886761Y-116419761D02*
X174791523Y-116467380D01*
X174553428Y-116467380D01*
X174458190Y-116419761D01*
X174410571Y-116324523D01*
X174410571Y-116229285D01*
X174458190Y-116134047D01*
X174553428Y-116086428D01*
X174791523Y-116086428D01*
X174886761Y-116038809D01*
X175220095Y-115800714D02*
X175601047Y-115800714D01*
X175362952Y-115467380D02*
X175362952Y-116324523D01*
X175410571Y-116419761D01*
X175505809Y-116467380D01*
X175601047Y-116467380D01*
X176362952Y-115800714D02*
X176362952Y-116467380D01*
X175934380Y-115800714D02*
X175934380Y-116324523D01*
X175982000Y-116419761D01*
X176077238Y-116467380D01*
X176220095Y-116467380D01*
X176315333Y-116419761D01*
X176362952Y-116372142D01*
X176839142Y-116467380D02*
X176839142Y-115800714D01*
X176839142Y-115991190D02*
X176886761Y-115895952D01*
X176934380Y-115848333D01*
X177029619Y-115800714D01*
X177124857Y-115800714D01*
X177839142Y-116419761D02*
X177743904Y-116467380D01*
X177553428Y-116467380D01*
X177458190Y-116419761D01*
X177410571Y-116324523D01*
X177410571Y-115943571D01*
X177458190Y-115848333D01*
X177553428Y-115800714D01*
X177743904Y-115800714D01*
X177839142Y-115848333D01*
X177886761Y-115943571D01*
X177886761Y-116038809D01*
X177410571Y-116134047D01*
X171172476Y-118117380D02*
X171172476Y-117117380D01*
X171553428Y-117117380D01*
X171648666Y-117165000D01*
X171696285Y-117212619D01*
X171743904Y-117307857D01*
X171743904Y-117450714D01*
X171696285Y-117545952D01*
X171648666Y-117593571D01*
X171553428Y-117641190D01*
X171172476Y-117641190D01*
X172172476Y-118117380D02*
X172172476Y-117450714D01*
X172172476Y-117641190D02*
X172220095Y-117545952D01*
X172267714Y-117498333D01*
X172362952Y-117450714D01*
X172458190Y-117450714D01*
X172934380Y-118117380D02*
X172839142Y-118069761D01*
X172791523Y-118022142D01*
X172743904Y-117926904D01*
X172743904Y-117641190D01*
X172791523Y-117545952D01*
X172839142Y-117498333D01*
X172934380Y-117450714D01*
X173077238Y-117450714D01*
X173172476Y-117498333D01*
X173220095Y-117545952D01*
X173267714Y-117641190D01*
X173267714Y-117926904D01*
X173220095Y-118022142D01*
X173172476Y-118069761D01*
X173077238Y-118117380D01*
X172934380Y-118117380D01*
X173696285Y-118117380D02*
X173696285Y-117117380D01*
X173696285Y-117498333D02*
X173791523Y-117450714D01*
X173982000Y-117450714D01*
X174077238Y-117498333D01*
X174124857Y-117545952D01*
X174172476Y-117641190D01*
X174172476Y-117926904D01*
X174124857Y-118022142D01*
X174077238Y-118069761D01*
X173982000Y-118117380D01*
X173791523Y-118117380D01*
X173696285Y-118069761D01*
X174982000Y-118069761D02*
X174886761Y-118117380D01*
X174696285Y-118117380D01*
X174601047Y-118069761D01*
X174553428Y-117974523D01*
X174553428Y-117593571D01*
X174601047Y-117498333D01*
X174696285Y-117450714D01*
X174886761Y-117450714D01*
X174982000Y-117498333D01*
X175029619Y-117593571D01*
X175029619Y-117688809D01*
X174553428Y-117784047D01*
X175410571Y-118069761D02*
X175505809Y-118117380D01*
X175696285Y-118117380D01*
X175791523Y-118069761D01*
X175839142Y-117974523D01*
X175839142Y-117926904D01*
X175791523Y-117831666D01*
X175696285Y-117784047D01*
X175553428Y-117784047D01*
X175458190Y-117736428D01*
X175410571Y-117641190D01*
X175410571Y-117593571D01*
X175458190Y-117498333D01*
X175553428Y-117450714D01*
X175696285Y-117450714D01*
X175791523Y-117498333D01*
X165552761Y-132310666D02*
X166028952Y-132310666D01*
X165457523Y-132596380D02*
X165790857Y-131596380D01*
X166124190Y-132596380D01*
X166457523Y-132596380D02*
X166457523Y-131929714D01*
X166457523Y-132120190D02*
X166505142Y-132024952D01*
X166552761Y-131977333D01*
X166648000Y-131929714D01*
X166743238Y-131929714D01*
X167505142Y-132596380D02*
X167505142Y-131596380D01*
X167505142Y-132548761D02*
X167409904Y-132596380D01*
X167219428Y-132596380D01*
X167124190Y-132548761D01*
X167076571Y-132501142D01*
X167028952Y-132405904D01*
X167028952Y-132120190D01*
X167076571Y-132024952D01*
X167124190Y-131977333D01*
X167219428Y-131929714D01*
X167409904Y-131929714D01*
X167505142Y-131977333D01*
X168409904Y-131929714D02*
X168409904Y-132596380D01*
X167981333Y-131929714D02*
X167981333Y-132453523D01*
X168028952Y-132548761D01*
X168124190Y-132596380D01*
X168267047Y-132596380D01*
X168362285Y-132548761D01*
X168409904Y-132501142D01*
X168886095Y-132596380D02*
X168886095Y-131929714D01*
X168886095Y-131596380D02*
X168838476Y-131644000D01*
X168886095Y-131691619D01*
X168933714Y-131644000D01*
X168886095Y-131596380D01*
X168886095Y-131691619D01*
X169362285Y-131929714D02*
X169362285Y-132596380D01*
X169362285Y-132024952D02*
X169409904Y-131977333D01*
X169505142Y-131929714D01*
X169648000Y-131929714D01*
X169743238Y-131977333D01*
X169790857Y-132072571D01*
X169790857Y-132596380D01*
X170409904Y-132596380D02*
X170314666Y-132548761D01*
X170267047Y-132501142D01*
X170219428Y-132405904D01*
X170219428Y-132120190D01*
X170267047Y-132024952D01*
X170314666Y-131977333D01*
X170409904Y-131929714D01*
X170552761Y-131929714D01*
X170648000Y-131977333D01*
X170695619Y-132024952D01*
X170743238Y-132120190D01*
X170743238Y-132405904D01*
X170695619Y-132501142D01*
X170648000Y-132548761D01*
X170552761Y-132596380D01*
X170409904Y-132596380D01*
X166505142Y-134246380D02*
X166505142Y-133246380D01*
X167076571Y-134246380D01*
X167076571Y-133246380D01*
X167981333Y-134246380D02*
X167981333Y-133722571D01*
X167933714Y-133627333D01*
X167838476Y-133579714D01*
X167648000Y-133579714D01*
X167552761Y-133627333D01*
X167981333Y-134198761D02*
X167886095Y-134246380D01*
X167648000Y-134246380D01*
X167552761Y-134198761D01*
X167505142Y-134103523D01*
X167505142Y-134008285D01*
X167552761Y-133913047D01*
X167648000Y-133865428D01*
X167886095Y-133865428D01*
X167981333Y-133817809D01*
X168457523Y-133579714D02*
X168457523Y-134246380D01*
X168457523Y-133674952D02*
X168505142Y-133627333D01*
X168600380Y-133579714D01*
X168743238Y-133579714D01*
X168838476Y-133627333D01*
X168886095Y-133722571D01*
X168886095Y-134246380D01*
X169505142Y-134246380D02*
X169409904Y-134198761D01*
X169362285Y-134151142D01*
X169314666Y-134055904D01*
X169314666Y-133770190D01*
X169362285Y-133674952D01*
X169409904Y-133627333D01*
X169505142Y-133579714D01*
X169648000Y-133579714D01*
X169743238Y-133627333D01*
X169790857Y-133674952D01*
X169838476Y-133770190D01*
X169838476Y-134055904D01*
X169790857Y-134151142D01*
X169743238Y-134198761D01*
X169648000Y-134246380D01*
X169505142Y-134246380D01*
D11*
X144399000Y-105283000D02*
X144399000Y-105537000D01*
X144399000Y-105156000D02*
X144399000Y-105283000D01*
X145542000Y-105156000D02*
X145542000Y-104648000D01*
X143002000Y-105156000D02*
X145542000Y-105156000D01*
X143002000Y-104648000D02*
X143002000Y-105156000D01*
D12*
X160282000Y-107060904D02*
X160234380Y-107156142D01*
X160234380Y-107299000D01*
X160282000Y-107441857D01*
X160377238Y-107537095D01*
X160472476Y-107584714D01*
X160662952Y-107632333D01*
X160805809Y-107632333D01*
X160996285Y-107584714D01*
X161091523Y-107537095D01*
X161186761Y-107441857D01*
X161234380Y-107299000D01*
X161234380Y-107203761D01*
X161186761Y-107060904D01*
X161139142Y-107013285D01*
X160805809Y-107013285D01*
X160805809Y-107203761D01*
X161234380Y-106584714D02*
X160234380Y-106584714D01*
X161234380Y-106013285D01*
X160234380Y-106013285D01*
X161234380Y-105537095D02*
X160234380Y-105537095D01*
X160234380Y-105299000D01*
X160282000Y-105156142D01*
X160377238Y-105060904D01*
X160472476Y-105013285D01*
X160662952Y-104965666D01*
X160805809Y-104965666D01*
X160996285Y-105013285D01*
X161091523Y-105060904D01*
X161186761Y-105156142D01*
X161234380Y-105299000D01*
X161234380Y-105537095D01*
X157694380Y-107505333D02*
X158694380Y-107172000D01*
X157694380Y-106838666D01*
X158694380Y-106505333D02*
X157694380Y-106505333D01*
X157694380Y-106267238D01*
X157742000Y-106124380D01*
X157837238Y-106029142D01*
X157932476Y-105981523D01*
X158122952Y-105933904D01*
X158265809Y-105933904D01*
X158456285Y-105981523D01*
X158551523Y-106029142D01*
X158646761Y-106124380D01*
X158694380Y-106267238D01*
X158694380Y-106505333D01*
X158694380Y-105505333D02*
X157694380Y-105505333D01*
X157694380Y-105267238D01*
X157742000Y-105124380D01*
X157837238Y-105029142D01*
X157932476Y-104981523D01*
X158122952Y-104933904D01*
X158265809Y-104933904D01*
X158456285Y-104981523D01*
X158551523Y-105029142D01*
X158646761Y-105124380D01*
X158694380Y-105267238D01*
X158694380Y-105505333D01*
X142010142Y-106513761D02*
X142153000Y-106561380D01*
X142391095Y-106561380D01*
X142486333Y-106513761D01*
X142533952Y-106466142D01*
X142581571Y-106370904D01*
X142581571Y-106275666D01*
X142533952Y-106180428D01*
X142486333Y-106132809D01*
X142391095Y-106085190D01*
X142200619Y-106037571D01*
X142105380Y-105989952D01*
X142057761Y-105942333D01*
X142010142Y-105847095D01*
X142010142Y-105751857D01*
X142057761Y-105656619D01*
X142105380Y-105609000D01*
X142200619Y-105561380D01*
X142438714Y-105561380D01*
X142581571Y-105609000D01*
X142867285Y-105894714D02*
X143248238Y-105894714D01*
X143010142Y-105561380D02*
X143010142Y-106418523D01*
X143057761Y-106513761D01*
X143153000Y-106561380D01*
X143248238Y-106561380D01*
X143962523Y-106513761D02*
X143867285Y-106561380D01*
X143676809Y-106561380D01*
X143581571Y-106513761D01*
X143533952Y-106418523D01*
X143533952Y-106037571D01*
X143581571Y-105942333D01*
X143676809Y-105894714D01*
X143867285Y-105894714D01*
X143962523Y-105942333D01*
X144010142Y-106037571D01*
X144010142Y-106132809D01*
X143533952Y-106228047D01*
X144438714Y-105894714D02*
X144438714Y-106894714D01*
X144438714Y-105942333D02*
X144533952Y-105894714D01*
X144724428Y-105894714D01*
X144819666Y-105942333D01*
X144867285Y-105989952D01*
X144914904Y-106085190D01*
X144914904Y-106370904D01*
X144867285Y-106466142D01*
X144819666Y-106513761D01*
X144724428Y-106561380D01*
X144533952Y-106561380D01*
X144438714Y-106513761D01*
X145343476Y-105894714D02*
X145343476Y-106894714D01*
X145343476Y-105942333D02*
X145438714Y-105894714D01*
X145629190Y-105894714D01*
X145724428Y-105942333D01*
X145772047Y-105989952D01*
X145819666Y-106085190D01*
X145819666Y-106370904D01*
X145772047Y-106466142D01*
X145724428Y-106513761D01*
X145629190Y-106561380D01*
X145438714Y-106561380D01*
X145343476Y-106513761D01*
X146629190Y-106513761D02*
X146533952Y-106561380D01*
X146343476Y-106561380D01*
X146248238Y-106513761D01*
X146200619Y-106418523D01*
X146200619Y-106037571D01*
X146248238Y-105942333D01*
X146343476Y-105894714D01*
X146533952Y-105894714D01*
X146629190Y-105942333D01*
X146676809Y-106037571D01*
X146676809Y-106132809D01*
X146200619Y-106228047D01*
X147105380Y-106561380D02*
X147105380Y-105894714D01*
X147105380Y-106085190D02*
X147153000Y-105989952D01*
X147200619Y-105942333D01*
X147295857Y-105894714D01*
X147391095Y-105894714D01*
X142367285Y-108163761D02*
X142510142Y-108211380D01*
X142748238Y-108211380D01*
X142843476Y-108163761D01*
X142891095Y-108116142D01*
X142938714Y-108020904D01*
X142938714Y-107925666D01*
X142891095Y-107830428D01*
X142843476Y-107782809D01*
X142748238Y-107735190D01*
X142557761Y-107687571D01*
X142462523Y-107639952D01*
X142414904Y-107592333D01*
X142367285Y-107497095D01*
X142367285Y-107401857D01*
X142414904Y-107306619D01*
X142462523Y-107259000D01*
X142557761Y-107211380D01*
X142795857Y-107211380D01*
X142938714Y-107259000D01*
X143795857Y-107544714D02*
X143795857Y-108211380D01*
X143367285Y-107544714D02*
X143367285Y-108068523D01*
X143414904Y-108163761D01*
X143510142Y-108211380D01*
X143653000Y-108211380D01*
X143748238Y-108163761D01*
X143795857Y-108116142D01*
X144272047Y-107544714D02*
X144272047Y-108544714D01*
X144272047Y-107592333D02*
X144367285Y-107544714D01*
X144557761Y-107544714D01*
X144653000Y-107592333D01*
X144700619Y-107639952D01*
X144748238Y-107735190D01*
X144748238Y-108020904D01*
X144700619Y-108116142D01*
X144653000Y-108163761D01*
X144557761Y-108211380D01*
X144367285Y-108211380D01*
X144272047Y-108163761D01*
X145176809Y-107544714D02*
X145176809Y-108544714D01*
X145176809Y-107592333D02*
X145272047Y-107544714D01*
X145462523Y-107544714D01*
X145557761Y-107592333D01*
X145605380Y-107639952D01*
X145653000Y-107735190D01*
X145653000Y-108020904D01*
X145605380Y-108116142D01*
X145557761Y-108163761D01*
X145462523Y-108211380D01*
X145272047Y-108211380D01*
X145176809Y-108163761D01*
X146224428Y-108211380D02*
X146129190Y-108163761D01*
X146081571Y-108068523D01*
X146081571Y-107211380D01*
X146510142Y-107544714D02*
X146748238Y-108211380D01*
X146986333Y-107544714D02*
X146748238Y-108211380D01*
X146653000Y-108449476D01*
X146605380Y-108497095D01*
X146510142Y-108544714D01*
D11*
X155702000Y-106172000D02*
X154813000Y-106172000D01*
X155702000Y-104648000D02*
X155702000Y-106172000D01*
X148082000Y-106172000D02*
X148971000Y-106172000D01*
X148082000Y-104775000D02*
X148082000Y-106172000D01*
D12*
X149249142Y-106513761D02*
X149392000Y-106561380D01*
X149630095Y-106561380D01*
X149725333Y-106513761D01*
X149772952Y-106466142D01*
X149820571Y-106370904D01*
X149820571Y-106275666D01*
X149772952Y-106180428D01*
X149725333Y-106132809D01*
X149630095Y-106085190D01*
X149439619Y-106037571D01*
X149344380Y-105989952D01*
X149296761Y-105942333D01*
X149249142Y-105847095D01*
X149249142Y-105751857D01*
X149296761Y-105656619D01*
X149344380Y-105609000D01*
X149439619Y-105561380D01*
X149677714Y-105561380D01*
X149820571Y-105609000D01*
X150106285Y-105894714D02*
X150487238Y-105894714D01*
X150249142Y-105561380D02*
X150249142Y-106418523D01*
X150296761Y-106513761D01*
X150392000Y-106561380D01*
X150487238Y-106561380D01*
X151201523Y-106513761D02*
X151106285Y-106561380D01*
X150915809Y-106561380D01*
X150820571Y-106513761D01*
X150772952Y-106418523D01*
X150772952Y-106037571D01*
X150820571Y-105942333D01*
X150915809Y-105894714D01*
X151106285Y-105894714D01*
X151201523Y-105942333D01*
X151249142Y-106037571D01*
X151249142Y-106132809D01*
X150772952Y-106228047D01*
X151677714Y-105894714D02*
X151677714Y-106894714D01*
X151677714Y-105942333D02*
X151772952Y-105894714D01*
X151963428Y-105894714D01*
X152058666Y-105942333D01*
X152106285Y-105989952D01*
X152153904Y-106085190D01*
X152153904Y-106370904D01*
X152106285Y-106466142D01*
X152058666Y-106513761D01*
X151963428Y-106561380D01*
X151772952Y-106561380D01*
X151677714Y-106513761D01*
X152582476Y-105894714D02*
X152582476Y-106894714D01*
X152582476Y-105942333D02*
X152677714Y-105894714D01*
X152868190Y-105894714D01*
X152963428Y-105942333D01*
X153011047Y-105989952D01*
X153058666Y-106085190D01*
X153058666Y-106370904D01*
X153011047Y-106466142D01*
X152963428Y-106513761D01*
X152868190Y-106561380D01*
X152677714Y-106561380D01*
X152582476Y-106513761D01*
X153868190Y-106513761D02*
X153772952Y-106561380D01*
X153582476Y-106561380D01*
X153487238Y-106513761D01*
X153439619Y-106418523D01*
X153439619Y-106037571D01*
X153487238Y-105942333D01*
X153582476Y-105894714D01*
X153772952Y-105894714D01*
X153868190Y-105942333D01*
X153915809Y-106037571D01*
X153915809Y-106132809D01*
X153439619Y-106228047D01*
X154344380Y-106561380D02*
X154344380Y-105894714D01*
X154344380Y-106085190D02*
X154392000Y-105989952D01*
X154439619Y-105942333D01*
X154534857Y-105894714D01*
X154630095Y-105894714D01*
X149463428Y-107211380D02*
X149653904Y-107211380D01*
X149749142Y-107259000D01*
X149844380Y-107354238D01*
X149892000Y-107544714D01*
X149892000Y-107878047D01*
X149844380Y-108068523D01*
X149749142Y-108163761D01*
X149653904Y-108211380D01*
X149463428Y-108211380D01*
X149368190Y-108163761D01*
X149272952Y-108068523D01*
X149225333Y-107878047D01*
X149225333Y-107544714D01*
X149272952Y-107354238D01*
X149368190Y-107259000D01*
X149463428Y-107211380D01*
X150749142Y-107544714D02*
X150749142Y-108211380D01*
X150320571Y-107544714D02*
X150320571Y-108068523D01*
X150368190Y-108163761D01*
X150463428Y-108211380D01*
X150606285Y-108211380D01*
X150701523Y-108163761D01*
X150749142Y-108116142D01*
X151082476Y-107544714D02*
X151463428Y-107544714D01*
X151225333Y-107211380D02*
X151225333Y-108068523D01*
X151272952Y-108163761D01*
X151368190Y-108211380D01*
X151463428Y-108211380D01*
X151796761Y-107544714D02*
X151796761Y-108544714D01*
X151796761Y-107592333D02*
X151892000Y-107544714D01*
X152082476Y-107544714D01*
X152177714Y-107592333D01*
X152225333Y-107639952D01*
X152272952Y-107735190D01*
X152272952Y-108020904D01*
X152225333Y-108116142D01*
X152177714Y-108163761D01*
X152082476Y-108211380D01*
X151892000Y-108211380D01*
X151796761Y-108163761D01*
X153130095Y-107544714D02*
X153130095Y-108211380D01*
X152701523Y-107544714D02*
X152701523Y-108068523D01*
X152749142Y-108163761D01*
X152844380Y-108211380D01*
X152987238Y-108211380D01*
X153082476Y-108163761D01*
X153130095Y-108116142D01*
X153463428Y-107544714D02*
X153844380Y-107544714D01*
X153606285Y-107211380D02*
X153606285Y-108068523D01*
X153653904Y-108163761D01*
X153749142Y-108211380D01*
X153844380Y-108211380D01*
X154130095Y-108163761D02*
X154225333Y-108211380D01*
X154415809Y-108211380D01*
X154511047Y-108163761D01*
X154558666Y-108068523D01*
X154558666Y-108020904D01*
X154511047Y-107925666D01*
X154415809Y-107878047D01*
X154272952Y-107878047D01*
X154177714Y-107830428D01*
X154130095Y-107735190D01*
X154130095Y-107687571D01*
X154177714Y-107592333D01*
X154272952Y-107544714D01*
X154415809Y-107544714D01*
X154511047Y-107592333D01*
X161234380Y-114284000D02*
X160234380Y-114284000D01*
X160234380Y-114045904D01*
X160282000Y-113903047D01*
X160377238Y-113807809D01*
X160472476Y-113760190D01*
X160662952Y-113712571D01*
X160805809Y-113712571D01*
X160996285Y-113760190D01*
X161091523Y-113807809D01*
X161186761Y-113903047D01*
X161234380Y-114045904D01*
X161234380Y-114284000D01*
X161234380Y-113284000D02*
X160234380Y-113284000D01*
X161234380Y-112236380D02*
X160758190Y-112569714D01*
X161234380Y-112807809D02*
X160234380Y-112807809D01*
X160234380Y-112426857D01*
X160282000Y-112331619D01*
X160329619Y-112284000D01*
X160424857Y-112236380D01*
X160567714Y-112236380D01*
X160662952Y-112284000D01*
X160710571Y-112331619D01*
X160758190Y-112426857D01*
X160758190Y-112807809D01*
X158519761Y-114268047D02*
X158567380Y-114125190D01*
X158567380Y-113887095D01*
X158519761Y-113791857D01*
X158472142Y-113744238D01*
X158376904Y-113696619D01*
X158281666Y-113696619D01*
X158186428Y-113744238D01*
X158138809Y-113791857D01*
X158091190Y-113887095D01*
X158043571Y-114077571D01*
X157995952Y-114172809D01*
X157948333Y-114220428D01*
X157853095Y-114268047D01*
X157757857Y-114268047D01*
X157662619Y-114220428D01*
X157615000Y-114172809D01*
X157567380Y-114077571D01*
X157567380Y-113839476D01*
X157615000Y-113696619D01*
X157567380Y-113410904D02*
X157567380Y-112839476D01*
X158567380Y-113125190D02*
X157567380Y-113125190D01*
X158043571Y-112506142D02*
X158043571Y-112172809D01*
X158567380Y-112029952D02*
X158567380Y-112506142D01*
X157567380Y-112506142D01*
X157567380Y-112029952D01*
X158567380Y-111601380D02*
X157567380Y-111601380D01*
X157567380Y-111220428D01*
X157615000Y-111125190D01*
X157662619Y-111077571D01*
X157757857Y-111029952D01*
X157900714Y-111029952D01*
X157995952Y-111077571D01*
X158043571Y-111125190D01*
X158091190Y-111220428D01*
X158091190Y-111601380D01*
D11*
X158750000Y-109220000D02*
X160274000Y-109220000D01*
X159512000Y-108458000D02*
X159512000Y-109982000D01*
X160682882Y-109220000D02*
G75*
G03*
X160682882Y-109220000I-1170882J0D01*
G01*
X162043420Y-104558140D02*
X162043420Y-114598140D01*
X141603420Y-117221000D02*
X144203420Y-117221000D01*
X141603420Y-114598140D02*
X141603420Y-117221000D01*
X141605000Y-114598140D02*
X141603420Y-114598140D01*
X141605000Y-103251000D02*
X141605000Y-114598140D01*
D12*
X136231380Y-142167761D02*
X136231380Y-141596333D01*
X137231380Y-141882047D02*
X136231380Y-141882047D01*
X137231380Y-141120142D02*
X137183761Y-141215380D01*
X137136142Y-141263000D01*
X137040904Y-141310619D01*
X136755190Y-141310619D01*
X136659952Y-141263000D01*
X136612333Y-141215380D01*
X136564714Y-141120142D01*
X136564714Y-140977285D01*
X136612333Y-140882047D01*
X136659952Y-140834428D01*
X136755190Y-140786809D01*
X137040904Y-140786809D01*
X137136142Y-140834428D01*
X137183761Y-140882047D01*
X137231380Y-140977285D01*
X137231380Y-141120142D01*
X137183761Y-139643952D02*
X137231380Y-139501095D01*
X137231380Y-139263000D01*
X137183761Y-139167761D01*
X137136142Y-139120142D01*
X137040904Y-139072523D01*
X136945666Y-139072523D01*
X136850428Y-139120142D01*
X136802809Y-139167761D01*
X136755190Y-139263000D01*
X136707571Y-139453476D01*
X136659952Y-139548714D01*
X136612333Y-139596333D01*
X136517095Y-139643952D01*
X136421857Y-139643952D01*
X136326619Y-139596333D01*
X136279000Y-139548714D01*
X136231380Y-139453476D01*
X136231380Y-139215380D01*
X136279000Y-139072523D01*
X136564714Y-138786809D02*
X136564714Y-138405857D01*
X136231380Y-138643952D02*
X137088523Y-138643952D01*
X137183761Y-138596333D01*
X137231380Y-138501095D01*
X137231380Y-138405857D01*
X137183761Y-137691571D02*
X137231380Y-137786809D01*
X137231380Y-137977285D01*
X137183761Y-138072523D01*
X137088523Y-138120142D01*
X136707571Y-138120142D01*
X136612333Y-138072523D01*
X136564714Y-137977285D01*
X136564714Y-137786809D01*
X136612333Y-137691571D01*
X136707571Y-137643952D01*
X136802809Y-137643952D01*
X136898047Y-138120142D01*
X136564714Y-137215380D02*
X137564714Y-137215380D01*
X136612333Y-137215380D02*
X136564714Y-137120142D01*
X136564714Y-136929666D01*
X136612333Y-136834428D01*
X136659952Y-136786809D01*
X136755190Y-136739190D01*
X137040904Y-136739190D01*
X137136142Y-136786809D01*
X137183761Y-136834428D01*
X137231380Y-136929666D01*
X137231380Y-137120142D01*
X137183761Y-137215380D01*
X136564714Y-136310619D02*
X137564714Y-136310619D01*
X136612333Y-136310619D02*
X136564714Y-136215380D01*
X136564714Y-136024904D01*
X136612333Y-135929666D01*
X136659952Y-135882047D01*
X136755190Y-135834428D01*
X137040904Y-135834428D01*
X137136142Y-135882047D01*
X137183761Y-135929666D01*
X137231380Y-136024904D01*
X137231380Y-136215380D01*
X137183761Y-136310619D01*
X137183761Y-135024904D02*
X137231380Y-135120142D01*
X137231380Y-135310619D01*
X137183761Y-135405857D01*
X137088523Y-135453476D01*
X136707571Y-135453476D01*
X136612333Y-135405857D01*
X136564714Y-135310619D01*
X136564714Y-135120142D01*
X136612333Y-135024904D01*
X136707571Y-134977285D01*
X136802809Y-134977285D01*
X136898047Y-135453476D01*
X137231380Y-134548714D02*
X136564714Y-134548714D01*
X136755190Y-134548714D02*
X136659952Y-134501095D01*
X136612333Y-134453476D01*
X136564714Y-134358238D01*
X136564714Y-134263000D01*
X137231380Y-133167761D02*
X136231380Y-133167761D01*
X136945666Y-132834428D01*
X136231380Y-132501095D01*
X137231380Y-132501095D01*
X137231380Y-131882047D02*
X137183761Y-131977285D01*
X137136142Y-132024904D01*
X137040904Y-132072523D01*
X136755190Y-132072523D01*
X136659952Y-132024904D01*
X136612333Y-131977285D01*
X136564714Y-131882047D01*
X136564714Y-131739190D01*
X136612333Y-131643952D01*
X136659952Y-131596333D01*
X136755190Y-131548714D01*
X137040904Y-131548714D01*
X137136142Y-131596333D01*
X137183761Y-131643952D01*
X137231380Y-131739190D01*
X137231380Y-131882047D01*
X136564714Y-131263000D02*
X136564714Y-130882047D01*
X136231380Y-131120142D02*
X137088523Y-131120142D01*
X137183761Y-131072523D01*
X137231380Y-130977285D01*
X137231380Y-130882047D01*
X137231380Y-130405857D02*
X137183761Y-130501095D01*
X137136142Y-130548714D01*
X137040904Y-130596333D01*
X136755190Y-130596333D01*
X136659952Y-130548714D01*
X136612333Y-130501095D01*
X136564714Y-130405857D01*
X136564714Y-130263000D01*
X136612333Y-130167761D01*
X136659952Y-130120142D01*
X136755190Y-130072523D01*
X137040904Y-130072523D01*
X137136142Y-130120142D01*
X137183761Y-130167761D01*
X137231380Y-130263000D01*
X137231380Y-130405857D01*
X137231380Y-129643952D02*
X136564714Y-129643952D01*
X136755190Y-129643952D02*
X136659952Y-129596333D01*
X136612333Y-129548714D01*
X136564714Y-129453476D01*
X136564714Y-129358238D01*
X166584380Y-107632285D02*
X166584380Y-107537047D01*
X166632000Y-107441809D01*
X166679619Y-107394190D01*
X166774857Y-107346571D01*
X166965333Y-107298952D01*
X167203428Y-107298952D01*
X167393904Y-107346571D01*
X167489142Y-107394190D01*
X167536761Y-107441809D01*
X167584380Y-107537047D01*
X167584380Y-107632285D01*
X167536761Y-107727523D01*
X167489142Y-107775142D01*
X167393904Y-107822761D01*
X167203428Y-107870380D01*
X166965333Y-107870380D01*
X166774857Y-107822761D01*
X166679619Y-107775142D01*
X166632000Y-107727523D01*
X166584380Y-107632285D01*
X167489142Y-106870380D02*
X167536761Y-106822761D01*
X167584380Y-106870380D01*
X167536761Y-106918000D01*
X167489142Y-106870380D01*
X167584380Y-106870380D01*
X167584380Y-105870380D02*
X167584380Y-106441809D01*
X167584380Y-106156095D02*
X166584380Y-106156095D01*
X166727238Y-106251333D01*
X166822476Y-106346571D01*
X166870095Y-106441809D01*
X166917714Y-105441809D02*
X167917714Y-105441809D01*
X167441523Y-104965619D02*
X167536761Y-104918000D01*
X167584380Y-104822761D01*
X167441523Y-105441809D02*
X167536761Y-105394190D01*
X167584380Y-105298952D01*
X167584380Y-105108476D01*
X167536761Y-105013238D01*
X167441523Y-104965619D01*
X166917714Y-104965619D01*
X167060571Y-104060857D02*
X167060571Y-104394190D01*
X167584380Y-104394190D02*
X166584380Y-104394190D01*
X166584380Y-103918000D01*
X166584380Y-122618285D02*
X166584380Y-122523047D01*
X166632000Y-122427809D01*
X166679619Y-122380190D01*
X166774857Y-122332571D01*
X166965333Y-122284952D01*
X167203428Y-122284952D01*
X167393904Y-122332571D01*
X167489142Y-122380190D01*
X167536761Y-122427809D01*
X167584380Y-122523047D01*
X167584380Y-122618285D01*
X167536761Y-122713523D01*
X167489142Y-122761142D01*
X167393904Y-122808761D01*
X167203428Y-122856380D01*
X166965333Y-122856380D01*
X166774857Y-122808761D01*
X166679619Y-122761142D01*
X166632000Y-122713523D01*
X166584380Y-122618285D01*
X167489142Y-121856380D02*
X167536761Y-121808761D01*
X167584380Y-121856380D01*
X167536761Y-121904000D01*
X167489142Y-121856380D01*
X167584380Y-121856380D01*
X167584380Y-120856380D02*
X167584380Y-121427809D01*
X167584380Y-121142095D02*
X166584380Y-121142095D01*
X166727238Y-121237333D01*
X166822476Y-121332571D01*
X166870095Y-121427809D01*
X166917714Y-120427809D02*
X167917714Y-120427809D01*
X167441523Y-119951619D02*
X167536761Y-119904000D01*
X167584380Y-119808761D01*
X167441523Y-120427809D02*
X167536761Y-120380190D01*
X167584380Y-120284952D01*
X167584380Y-120094476D01*
X167536761Y-119999238D01*
X167441523Y-119951619D01*
X166917714Y-119951619D01*
X167060571Y-119046857D02*
X167060571Y-119380190D01*
X167584380Y-119380190D02*
X166584380Y-119380190D01*
X166584380Y-118904000D01*
D11*
X184404000Y-132842000D02*
X182880000Y-134874000D01*
X184404000Y-132842000D02*
X182880000Y-130556000D01*
X180340000Y-132842000D02*
X184404000Y-132842000D01*
D13*
X177466761Y-135365809D02*
X179085809Y-135365809D01*
X179276285Y-135270571D01*
X179371523Y-135175333D01*
X179466761Y-134984857D01*
X179466761Y-134603904D01*
X179371523Y-134413428D01*
X179276285Y-134318190D01*
X179085809Y-134222952D01*
X177466761Y-134222952D01*
X179371523Y-133365809D02*
X179466761Y-133080095D01*
X179466761Y-132603904D01*
X179371523Y-132413428D01*
X179276285Y-132318190D01*
X179085809Y-132222952D01*
X178895333Y-132222952D01*
X178704857Y-132318190D01*
X178609619Y-132413428D01*
X178514380Y-132603904D01*
X178419142Y-132984857D01*
X178323904Y-133175333D01*
X178228666Y-133270571D01*
X178038190Y-133365809D01*
X177847714Y-133365809D01*
X177657238Y-133270571D01*
X177562000Y-133175333D01*
X177466761Y-132984857D01*
X177466761Y-132508666D01*
X177562000Y-132222952D01*
X178419142Y-130699142D02*
X178514380Y-130413428D01*
X178609619Y-130318190D01*
X178800095Y-130222952D01*
X179085809Y-130222952D01*
X179276285Y-130318190D01*
X179371523Y-130413428D01*
X179466761Y-130603904D01*
X179466761Y-131365809D01*
X177466761Y-131365809D01*
X177466761Y-130699142D01*
X177562000Y-130508666D01*
X177657238Y-130413428D01*
X177847714Y-130318190D01*
X178038190Y-130318190D01*
X178228666Y-130413428D01*
X178323904Y-130508666D01*
X178419142Y-130699142D01*
X178419142Y-131365809D01*
D11*
X146050000Y-135128000D02*
G75*
G03*
X146050000Y-135128000I-762000J0D01*
G01*
X143510000Y-135128000D02*
G75*
G03*
X143510000Y-135128000I-762000J0D01*
G01*
X146050000Y-130556000D02*
G75*
G03*
X146050000Y-130556000I-762000J0D01*
G01*
X143510000Y-130556000D02*
G75*
G03*
X143510000Y-130556000I-762000J0D01*
G01*
X143510000Y-132842000D02*
G75*
G03*
X143510000Y-132842000I-762000J0D01*
G01*
X146050000Y-132842000D02*
G75*
G03*
X146050000Y-132842000I-762000J0D01*
G01*
X146558000Y-136398000D02*
X146558000Y-129286000D01*
X141478000Y-136398000D02*
X146558000Y-136398000D01*
X141478000Y-129286000D02*
X141478000Y-136398000D01*
X146558000Y-129286000D02*
X141478000Y-129286000D01*
X161246420Y-132842000D02*
G75*
G03*
X161246420Y-132842000I-718420J0D01*
G01*
X159512000Y-134874000D02*
X159512000Y-130810000D01*
X161544000Y-134874000D02*
X159512000Y-134874000D01*
X161544000Y-132842000D02*
X161544000Y-134874000D01*
X161544000Y-130810000D02*
X159512000Y-130810000D01*
X161544000Y-132842000D02*
X161544000Y-130810000D01*
X168148000Y-137922000D02*
X173228000Y-132842000D01*
X163068000Y-132842000D02*
X168148000Y-137922000D01*
X168148000Y-127762000D02*
X163068000Y-132842000D01*
X173228000Y-132842000D02*
X168148000Y-127762000D01*
X177038000Y-136398000D02*
X184912000Y-136398000D01*
X177038000Y-129286000D02*
X177038000Y-136398000D01*
X184912000Y-129286000D02*
X177038000Y-129286000D01*
D12*
X165679380Y-114260238D02*
X165679380Y-114831666D01*
X165679380Y-114545952D02*
X164679380Y-114545952D01*
X164822238Y-114641190D01*
X164917476Y-114736428D01*
X164965095Y-114831666D01*
X164679380Y-113641190D02*
X164679380Y-113545952D01*
X164727000Y-113450714D01*
X164774619Y-113403095D01*
X164869857Y-113355476D01*
X165060333Y-113307857D01*
X165298428Y-113307857D01*
X165488904Y-113355476D01*
X165584142Y-113403095D01*
X165631761Y-113450714D01*
X165679380Y-113545952D01*
X165679380Y-113641190D01*
X165631761Y-113736428D01*
X165584142Y-113784047D01*
X165488904Y-113831666D01*
X165298428Y-113879285D01*
X165060333Y-113879285D01*
X164869857Y-113831666D01*
X164774619Y-113784047D01*
X164727000Y-113736428D01*
X164679380Y-113641190D01*
X165679380Y-112879285D02*
X164679380Y-112879285D01*
X165298428Y-112784047D02*
X165679380Y-112498333D01*
X165012714Y-112498333D02*
X165393666Y-112879285D01*
X144622238Y-101258666D02*
X145098428Y-101258666D01*
X144527000Y-101544380D02*
X144860333Y-100544380D01*
X145193666Y-101544380D01*
X145955571Y-100877714D02*
X145955571Y-101544380D01*
X145717476Y-100496761D02*
X145479380Y-101211047D01*
X146098428Y-101211047D01*
X146527000Y-101544380D02*
X146717476Y-101544380D01*
X146812714Y-101496761D01*
X146860333Y-101449142D01*
X146955571Y-101306285D01*
X147003190Y-101115809D01*
X147003190Y-100734857D01*
X146955571Y-100639619D01*
X146907952Y-100592000D01*
X146812714Y-100544380D01*
X146622238Y-100544380D01*
X146527000Y-100592000D01*
X146479380Y-100639619D01*
X146431761Y-100734857D01*
X146431761Y-100972952D01*
X146479380Y-101068190D01*
X146527000Y-101115809D01*
X146622238Y-101163428D01*
X146812714Y-101163428D01*
X146907952Y-101115809D01*
X146955571Y-101068190D01*
X147003190Y-100972952D01*
X147574619Y-100972952D02*
X147479380Y-100925333D01*
X147431761Y-100877714D01*
X147384142Y-100782476D01*
X147384142Y-100734857D01*
X147431761Y-100639619D01*
X147479380Y-100592000D01*
X147574619Y-100544380D01*
X147765095Y-100544380D01*
X147860333Y-100592000D01*
X147907952Y-100639619D01*
X147955571Y-100734857D01*
X147955571Y-100782476D01*
X147907952Y-100877714D01*
X147860333Y-100925333D01*
X147765095Y-100972952D01*
X147574619Y-100972952D01*
X147479380Y-101020571D01*
X147431761Y-101068190D01*
X147384142Y-101163428D01*
X147384142Y-101353904D01*
X147431761Y-101449142D01*
X147479380Y-101496761D01*
X147574619Y-101544380D01*
X147765095Y-101544380D01*
X147860333Y-101496761D01*
X147907952Y-101449142D01*
X147955571Y-101353904D01*
X147955571Y-101163428D01*
X147907952Y-101068190D01*
X147860333Y-101020571D01*
X147765095Y-100972952D01*
X148527000Y-100972952D02*
X148431761Y-100925333D01*
X148384142Y-100877714D01*
X148336523Y-100782476D01*
X148336523Y-100734857D01*
X148384142Y-100639619D01*
X148431761Y-100592000D01*
X148527000Y-100544380D01*
X148717476Y-100544380D01*
X148812714Y-100592000D01*
X148860333Y-100639619D01*
X148907952Y-100734857D01*
X148907952Y-100782476D01*
X148860333Y-100877714D01*
X148812714Y-100925333D01*
X148717476Y-100972952D01*
X148527000Y-100972952D01*
X148431761Y-101020571D01*
X148384142Y-101068190D01*
X148336523Y-101163428D01*
X148336523Y-101353904D01*
X148384142Y-101449142D01*
X148431761Y-101496761D01*
X148527000Y-101544380D01*
X148717476Y-101544380D01*
X148812714Y-101496761D01*
X148860333Y-101449142D01*
X148907952Y-101353904D01*
X148907952Y-101163428D01*
X148860333Y-101068190D01*
X148812714Y-101020571D01*
X148717476Y-100972952D01*
X150050809Y-101496761D02*
X150193666Y-101544380D01*
X150431761Y-101544380D01*
X150527000Y-101496761D01*
X150574619Y-101449142D01*
X150622238Y-101353904D01*
X150622238Y-101258666D01*
X150574619Y-101163428D01*
X150527000Y-101115809D01*
X150431761Y-101068190D01*
X150241285Y-101020571D01*
X150146047Y-100972952D01*
X150098428Y-100925333D01*
X150050809Y-100830095D01*
X150050809Y-100734857D01*
X150098428Y-100639619D01*
X150146047Y-100592000D01*
X150241285Y-100544380D01*
X150479380Y-100544380D01*
X150622238Y-100592000D01*
X150907952Y-100877714D02*
X151288904Y-100877714D01*
X151050809Y-100544380D02*
X151050809Y-101401523D01*
X151098428Y-101496761D01*
X151193666Y-101544380D01*
X151288904Y-101544380D01*
X152003190Y-101496761D02*
X151907952Y-101544380D01*
X151717476Y-101544380D01*
X151622238Y-101496761D01*
X151574619Y-101401523D01*
X151574619Y-101020571D01*
X151622238Y-100925333D01*
X151717476Y-100877714D01*
X151907952Y-100877714D01*
X152003190Y-100925333D01*
X152050809Y-101020571D01*
X152050809Y-101115809D01*
X151574619Y-101211047D01*
X152479380Y-100877714D02*
X152479380Y-101877714D01*
X152479380Y-100925333D02*
X152574619Y-100877714D01*
X152765095Y-100877714D01*
X152860333Y-100925333D01*
X152907952Y-100972952D01*
X152955571Y-101068190D01*
X152955571Y-101353904D01*
X152907952Y-101449142D01*
X152860333Y-101496761D01*
X152765095Y-101544380D01*
X152574619Y-101544380D01*
X152479380Y-101496761D01*
X153384142Y-100877714D02*
X153384142Y-101877714D01*
X153384142Y-100925333D02*
X153479380Y-100877714D01*
X153669857Y-100877714D01*
X153765095Y-100925333D01*
X153812714Y-100972952D01*
X153860333Y-101068190D01*
X153860333Y-101353904D01*
X153812714Y-101449142D01*
X153765095Y-101496761D01*
X153669857Y-101544380D01*
X153479380Y-101544380D01*
X153384142Y-101496761D01*
X154669857Y-101496761D02*
X154574619Y-101544380D01*
X154384142Y-101544380D01*
X154288904Y-101496761D01*
X154241285Y-101401523D01*
X154241285Y-101020571D01*
X154288904Y-100925333D01*
X154384142Y-100877714D01*
X154574619Y-100877714D01*
X154669857Y-100925333D01*
X154717476Y-101020571D01*
X154717476Y-101115809D01*
X154241285Y-101211047D01*
X155146047Y-101544380D02*
X155146047Y-100877714D01*
X155146047Y-101068190D02*
X155193666Y-100972952D01*
X155241285Y-100925333D01*
X155336523Y-100877714D01*
X155431761Y-100877714D01*
X156527000Y-101544380D02*
X156527000Y-100544380D01*
X156765095Y-100544380D01*
X156907952Y-100592000D01*
X157003190Y-100687238D01*
X157050809Y-100782476D01*
X157098428Y-100972952D01*
X157098428Y-101115809D01*
X157050809Y-101306285D01*
X157003190Y-101401523D01*
X156907952Y-101496761D01*
X156765095Y-101544380D01*
X156527000Y-101544380D01*
X157527000Y-101544380D02*
X157527000Y-100877714D01*
X157527000Y-101068190D02*
X157574619Y-100972952D01*
X157622238Y-100925333D01*
X157717476Y-100877714D01*
X157812714Y-100877714D01*
X158146047Y-101544380D02*
X158146047Y-100877714D01*
X158146047Y-100544380D02*
X158098428Y-100592000D01*
X158146047Y-100639619D01*
X158193666Y-100592000D01*
X158146047Y-100544380D01*
X158146047Y-100639619D01*
X158527000Y-100877714D02*
X158765095Y-101544380D01*
X159003190Y-100877714D01*
X159765095Y-101496761D02*
X159669857Y-101544380D01*
X159479380Y-101544380D01*
X159384142Y-101496761D01*
X159336523Y-101401523D01*
X159336523Y-101020571D01*
X159384142Y-100925333D01*
X159479380Y-100877714D01*
X159669857Y-100877714D01*
X159765095Y-100925333D01*
X159812714Y-101020571D01*
X159812714Y-101115809D01*
X159336523Y-101211047D01*
X160241285Y-101544380D02*
X160241285Y-100877714D01*
X160241285Y-101068190D02*
X160288904Y-100972952D01*
X160336523Y-100925333D01*
X160431761Y-100877714D01*
X160527000Y-100877714D01*
X151709380Y-78930428D02*
X151233190Y-79263761D01*
X151709380Y-79501857D02*
X150709380Y-79501857D01*
X150709380Y-79120904D01*
X150757000Y-79025666D01*
X150804619Y-78978047D01*
X150899857Y-78930428D01*
X151042714Y-78930428D01*
X151137952Y-78978047D01*
X151185571Y-79025666D01*
X151233190Y-79120904D01*
X151233190Y-79501857D01*
X151185571Y-78501857D02*
X151185571Y-78168523D01*
X151709380Y-78025666D02*
X151709380Y-78501857D01*
X150709380Y-78501857D01*
X150709380Y-78025666D01*
X151185571Y-77263761D02*
X151185571Y-77597095D01*
X151709380Y-77597095D02*
X150709380Y-77597095D01*
X150709380Y-77120904D01*
X150915714Y-72747095D02*
X151915714Y-72747095D01*
X150963333Y-72747095D02*
X150915714Y-72651857D01*
X150915714Y-72461380D01*
X150963333Y-72366142D01*
X151010952Y-72318523D01*
X151106190Y-72270904D01*
X151391904Y-72270904D01*
X151487142Y-72318523D01*
X151534761Y-72366142D01*
X151582380Y-72461380D01*
X151582380Y-72651857D01*
X151534761Y-72747095D01*
X151582380Y-71842333D02*
X150582380Y-71842333D01*
X151058571Y-71842333D02*
X151058571Y-71270904D01*
X151582380Y-71270904D02*
X150582380Y-71270904D01*
X117705523Y-58412571D02*
X117848380Y-58460190D01*
X117896000Y-58507809D01*
X117943619Y-58603047D01*
X117943619Y-58745904D01*
X117896000Y-58841142D01*
X117848380Y-58888761D01*
X117753142Y-58936380D01*
X117372190Y-58936380D01*
X117372190Y-57936380D01*
X117705523Y-57936380D01*
X117800761Y-57984000D01*
X117848380Y-58031619D01*
X117896000Y-58126857D01*
X117896000Y-58222095D01*
X117848380Y-58317333D01*
X117800761Y-58364952D01*
X117705523Y-58412571D01*
X117372190Y-58412571D01*
X118372190Y-58936380D02*
X118372190Y-57936380D01*
X118943619Y-58936380D01*
X118943619Y-57936380D01*
X119991238Y-58841142D02*
X119943619Y-58888761D01*
X119800761Y-58936380D01*
X119705523Y-58936380D01*
X119562666Y-58888761D01*
X119467428Y-58793523D01*
X119419809Y-58698285D01*
X119372190Y-58507809D01*
X119372190Y-58364952D01*
X119419809Y-58174476D01*
X119467428Y-58079238D01*
X119562666Y-57984000D01*
X119705523Y-57936380D01*
X119800761Y-57936380D01*
X119943619Y-57984000D01*
X119991238Y-58031619D01*
X121181714Y-58269714D02*
X121181714Y-59269714D01*
X121181714Y-58317333D02*
X121276952Y-58269714D01*
X121467428Y-58269714D01*
X121562666Y-58317333D01*
X121610285Y-58364952D01*
X121657904Y-58460190D01*
X121657904Y-58745904D01*
X121610285Y-58841142D01*
X121562666Y-58888761D01*
X121467428Y-58936380D01*
X121276952Y-58936380D01*
X121181714Y-58888761D01*
X122086476Y-58936380D02*
X122086476Y-57936380D01*
X122086476Y-58412571D02*
X122657904Y-58412571D01*
X122657904Y-58936380D02*
X122657904Y-57936380D01*
X118491238Y-60586380D02*
X118491238Y-59586380D01*
X118872190Y-59586380D01*
X118967428Y-59634000D01*
X119015047Y-59681619D01*
X119062666Y-59776857D01*
X119062666Y-59919714D01*
X119015047Y-60014952D01*
X118967428Y-60062571D01*
X118872190Y-60110190D01*
X118491238Y-60110190D01*
X119491238Y-60586380D02*
X119491238Y-59919714D01*
X119491238Y-60110190D02*
X119538857Y-60014952D01*
X119586476Y-59967333D01*
X119681714Y-59919714D01*
X119776952Y-59919714D01*
X120253142Y-60586380D02*
X120157904Y-60538761D01*
X120110285Y-60491142D01*
X120062666Y-60395904D01*
X120062666Y-60110190D01*
X120110285Y-60014952D01*
X120157904Y-59967333D01*
X120253142Y-59919714D01*
X120396000Y-59919714D01*
X120491238Y-59967333D01*
X120538857Y-60014952D01*
X120586476Y-60110190D01*
X120586476Y-60395904D01*
X120538857Y-60491142D01*
X120491238Y-60538761D01*
X120396000Y-60586380D01*
X120253142Y-60586380D01*
X121015047Y-60586380D02*
X121015047Y-59586380D01*
X121015047Y-59967333D02*
X121110285Y-59919714D01*
X121300761Y-59919714D01*
X121396000Y-59967333D01*
X121443619Y-60014952D01*
X121491238Y-60110190D01*
X121491238Y-60395904D01*
X121443619Y-60491142D01*
X121396000Y-60538761D01*
X121300761Y-60586380D01*
X121110285Y-60586380D01*
X121015047Y-60538761D01*
X122300761Y-60538761D02*
X122205523Y-60586380D01*
X122015047Y-60586380D01*
X121919809Y-60538761D01*
X121872190Y-60443523D01*
X121872190Y-60062571D01*
X121919809Y-59967333D01*
X122015047Y-59919714D01*
X122205523Y-59919714D01*
X122300761Y-59967333D01*
X122348380Y-60062571D01*
X122348380Y-60157809D01*
X121872190Y-60253047D01*
D11*
X133119000Y-91388000D02*
X132611000Y-90880000D01*
X133119000Y-91388000D02*
X133627000Y-90880000D01*
X133119000Y-89102000D02*
X133119000Y-91388000D01*
D12*
X132746380Y-87482476D02*
X132746380Y-87958666D01*
X131746380Y-87958666D01*
X132746380Y-87149142D02*
X131746380Y-87149142D01*
X132460666Y-86815809D01*
X131746380Y-86482476D01*
X132746380Y-86482476D01*
X132651142Y-85434857D02*
X132698761Y-85482476D01*
X132746380Y-85625333D01*
X132746380Y-85720571D01*
X132698761Y-85863428D01*
X132603523Y-85958666D01*
X132508285Y-86006285D01*
X132317809Y-86053904D01*
X132174952Y-86053904D01*
X131984476Y-86006285D01*
X131889238Y-85958666D01*
X131794000Y-85863428D01*
X131746380Y-85720571D01*
X131746380Y-85625333D01*
X131794000Y-85482476D01*
X131841619Y-85434857D01*
X131746380Y-84577714D02*
X131746380Y-84768190D01*
X131794000Y-84863428D01*
X131841619Y-84911047D01*
X131984476Y-85006285D01*
X132174952Y-85053904D01*
X132555904Y-85053904D01*
X132651142Y-85006285D01*
X132698761Y-84958666D01*
X132746380Y-84863428D01*
X132746380Y-84672952D01*
X132698761Y-84577714D01*
X132651142Y-84530095D01*
X132555904Y-84482476D01*
X132317809Y-84482476D01*
X132222571Y-84530095D01*
X132174952Y-84577714D01*
X132127333Y-84672952D01*
X132127333Y-84863428D01*
X132174952Y-84958666D01*
X132222571Y-85006285D01*
X132317809Y-85053904D01*
X131746380Y-83625333D02*
X131746380Y-83815809D01*
X131794000Y-83911047D01*
X131841619Y-83958666D01*
X131984476Y-84053904D01*
X132174952Y-84101523D01*
X132555904Y-84101523D01*
X132651142Y-84053904D01*
X132698761Y-84006285D01*
X132746380Y-83911047D01*
X132746380Y-83720571D01*
X132698761Y-83625333D01*
X132651142Y-83577714D01*
X132555904Y-83530095D01*
X132317809Y-83530095D01*
X132222571Y-83577714D01*
X132174952Y-83625333D01*
X132127333Y-83720571D01*
X132127333Y-83911047D01*
X132174952Y-84006285D01*
X132222571Y-84053904D01*
X132317809Y-84101523D01*
X131841619Y-83149142D02*
X131794000Y-83101523D01*
X131746380Y-83006285D01*
X131746380Y-82768190D01*
X131794000Y-82672952D01*
X131841619Y-82625333D01*
X131936857Y-82577714D01*
X132032095Y-82577714D01*
X132174952Y-82625333D01*
X132746380Y-83196761D01*
X132746380Y-82577714D01*
X133396380Y-88411047D02*
X133396380Y-88220571D01*
X133444000Y-88125333D01*
X133539238Y-88030095D01*
X133729714Y-87982476D01*
X134063047Y-87982476D01*
X134253523Y-88030095D01*
X134348761Y-88125333D01*
X134396380Y-88220571D01*
X134396380Y-88411047D01*
X134348761Y-88506285D01*
X134253523Y-88601523D01*
X134063047Y-88649142D01*
X133729714Y-88649142D01*
X133539238Y-88601523D01*
X133444000Y-88506285D01*
X133396380Y-88411047D01*
X133729714Y-87553904D02*
X134729714Y-87553904D01*
X133777333Y-87553904D02*
X133729714Y-87458666D01*
X133729714Y-87268190D01*
X133777333Y-87172952D01*
X133824952Y-87125333D01*
X133920190Y-87077714D01*
X134205904Y-87077714D01*
X134301142Y-87125333D01*
X134348761Y-87172952D01*
X134396380Y-87268190D01*
X134396380Y-87458666D01*
X134348761Y-87553904D01*
X134015428Y-86649142D02*
X134015428Y-85887238D01*
X134110666Y-85458666D02*
X134110666Y-84982476D01*
X134396380Y-85553904D02*
X133396380Y-85220571D01*
X134396380Y-84887238D01*
X134396380Y-84553904D02*
X133729714Y-84553904D01*
X133824952Y-84553904D02*
X133777333Y-84506285D01*
X133729714Y-84411047D01*
X133729714Y-84268190D01*
X133777333Y-84172952D01*
X133872571Y-84125333D01*
X134396380Y-84125333D01*
X133872571Y-84125333D02*
X133777333Y-84077714D01*
X133729714Y-83982476D01*
X133729714Y-83839619D01*
X133777333Y-83744380D01*
X133872571Y-83696761D01*
X134396380Y-83696761D01*
X133729714Y-83220571D02*
X134729714Y-83220571D01*
X133777333Y-83220571D02*
X133729714Y-83125333D01*
X133729714Y-82934857D01*
X133777333Y-82839619D01*
X133824952Y-82792000D01*
X133920190Y-82744380D01*
X134205904Y-82744380D01*
X134301142Y-82792000D01*
X134348761Y-82839619D01*
X134396380Y-82934857D01*
X134396380Y-83125333D01*
X134348761Y-83220571D01*
X134348761Y-82363428D02*
X134396380Y-82268190D01*
X134396380Y-82077714D01*
X134348761Y-81982476D01*
X134253523Y-81934857D01*
X134205904Y-81934857D01*
X134110666Y-81982476D01*
X134063047Y-82077714D01*
X134063047Y-82220571D01*
X134015428Y-82315809D01*
X133920190Y-82363428D01*
X133872571Y-82363428D01*
X133777333Y-82315809D01*
X133729714Y-82220571D01*
X133729714Y-82077714D01*
X133777333Y-81982476D01*
X135850380Y-113982285D02*
X135850380Y-113887047D01*
X135898000Y-113791809D01*
X135945619Y-113744190D01*
X136040857Y-113696571D01*
X136231333Y-113648952D01*
X136469428Y-113648952D01*
X136659904Y-113696571D01*
X136755142Y-113744190D01*
X136802761Y-113791809D01*
X136850380Y-113887047D01*
X136850380Y-113982285D01*
X136802761Y-114077523D01*
X136755142Y-114125142D01*
X136659904Y-114172761D01*
X136469428Y-114220380D01*
X136231333Y-114220380D01*
X136040857Y-114172761D01*
X135945619Y-114125142D01*
X135898000Y-114077523D01*
X135850380Y-113982285D01*
X136755142Y-113220380D02*
X136802761Y-113172761D01*
X136850380Y-113220380D01*
X136802761Y-113268000D01*
X136755142Y-113220380D01*
X136850380Y-113220380D01*
X136850380Y-112220380D02*
X136850380Y-112791809D01*
X136850380Y-112506095D02*
X135850380Y-112506095D01*
X135993238Y-112601333D01*
X136088476Y-112696571D01*
X136136095Y-112791809D01*
X136183714Y-111791809D02*
X137183714Y-111791809D01*
X136707523Y-111315619D02*
X136802761Y-111268000D01*
X136850380Y-111172761D01*
X136707523Y-111791809D02*
X136802761Y-111744190D01*
X136850380Y-111648952D01*
X136850380Y-111458476D01*
X136802761Y-111363238D01*
X136707523Y-111315619D01*
X136183714Y-111315619D01*
X136326571Y-110410857D02*
X136326571Y-110744190D01*
X136850380Y-110744190D02*
X135850380Y-110744190D01*
X135850380Y-110268000D01*
X163195095Y-65032000D02*
X163099857Y-64984380D01*
X162957000Y-64984380D01*
X162814142Y-65032000D01*
X162718904Y-65127238D01*
X162671285Y-65222476D01*
X162623666Y-65412952D01*
X162623666Y-65555809D01*
X162671285Y-65746285D01*
X162718904Y-65841523D01*
X162814142Y-65936761D01*
X162957000Y-65984380D01*
X163052238Y-65984380D01*
X163195095Y-65936761D01*
X163242714Y-65889142D01*
X163242714Y-65555809D01*
X163052238Y-65555809D01*
X163671285Y-65984380D02*
X163671285Y-64984380D01*
X164242714Y-65984380D01*
X164242714Y-64984380D01*
X164718904Y-65984380D02*
X164718904Y-64984380D01*
X164957000Y-64984380D01*
X165099857Y-65032000D01*
X165195095Y-65127238D01*
X165242714Y-65222476D01*
X165290333Y-65412952D01*
X165290333Y-65555809D01*
X165242714Y-65746285D01*
X165195095Y-65841523D01*
X165099857Y-65936761D01*
X164957000Y-65984380D01*
X164718904Y-65984380D01*
X158130952Y-65984380D02*
X157559523Y-65984380D01*
X157845238Y-65984380D02*
X157845238Y-64984380D01*
X157750000Y-65127238D01*
X157654761Y-65222476D01*
X157559523Y-65270095D01*
X158511904Y-65079619D02*
X158559523Y-65032000D01*
X158654761Y-64984380D01*
X158892857Y-64984380D01*
X158988095Y-65032000D01*
X159035714Y-65079619D01*
X159083333Y-65174857D01*
X159083333Y-65270095D01*
X159035714Y-65412952D01*
X158464285Y-65984380D01*
X159083333Y-65984380D01*
X159369047Y-64984380D02*
X159702380Y-65984380D01*
X160035714Y-64984380D01*
X153606523Y-64984380D02*
X153130333Y-64984380D01*
X153082714Y-65460571D01*
X153130333Y-65412952D01*
X153225571Y-65365333D01*
X153463666Y-65365333D01*
X153558904Y-65412952D01*
X153606523Y-65460571D01*
X153654142Y-65555809D01*
X153654142Y-65793904D01*
X153606523Y-65889142D01*
X153558904Y-65936761D01*
X153463666Y-65984380D01*
X153225571Y-65984380D01*
X153130333Y-65936761D01*
X153082714Y-65889142D01*
X153939857Y-64984380D02*
X154273190Y-65984380D01*
X154606523Y-64984380D01*
X157313380Y-82867285D02*
X157313380Y-82772047D01*
X157361000Y-82676809D01*
X157408619Y-82629190D01*
X157503857Y-82581571D01*
X157694333Y-82533952D01*
X157932428Y-82533952D01*
X158122904Y-82581571D01*
X158218142Y-82629190D01*
X158265761Y-82676809D01*
X158313380Y-82772047D01*
X158313380Y-82867285D01*
X158265761Y-82962523D01*
X158218142Y-83010142D01*
X158122904Y-83057761D01*
X157932428Y-83105380D01*
X157694333Y-83105380D01*
X157503857Y-83057761D01*
X157408619Y-83010142D01*
X157361000Y-82962523D01*
X157313380Y-82867285D01*
X158218142Y-82105380D02*
X158265761Y-82057761D01*
X158313380Y-82105380D01*
X158265761Y-82153000D01*
X158218142Y-82105380D01*
X158313380Y-82105380D01*
X158313380Y-81105380D02*
X158313380Y-81676809D01*
X158313380Y-81391095D02*
X157313380Y-81391095D01*
X157456238Y-81486333D01*
X157551476Y-81581571D01*
X157599095Y-81676809D01*
X157646714Y-80676809D02*
X158646714Y-80676809D01*
X158170523Y-80200619D02*
X158265761Y-80153000D01*
X158313380Y-80057761D01*
X158170523Y-80676809D02*
X158265761Y-80629190D01*
X158313380Y-80533952D01*
X158313380Y-80343476D01*
X158265761Y-80248238D01*
X158170523Y-80200619D01*
X157646714Y-80200619D01*
X157789571Y-79295857D02*
X157789571Y-79629190D01*
X158313380Y-79629190D02*
X157313380Y-79629190D01*
X157313380Y-79153000D01*
X147184333Y-80410380D02*
X146612904Y-80410380D01*
X146898619Y-80410380D02*
X146898619Y-79410380D01*
X146803380Y-79553238D01*
X146708142Y-79648476D01*
X146612904Y-79696095D01*
X147612904Y-79743714D02*
X147612904Y-80743714D01*
X148089095Y-80267523D02*
X148136714Y-80362761D01*
X148231952Y-80410380D01*
X147612904Y-80267523D02*
X147660523Y-80362761D01*
X147755761Y-80410380D01*
X147946238Y-80410380D01*
X148041476Y-80362761D01*
X148089095Y-80267523D01*
X148089095Y-79743714D01*
X148993857Y-79886571D02*
X148660523Y-79886571D01*
X148660523Y-80410380D02*
X148660523Y-79410380D01*
X149136714Y-79410380D01*
X142684619Y-72985380D02*
X143017952Y-73985380D01*
X143351285Y-72985380D01*
X143684619Y-73604428D02*
X144446523Y-73604428D01*
X150050619Y-76795380D02*
X150383952Y-77795380D01*
X150717285Y-76795380D01*
X151050619Y-77414428D02*
X151812523Y-77414428D01*
X151431571Y-77795380D02*
X151431571Y-77033476D01*
X144780047Y-75636428D02*
X145541952Y-75636428D01*
X145161000Y-76017380D02*
X145161000Y-75255476D01*
X144780047Y-77160428D02*
X145541952Y-77160428D01*
X147320047Y-73350428D02*
X148081952Y-73350428D01*
X147320047Y-74620428D02*
X148081952Y-74620428D01*
X147701000Y-75001380D02*
X147701000Y-74239476D01*
D11*
X146431000Y-77343000D02*
X147955000Y-76581000D01*
X147955000Y-76581000D02*
X146431000Y-75819000D01*
X146431000Y-75819000D02*
X146431000Y-77343000D01*
X150495000Y-73787000D02*
X148971000Y-73025000D01*
X148971000Y-73025000D02*
X148971000Y-74549000D01*
X148971000Y-74549000D02*
X150495000Y-73787000D01*
X145923000Y-76835000D02*
X146431000Y-76835000D01*
X145923000Y-78105000D02*
X145923000Y-76835000D01*
X150495000Y-73787000D02*
X151003000Y-73787000D01*
X151003000Y-73787000D02*
X151003000Y-72517000D01*
X148463000Y-72517000D02*
X148463000Y-73533000D01*
X143383000Y-78105000D02*
X143383000Y-76327000D01*
X145923000Y-72517000D02*
X145923000Y-74041000D01*
X148463000Y-73533000D02*
X148971000Y-73533000D01*
X143383000Y-76327000D02*
X146431000Y-76327000D01*
X148463000Y-76581000D02*
X148463000Y-78105000D01*
X147955000Y-76581000D02*
X148463000Y-76581000D01*
X145923000Y-74041000D02*
X148971000Y-74041000D01*
D12*
X137607619Y-70133619D02*
X136607619Y-70466952D01*
X137607619Y-70800285D01*
X136988571Y-71133619D02*
X136988571Y-71895523D01*
X133797619Y-77499619D02*
X132797619Y-77832952D01*
X133797619Y-78166285D01*
X133178571Y-78499619D02*
X133178571Y-79261523D01*
X132797619Y-78880571D02*
X133559523Y-78880571D01*
X133432571Y-72229047D02*
X133432571Y-72990952D01*
X134956571Y-72229047D02*
X134956571Y-72990952D01*
X134575619Y-72610000D02*
X135337523Y-72610000D01*
X137242571Y-74769047D02*
X137242571Y-75530952D01*
X135972571Y-74769047D02*
X135972571Y-75530952D01*
X135591619Y-75150000D02*
X136353523Y-75150000D01*
D11*
X136806000Y-78452000D02*
X138076000Y-78452000D01*
X136806000Y-77944000D02*
X136806000Y-78452000D01*
X137060000Y-75912000D02*
X137060000Y-76420000D01*
X138076000Y-75912000D02*
X137060000Y-75912000D01*
X136552000Y-73372000D02*
X136552000Y-76420000D01*
X138076000Y-73372000D02*
X136552000Y-73372000D01*
X134012000Y-75912000D02*
X132488000Y-75912000D01*
X134012000Y-75404000D02*
X134012000Y-75912000D01*
X134266000Y-70832000D02*
X134266000Y-73880000D01*
X132488000Y-70832000D02*
X134266000Y-70832000D01*
X133758000Y-73372000D02*
X133758000Y-73880000D01*
X132488000Y-73372000D02*
X133758000Y-73372000D01*
X134012000Y-75404000D02*
X134774000Y-73880000D01*
X133250000Y-73880000D02*
X134012000Y-75404000D01*
X134774000Y-73880000D02*
X133250000Y-73880000D01*
X136806000Y-77944000D02*
X137568000Y-76420000D01*
X136044000Y-76420000D02*
X136806000Y-77944000D01*
X137568000Y-76420000D02*
X136044000Y-76420000D01*
D12*
X159472238Y-71810619D02*
X160043666Y-71810619D01*
X159757952Y-71810619D02*
X159757952Y-72810619D01*
X159853190Y-72667761D01*
X159948428Y-72572523D01*
X160043666Y-72524904D01*
X158853190Y-72810619D02*
X158757952Y-72810619D01*
X158662714Y-72763000D01*
X158615095Y-72715380D01*
X158567476Y-72620142D01*
X158519857Y-72429666D01*
X158519857Y-72191571D01*
X158567476Y-72001095D01*
X158615095Y-71905857D01*
X158662714Y-71858238D01*
X158757952Y-71810619D01*
X158853190Y-71810619D01*
X158948428Y-71858238D01*
X158996047Y-71905857D01*
X159043666Y-72001095D01*
X159091285Y-72191571D01*
X159091285Y-72429666D01*
X159043666Y-72620142D01*
X158996047Y-72715380D01*
X158948428Y-72763000D01*
X158853190Y-72810619D01*
X158091285Y-71810619D02*
X158091285Y-72810619D01*
X157996047Y-72191571D02*
X157710333Y-71810619D01*
X157710333Y-72477285D02*
X158091285Y-72096333D01*
X159472238Y-75366619D02*
X160043666Y-75366619D01*
X159757952Y-75366619D02*
X159757952Y-76366619D01*
X159853190Y-76223761D01*
X159948428Y-76128523D01*
X160043666Y-76080904D01*
X158853190Y-76366619D02*
X158757952Y-76366619D01*
X158662714Y-76319000D01*
X158615095Y-76271380D01*
X158567476Y-76176142D01*
X158519857Y-75985666D01*
X158519857Y-75747571D01*
X158567476Y-75557095D01*
X158615095Y-75461857D01*
X158662714Y-75414238D01*
X158757952Y-75366619D01*
X158853190Y-75366619D01*
X158948428Y-75414238D01*
X158996047Y-75461857D01*
X159043666Y-75557095D01*
X159091285Y-75747571D01*
X159091285Y-75985666D01*
X159043666Y-76176142D01*
X158996047Y-76271380D01*
X158948428Y-76319000D01*
X158853190Y-76366619D01*
X158091285Y-75366619D02*
X158091285Y-76366619D01*
X157996047Y-75747571D02*
X157710333Y-75366619D01*
X157710333Y-76033285D02*
X158091285Y-75652333D01*
X160186523Y-84764619D02*
X160757952Y-84764619D01*
X160472238Y-84764619D02*
X160472238Y-85764619D01*
X160567476Y-85621761D01*
X160662714Y-85526523D01*
X160757952Y-85478904D01*
X159234142Y-84764619D02*
X159805571Y-84764619D01*
X159519857Y-84764619D02*
X159519857Y-85764619D01*
X159615095Y-85621761D01*
X159710333Y-85526523D01*
X159805571Y-85478904D01*
X158805571Y-84859857D02*
X158757952Y-84812238D01*
X158805571Y-84764619D01*
X158853190Y-84812238D01*
X158805571Y-84859857D01*
X158805571Y-84764619D01*
X157853190Y-85764619D02*
X158329380Y-85764619D01*
X158377000Y-85288428D01*
X158329380Y-85336047D01*
X158234142Y-85383666D01*
X157996047Y-85383666D01*
X157900809Y-85336047D01*
X157853190Y-85288428D01*
X157805571Y-85193190D01*
X157805571Y-84955095D01*
X157853190Y-84859857D01*
X157900809Y-84812238D01*
X157996047Y-84764619D01*
X158234142Y-84764619D01*
X158329380Y-84812238D01*
X158377000Y-84859857D01*
X157377000Y-84764619D02*
X157377000Y-85764619D01*
X157281761Y-85145571D02*
X156996047Y-84764619D01*
X156996047Y-85431285D02*
X157377000Y-85050333D01*
X135954809Y-80869952D02*
X135859571Y-80822333D01*
X135811952Y-80774714D01*
X135764333Y-80679476D01*
X135764333Y-80631857D01*
X135811952Y-80536619D01*
X135859571Y-80489000D01*
X135954809Y-80441380D01*
X136145285Y-80441380D01*
X136240523Y-80489000D01*
X136288142Y-80536619D01*
X136335761Y-80631857D01*
X136335761Y-80679476D01*
X136288142Y-80774714D01*
X136240523Y-80822333D01*
X136145285Y-80869952D01*
X135954809Y-80869952D01*
X135859571Y-80917571D01*
X135811952Y-80965190D01*
X135764333Y-81060428D01*
X135764333Y-81250904D01*
X135811952Y-81346142D01*
X135859571Y-81393761D01*
X135954809Y-81441380D01*
X136145285Y-81441380D01*
X136240523Y-81393761D01*
X136288142Y-81346142D01*
X136335761Y-81250904D01*
X136335761Y-81060428D01*
X136288142Y-80965190D01*
X136240523Y-80917571D01*
X136145285Y-80869952D01*
X136954809Y-80441380D02*
X137050047Y-80441380D01*
X137145285Y-80489000D01*
X137192904Y-80536619D01*
X137240523Y-80631857D01*
X137288142Y-80822333D01*
X137288142Y-81060428D01*
X137240523Y-81250904D01*
X137192904Y-81346142D01*
X137145285Y-81393761D01*
X137050047Y-81441380D01*
X136954809Y-81441380D01*
X136859571Y-81393761D01*
X136811952Y-81346142D01*
X136764333Y-81250904D01*
X136716714Y-81060428D01*
X136716714Y-80822333D01*
X136764333Y-80631857D01*
X136811952Y-80536619D01*
X136859571Y-80489000D01*
X136954809Y-80441380D01*
X137716714Y-81441380D02*
X137716714Y-80441380D01*
X137811952Y-81060428D02*
X138097666Y-81441380D01*
X138097666Y-80774714D02*
X137716714Y-81155666D01*
X139254809Y-86442952D02*
X139159571Y-86395333D01*
X139111952Y-86347714D01*
X139064333Y-86252476D01*
X139064333Y-86204857D01*
X139111952Y-86109619D01*
X139159571Y-86062000D01*
X139254809Y-86014380D01*
X139445285Y-86014380D01*
X139540523Y-86062000D01*
X139588142Y-86109619D01*
X139635761Y-86204857D01*
X139635761Y-86252476D01*
X139588142Y-86347714D01*
X139540523Y-86395333D01*
X139445285Y-86442952D01*
X139254809Y-86442952D01*
X139159571Y-86490571D01*
X139111952Y-86538190D01*
X139064333Y-86633428D01*
X139064333Y-86823904D01*
X139111952Y-86919142D01*
X139159571Y-86966761D01*
X139254809Y-87014380D01*
X139445285Y-87014380D01*
X139540523Y-86966761D01*
X139588142Y-86919142D01*
X139635761Y-86823904D01*
X139635761Y-86633428D01*
X139588142Y-86538190D01*
X139540523Y-86490571D01*
X139445285Y-86442952D01*
X140254809Y-86014380D02*
X140350047Y-86014380D01*
X140445285Y-86062000D01*
X140492904Y-86109619D01*
X140540523Y-86204857D01*
X140588142Y-86395333D01*
X140588142Y-86633428D01*
X140540523Y-86823904D01*
X140492904Y-86919142D01*
X140445285Y-86966761D01*
X140350047Y-87014380D01*
X140254809Y-87014380D01*
X140159571Y-86966761D01*
X140111952Y-86919142D01*
X140064333Y-86823904D01*
X140016714Y-86633428D01*
X140016714Y-86395333D01*
X140064333Y-86204857D01*
X140111952Y-86109619D01*
X140159571Y-86062000D01*
X140254809Y-86014380D01*
X141016714Y-87014380D02*
X141016714Y-86014380D01*
X141111952Y-86633428D02*
X141397666Y-87014380D01*
X141397666Y-86347714D02*
X141016714Y-86728666D01*
X139159571Y-90287380D02*
X138588142Y-90287380D01*
X138873857Y-90287380D02*
X138873857Y-89287380D01*
X138778619Y-89430238D01*
X138683380Y-89525476D01*
X138588142Y-89573095D01*
X140016714Y-89287380D02*
X139826238Y-89287380D01*
X139731000Y-89335000D01*
X139683380Y-89382619D01*
X139588142Y-89525476D01*
X139540523Y-89715952D01*
X139540523Y-90096904D01*
X139588142Y-90192142D01*
X139635761Y-90239761D01*
X139731000Y-90287380D01*
X139921476Y-90287380D01*
X140016714Y-90239761D01*
X140064333Y-90192142D01*
X140111952Y-90096904D01*
X140111952Y-89858809D01*
X140064333Y-89763571D01*
X140016714Y-89715952D01*
X139921476Y-89668333D01*
X139731000Y-89668333D01*
X139635761Y-89715952D01*
X139588142Y-89763571D01*
X139540523Y-89858809D01*
X140731000Y-89287380D02*
X140826238Y-89287380D01*
X140921476Y-89335000D01*
X140969095Y-89382619D01*
X141016714Y-89477857D01*
X141064333Y-89668333D01*
X141064333Y-89906428D01*
X141016714Y-90096904D01*
X140969095Y-90192142D01*
X140921476Y-90239761D01*
X140826238Y-90287380D01*
X140731000Y-90287380D01*
X140635761Y-90239761D01*
X140588142Y-90192142D01*
X140540523Y-90096904D01*
X140492904Y-89906428D01*
X140492904Y-89668333D01*
X140540523Y-89477857D01*
X140588142Y-89382619D01*
X140635761Y-89335000D01*
X140731000Y-89287380D01*
X141492904Y-90287380D02*
X141492904Y-89287380D01*
X141588142Y-89906428D02*
X141873857Y-90287380D01*
X141873857Y-89620714D02*
X141492904Y-90001666D01*
X108148380Y-96471571D02*
X107148380Y-96471571D01*
X107862666Y-96138238D01*
X107148380Y-95804904D01*
X108148380Y-95804904D01*
X107862666Y-95376333D02*
X107862666Y-94900142D01*
X108148380Y-95471571D02*
X107148380Y-95138238D01*
X108148380Y-94804904D01*
X107148380Y-94566809D02*
X108148380Y-93900142D01*
X107148380Y-93900142D02*
X108148380Y-94566809D01*
X107148380Y-93614428D02*
X107148380Y-92995380D01*
X107529333Y-93328714D01*
X107529333Y-93185857D01*
X107576952Y-93090619D01*
X107624571Y-93043000D01*
X107719809Y-92995380D01*
X107957904Y-92995380D01*
X108053142Y-93043000D01*
X108100761Y-93090619D01*
X108148380Y-93185857D01*
X108148380Y-93471571D01*
X108100761Y-93566809D01*
X108053142Y-93614428D01*
X108148380Y-92043000D02*
X108148380Y-92614428D01*
X108148380Y-92328714D02*
X107148380Y-92328714D01*
X107291238Y-92423952D01*
X107386476Y-92519190D01*
X107434095Y-92614428D01*
X107576952Y-91471571D02*
X107529333Y-91566809D01*
X107481714Y-91614428D01*
X107386476Y-91662047D01*
X107338857Y-91662047D01*
X107243619Y-91614428D01*
X107196000Y-91566809D01*
X107148380Y-91471571D01*
X107148380Y-91281095D01*
X107196000Y-91185857D01*
X107243619Y-91138238D01*
X107338857Y-91090619D01*
X107386476Y-91090619D01*
X107481714Y-91138238D01*
X107529333Y-91185857D01*
X107576952Y-91281095D01*
X107576952Y-91471571D01*
X107624571Y-91566809D01*
X107672190Y-91614428D01*
X107767428Y-91662047D01*
X107957904Y-91662047D01*
X108053142Y-91614428D01*
X108100761Y-91566809D01*
X108148380Y-91471571D01*
X108148380Y-91281095D01*
X108100761Y-91185857D01*
X108053142Y-91138238D01*
X107957904Y-91090619D01*
X107767428Y-91090619D01*
X107672190Y-91138238D01*
X107624571Y-91185857D01*
X107576952Y-91281095D01*
X107148380Y-90233476D02*
X107148380Y-90423952D01*
X107196000Y-90519190D01*
X107243619Y-90566809D01*
X107386476Y-90662047D01*
X107576952Y-90709666D01*
X107957904Y-90709666D01*
X108053142Y-90662047D01*
X108100761Y-90614428D01*
X108148380Y-90519190D01*
X108148380Y-90328714D01*
X108100761Y-90233476D01*
X108053142Y-90185857D01*
X107957904Y-90138238D01*
X107719809Y-90138238D01*
X107624571Y-90185857D01*
X107576952Y-90233476D01*
X107529333Y-90328714D01*
X107529333Y-90519190D01*
X107576952Y-90614428D01*
X107624571Y-90662047D01*
X107719809Y-90709666D01*
X107148380Y-89233476D02*
X107148380Y-89709666D01*
X107624571Y-89757285D01*
X107576952Y-89709666D01*
X107529333Y-89614428D01*
X107529333Y-89376333D01*
X107576952Y-89281095D01*
X107624571Y-89233476D01*
X107719809Y-89185857D01*
X107957904Y-89185857D01*
X108053142Y-89233476D01*
X108100761Y-89281095D01*
X108148380Y-89376333D01*
X108148380Y-89614428D01*
X108100761Y-89709666D01*
X108053142Y-89757285D01*
X107767428Y-87995380D02*
X107767428Y-87233476D01*
X108053142Y-85423952D02*
X108100761Y-85471571D01*
X108148380Y-85614428D01*
X108148380Y-85709666D01*
X108100761Y-85852523D01*
X108005523Y-85947761D01*
X107910285Y-85995380D01*
X107719809Y-86043000D01*
X107576952Y-86043000D01*
X107386476Y-85995380D01*
X107291238Y-85947761D01*
X107196000Y-85852523D01*
X107148380Y-85709666D01*
X107148380Y-85614428D01*
X107196000Y-85471571D01*
X107243619Y-85423952D01*
X107624571Y-84995380D02*
X107624571Y-84662047D01*
X108148380Y-84519190D02*
X108148380Y-84995380D01*
X107148380Y-84995380D01*
X107148380Y-84519190D01*
X107148380Y-83900142D02*
X107148380Y-83804904D01*
X107196000Y-83709666D01*
X107243619Y-83662047D01*
X107338857Y-83614428D01*
X107529333Y-83566809D01*
X107767428Y-83566809D01*
X107957904Y-83614428D01*
X108053142Y-83662047D01*
X108100761Y-83709666D01*
X108148380Y-83804904D01*
X108148380Y-83900142D01*
X108100761Y-83995380D01*
X108053142Y-84043000D01*
X107957904Y-84090619D01*
X107767428Y-84138238D01*
X107529333Y-84138238D01*
X107338857Y-84090619D01*
X107243619Y-84043000D01*
X107196000Y-83995380D01*
X107148380Y-83900142D01*
D10*
X189000000Y-142488000D02*
X189000000Y-142688000D01*
X188600000Y-142688000D02*
X189000000Y-142688000D01*
X188600000Y-56636000D02*
X189000000Y-56636000D01*
X189000000Y-56636000D02*
X189000000Y-142488000D01*
X187600000Y-142688000D02*
X188600000Y-142688000D01*
X187600000Y-56636000D02*
X188600000Y-56636000D01*
X187000000Y-142688000D02*
X187600000Y-142688000D01*
X187000000Y-56636000D02*
X187600000Y-56636000D01*
X185032000Y-56636000D02*
X187000000Y-56636000D01*
X185032000Y-142688000D02*
X187000000Y-142688000D01*
X100457000Y-77851000D02*
X100457000Y-142688000D01*
X100457000Y-142688000D02*
X185032000Y-142688000D01*
X185032000Y-56636000D02*
X111379000Y-56636000D01*
D12*
X108783380Y-128094571D02*
X107783380Y-128094571D01*
X108497666Y-127761238D01*
X107783380Y-127427904D01*
X108783380Y-127427904D01*
X108497666Y-126999333D02*
X108497666Y-126523142D01*
X108783380Y-127094571D02*
X107783380Y-126761238D01*
X108783380Y-126427904D01*
X107783380Y-126189809D02*
X108783380Y-125523142D01*
X107783380Y-125523142D02*
X108783380Y-126189809D01*
X107783380Y-125237428D02*
X107783380Y-124618380D01*
X108164333Y-124951714D01*
X108164333Y-124808857D01*
X108211952Y-124713619D01*
X108259571Y-124666000D01*
X108354809Y-124618380D01*
X108592904Y-124618380D01*
X108688142Y-124666000D01*
X108735761Y-124713619D01*
X108783380Y-124808857D01*
X108783380Y-125094571D01*
X108735761Y-125189809D01*
X108688142Y-125237428D01*
X108783380Y-123666000D02*
X108783380Y-124237428D01*
X108783380Y-123951714D02*
X107783380Y-123951714D01*
X107926238Y-124046952D01*
X108021476Y-124142190D01*
X108069095Y-124237428D01*
X108211952Y-123094571D02*
X108164333Y-123189809D01*
X108116714Y-123237428D01*
X108021476Y-123285047D01*
X107973857Y-123285047D01*
X107878619Y-123237428D01*
X107831000Y-123189809D01*
X107783380Y-123094571D01*
X107783380Y-122904095D01*
X107831000Y-122808857D01*
X107878619Y-122761238D01*
X107973857Y-122713619D01*
X108021476Y-122713619D01*
X108116714Y-122761238D01*
X108164333Y-122808857D01*
X108211952Y-122904095D01*
X108211952Y-123094571D01*
X108259571Y-123189809D01*
X108307190Y-123237428D01*
X108402428Y-123285047D01*
X108592904Y-123285047D01*
X108688142Y-123237428D01*
X108735761Y-123189809D01*
X108783380Y-123094571D01*
X108783380Y-122904095D01*
X108735761Y-122808857D01*
X108688142Y-122761238D01*
X108592904Y-122713619D01*
X108402428Y-122713619D01*
X108307190Y-122761238D01*
X108259571Y-122808857D01*
X108211952Y-122904095D01*
X107783380Y-121856476D02*
X107783380Y-122046952D01*
X107831000Y-122142190D01*
X107878619Y-122189809D01*
X108021476Y-122285047D01*
X108211952Y-122332666D01*
X108592904Y-122332666D01*
X108688142Y-122285047D01*
X108735761Y-122237428D01*
X108783380Y-122142190D01*
X108783380Y-121951714D01*
X108735761Y-121856476D01*
X108688142Y-121808857D01*
X108592904Y-121761238D01*
X108354809Y-121761238D01*
X108259571Y-121808857D01*
X108211952Y-121856476D01*
X108164333Y-121951714D01*
X108164333Y-122142190D01*
X108211952Y-122237428D01*
X108259571Y-122285047D01*
X108354809Y-122332666D01*
X107783380Y-120856476D02*
X107783380Y-121332666D01*
X108259571Y-121380285D01*
X108211952Y-121332666D01*
X108164333Y-121237428D01*
X108164333Y-120999333D01*
X108211952Y-120904095D01*
X108259571Y-120856476D01*
X108354809Y-120808857D01*
X108592904Y-120808857D01*
X108688142Y-120856476D01*
X108735761Y-120904095D01*
X108783380Y-120999333D01*
X108783380Y-121237428D01*
X108735761Y-121332666D01*
X108688142Y-121380285D01*
X108402428Y-119618380D02*
X108402428Y-118856476D01*
X108688142Y-117046952D02*
X108735761Y-117094571D01*
X108783380Y-117237428D01*
X108783380Y-117332666D01*
X108735761Y-117475523D01*
X108640523Y-117570761D01*
X108545285Y-117618380D01*
X108354809Y-117666000D01*
X108211952Y-117666000D01*
X108021476Y-117618380D01*
X107926238Y-117570761D01*
X107831000Y-117475523D01*
X107783380Y-117332666D01*
X107783380Y-117237428D01*
X107831000Y-117094571D01*
X107878619Y-117046952D01*
X108259571Y-116618380D02*
X108259571Y-116285047D01*
X108783380Y-116142190D02*
X108783380Y-116618380D01*
X107783380Y-116618380D01*
X107783380Y-116142190D01*
X108783380Y-115189809D02*
X108783380Y-115761238D01*
X108783380Y-115475523D02*
X107783380Y-115475523D01*
X107926238Y-115570761D01*
X108021476Y-115666000D01*
X108069095Y-115761238D01*
D14*
G04 #@! TO.C,J7*
X100667000Y-115823000D02*
X98767000Y-115823000D01*
X98767000Y-115823000D02*
X98767000Y-117523000D01*
X98767000Y-117523000D02*
X98767000Y-118273000D01*
X98767000Y-118273000D02*
X100067000Y-118273000D01*
X100067000Y-118273000D02*
X100067000Y-122773000D01*
X100067000Y-122773000D02*
X98767000Y-122773000D01*
X98767000Y-122773000D02*
X98767000Y-123523000D01*
X98767000Y-123523000D02*
X98767000Y-124823000D01*
X98767000Y-124823000D02*
X100517000Y-124823000D01*
X98767000Y-123523000D02*
X95767000Y-123523000D01*
X95767000Y-123523000D02*
X95767000Y-117523000D01*
X95767000Y-117523000D02*
X98767000Y-117523000D01*
X102667000Y-115823000D02*
X109767000Y-115823000D01*
X109767000Y-115823000D02*
X109767000Y-117823000D01*
X109767000Y-123523000D02*
X109767000Y-124823000D01*
X109767000Y-124823000D02*
X107667000Y-124823000D01*
X105767000Y-124823000D02*
X102717000Y-124823000D01*
D15*
X100467000Y-115023000D02*
G75*
G03*
X100467000Y-115023000I-200000J0D01*
G01*
D14*
G04 #@! TO.C,J9*
X101175000Y-87756000D02*
X99275000Y-87756000D01*
X99275000Y-87756000D02*
X99275000Y-89456000D01*
X99275000Y-89456000D02*
X99275000Y-90206000D01*
X99275000Y-90206000D02*
X100575000Y-90206000D01*
X100575000Y-90206000D02*
X100575000Y-94706000D01*
X100575000Y-94706000D02*
X99275000Y-94706000D01*
X99275000Y-94706000D02*
X99275000Y-95456000D01*
X99275000Y-95456000D02*
X99275000Y-96756000D01*
X99275000Y-96756000D02*
X101025000Y-96756000D01*
X99275000Y-95456000D02*
X96275000Y-95456000D01*
X96275000Y-95456000D02*
X96275000Y-89456000D01*
X96275000Y-89456000D02*
X99275000Y-89456000D01*
X103175000Y-87756000D02*
X110275000Y-87756000D01*
X110275000Y-87756000D02*
X110275000Y-89756000D01*
X110275000Y-95456000D02*
X110275000Y-96756000D01*
X110275000Y-96756000D02*
X108175000Y-96756000D01*
X106275000Y-96756000D02*
X103225000Y-96756000D01*
D15*
X100975000Y-86956000D02*
G75*
G03*
X100975000Y-86956000I-200000J0D01*
G01*
D11*
G04 #@! TO.C,U4*
X102108000Y-78359000D02*
X127508000Y-78359000D01*
X102108000Y-106299000D02*
X127508000Y-106299000D01*
X127508000Y-106299000D02*
X127508000Y-78359000D01*
X102108000Y-106299000D02*
X102108000Y-78359000D01*
X121788000Y-83455000D02*
X107918000Y-83455000D01*
X121788000Y-80345000D02*
X121788000Y-83455000D01*
X107918000Y-80345000D02*
X121788000Y-80345000D01*
X107918000Y-83455000D02*
X107918000Y-80345000D01*
X104588000Y-103505000D02*
X104588000Y-102175000D01*
X104588000Y-102175000D02*
X105918000Y-102175000D01*
X107188000Y-102175000D02*
X125028000Y-102175000D01*
X125028000Y-104835000D02*
X125028000Y-102175000D01*
X107188000Y-104835000D02*
X125028000Y-104835000D01*
X107188000Y-104835000D02*
X107188000Y-102175000D01*
G04 #@! TO.C,U3*
X102108000Y-106934000D02*
X127508000Y-106934000D01*
X102108000Y-134874000D02*
X127508000Y-134874000D01*
X127508000Y-134874000D02*
X127508000Y-106934000D01*
X102108000Y-134874000D02*
X102108000Y-106934000D01*
X121788000Y-112030000D02*
X107918000Y-112030000D01*
X121788000Y-108920000D02*
X121788000Y-112030000D01*
X107918000Y-108920000D02*
X121788000Y-108920000D01*
X107918000Y-112030000D02*
X107918000Y-108920000D01*
X104588000Y-132080000D02*
X104588000Y-130750000D01*
X104588000Y-130750000D02*
X105918000Y-130750000D01*
X107188000Y-130750000D02*
X125028000Y-130750000D01*
X125028000Y-133410000D02*
X125028000Y-130750000D01*
X107188000Y-133410000D02*
X125028000Y-133410000D01*
X107188000Y-133410000D02*
X107188000Y-130750000D01*
D16*
G04 #@! TO.C,J6*
X126187200Y-71413196D02*
X126187200Y-70572804D01*
X126187200Y-68873196D02*
X126187200Y-62242700D01*
X111328200Y-77203300D02*
X126187200Y-77203300D01*
X111328200Y-62242700D02*
X111328200Y-77203300D01*
X126187200Y-62242700D02*
X111328200Y-62242700D01*
X126187200Y-77203300D02*
X126187200Y-73112804D01*
X91033600Y-74650600D02*
X111582200Y-74650600D01*
X91033600Y-64795400D02*
X91033600Y-74650600D01*
X111582200Y-64795400D02*
X91033600Y-64795400D01*
X111582200Y-74650600D02*
X111582200Y-64795400D01*
X126559545Y-70108327D02*
X127330200Y-69723000D01*
X126559545Y-69337673D02*
X127330200Y-69723000D01*
D11*
G04 #@! TO.C,J5*
X162514280Y-94665800D02*
X164465000Y-92715080D01*
X130002280Y-68981320D02*
X166415720Y-68981320D01*
X130002280Y-92715080D02*
X130002280Y-68981320D01*
X166415720Y-92715080D02*
X130002280Y-92715080D01*
X166415720Y-68981320D02*
X166415720Y-92715080D01*
X168366440Y-67030600D02*
X168366440Y-94665800D01*
X128051560Y-67030600D02*
X168366440Y-67030600D01*
X128051560Y-94665800D02*
X128051560Y-67030600D01*
X168366440Y-94665800D02*
X128051560Y-94665800D01*
X168366440Y-92715080D02*
X166415720Y-94665800D01*
X166415720Y-92715080D02*
X168366440Y-90764360D01*
X166415720Y-92715080D02*
X164465000Y-94665800D01*
X160563560Y-94665800D02*
X162514280Y-92715080D01*
X163164520Y-92715080D02*
X161538920Y-92715080D01*
X160563560Y-92715080D02*
X158612840Y-94665800D01*
X159913320Y-94665800D02*
X158287720Y-94665800D01*
X156662120Y-94665800D02*
X158612840Y-92715080D01*
X159913320Y-92715080D02*
X158287720Y-92715080D01*
X156337000Y-94665800D02*
X154711400Y-94665800D01*
X156662120Y-92715080D02*
X154711400Y-94665800D01*
X164790120Y-67030600D02*
X163164520Y-67030600D01*
X164790120Y-68981320D02*
X163164520Y-68981320D01*
X166415720Y-68981320D02*
X164790120Y-68981320D01*
X146908520Y-94665800D02*
X148859240Y-92715080D01*
X146908520Y-92715080D02*
X144957800Y-94665800D01*
X143007080Y-94665800D02*
X144957800Y-92715080D01*
X154711400Y-92715080D02*
X152760680Y-94665800D01*
X143007080Y-92715080D02*
X141056360Y-94665800D01*
X148859240Y-94665800D02*
X150809960Y-92715080D01*
X152760680Y-92715080D02*
X150809960Y-94665800D01*
X133253480Y-94665800D02*
X135204200Y-92715080D01*
X133253480Y-92715080D02*
X131302760Y-94665800D01*
X129352040Y-94665800D02*
X131302760Y-92715080D01*
X141056360Y-92715080D02*
X139105640Y-94665800D01*
X130002280Y-92064840D02*
X128051560Y-94015560D01*
X135204200Y-94665800D02*
X137154920Y-92715080D01*
X139105640Y-92715080D02*
X137154920Y-94665800D01*
X160563560Y-68981320D02*
X162514280Y-67030600D01*
X160563560Y-67030600D02*
X158612840Y-68981320D01*
X156662120Y-68981320D02*
X158612840Y-67030600D01*
X168366440Y-67030600D02*
X166415720Y-68981320D01*
X156662120Y-67030600D02*
X154711400Y-68981320D01*
X162514280Y-68981320D02*
X164465000Y-67030600D01*
X166415720Y-67030600D02*
X164465000Y-68981320D01*
X146908520Y-68981320D02*
X148859240Y-67030600D01*
X146908520Y-67030600D02*
X144957800Y-68981320D01*
X143007080Y-68981320D02*
X144957800Y-67030600D01*
X154711400Y-67030600D02*
X152760680Y-68981320D01*
X143007080Y-67030600D02*
X141056360Y-68981320D01*
X148859240Y-68981320D02*
X150809960Y-67030600D01*
X152760680Y-67030600D02*
X150809960Y-68981320D01*
X133253480Y-68981320D02*
X135204200Y-67030600D01*
X133253480Y-67030600D02*
X131302760Y-68981320D01*
X128051560Y-70281800D02*
X131302760Y-67030600D01*
X141056360Y-67030600D02*
X139105640Y-68981320D01*
X129352040Y-67030600D02*
X128051560Y-68331080D01*
X135204200Y-68981320D02*
X137154920Y-67030600D01*
X139105640Y-67030600D02*
X137154920Y-68981320D01*
X166415720Y-90764360D02*
X168366440Y-88813640D01*
X166415720Y-88813640D02*
X168366440Y-86862920D01*
X166415720Y-86862920D02*
X168366440Y-84912200D01*
X166415720Y-82961480D02*
X168366440Y-81010760D01*
X166415720Y-81010760D02*
X168366440Y-79060040D01*
X166415720Y-79060040D02*
X168366440Y-77109320D01*
X166415720Y-84912200D02*
X168366440Y-82961480D01*
X166415720Y-75158600D02*
X168366440Y-73207880D01*
X166415720Y-73207880D02*
X168366440Y-71257160D01*
X166415720Y-71257160D02*
X168366440Y-69306440D01*
X166415720Y-77109320D02*
X168366440Y-75158600D01*
X128051560Y-90114120D02*
X130002280Y-88163400D01*
X128051560Y-88163400D02*
X130002280Y-86212680D01*
X128051560Y-86212680D02*
X130002280Y-84261960D01*
X128051560Y-92064840D02*
X130002280Y-90114120D01*
X128051560Y-82311240D02*
X130002280Y-80360520D01*
X128051560Y-80360520D02*
X130002280Y-78409800D01*
X128051560Y-78409800D02*
X130002280Y-76459080D01*
X128051560Y-84261960D02*
X130002280Y-82311240D01*
X128051560Y-74508360D02*
X130002280Y-72557640D01*
X128051560Y-72557640D02*
X130002280Y-70606920D01*
X128051560Y-76459080D02*
X130002280Y-74508360D01*
G04 #@! TO.C,R6*
X143510000Y-83565000D02*
X143510000Y-83895000D01*
X143510000Y-83895000D02*
X136970000Y-83895000D01*
X136970000Y-83895000D02*
X136970000Y-83565000D01*
X143510000Y-81485000D02*
X143510000Y-81155000D01*
X143510000Y-81155000D02*
X136970000Y-81155000D01*
X136970000Y-81155000D02*
X136970000Y-81485000D01*
G04 #@! TO.C,J8*
X161940000Y-56965000D02*
X146700000Y-56965000D01*
X161940000Y-64585000D02*
X146700000Y-64585000D01*
X161940000Y-58235000D02*
X146700000Y-58235000D01*
X146700000Y-56965000D02*
X146700000Y-64585000D01*
X161940000Y-56965000D02*
X161940000Y-64585000D01*
G04 #@! TO.C,R3*
X163140000Y-117020000D02*
X163470000Y-117020000D01*
X163140000Y-110480000D02*
X163140000Y-117020000D01*
X163470000Y-110480000D02*
X163140000Y-110480000D01*
X165880000Y-117020000D02*
X165550000Y-117020000D01*
X165880000Y-110480000D02*
X165880000Y-117020000D01*
X165550000Y-110480000D02*
X165880000Y-110480000D01*
G04 #@! TO.C,Q1*
X158886300Y-117964340D02*
X155286300Y-117964340D01*
X158924778Y-117975862D02*
G75*
G02*
X157086300Y-122414340I-1838478J-1838478D01*
G01*
X155247822Y-117975862D02*
G75*
G03*
X157086300Y-122414340I1838478J-1838478D01*
G01*
G04 #@! TO.C,U1*
X176200000Y-64495000D02*
X177530000Y-64495000D01*
X177530000Y-64495000D02*
X177530000Y-65825000D01*
X177530000Y-67095000D02*
X177530000Y-90015000D01*
X174870000Y-90015000D02*
X177530000Y-90015000D01*
X174870000Y-67095000D02*
X174870000Y-90015000D01*
X174870000Y-67095000D02*
X177530000Y-67095000D01*
G04 #@! TO.C,U2*
X141603420Y-115928140D02*
X141603420Y-114598140D01*
X141603420Y-114598140D02*
X142933420Y-114598140D01*
X144203420Y-114598140D02*
X162043420Y-114598140D01*
X162043420Y-117258140D02*
X162043420Y-114598140D01*
X144203420Y-117258140D02*
X162043420Y-117258140D01*
X144203420Y-117258140D02*
X144203420Y-114598140D01*
X162043420Y-104558140D02*
X162043420Y-101898140D01*
X144203420Y-104558140D02*
X162043420Y-104558140D01*
X144203420Y-104558140D02*
X144203420Y-101898140D01*
X144203420Y-101898140D02*
X162043420Y-101898140D01*
X141603420Y-101898140D02*
X142933420Y-101898140D01*
X141603420Y-103228140D02*
X141603420Y-101898140D01*
G04 #@! TO.C,J4*
X115062000Y-135255000D02*
X115062000Y-142875000D01*
X135382000Y-142875000D02*
X135382000Y-135255000D01*
X135382000Y-141605000D02*
X115062000Y-141605000D01*
X115062000Y-135255000D02*
X135382000Y-135255000D01*
X115062000Y-142875000D02*
X135382000Y-142875000D01*
G04 #@! TO.C,D1*
X147960000Y-123080000D02*
X147960000Y-120240000D01*
X147960000Y-120240000D02*
X144520000Y-120240000D01*
X144520000Y-120240000D02*
X144520000Y-123080000D01*
X144520000Y-123080000D02*
X147960000Y-123080000D01*
X151350000Y-121660000D02*
X147960000Y-121660000D01*
X141130000Y-121660000D02*
X144520000Y-121660000D01*
X147360000Y-123080000D02*
X147360000Y-120240000D01*
X147240000Y-123080000D02*
X147240000Y-120240000D01*
X147480000Y-123080000D02*
X147480000Y-120240000D01*
G04 #@! TO.C,R2*
X155607000Y-75541000D02*
X155607000Y-75211000D01*
X155607000Y-75211000D02*
X162147000Y-75211000D01*
X162147000Y-75211000D02*
X162147000Y-75541000D01*
X155607000Y-77621000D02*
X155607000Y-77951000D01*
X155607000Y-77951000D02*
X162147000Y-77951000D01*
X162147000Y-77951000D02*
X162147000Y-77621000D01*
G04 #@! TO.C,C2*
X155725000Y-79367000D02*
X155725000Y-83407000D01*
X152885000Y-79367000D02*
X152885000Y-83407000D01*
X155725000Y-79367000D02*
X155100000Y-79367000D01*
X153510000Y-79367000D02*
X152885000Y-79367000D01*
X155725000Y-83407000D02*
X155100000Y-83407000D01*
X153510000Y-83407000D02*
X152885000Y-83407000D01*
G04 #@! TO.C,J12*
X126933000Y-60258000D02*
X126933000Y-57598000D01*
X126873000Y-60258000D02*
X126933000Y-60258000D01*
X126873000Y-57598000D02*
X126933000Y-57598000D01*
X126873000Y-60258000D02*
X126873000Y-57598000D01*
X125603000Y-60258000D02*
X124273000Y-60258000D01*
X124273000Y-60258000D02*
X124273000Y-58928000D01*
G04 #@! TO.C,R1*
X155607000Y-71655000D02*
X155607000Y-71985000D01*
X162147000Y-71655000D02*
X155607000Y-71655000D01*
X162147000Y-71985000D02*
X162147000Y-71655000D01*
X155607000Y-74395000D02*
X155607000Y-74065000D01*
X162147000Y-74395000D02*
X155607000Y-74395000D01*
X162147000Y-74065000D02*
X162147000Y-74395000D01*
G04 #@! TO.C,U6*
X136282000Y-79782000D02*
X137932000Y-79782000D01*
X137932000Y-79782000D02*
X137932000Y-69502000D01*
X137932000Y-69502000D02*
X132632000Y-69502000D01*
X132632000Y-69502000D02*
X132632000Y-79782000D01*
X132632000Y-79782000D02*
X134282000Y-79782000D01*
X134282000Y-79782000D02*
G75*
G02*
X136282000Y-79782000I1000000J0D01*
G01*
G04 #@! TO.C,C5*
X165315000Y-119020000D02*
X165940000Y-119020000D01*
X163100000Y-119020000D02*
X163725000Y-119020000D01*
X165315000Y-123060000D02*
X165940000Y-123060000D01*
X163100000Y-123060000D02*
X163725000Y-123060000D01*
X165940000Y-123060000D02*
X165940000Y-119020000D01*
X163100000Y-123060000D02*
X163100000Y-119020000D01*
G04 #@! TO.C,C6*
X145851000Y-85005000D02*
X145851000Y-84380000D01*
X145851000Y-87220000D02*
X145851000Y-86595000D01*
X149891000Y-85005000D02*
X149891000Y-84380000D01*
X149891000Y-87220000D02*
X149891000Y-86595000D01*
X149891000Y-84380000D02*
X145851000Y-84380000D01*
X149891000Y-87220000D02*
X145851000Y-87220000D01*
G04 #@! TO.C,C7*
X145830000Y-87680000D02*
X149870000Y-87680000D01*
X145830000Y-90520000D02*
X149870000Y-90520000D01*
X145830000Y-87680000D02*
X145830000Y-88305000D01*
X145830000Y-89895000D02*
X145830000Y-90520000D01*
X149870000Y-87680000D02*
X149870000Y-88305000D01*
X149870000Y-89895000D02*
X149870000Y-90520000D01*
G04 #@! TO.C,R4*
X143501000Y-90113000D02*
X143501000Y-90443000D01*
X143501000Y-90443000D02*
X136961000Y-90443000D01*
X136961000Y-90443000D02*
X136961000Y-90113000D01*
X143501000Y-88033000D02*
X143501000Y-87703000D01*
X143501000Y-87703000D02*
X136961000Y-87703000D01*
X136961000Y-87703000D02*
X136961000Y-88033000D01*
G04 #@! TO.C,U7*
X152333000Y-77961000D02*
X152333000Y-76311000D01*
X142053000Y-77961000D02*
X152333000Y-77961000D01*
X142053000Y-72661000D02*
X142053000Y-77961000D01*
X152333000Y-72661000D02*
X142053000Y-72661000D01*
X152333000Y-74311000D02*
X152333000Y-72661000D01*
X152333000Y-76311000D02*
G75*
G02*
X152333000Y-74311000I0J1000000D01*
G01*
G04 #@! TO.C,A1*
X184865000Y-141890000D02*
X184865000Y-123850000D01*
X141425000Y-141890000D02*
X184865000Y-141890000D01*
X141425000Y-123850000D02*
X141425000Y-141890000D01*
X144095000Y-126520000D02*
X144095000Y-123850000D01*
X179655000Y-126520000D02*
X144095000Y-126520000D01*
X179655000Y-126520000D02*
X179655000Y-123850000D01*
X144095000Y-139220000D02*
X144095000Y-141890000D01*
X182195000Y-139220000D02*
X144095000Y-139220000D01*
X182195000Y-139220000D02*
X182195000Y-141890000D01*
X184865000Y-123850000D02*
X182195000Y-123850000D01*
X179655000Y-123850000D02*
X141425000Y-123850000D01*
X182195000Y-126520000D02*
X182195000Y-123850000D01*
X179655000Y-126520000D02*
X182195000Y-126520000D01*
G04 #@! TO.C,C1*
X163105000Y-61055000D02*
X167145000Y-61055000D01*
X163105000Y-63895000D02*
X167145000Y-63895000D01*
X163105000Y-61055000D02*
X163105000Y-61680000D01*
X163105000Y-63270000D02*
X163105000Y-63895000D01*
X167145000Y-61055000D02*
X167145000Y-61680000D01*
X167145000Y-63270000D02*
X167145000Y-63895000D01*
G04 #@! TO.C,C3*
X167195000Y-59895000D02*
X167195000Y-60520000D01*
X167195000Y-57680000D02*
X167195000Y-58305000D01*
X163155000Y-59895000D02*
X163155000Y-60520000D01*
X163155000Y-57680000D02*
X163155000Y-58305000D01*
X163155000Y-60520000D02*
X167195000Y-60520000D01*
X163155000Y-57680000D02*
X167195000Y-57680000D01*
G04 #@! TO.C,C4*
X165298100Y-103849420D02*
X165923100Y-103849420D01*
X163083100Y-103849420D02*
X163708100Y-103849420D01*
X165298100Y-107889420D02*
X165923100Y-107889420D01*
X163083100Y-107889420D02*
X163708100Y-107889420D01*
X165923100Y-107889420D02*
X165923100Y-103849420D01*
X163083100Y-107889420D02*
X163083100Y-103849420D01*
G04 #@! TO.C,RV1*
X176191846Y-101564608D02*
G75*
G02*
X173100000Y-103770000I-3091846J1064608D01*
G01*
X171616032Y-97586171D02*
G75*
G02*
X176192000Y-99436000I1483968J-2913829D01*
G01*
X170186613Y-101985202D02*
G75*
G02*
X170186000Y-99016000I2913387J1485202D01*
G01*
X173156863Y-103770075D02*
G75*
G02*
X171615000Y-103414000I-56863J3270075D01*
G01*
D16*
G04 #@! TO.C,U8*
X168199000Y-58332000D02*
X167945000Y-58586000D01*
X168199000Y-58332000D02*
X177851000Y-58332000D01*
X178105000Y-58586000D02*
X177851000Y-58332000D01*
X167945000Y-61507000D02*
X167945000Y-58586000D01*
X178105000Y-58586000D02*
X178105000Y-61507000D01*
D17*
X177901800Y-58941600D02*
G75*
G03*
X177901800Y-58941600I-254000J0D01*
G01*
D12*
G36*
X178360780Y-62650000D02*
G01*
X176454000Y-62650000D01*
X176454000Y-61379580D01*
X178360780Y-61379580D01*
X178360780Y-62650000D01*
G37*
G36*
X176459310Y-62650000D02*
G01*
X174676000Y-62650000D01*
X174676000Y-61886819D01*
X176459310Y-61886819D01*
X176459310Y-62650000D01*
G37*
G36*
X174678780Y-62650000D02*
G01*
X173914000Y-62650000D01*
X173914000Y-61377860D01*
X174678780Y-61377860D01*
X174678780Y-62650000D01*
G37*
G36*
X173915568Y-62650000D02*
G01*
X172136000Y-62650000D01*
X172136000Y-61886656D01*
X173915568Y-61886656D01*
X173915568Y-62650000D01*
G37*
G36*
X172135611Y-62650000D02*
G01*
X171374000Y-62650000D01*
X171374000Y-61379440D01*
X172135611Y-61379440D01*
X172135611Y-62650000D01*
G37*
G36*
X171371410Y-62650000D02*
G01*
X169596000Y-62650000D01*
X169596000Y-61886806D01*
X171371410Y-61886806D01*
X171371410Y-62650000D01*
G37*
G36*
X169591850Y-62650000D02*
G01*
X167691000Y-62650000D01*
X167691000Y-61378460D01*
X169591850Y-61378460D01*
X169591850Y-62650000D01*
G37*
D11*
G04 #@! TO.C,C8*
X145855000Y-81105000D02*
X149895000Y-81105000D01*
X145855000Y-83945000D02*
X149895000Y-83945000D01*
X145855000Y-81105000D02*
X145855000Y-81730000D01*
X145855000Y-83320000D02*
X145855000Y-83945000D01*
X149895000Y-81105000D02*
X149895000Y-81730000D01*
X149895000Y-83320000D02*
X149895000Y-83945000D01*
G04 #@! TO.C,R5*
X136961000Y-84760000D02*
X136961000Y-84430000D01*
X136961000Y-84430000D02*
X143501000Y-84430000D01*
X143501000Y-84430000D02*
X143501000Y-84760000D01*
X136961000Y-86840000D02*
X136961000Y-87170000D01*
X136961000Y-87170000D02*
X143501000Y-87170000D01*
X143501000Y-87170000D02*
X143501000Y-86840000D01*
G04 #@! TO.C,R7*
X155607000Y-84939000D02*
X155607000Y-84609000D01*
X155607000Y-84609000D02*
X162147000Y-84609000D01*
X162147000Y-84609000D02*
X162147000Y-84939000D01*
X155607000Y-87019000D02*
X155607000Y-87349000D01*
X155607000Y-87349000D02*
X162147000Y-87349000D01*
X162147000Y-87349000D02*
X162147000Y-87019000D01*
G04 #@! TO.C,U5*
X159059000Y-79353000D02*
X159059000Y-82953000D01*
X159070522Y-79314522D02*
G75*
G02*
X163509000Y-81153000I1838478J-1838478D01*
G01*
X159070522Y-82991478D02*
G75*
G03*
X163509000Y-81153000I1838478J1838478D01*
G01*
G04 #@! TO.C,J10*
X146240000Y-56940000D02*
X136080000Y-56940000D01*
X146240000Y-64560000D02*
X146240000Y-56940000D01*
X136080000Y-64560000D02*
X146240000Y-64560000D01*
X136080000Y-56940000D02*
X136080000Y-64560000D01*
X136080000Y-58210000D02*
X146240000Y-58210000D01*
G04 #@! TD*
G04 #@! TO.C,J7*
D18*
X101126929Y-113446175D02*
X101126929Y-113789477D01*
X101104042Y-113858138D01*
X101058268Y-113903911D01*
X100989608Y-113926798D01*
X100943834Y-113926798D01*
X101310023Y-113446175D02*
X101630439Y-113446175D01*
X101424457Y-113926798D01*
G04 #@! TO.C,J9*
X101634929Y-85379175D02*
X101634929Y-85722477D01*
X101612042Y-85791138D01*
X101566268Y-85836911D01*
X101497608Y-85859798D01*
X101451834Y-85859798D01*
X101886684Y-85859798D02*
X101978231Y-85859798D01*
X102024005Y-85836911D01*
X102046891Y-85814025D01*
X102092665Y-85745364D01*
X102115552Y-85653817D01*
X102115552Y-85470722D01*
X102092665Y-85424949D01*
X102069778Y-85402062D01*
X102024005Y-85379175D01*
X101932457Y-85379175D01*
X101886684Y-85402062D01*
X101863797Y-85424949D01*
X101840910Y-85470722D01*
X101840910Y-85585156D01*
X101863797Y-85630930D01*
X101886684Y-85653817D01*
X101932457Y-85676704D01*
X102024005Y-85676704D01*
X102069778Y-85653817D01*
X102092665Y-85630930D01*
X102115552Y-85585156D01*
G04 #@! TO.C,U4*
D12*
X102600380Y-104266904D02*
X103409904Y-104266904D01*
X103505142Y-104219285D01*
X103552761Y-104171666D01*
X103600380Y-104076428D01*
X103600380Y-103885952D01*
X103552761Y-103790714D01*
X103505142Y-103743095D01*
X103409904Y-103695476D01*
X102600380Y-103695476D01*
X102933714Y-102790714D02*
X103600380Y-102790714D01*
X102552761Y-103028809D02*
X103267047Y-103266904D01*
X103267047Y-102647857D01*
G04 #@! TO.C,U3*
X102600380Y-132841904D02*
X103409904Y-132841904D01*
X103505142Y-132794285D01*
X103552761Y-132746666D01*
X103600380Y-132651428D01*
X103600380Y-132460952D01*
X103552761Y-132365714D01*
X103505142Y-132318095D01*
X103409904Y-132270476D01*
X102600380Y-132270476D01*
X102600380Y-131889523D02*
X102600380Y-131270476D01*
X102981333Y-131603809D01*
X102981333Y-131460952D01*
X103028952Y-131365714D01*
X103076571Y-131318095D01*
X103171809Y-131270476D01*
X103409904Y-131270476D01*
X103505142Y-131318095D01*
X103552761Y-131365714D01*
X103600380Y-131460952D01*
X103600380Y-131746666D01*
X103552761Y-131841904D01*
X103505142Y-131889523D01*
G04 #@! TO.C,J6*
X124612380Y-63662333D02*
X125326666Y-63662333D01*
X125469523Y-63709952D01*
X125564761Y-63805190D01*
X125612380Y-63948047D01*
X125612380Y-64043285D01*
X124612380Y-62757571D02*
X124612380Y-62948047D01*
X124660000Y-63043285D01*
X124707619Y-63090904D01*
X124850476Y-63186142D01*
X125040952Y-63233761D01*
X125421904Y-63233761D01*
X125517142Y-63186142D01*
X125564761Y-63138523D01*
X125612380Y-63043285D01*
X125612380Y-62852809D01*
X125564761Y-62757571D01*
X125517142Y-62709952D01*
X125421904Y-62662333D01*
X125183809Y-62662333D01*
X125088571Y-62709952D01*
X125040952Y-62757571D01*
X124993333Y-62852809D01*
X124993333Y-63043285D01*
X125040952Y-63138523D01*
X125088571Y-63186142D01*
X125183809Y-63233761D01*
X121848571Y-72933000D02*
X121896190Y-72790142D01*
X121943809Y-72742523D01*
X122039047Y-72694904D01*
X122181904Y-72694904D01*
X122277142Y-72742523D01*
X122324761Y-72790142D01*
X122372380Y-72885380D01*
X122372380Y-73266333D01*
X121372380Y-73266333D01*
X121372380Y-72933000D01*
X121420000Y-72837761D01*
X121467619Y-72790142D01*
X121562857Y-72742523D01*
X121658095Y-72742523D01*
X121753333Y-72790142D01*
X121800952Y-72837761D01*
X121848571Y-72933000D01*
X121848571Y-73266333D01*
X122372380Y-72266333D02*
X121372380Y-72266333D01*
X122372380Y-71694904D01*
X121372380Y-71694904D01*
X122277142Y-70647285D02*
X122324761Y-70694904D01*
X122372380Y-70837761D01*
X122372380Y-70933000D01*
X122324761Y-71075857D01*
X122229523Y-71171095D01*
X122134285Y-71218714D01*
X121943809Y-71266333D01*
X121800952Y-71266333D01*
X121610476Y-71218714D01*
X121515238Y-71171095D01*
X121420000Y-71075857D01*
X121372380Y-70933000D01*
X121372380Y-70837761D01*
X121420000Y-70694904D01*
X121467619Y-70647285D01*
X122467619Y-70456809D02*
X122467619Y-69694904D01*
X121372380Y-69171095D02*
X122086666Y-69171095D01*
X122229523Y-69218714D01*
X122324761Y-69313952D01*
X122372380Y-69456809D01*
X122372380Y-69552047D01*
X122372380Y-68266333D02*
X121848571Y-68266333D01*
X121753333Y-68313952D01*
X121705714Y-68409190D01*
X121705714Y-68599666D01*
X121753333Y-68694904D01*
X122324761Y-68266333D02*
X122372380Y-68361571D01*
X122372380Y-68599666D01*
X122324761Y-68694904D01*
X122229523Y-68742523D01*
X122134285Y-68742523D01*
X122039047Y-68694904D01*
X121991428Y-68599666D01*
X121991428Y-68361571D01*
X121943809Y-68266333D01*
X122324761Y-67361571D02*
X122372380Y-67456809D01*
X122372380Y-67647285D01*
X122324761Y-67742523D01*
X122277142Y-67790142D01*
X122181904Y-67837761D01*
X121896190Y-67837761D01*
X121800952Y-67790142D01*
X121753333Y-67742523D01*
X121705714Y-67647285D01*
X121705714Y-67456809D01*
X121753333Y-67361571D01*
X122372380Y-66933000D02*
X121372380Y-66933000D01*
X121991428Y-66837761D02*
X122372380Y-66552047D01*
X121705714Y-66552047D02*
X122086666Y-66933000D01*
G04 #@! TO.C,J5*
X165060380Y-92027333D02*
X165774666Y-92027333D01*
X165917523Y-92074952D01*
X166012761Y-92170190D01*
X166060380Y-92313047D01*
X166060380Y-92408285D01*
X165060380Y-91074952D02*
X165060380Y-91551142D01*
X165536571Y-91598761D01*
X165488952Y-91551142D01*
X165441333Y-91455904D01*
X165441333Y-91217809D01*
X165488952Y-91122571D01*
X165536571Y-91074952D01*
X165631809Y-91027333D01*
X165869904Y-91027333D01*
X165965142Y-91074952D01*
X166012761Y-91122571D01*
X166060380Y-91217809D01*
X166060380Y-91455904D01*
X166012761Y-91551142D01*
X165965142Y-91598761D01*
G04 #@! TO.C,R6*
X140073333Y-82215380D02*
X139740000Y-81739190D01*
X139501904Y-82215380D02*
X139501904Y-81215380D01*
X139882857Y-81215380D01*
X139978095Y-81263000D01*
X140025714Y-81310619D01*
X140073333Y-81405857D01*
X140073333Y-81548714D01*
X140025714Y-81643952D01*
X139978095Y-81691571D01*
X139882857Y-81739190D01*
X139501904Y-81739190D01*
X140930476Y-81215380D02*
X140740000Y-81215380D01*
X140644761Y-81263000D01*
X140597142Y-81310619D01*
X140501904Y-81453476D01*
X140454285Y-81643952D01*
X140454285Y-82024904D01*
X140501904Y-82120142D01*
X140549523Y-82167761D01*
X140644761Y-82215380D01*
X140835238Y-82215380D01*
X140930476Y-82167761D01*
X140978095Y-82120142D01*
X141025714Y-82024904D01*
X141025714Y-81786809D01*
X140978095Y-81691571D01*
X140930476Y-81643952D01*
X140835238Y-81596333D01*
X140644761Y-81596333D01*
X140549523Y-81643952D01*
X140501904Y-81691571D01*
X140454285Y-81786809D01*
G04 #@! TO.C,J8*
X160411666Y-63205380D02*
X160411666Y-63919666D01*
X160364047Y-64062523D01*
X160268809Y-64157761D01*
X160125952Y-64205380D01*
X160030714Y-64205380D01*
X161030714Y-63633952D02*
X160935476Y-63586333D01*
X160887857Y-63538714D01*
X160840238Y-63443476D01*
X160840238Y-63395857D01*
X160887857Y-63300619D01*
X160935476Y-63253000D01*
X161030714Y-63205380D01*
X161221190Y-63205380D01*
X161316428Y-63253000D01*
X161364047Y-63300619D01*
X161411666Y-63395857D01*
X161411666Y-63443476D01*
X161364047Y-63538714D01*
X161316428Y-63586333D01*
X161221190Y-63633952D01*
X161030714Y-63633952D01*
X160935476Y-63681571D01*
X160887857Y-63729190D01*
X160840238Y-63824428D01*
X160840238Y-64014904D01*
X160887857Y-64110142D01*
X160935476Y-64157761D01*
X161030714Y-64205380D01*
X161221190Y-64205380D01*
X161316428Y-64157761D01*
X161364047Y-64110142D01*
X161411666Y-64014904D01*
X161411666Y-63824428D01*
X161364047Y-63729190D01*
X161316428Y-63681571D01*
X161221190Y-63633952D01*
G04 #@! TO.C,R3*
X164409380Y-113831666D02*
X163933190Y-114165000D01*
X164409380Y-114403095D02*
X163409380Y-114403095D01*
X163409380Y-114022142D01*
X163457000Y-113926904D01*
X163504619Y-113879285D01*
X163599857Y-113831666D01*
X163742714Y-113831666D01*
X163837952Y-113879285D01*
X163885571Y-113926904D01*
X163933190Y-114022142D01*
X163933190Y-114403095D01*
X163409380Y-113498333D02*
X163409380Y-112879285D01*
X163790333Y-113212619D01*
X163790333Y-113069761D01*
X163837952Y-112974523D01*
X163885571Y-112926904D01*
X163980809Y-112879285D01*
X164218904Y-112879285D01*
X164314142Y-112926904D01*
X164361761Y-112974523D01*
X164409380Y-113069761D01*
X164409380Y-113355476D01*
X164361761Y-113450714D01*
X164314142Y-113498333D01*
G04 #@! TO.C,Q1*
X157130761Y-121959619D02*
X157035523Y-121912000D01*
X156940285Y-121816761D01*
X156797428Y-121673904D01*
X156702190Y-121626285D01*
X156606952Y-121626285D01*
X156654571Y-121864380D02*
X156559333Y-121816761D01*
X156464095Y-121721523D01*
X156416476Y-121531047D01*
X156416476Y-121197714D01*
X156464095Y-121007238D01*
X156559333Y-120912000D01*
X156654571Y-120864380D01*
X156845047Y-120864380D01*
X156940285Y-120912000D01*
X157035523Y-121007238D01*
X157083142Y-121197714D01*
X157083142Y-121531047D01*
X157035523Y-121721523D01*
X156940285Y-121816761D01*
X156845047Y-121864380D01*
X156654571Y-121864380D01*
X158035523Y-121864380D02*
X157464095Y-121864380D01*
X157749809Y-121864380D02*
X157749809Y-120864380D01*
X157654571Y-121007238D01*
X157559333Y-121102476D01*
X157464095Y-121150095D01*
G04 #@! TO.C,U1*
X173516240Y-82512704D02*
X174325764Y-82512704D01*
X174421002Y-82465085D01*
X174468621Y-82417466D01*
X174516240Y-82322228D01*
X174516240Y-82131752D01*
X174468621Y-82036514D01*
X174421002Y-81988895D01*
X174325764Y-81941276D01*
X173516240Y-81941276D01*
X174516240Y-80941276D02*
X174516240Y-81512704D01*
X174516240Y-81226990D02*
X173516240Y-81226990D01*
X173659098Y-81322228D01*
X173754336Y-81417466D01*
X173801955Y-81512704D01*
X174230526Y-79154847D02*
X174230526Y-78678657D01*
X174516240Y-79250085D02*
X173516240Y-78916752D01*
X174516240Y-78583419D01*
X174516240Y-78250085D02*
X173516240Y-78250085D01*
X173516240Y-78011990D01*
X173563860Y-77869133D01*
X173659098Y-77773895D01*
X173754336Y-77726276D01*
X173944812Y-77678657D01*
X174087669Y-77678657D01*
X174278145Y-77726276D01*
X174373383Y-77773895D01*
X174468621Y-77869133D01*
X174516240Y-78011990D01*
X174516240Y-78250085D01*
X174468621Y-77297704D02*
X174516240Y-77154847D01*
X174516240Y-76916752D01*
X174468621Y-76821514D01*
X174421002Y-76773895D01*
X174325764Y-76726276D01*
X174230526Y-76726276D01*
X174135288Y-76773895D01*
X174087669Y-76821514D01*
X174040050Y-76916752D01*
X173992431Y-77107228D01*
X173944812Y-77202466D01*
X173897193Y-77250085D01*
X173801955Y-77297704D01*
X173706717Y-77297704D01*
X173611479Y-77250085D01*
X173563860Y-77202466D01*
X173516240Y-77107228D01*
X173516240Y-76869133D01*
X173563860Y-76726276D01*
X174516240Y-75773895D02*
X174516240Y-76345323D01*
X174516240Y-76059609D02*
X173516240Y-76059609D01*
X173659098Y-76154847D01*
X173754336Y-76250085D01*
X173801955Y-76345323D01*
X174516240Y-74821514D02*
X174516240Y-75392942D01*
X174516240Y-75107228D02*
X173516240Y-75107228D01*
X173659098Y-75202466D01*
X173754336Y-75297704D01*
X173801955Y-75392942D01*
X174516240Y-73869133D02*
X174516240Y-74440561D01*
X174516240Y-74154847D02*
X173516240Y-74154847D01*
X173659098Y-74250085D01*
X173754336Y-74345323D01*
X173801955Y-74440561D01*
X173516240Y-72964371D02*
X173516240Y-73440561D01*
X173992431Y-73488180D01*
X173944812Y-73440561D01*
X173897193Y-73345323D01*
X173897193Y-73107228D01*
X173944812Y-73011990D01*
X173992431Y-72964371D01*
X174087669Y-72916752D01*
X174325764Y-72916752D01*
X174421002Y-72964371D01*
X174468621Y-73011990D01*
X174516240Y-73107228D01*
X174516240Y-73345323D01*
X174468621Y-73440561D01*
X174421002Y-73488180D01*
X175016526Y-63169180D02*
X175349860Y-64169180D01*
X175683193Y-63169180D01*
X176016526Y-64169180D02*
X176016526Y-63169180D01*
X176254621Y-63169180D01*
X176397479Y-63216800D01*
X176492717Y-63312038D01*
X176540336Y-63407276D01*
X176587955Y-63597752D01*
X176587955Y-63740609D01*
X176540336Y-63931085D01*
X176492717Y-64026323D01*
X176397479Y-64121561D01*
X176254621Y-64169180D01*
X176016526Y-64169180D01*
X177016526Y-64169180D02*
X177016526Y-63169180D01*
X177254621Y-63169180D01*
X177397479Y-63216800D01*
X177492717Y-63312038D01*
X177540336Y-63407276D01*
X177587955Y-63597752D01*
X177587955Y-63740609D01*
X177540336Y-63931085D01*
X177492717Y-64026323D01*
X177397479Y-64121561D01*
X177254621Y-64169180D01*
X177016526Y-64169180D01*
G04 #@! TO.C,U2*
X141986095Y-100544380D02*
X141986095Y-101353904D01*
X142033714Y-101449142D01*
X142081333Y-101496761D01*
X142176571Y-101544380D01*
X142367047Y-101544380D01*
X142462285Y-101496761D01*
X142509904Y-101449142D01*
X142557523Y-101353904D01*
X142557523Y-100544380D01*
X142986095Y-100639619D02*
X143033714Y-100592000D01*
X143128952Y-100544380D01*
X143367047Y-100544380D01*
X143462285Y-100592000D01*
X143509904Y-100639619D01*
X143557523Y-100734857D01*
X143557523Y-100830095D01*
X143509904Y-100972952D01*
X142938476Y-101544380D01*
X143557523Y-101544380D01*
G04 #@! TO.C,J4*
X124914066Y-140066780D02*
X124914066Y-140781066D01*
X124866447Y-140923923D01*
X124771209Y-141019161D01*
X124628352Y-141066780D01*
X124533114Y-141066780D01*
X125818828Y-140400114D02*
X125818828Y-141066780D01*
X125580733Y-140019161D02*
X125342638Y-140733447D01*
X125961685Y-140733447D01*
G04 #@! TO.C,D1*
X145311904Y-122118380D02*
X145311904Y-121118380D01*
X145550000Y-121118380D01*
X145692857Y-121166000D01*
X145788095Y-121261238D01*
X145835714Y-121356476D01*
X145883333Y-121546952D01*
X145883333Y-121689809D01*
X145835714Y-121880285D01*
X145788095Y-121975523D01*
X145692857Y-122070761D01*
X145550000Y-122118380D01*
X145311904Y-122118380D01*
X146835714Y-122118380D02*
X146264285Y-122118380D01*
X146550000Y-122118380D02*
X146550000Y-121118380D01*
X146454761Y-121261238D01*
X146359523Y-121356476D01*
X146264285Y-121404095D01*
G04 #@! TO.C,R2*
X158710333Y-77541380D02*
X158377000Y-77065190D01*
X158138904Y-77541380D02*
X158138904Y-76541380D01*
X158519857Y-76541380D01*
X158615095Y-76589000D01*
X158662714Y-76636619D01*
X158710333Y-76731857D01*
X158710333Y-76874714D01*
X158662714Y-76969952D01*
X158615095Y-77017571D01*
X158519857Y-77065190D01*
X158138904Y-77065190D01*
X159091285Y-76636619D02*
X159138904Y-76589000D01*
X159234142Y-76541380D01*
X159472238Y-76541380D01*
X159567476Y-76589000D01*
X159615095Y-76636619D01*
X159662714Y-76731857D01*
X159662714Y-76827095D01*
X159615095Y-76969952D01*
X159043666Y-77541380D01*
X159662714Y-77541380D01*
G04 #@! TO.C,C2*
X156948142Y-81573666D02*
X156995761Y-81621285D01*
X157043380Y-81764142D01*
X157043380Y-81859380D01*
X156995761Y-82002238D01*
X156900523Y-82097476D01*
X156805285Y-82145095D01*
X156614809Y-82192714D01*
X156471952Y-82192714D01*
X156281476Y-82145095D01*
X156186238Y-82097476D01*
X156091000Y-82002238D01*
X156043380Y-81859380D01*
X156043380Y-81764142D01*
X156091000Y-81621285D01*
X156138619Y-81573666D01*
X156138619Y-81192714D02*
X156091000Y-81145095D01*
X156043380Y-81049857D01*
X156043380Y-80811761D01*
X156091000Y-80716523D01*
X156138619Y-80668904D01*
X156233857Y-80621285D01*
X156329095Y-80621285D01*
X156471952Y-80668904D01*
X157043380Y-81240333D01*
X157043380Y-80621285D01*
G04 #@! TO.C,J12*
X124731476Y-60494380D02*
X124731476Y-61208666D01*
X124683857Y-61351523D01*
X124588619Y-61446761D01*
X124445761Y-61494380D01*
X124350523Y-61494380D01*
X125731476Y-61494380D02*
X125160047Y-61494380D01*
X125445761Y-61494380D02*
X125445761Y-60494380D01*
X125350523Y-60637238D01*
X125255285Y-60732476D01*
X125160047Y-60780095D01*
X126112428Y-60589619D02*
X126160047Y-60542000D01*
X126255285Y-60494380D01*
X126493380Y-60494380D01*
X126588619Y-60542000D01*
X126636238Y-60589619D01*
X126683857Y-60684857D01*
X126683857Y-60780095D01*
X126636238Y-60922952D01*
X126064809Y-61494380D01*
X126683857Y-61494380D01*
G04 #@! TO.C,R1*
X158710333Y-73985380D02*
X158377000Y-73509190D01*
X158138904Y-73985380D02*
X158138904Y-72985380D01*
X158519857Y-72985380D01*
X158615095Y-73033000D01*
X158662714Y-73080619D01*
X158710333Y-73175857D01*
X158710333Y-73318714D01*
X158662714Y-73413952D01*
X158615095Y-73461571D01*
X158519857Y-73509190D01*
X158138904Y-73509190D01*
X159662714Y-73985380D02*
X159091285Y-73985380D01*
X159377000Y-73985380D02*
X159377000Y-72985380D01*
X159281761Y-73128238D01*
X159186523Y-73223476D01*
X159091285Y-73271095D01*
G04 #@! TO.C,U6*
X134734380Y-78451904D02*
X135543904Y-78451904D01*
X135639142Y-78404285D01*
X135686761Y-78356666D01*
X135734380Y-78261428D01*
X135734380Y-78070952D01*
X135686761Y-77975714D01*
X135639142Y-77928095D01*
X135543904Y-77880476D01*
X134734380Y-77880476D01*
X134734380Y-76975714D02*
X134734380Y-77166190D01*
X134782000Y-77261428D01*
X134829619Y-77309047D01*
X134972476Y-77404285D01*
X135162952Y-77451904D01*
X135543904Y-77451904D01*
X135639142Y-77404285D01*
X135686761Y-77356666D01*
X135734380Y-77261428D01*
X135734380Y-77070952D01*
X135686761Y-76975714D01*
X135639142Y-76928095D01*
X135543904Y-76880476D01*
X135305809Y-76880476D01*
X135210571Y-76928095D01*
X135162952Y-76975714D01*
X135115333Y-77070952D01*
X135115333Y-77261428D01*
X135162952Y-77356666D01*
X135210571Y-77404285D01*
X135305809Y-77451904D01*
G04 #@! TO.C,C5*
X162327142Y-121206666D02*
X162374761Y-121254285D01*
X162422380Y-121397142D01*
X162422380Y-121492380D01*
X162374761Y-121635238D01*
X162279523Y-121730476D01*
X162184285Y-121778095D01*
X161993809Y-121825714D01*
X161850952Y-121825714D01*
X161660476Y-121778095D01*
X161565238Y-121730476D01*
X161470000Y-121635238D01*
X161422380Y-121492380D01*
X161422380Y-121397142D01*
X161470000Y-121254285D01*
X161517619Y-121206666D01*
X161422380Y-120301904D02*
X161422380Y-120778095D01*
X161898571Y-120825714D01*
X161850952Y-120778095D01*
X161803333Y-120682857D01*
X161803333Y-120444761D01*
X161850952Y-120349523D01*
X161898571Y-120301904D01*
X161993809Y-120254285D01*
X162231904Y-120254285D01*
X162327142Y-120301904D01*
X162374761Y-120349523D01*
X162422380Y-120444761D01*
X162422380Y-120682857D01*
X162374761Y-120778095D01*
X162327142Y-120825714D01*
G04 #@! TO.C,C6*
X151510142Y-85966666D02*
X151557761Y-86014285D01*
X151605380Y-86157142D01*
X151605380Y-86252380D01*
X151557761Y-86395238D01*
X151462523Y-86490476D01*
X151367285Y-86538095D01*
X151176809Y-86585714D01*
X151033952Y-86585714D01*
X150843476Y-86538095D01*
X150748238Y-86490476D01*
X150653000Y-86395238D01*
X150605380Y-86252380D01*
X150605380Y-86157142D01*
X150653000Y-86014285D01*
X150700619Y-85966666D01*
X150605380Y-85109523D02*
X150605380Y-85300000D01*
X150653000Y-85395238D01*
X150700619Y-85442857D01*
X150843476Y-85538095D01*
X151033952Y-85585714D01*
X151414904Y-85585714D01*
X151510142Y-85538095D01*
X151557761Y-85490476D01*
X151605380Y-85395238D01*
X151605380Y-85204761D01*
X151557761Y-85109523D01*
X151510142Y-85061904D01*
X151414904Y-85014285D01*
X151176809Y-85014285D01*
X151081571Y-85061904D01*
X151033952Y-85109523D01*
X150986333Y-85204761D01*
X150986333Y-85395238D01*
X151033952Y-85490476D01*
X151081571Y-85538095D01*
X151176809Y-85585714D01*
G04 #@! TO.C,C7*
X151529142Y-89157446D02*
X151576761Y-89205065D01*
X151624380Y-89347922D01*
X151624380Y-89443160D01*
X151576761Y-89586018D01*
X151481523Y-89681256D01*
X151386285Y-89728875D01*
X151195809Y-89776494D01*
X151052952Y-89776494D01*
X150862476Y-89728875D01*
X150767238Y-89681256D01*
X150672000Y-89586018D01*
X150624380Y-89443160D01*
X150624380Y-89347922D01*
X150672000Y-89205065D01*
X150719619Y-89157446D01*
X150624380Y-88824113D02*
X150624380Y-88157446D01*
X151624380Y-88586018D01*
G04 #@! TO.C,R4*
X140064333Y-89017380D02*
X139731000Y-88541190D01*
X139492904Y-89017380D02*
X139492904Y-88017380D01*
X139873857Y-88017380D01*
X139969095Y-88065000D01*
X140016714Y-88112619D01*
X140064333Y-88207857D01*
X140064333Y-88350714D01*
X140016714Y-88445952D01*
X139969095Y-88493571D01*
X139873857Y-88541190D01*
X139492904Y-88541190D01*
X140921476Y-88350714D02*
X140921476Y-89017380D01*
X140683380Y-87969761D02*
X140445285Y-88684047D01*
X141064333Y-88684047D01*
G04 #@! TO.C,U7*
X149947380Y-76072904D02*
X150756904Y-76072904D01*
X150852142Y-76025285D01*
X150899761Y-75977666D01*
X150947380Y-75882428D01*
X150947380Y-75691952D01*
X150899761Y-75596714D01*
X150852142Y-75549095D01*
X150756904Y-75501476D01*
X149947380Y-75501476D01*
X149947380Y-75120523D02*
X149947380Y-74453857D01*
X150947380Y-74882428D01*
G04 #@! TO.C,A1*
X182927714Y-125388666D02*
X183403904Y-125388666D01*
X182832476Y-125674380D02*
X183165809Y-124674380D01*
X183499142Y-125674380D01*
X184356285Y-125674380D02*
X183784857Y-125674380D01*
X184070571Y-125674380D02*
X184070571Y-124674380D01*
X183975333Y-124817238D01*
X183880095Y-124912476D01*
X183784857Y-124960095D01*
G04 #@! TO.C,C1*
X161812857Y-62172333D02*
X161765238Y-62124714D01*
X161717619Y-61981857D01*
X161717619Y-61886619D01*
X161765238Y-61743761D01*
X161860476Y-61648523D01*
X161955714Y-61600904D01*
X162146190Y-61553285D01*
X162289047Y-61553285D01*
X162479523Y-61600904D01*
X162574761Y-61648523D01*
X162670000Y-61743761D01*
X162717619Y-61886619D01*
X162717619Y-61981857D01*
X162670000Y-62124714D01*
X162622380Y-62172333D01*
X161717619Y-63124714D02*
X161717619Y-62553285D01*
X161717619Y-62839000D02*
X162717619Y-62839000D01*
X162574761Y-62743761D01*
X162479523Y-62648523D01*
X162431904Y-62553285D01*
G04 #@! TO.C,C3*
X161862857Y-58945333D02*
X161815238Y-58897714D01*
X161767619Y-58754857D01*
X161767619Y-58659619D01*
X161815238Y-58516761D01*
X161910476Y-58421523D01*
X162005714Y-58373904D01*
X162196190Y-58326285D01*
X162339047Y-58326285D01*
X162529523Y-58373904D01*
X162624761Y-58421523D01*
X162720000Y-58516761D01*
X162767619Y-58659619D01*
X162767619Y-58754857D01*
X162720000Y-58897714D01*
X162672380Y-58945333D01*
X162767619Y-59278666D02*
X162767619Y-59897714D01*
X162386666Y-59564380D01*
X162386666Y-59707238D01*
X162339047Y-59802476D01*
X162291428Y-59850095D01*
X162196190Y-59897714D01*
X161958095Y-59897714D01*
X161862857Y-59850095D01*
X161815238Y-59802476D01*
X161767619Y-59707238D01*
X161767619Y-59421523D01*
X161815238Y-59326285D01*
X161862857Y-59278666D01*
G04 #@! TO.C,C4*
X164298333Y-103227142D02*
X164250714Y-103274761D01*
X164107857Y-103322380D01*
X164012619Y-103322380D01*
X163869761Y-103274761D01*
X163774523Y-103179523D01*
X163726904Y-103084285D01*
X163679285Y-102893809D01*
X163679285Y-102750952D01*
X163726904Y-102560476D01*
X163774523Y-102465238D01*
X163869761Y-102370000D01*
X164012619Y-102322380D01*
X164107857Y-102322380D01*
X164250714Y-102370000D01*
X164298333Y-102417619D01*
X165155476Y-102655714D02*
X165155476Y-103322380D01*
X164917380Y-102274761D02*
X164679285Y-102989047D01*
X165298333Y-102989047D01*
G04 #@! TO.C,RV1*
X172529761Y-98826380D02*
X172196428Y-98350190D01*
X171958333Y-98826380D02*
X171958333Y-97826380D01*
X172339285Y-97826380D01*
X172434523Y-97874000D01*
X172482142Y-97921619D01*
X172529761Y-98016857D01*
X172529761Y-98159714D01*
X172482142Y-98254952D01*
X172434523Y-98302571D01*
X172339285Y-98350190D01*
X171958333Y-98350190D01*
X172815476Y-97826380D02*
X173148809Y-98826380D01*
X173482142Y-97826380D01*
X174339285Y-98826380D02*
X173767857Y-98826380D01*
X174053571Y-98826380D02*
X174053571Y-97826380D01*
X173958333Y-97969238D01*
X173863095Y-98064476D01*
X173767857Y-98112095D01*
G04 #@! TO.C,U8*
X168062380Y-60555904D02*
X168871904Y-60555904D01*
X168967142Y-60508285D01*
X169014761Y-60460666D01*
X169062380Y-60365428D01*
X169062380Y-60174952D01*
X169014761Y-60079714D01*
X168967142Y-60032095D01*
X168871904Y-59984476D01*
X168062380Y-59984476D01*
X168490952Y-59365428D02*
X168443333Y-59460666D01*
X168395714Y-59508285D01*
X168300476Y-59555904D01*
X168252857Y-59555904D01*
X168157619Y-59508285D01*
X168110000Y-59460666D01*
X168062380Y-59365428D01*
X168062380Y-59174952D01*
X168110000Y-59079714D01*
X168157619Y-59032095D01*
X168252857Y-58984476D01*
X168300476Y-58984476D01*
X168395714Y-59032095D01*
X168443333Y-59079714D01*
X168490952Y-59174952D01*
X168490952Y-59365428D01*
X168538571Y-59460666D01*
X168586190Y-59508285D01*
X168681428Y-59555904D01*
X168871904Y-59555904D01*
X168967142Y-59508285D01*
X169014761Y-59460666D01*
X169062380Y-59365428D01*
X169062380Y-59174952D01*
X169014761Y-59079714D01*
X168967142Y-59032095D01*
X168871904Y-58984476D01*
X168681428Y-58984476D01*
X168586190Y-59032095D01*
X168538571Y-59079714D01*
X168490952Y-59174952D01*
X168411490Y-64056457D02*
X167935219Y-64056457D01*
X167935219Y-63056287D01*
X168649626Y-63056287D02*
X169316406Y-63056287D01*
X168887762Y-64056457D01*
X169840305Y-63484932D02*
X169745050Y-63437305D01*
X169697423Y-63389677D01*
X169649796Y-63294423D01*
X169649796Y-63246796D01*
X169697423Y-63151542D01*
X169745050Y-63103915D01*
X169840305Y-63056287D01*
X170030813Y-63056287D01*
X170126067Y-63103915D01*
X170173695Y-63151542D01*
X170221322Y-63246796D01*
X170221322Y-63294423D01*
X170173695Y-63389677D01*
X170126067Y-63437305D01*
X170030813Y-63484932D01*
X169840305Y-63484932D01*
X169745050Y-63532559D01*
X169697423Y-63580186D01*
X169649796Y-63675440D01*
X169649796Y-63865949D01*
X169697423Y-63961203D01*
X169745050Y-64008830D01*
X169840305Y-64056457D01*
X170030813Y-64056457D01*
X170126067Y-64008830D01*
X170173695Y-63961203D01*
X170221322Y-63865949D01*
X170221322Y-63675440D01*
X170173695Y-63580186D01*
X170126067Y-63532559D01*
X170030813Y-63484932D01*
X170840475Y-63056287D02*
X170935729Y-63056287D01*
X171030983Y-63103915D01*
X171078610Y-63151542D01*
X171126237Y-63246796D01*
X171173865Y-63437305D01*
X171173865Y-63675440D01*
X171126237Y-63865949D01*
X171078610Y-63961203D01*
X171030983Y-64008830D01*
X170935729Y-64056457D01*
X170840475Y-64056457D01*
X170745220Y-64008830D01*
X170697593Y-63961203D01*
X170649966Y-63865949D01*
X170602339Y-63675440D01*
X170602339Y-63437305D01*
X170649966Y-63246796D01*
X170697593Y-63151542D01*
X170745220Y-63103915D01*
X170840475Y-63056287D01*
X172078780Y-63056287D02*
X171602509Y-63056287D01*
X171554882Y-63532559D01*
X171602509Y-63484932D01*
X171697763Y-63437305D01*
X171935899Y-63437305D01*
X172031153Y-63484932D01*
X172078780Y-63532559D01*
X172126407Y-63627813D01*
X172126407Y-63865949D01*
X172078780Y-63961203D01*
X172031153Y-64008830D01*
X171935899Y-64056457D01*
X171697763Y-64056457D01*
X171602509Y-64008830D01*
X171554882Y-63961203D01*
D19*
X171023291Y-58289440D02*
X171213768Y-58289440D01*
X171309006Y-58337060D01*
X171404244Y-58432298D01*
X171451863Y-58622774D01*
X171451863Y-58956107D01*
X171404244Y-59146583D01*
X171309006Y-59241821D01*
X171213768Y-59289440D01*
X171023291Y-59289440D01*
X170928053Y-59241821D01*
X170832815Y-59146583D01*
X170785196Y-58956107D01*
X170785196Y-58622774D01*
X170832815Y-58432298D01*
X170928053Y-58337060D01*
X171023291Y-58289440D01*
X176204020Y-59287550D02*
X176204020Y-58287550D01*
X173279390Y-58909368D02*
X174041295Y-58909368D01*
G04 #@! TO.C,C8*
D12*
X151554142Y-82691666D02*
X151601761Y-82739285D01*
X151649380Y-82882142D01*
X151649380Y-82977380D01*
X151601761Y-83120238D01*
X151506523Y-83215476D01*
X151411285Y-83263095D01*
X151220809Y-83310714D01*
X151077952Y-83310714D01*
X150887476Y-83263095D01*
X150792238Y-83215476D01*
X150697000Y-83120238D01*
X150649380Y-82977380D01*
X150649380Y-82882142D01*
X150697000Y-82739285D01*
X150744619Y-82691666D01*
X151077952Y-82120238D02*
X151030333Y-82215476D01*
X150982714Y-82263095D01*
X150887476Y-82310714D01*
X150839857Y-82310714D01*
X150744619Y-82263095D01*
X150697000Y-82215476D01*
X150649380Y-82120238D01*
X150649380Y-81929761D01*
X150697000Y-81834523D01*
X150744619Y-81786904D01*
X150839857Y-81739285D01*
X150887476Y-81739285D01*
X150982714Y-81786904D01*
X151030333Y-81834523D01*
X151077952Y-81929761D01*
X151077952Y-82120238D01*
X151125571Y-82215476D01*
X151173190Y-82263095D01*
X151268428Y-82310714D01*
X151458904Y-82310714D01*
X151554142Y-82263095D01*
X151601761Y-82215476D01*
X151649380Y-82120238D01*
X151649380Y-81929761D01*
X151601761Y-81834523D01*
X151554142Y-81786904D01*
X151458904Y-81739285D01*
X151268428Y-81739285D01*
X151173190Y-81786904D01*
X151125571Y-81834523D01*
X151077952Y-81929761D01*
G04 #@! TO.C,R5*
X140064333Y-85744380D02*
X139731000Y-85268190D01*
X139492904Y-85744380D02*
X139492904Y-84744380D01*
X139873857Y-84744380D01*
X139969095Y-84792000D01*
X140016714Y-84839619D01*
X140064333Y-84934857D01*
X140064333Y-85077714D01*
X140016714Y-85172952D01*
X139969095Y-85220571D01*
X139873857Y-85268190D01*
X139492904Y-85268190D01*
X140969095Y-84744380D02*
X140492904Y-84744380D01*
X140445285Y-85220571D01*
X140492904Y-85172952D01*
X140588142Y-85125333D01*
X140826238Y-85125333D01*
X140921476Y-85172952D01*
X140969095Y-85220571D01*
X141016714Y-85315809D01*
X141016714Y-85553904D01*
X140969095Y-85649142D01*
X140921476Y-85696761D01*
X140826238Y-85744380D01*
X140588142Y-85744380D01*
X140492904Y-85696761D01*
X140445285Y-85649142D01*
G04 #@! TO.C,R7*
X158710333Y-86939380D02*
X158377000Y-86463190D01*
X158138904Y-86939380D02*
X158138904Y-85939380D01*
X158519857Y-85939380D01*
X158615095Y-85987000D01*
X158662714Y-86034619D01*
X158710333Y-86129857D01*
X158710333Y-86272714D01*
X158662714Y-86367952D01*
X158615095Y-86415571D01*
X158519857Y-86463190D01*
X158138904Y-86463190D01*
X159043666Y-85939380D02*
X159710333Y-85939380D01*
X159281761Y-86939380D01*
G04 #@! TO.C,U5*
X162139380Y-81914904D02*
X162948904Y-81914904D01*
X163044142Y-81867285D01*
X163091761Y-81819666D01*
X163139380Y-81724428D01*
X163139380Y-81533952D01*
X163091761Y-81438714D01*
X163044142Y-81391095D01*
X162948904Y-81343476D01*
X162139380Y-81343476D01*
X162139380Y-80391095D02*
X162139380Y-80867285D01*
X162615571Y-80914904D01*
X162567952Y-80867285D01*
X162520333Y-80772047D01*
X162520333Y-80533952D01*
X162567952Y-80438714D01*
X162615571Y-80391095D01*
X162710809Y-80343476D01*
X162948904Y-80343476D01*
X163044142Y-80391095D01*
X163091761Y-80438714D01*
X163139380Y-80533952D01*
X163139380Y-80772047D01*
X163091761Y-80867285D01*
X163044142Y-80914904D01*
G04 #@! TO.C,H1*
X131738095Y-58364380D02*
X131738095Y-57364380D01*
X131738095Y-57840571D02*
X132309523Y-57840571D01*
X132309523Y-58364380D02*
X132309523Y-57364380D01*
X133309523Y-58364380D02*
X132738095Y-58364380D01*
X133023809Y-58364380D02*
X133023809Y-57364380D01*
X132928571Y-57507238D01*
X132833333Y-57602476D01*
X132738095Y-57650095D01*
G04 #@! TO.C,H2*
X180848095Y-58364380D02*
X180848095Y-57364380D01*
X180848095Y-57840571D02*
X181419523Y-57840571D01*
X181419523Y-58364380D02*
X181419523Y-57364380D01*
X181848095Y-57459619D02*
X181895714Y-57412000D01*
X181990952Y-57364380D01*
X182229047Y-57364380D01*
X182324285Y-57412000D01*
X182371904Y-57459619D01*
X182419523Y-57554857D01*
X182419523Y-57650095D01*
X182371904Y-57792952D01*
X181800476Y-58364380D01*
X182419523Y-58364380D01*
G04 #@! TO.C,H3*
X180738095Y-116276380D02*
X180738095Y-115276380D01*
X180738095Y-115752571D02*
X181309523Y-115752571D01*
X181309523Y-116276380D02*
X181309523Y-115276380D01*
X181690476Y-115276380D02*
X182309523Y-115276380D01*
X181976190Y-115657333D01*
X182119047Y-115657333D01*
X182214285Y-115704952D01*
X182261904Y-115752571D01*
X182309523Y-115847809D01*
X182309523Y-116085904D01*
X182261904Y-116181142D01*
X182214285Y-116228761D01*
X182119047Y-116276380D01*
X181833333Y-116276380D01*
X181738095Y-116228761D01*
X181690476Y-116181142D01*
G04 #@! TO.C,H4*
X131826095Y-116276380D02*
X131826095Y-115276380D01*
X131826095Y-115752571D02*
X132397523Y-115752571D01*
X132397523Y-116276380D02*
X132397523Y-115276380D01*
X133302285Y-115609714D02*
X133302285Y-116276380D01*
X133064190Y-115228761D02*
X132826095Y-115943047D01*
X133445142Y-115943047D01*
G04 #@! TO.C,H5*
X103138095Y-77727380D02*
X103138095Y-76727380D01*
X103138095Y-77203571D02*
X103709523Y-77203571D01*
X103709523Y-77727380D02*
X103709523Y-76727380D01*
X104661904Y-76727380D02*
X104185714Y-76727380D01*
X104138095Y-77203571D01*
X104185714Y-77155952D01*
X104280952Y-77108333D01*
X104519047Y-77108333D01*
X104614285Y-77155952D01*
X104661904Y-77203571D01*
X104709523Y-77298809D01*
X104709523Y-77536904D01*
X104661904Y-77632142D01*
X104614285Y-77679761D01*
X104519047Y-77727380D01*
X104280952Y-77727380D01*
X104185714Y-77679761D01*
X104138095Y-77632142D01*
G04 #@! TO.C,H6*
X103863095Y-135502380D02*
X103863095Y-134502380D01*
X103863095Y-134978571D02*
X104434523Y-134978571D01*
X104434523Y-135502380D02*
X104434523Y-134502380D01*
X105339285Y-134502380D02*
X105148809Y-134502380D01*
X105053571Y-134550000D01*
X105005952Y-134597619D01*
X104910714Y-134740476D01*
X104863095Y-134930952D01*
X104863095Y-135311904D01*
X104910714Y-135407142D01*
X104958333Y-135454761D01*
X105053571Y-135502380D01*
X105244047Y-135502380D01*
X105339285Y-135454761D01*
X105386904Y-135407142D01*
X105434523Y-135311904D01*
X105434523Y-135073809D01*
X105386904Y-134978571D01*
X105339285Y-134930952D01*
X105244047Y-134883333D01*
X105053571Y-134883333D01*
X104958333Y-134930952D01*
X104910714Y-134978571D01*
X104863095Y-135073809D01*
G04 #@! TO.C,J10*
X140350476Y-65282380D02*
X140350476Y-65996666D01*
X140302857Y-66139523D01*
X140207619Y-66234761D01*
X140064761Y-66282380D01*
X139969523Y-66282380D01*
X141350476Y-66282380D02*
X140779047Y-66282380D01*
X141064761Y-66282380D02*
X141064761Y-65282380D01*
X140969523Y-65425238D01*
X140874285Y-65520476D01*
X140779047Y-65568095D01*
X141969523Y-65282380D02*
X142064761Y-65282380D01*
X142160000Y-65330000D01*
X142207619Y-65377619D01*
X142255238Y-65472857D01*
X142302857Y-65663333D01*
X142302857Y-65901428D01*
X142255238Y-66091904D01*
X142207619Y-66187142D01*
X142160000Y-66234761D01*
X142064761Y-66282380D01*
X141969523Y-66282380D01*
X141874285Y-66234761D01*
X141826666Y-66187142D01*
X141779047Y-66091904D01*
X141731428Y-65901428D01*
X141731428Y-65663333D01*
X141779047Y-65472857D01*
X141826666Y-65377619D01*
X141874285Y-65330000D01*
X141969523Y-65282380D01*
G04 #@! TD*
M02*
