G04 #@! TF.GenerationSoftware,KiCad,Pcbnew,(5.1.9)-1*
G04 #@! TF.CreationDate,2021-03-09T13:02:45-08:00*
G04 #@! TF.ProjectId,full_project,66756c6c-5f70-4726-9f6a-6563742e6b69,2.0*
G04 #@! TF.SameCoordinates,Original*
G04 #@! TF.FileFunction,Soldermask,Bot*
G04 #@! TF.FilePolarity,Negative*
%FSLAX46Y46*%
G04 Gerber Fmt 4.6, Leading zero omitted, Abs format (unit mm)*
G04 Created by KiCad (PCBNEW (5.1.9)-1) date 2021-03-09 13:02:45*
%MOMM*%
%LPD*%
G01*
G04 APERTURE LIST*
G04 #@! TA.AperFunction,Profile*
%ADD10C,0.050000*%
G04 #@! TD*
%ADD11C,0.050000*%
%ADD12C,1.752000*%
%ADD13C,1.202000*%
%ADD14O,1.802000X1.802000*%
%ADD15C,2.502000*%
%ADD16C,2.642000*%
%ADD17C,1.499000*%
%ADD18C,2.007000*%
%ADD19C,1.702000*%
%ADD20O,1.702000X1.702000*%
%ADD21C,3.102000*%
%ADD22O,1.152000X1.602000*%
%ADD23O,2.102000X2.102000*%
%ADD24C,1.722000*%
%ADD25O,1.626000X3.150000*%
%ADD26O,1.602000X1.152000*%
%ADD27C,0.150000*%
G04 APERTURE END LIST*
D10*
X111379000Y-77851000D02*
X111379000Y-56636000D01*
X100457000Y-77851000D02*
X111379000Y-77851000D01*
X189000000Y-142488000D02*
X189000000Y-142688000D01*
X188600000Y-142688000D02*
X189000000Y-142688000D01*
X188600000Y-56636000D02*
X189000000Y-56636000D01*
X189000000Y-56636000D02*
X189000000Y-142488000D01*
X187600000Y-142688000D02*
X188600000Y-142688000D01*
X187600000Y-56636000D02*
X188600000Y-56636000D01*
X187000000Y-142688000D02*
X187600000Y-142688000D01*
X187000000Y-56636000D02*
X187600000Y-56636000D01*
X185032000Y-56636000D02*
X187000000Y-56636000D01*
X185032000Y-142688000D02*
X187000000Y-142688000D01*
X100457000Y-77851000D02*
X100457000Y-142688000D01*
X100457000Y-142688000D02*
X185032000Y-142688000D01*
X185032000Y-56636000D02*
X111379000Y-56636000D01*
G04 #@! TO.C,U8*
D11*
X171023291Y-58289440D02*
X171213768Y-58289440D01*
X171309006Y-58337060D01*
X171404244Y-58432298D01*
X171451863Y-58622774D01*
X171451863Y-58956107D01*
X171404244Y-59146583D01*
X171309006Y-59241821D01*
X171213768Y-59289440D01*
X171023291Y-59289440D01*
X170928053Y-59241821D01*
X170832815Y-59146583D01*
X170785196Y-58956107D01*
X170785196Y-58622774D01*
X170832815Y-58432298D01*
X170928053Y-58337060D01*
X171023291Y-58289440D01*
X176204020Y-59287550D02*
X176204020Y-58287550D01*
X173279390Y-58909368D02*
X174041295Y-58909368D01*
X171023291Y-58289440D02*
X171213768Y-58289440D01*
X171309006Y-58337060D01*
X171404244Y-58432298D01*
X171451863Y-58622774D01*
X171451863Y-58956107D01*
X171404244Y-59146583D01*
X171309006Y-59241821D01*
X171213768Y-59289440D01*
X171023291Y-59289440D01*
X170928053Y-59241821D01*
X170832815Y-59146583D01*
X170785196Y-58956107D01*
X170785196Y-58622774D01*
X170832815Y-58432298D01*
X170928053Y-58337060D01*
X171023291Y-58289440D01*
X176204020Y-59287550D02*
X176204020Y-58287550D01*
X173279390Y-58909368D02*
X174041295Y-58909368D01*
X171023291Y-58289440D02*
X171213768Y-58289440D01*
X171309006Y-58337060D01*
X171404244Y-58432298D01*
X171451863Y-58622774D01*
X171451863Y-58956107D01*
X171404244Y-59146583D01*
X171309006Y-59241821D01*
X171213768Y-59289440D01*
X171023291Y-59289440D01*
X170928053Y-59241821D01*
X170832815Y-59146583D01*
X170785196Y-58956107D01*
X170785196Y-58622774D01*
X170832815Y-58432298D01*
X170928053Y-58337060D01*
X171023291Y-58289440D01*
X176204020Y-59287550D02*
X176204020Y-58287550D01*
X173279390Y-58909368D02*
X174041295Y-58909368D01*
X171023291Y-58289440D02*
X171213768Y-58289440D01*
X171309006Y-58337060D01*
X171404244Y-58432298D01*
X171451863Y-58622774D01*
X171451863Y-58956107D01*
X171404244Y-59146583D01*
X171309006Y-59241821D01*
X171213768Y-59289440D01*
X171023291Y-59289440D01*
X170928053Y-59241821D01*
X170832815Y-59146583D01*
X170785196Y-58956107D01*
X170785196Y-58622774D01*
X170832815Y-58432298D01*
X170928053Y-58337060D01*
X171023291Y-58289440D01*
X176204020Y-59287550D02*
X176204020Y-58287550D01*
X173279390Y-58909368D02*
X174041295Y-58909368D01*
X171023291Y-58289440D02*
X171213768Y-58289440D01*
X171309006Y-58337060D01*
X171404244Y-58432298D01*
X171451863Y-58622774D01*
X171451863Y-58956107D01*
X171404244Y-59146583D01*
X171309006Y-59241821D01*
X171213768Y-59289440D01*
X171023291Y-59289440D01*
X170928053Y-59241821D01*
X170832815Y-59146583D01*
X170785196Y-58956107D01*
X170785196Y-58622774D01*
X170832815Y-58432298D01*
X170928053Y-58337060D01*
X171023291Y-58289440D01*
X176204020Y-59287550D02*
X176204020Y-58287550D01*
X173279390Y-58909368D02*
X174041295Y-58909368D01*
X171023291Y-58289440D02*
X171213768Y-58289440D01*
X171309006Y-58337060D01*
X171404244Y-58432298D01*
X171451863Y-58622774D01*
X171451863Y-58956107D01*
X171404244Y-59146583D01*
X171309006Y-59241821D01*
X171213768Y-59289440D01*
X171023291Y-59289440D01*
X170928053Y-59241821D01*
X170832815Y-59146583D01*
X170785196Y-58956107D01*
X170785196Y-58622774D01*
X170832815Y-58432298D01*
X170928053Y-58337060D01*
X171023291Y-58289440D01*
X176204020Y-59287550D02*
X176204020Y-58287550D01*
X173279390Y-58909368D02*
X174041295Y-58909368D01*
X171023291Y-58289440D02*
X171213768Y-58289440D01*
X171309006Y-58337060D01*
X171404244Y-58432298D01*
X171451863Y-58622774D01*
X171451863Y-58956107D01*
X171404244Y-59146583D01*
X171309006Y-59241821D01*
X171213768Y-59289440D01*
X171023291Y-59289440D01*
X170928053Y-59241821D01*
X170832815Y-59146583D01*
X170785196Y-58956107D01*
X170785196Y-58622774D01*
X170832815Y-58432298D01*
X170928053Y-58337060D01*
X171023291Y-58289440D01*
X176204020Y-59287550D02*
X176204020Y-58287550D01*
X173279390Y-58909368D02*
X174041295Y-58909368D01*
X171023291Y-58289440D02*
X171213768Y-58289440D01*
X171309006Y-58337060D01*
X171404244Y-58432298D01*
X171451863Y-58622774D01*
X171451863Y-58956107D01*
X171404244Y-59146583D01*
X171309006Y-59241821D01*
X171213768Y-59289440D01*
X171023291Y-59289440D01*
X170928053Y-59241821D01*
X170832815Y-59146583D01*
X170785196Y-58956107D01*
X170785196Y-58622774D01*
X170832815Y-58432298D01*
X170928053Y-58337060D01*
X171023291Y-58289440D01*
X176204020Y-59287550D02*
X176204020Y-58287550D01*
X173279390Y-58909368D02*
X174041295Y-58909368D01*
X171023291Y-58289440D02*
X171213768Y-58289440D01*
X171309006Y-58337060D01*
X171404244Y-58432298D01*
X171451863Y-58622774D01*
X171451863Y-58956107D01*
X171404244Y-59146583D01*
X171309006Y-59241821D01*
X171213768Y-59289440D01*
X171023291Y-59289440D01*
X170928053Y-59241821D01*
X170832815Y-59146583D01*
X170785196Y-58956107D01*
X170785196Y-58622774D01*
X170832815Y-58432298D01*
X170928053Y-58337060D01*
X171023291Y-58289440D01*
X176204020Y-59287550D02*
X176204020Y-58287550D01*
X173279390Y-58909368D02*
X174041295Y-58909368D01*
X171023291Y-58289440D02*
X171213768Y-58289440D01*
X171309006Y-58337060D01*
X171404244Y-58432298D01*
X171451863Y-58622774D01*
X171451863Y-58956107D01*
X171404244Y-59146583D01*
X171309006Y-59241821D01*
X171213768Y-59289440D01*
X171023291Y-59289440D01*
X170928053Y-59241821D01*
X170832815Y-59146583D01*
X170785196Y-58956107D01*
X170785196Y-58622774D01*
X170832815Y-58432298D01*
X170928053Y-58337060D01*
X171023291Y-58289440D01*
X176204020Y-59287550D02*
X176204020Y-58287550D01*
X173279390Y-58909368D02*
X174041295Y-58909368D01*
X171023291Y-58289440D02*
X171213768Y-58289440D01*
X171309006Y-58337060D01*
X171404244Y-58432298D01*
X171451863Y-58622774D01*
X171451863Y-58956107D01*
X171404244Y-59146583D01*
X171309006Y-59241821D01*
X171213768Y-59289440D01*
X171023291Y-59289440D01*
X170928053Y-59241821D01*
X170832815Y-59146583D01*
X170785196Y-58956107D01*
X170785196Y-58622774D01*
X170832815Y-58432298D01*
X170928053Y-58337060D01*
X171023291Y-58289440D01*
X176204020Y-59287550D02*
X176204020Y-58287550D01*
X173279390Y-58909368D02*
X174041295Y-58909368D01*
X171023291Y-58289440D02*
X171213768Y-58289440D01*
X171309006Y-58337060D01*
X171404244Y-58432298D01*
X171451863Y-58622774D01*
X171451863Y-58956107D01*
X171404244Y-59146583D01*
X171309006Y-59241821D01*
X171213768Y-59289440D01*
X171023291Y-59289440D01*
X170928053Y-59241821D01*
X170832815Y-59146583D01*
X170785196Y-58956107D01*
X170785196Y-58622774D01*
X170832815Y-58432298D01*
X170928053Y-58337060D01*
X171023291Y-58289440D01*
X176204020Y-59287550D02*
X176204020Y-58287550D01*
X173279390Y-58909368D02*
X174041295Y-58909368D01*
X171023291Y-58289440D02*
X171213768Y-58289440D01*
X171309006Y-58337060D01*
X171404244Y-58432298D01*
X171451863Y-58622774D01*
X171451863Y-58956107D01*
X171404244Y-59146583D01*
X171309006Y-59241821D01*
X171213768Y-59289440D01*
X171023291Y-59289440D01*
X170928053Y-59241821D01*
X170832815Y-59146583D01*
X170785196Y-58956107D01*
X170785196Y-58622774D01*
X170832815Y-58432298D01*
X170928053Y-58337060D01*
X171023291Y-58289440D01*
X176204020Y-59287550D02*
X176204020Y-58287550D01*
X173279390Y-58909368D02*
X174041295Y-58909368D01*
X171023291Y-58289440D02*
X171213768Y-58289440D01*
X171309006Y-58337060D01*
X171404244Y-58432298D01*
X171451863Y-58622774D01*
X171451863Y-58956107D01*
X171404244Y-59146583D01*
X171309006Y-59241821D01*
X171213768Y-59289440D01*
X171023291Y-59289440D01*
X170928053Y-59241821D01*
X170832815Y-59146583D01*
X170785196Y-58956107D01*
X170785196Y-58622774D01*
X170832815Y-58432298D01*
X170928053Y-58337060D01*
X171023291Y-58289440D01*
X176204020Y-59287550D02*
X176204020Y-58287550D01*
X173279390Y-58909368D02*
X174041295Y-58909368D01*
X171023291Y-58289440D02*
X171213768Y-58289440D01*
X171309006Y-58337060D01*
X171404244Y-58432298D01*
X171451863Y-58622774D01*
X171451863Y-58956107D01*
X171404244Y-59146583D01*
X171309006Y-59241821D01*
X171213768Y-59289440D01*
X171023291Y-59289440D01*
X170928053Y-59241821D01*
X170832815Y-59146583D01*
X170785196Y-58956107D01*
X170785196Y-58622774D01*
X170832815Y-58432298D01*
X170928053Y-58337060D01*
X171023291Y-58289440D01*
X176204020Y-59287550D02*
X176204020Y-58287550D01*
X173279390Y-58909368D02*
X174041295Y-58909368D01*
X171023291Y-58289440D02*
X171213768Y-58289440D01*
X171309006Y-58337060D01*
X171404244Y-58432298D01*
X171451863Y-58622774D01*
X171451863Y-58956107D01*
X171404244Y-59146583D01*
X171309006Y-59241821D01*
X171213768Y-59289440D01*
X171023291Y-59289440D01*
X170928053Y-59241821D01*
X170832815Y-59146583D01*
X170785196Y-58956107D01*
X170785196Y-58622774D01*
X170832815Y-58432298D01*
X170928053Y-58337060D01*
X171023291Y-58289440D01*
X176204020Y-59287550D02*
X176204020Y-58287550D01*
X173279390Y-58909368D02*
X174041295Y-58909368D01*
X171023291Y-58289440D02*
X171213768Y-58289440D01*
X171309006Y-58337060D01*
X171404244Y-58432298D01*
X171451863Y-58622774D01*
X171451863Y-58956107D01*
X171404244Y-59146583D01*
X171309006Y-59241821D01*
X171213768Y-59289440D01*
X171023291Y-59289440D01*
X170928053Y-59241821D01*
X170832815Y-59146583D01*
X170785196Y-58956107D01*
X170785196Y-58622774D01*
X170832815Y-58432298D01*
X170928053Y-58337060D01*
X171023291Y-58289440D01*
X176204020Y-59287550D02*
X176204020Y-58287550D01*
X173279390Y-58909368D02*
X174041295Y-58909368D01*
X171023291Y-58289440D02*
X171213768Y-58289440D01*
X171309006Y-58337060D01*
X171404244Y-58432298D01*
X171451863Y-58622774D01*
X171451863Y-58956107D01*
X171404244Y-59146583D01*
X171309006Y-59241821D01*
X171213768Y-59289440D01*
X171023291Y-59289440D01*
X170928053Y-59241821D01*
X170832815Y-59146583D01*
X170785196Y-58956107D01*
X170785196Y-58622774D01*
X170832815Y-58432298D01*
X170928053Y-58337060D01*
X171023291Y-58289440D01*
X176204020Y-59287550D02*
X176204020Y-58287550D01*
X173279390Y-58909368D02*
X174041295Y-58909368D01*
X171023291Y-58289440D02*
X171213768Y-58289440D01*
X171309006Y-58337060D01*
X171404244Y-58432298D01*
X171451863Y-58622774D01*
X171451863Y-58956107D01*
X171404244Y-59146583D01*
X171309006Y-59241821D01*
X171213768Y-59289440D01*
X171023291Y-59289440D01*
X170928053Y-59241821D01*
X170832815Y-59146583D01*
X170785196Y-58956107D01*
X170785196Y-58622774D01*
X170832815Y-58432298D01*
X170928053Y-58337060D01*
X171023291Y-58289440D01*
X176204020Y-59287550D02*
X176204020Y-58287550D01*
X173279390Y-58909368D02*
X174041295Y-58909368D01*
D10*
X111379000Y-77851000D02*
X111379000Y-56636000D01*
X100457000Y-77851000D02*
X111379000Y-77851000D01*
X189000000Y-142488000D02*
X189000000Y-142688000D01*
X188600000Y-142688000D02*
X189000000Y-142688000D01*
X188600000Y-56636000D02*
X189000000Y-56636000D01*
X189000000Y-56636000D02*
X189000000Y-142488000D01*
X187600000Y-142688000D02*
X188600000Y-142688000D01*
X187600000Y-56636000D02*
X188600000Y-56636000D01*
X187000000Y-142688000D02*
X187600000Y-142688000D01*
X187000000Y-56636000D02*
X187600000Y-56636000D01*
X185032000Y-56636000D02*
X187000000Y-56636000D01*
X185032000Y-142688000D02*
X187000000Y-142688000D01*
X100457000Y-77851000D02*
X100457000Y-142688000D01*
X100457000Y-142688000D02*
X185032000Y-142688000D01*
X185032000Y-56636000D02*
X111379000Y-56636000D01*
D11*
X171023291Y-58289440D02*
X171213768Y-58289440D01*
X171309006Y-58337060D01*
X171404244Y-58432298D01*
X171451863Y-58622774D01*
X171451863Y-58956107D01*
X171404244Y-59146583D01*
X171309006Y-59241821D01*
X171213768Y-59289440D01*
X171023291Y-59289440D01*
X170928053Y-59241821D01*
X170832815Y-59146583D01*
X170785196Y-58956107D01*
X170785196Y-58622774D01*
X170832815Y-58432298D01*
X170928053Y-58337060D01*
X171023291Y-58289440D01*
X176204020Y-59287550D02*
X176204020Y-58287550D01*
X173279390Y-58909368D02*
X174041295Y-58909368D01*
G04 #@! TD*
G04 #@! TO.C,J7*
G36*
G01*
X100791000Y-116548000D02*
X100791000Y-114898000D01*
G75*
G02*
X100842000Y-114847000I51000J0D01*
G01*
X102492000Y-114847000D01*
G75*
G02*
X102543000Y-114898000I0J-51000D01*
G01*
X102543000Y-116548000D01*
G75*
G02*
X102492000Y-116599000I-51000J0D01*
G01*
X100842000Y-116599000D01*
G75*
G02*
X100791000Y-116548000I0J51000D01*
G01*
G37*
D12*
X106667000Y-124123000D03*
X109767000Y-118923000D03*
X101667000Y-125023000D03*
D13*
X101667000Y-120523000D03*
X106667000Y-120523000D03*
D12*
X109767000Y-122123000D03*
G04 #@! TD*
G04 #@! TO.C,J9*
G36*
G01*
X101299000Y-88481000D02*
X101299000Y-86831000D01*
G75*
G02*
X101350000Y-86780000I51000J0D01*
G01*
X103000000Y-86780000D01*
G75*
G02*
X103051000Y-86831000I0J-51000D01*
G01*
X103051000Y-88481000D01*
G75*
G02*
X103000000Y-88532000I-51000J0D01*
G01*
X101350000Y-88532000D01*
G75*
G02*
X101299000Y-88481000I0J51000D01*
G01*
G37*
X107175000Y-96056000D03*
X110275000Y-90856000D03*
X102175000Y-96956000D03*
D13*
X102175000Y-92456000D03*
X107175000Y-92456000D03*
D12*
X110275000Y-94056000D03*
G04 #@! TD*
G04 #@! TO.C,U4*
G36*
G01*
X106768000Y-104406000D02*
X105068000Y-104406000D01*
G75*
G02*
X105017000Y-104355000I0J51000D01*
G01*
X105017000Y-102655000D01*
G75*
G02*
X105068000Y-102604000I51000J0D01*
G01*
X106768000Y-102604000D01*
G75*
G02*
X106819000Y-102655000I0J-51000D01*
G01*
X106819000Y-104355000D01*
G75*
G02*
X106768000Y-104406000I-51000J0D01*
G01*
G37*
D14*
X108458000Y-103505000D03*
X110998000Y-103505000D03*
X113538000Y-103505000D03*
X116078000Y-103505000D03*
X118618000Y-103505000D03*
X121158000Y-103505000D03*
X123698000Y-103505000D03*
D15*
X109558000Y-81915000D03*
X113058000Y-81915000D03*
X116558000Y-81915000D03*
X120058000Y-81865000D03*
G04 #@! TD*
G04 #@! TO.C,U3*
X120058000Y-110440000D03*
X116558000Y-110490000D03*
X113058000Y-110490000D03*
X109558000Y-110490000D03*
D14*
X123698000Y-132080000D03*
X121158000Y-132080000D03*
X118618000Y-132080000D03*
X116078000Y-132080000D03*
X113538000Y-132080000D03*
X110998000Y-132080000D03*
X108458000Y-132080000D03*
G36*
G01*
X106768000Y-132981000D02*
X105068000Y-132981000D01*
G75*
G02*
X105017000Y-132930000I0J51000D01*
G01*
X105017000Y-131230000D01*
G75*
G02*
X105068000Y-131179000I51000J0D01*
G01*
X106768000Y-131179000D01*
G75*
G02*
X106819000Y-131230000I0J-51000D01*
G01*
X106819000Y-132930000D01*
G75*
G02*
X106768000Y-132981000I-51000J0D01*
G01*
G37*
G04 #@! TD*
D16*
G04 #@! TO.C,J6*
X120523000Y-64643000D03*
X120523000Y-74803000D03*
D17*
X125603000Y-72263000D03*
X125603000Y-69723000D03*
G04 #@! TD*
D18*
G04 #@! TO.C,J5*
X129026920Y-87188040D03*
X129026920Y-74488040D03*
X148188680Y-67985640D03*
X135488680Y-67985640D03*
X160888680Y-67985640D03*
X167391080Y-74488040D03*
X167391080Y-87188040D03*
X135488680Y-93690440D03*
X148188680Y-93690440D03*
X160888680Y-93690440D03*
G04 #@! TD*
D19*
G04 #@! TO.C,R6*
X144050000Y-82525000D03*
D20*
X136430000Y-82525000D03*
G04 #@! TD*
G04 #@! TO.C,J8*
G36*
G01*
X160951000Y-59275000D02*
X160951000Y-62275000D01*
G75*
G02*
X160900000Y-62326000I-51000J0D01*
G01*
X157900000Y-62326000D01*
G75*
G02*
X157849000Y-62275000I0J51000D01*
G01*
X157849000Y-59275000D01*
G75*
G02*
X157900000Y-59224000I51000J0D01*
G01*
X160900000Y-59224000D01*
G75*
G02*
X160951000Y-59275000I0J-51000D01*
G01*
G37*
D21*
X154320000Y-60775000D03*
X149240000Y-60775000D03*
G04 #@! TD*
D19*
G04 #@! TO.C,R3*
X164510000Y-109940000D03*
D20*
X164510000Y-117560000D03*
G04 #@! TD*
D22*
G04 #@! TO.C,Q1*
X157086300Y-119814340D03*
X155816300Y-119814340D03*
G36*
G01*
X158932300Y-119064340D02*
X158932300Y-120564340D01*
G75*
G02*
X158881300Y-120615340I-51000J0D01*
G01*
X157831300Y-120615340D01*
G75*
G02*
X157780300Y-120564340I0J51000D01*
G01*
X157780300Y-119064340D01*
G75*
G02*
X157831300Y-119013340I51000J0D01*
G01*
X158881300Y-119013340D01*
G75*
G02*
X158932300Y-119064340I0J-51000D01*
G01*
G37*
G04 #@! TD*
D14*
G04 #@! TO.C,U1*
X176200000Y-88685000D03*
X176200000Y-86145000D03*
X176200000Y-83605000D03*
X176200000Y-81065000D03*
X176200000Y-78525000D03*
X176200000Y-75985000D03*
X176200000Y-73445000D03*
X176200000Y-70905000D03*
X176200000Y-68365000D03*
G36*
G01*
X175299000Y-66675000D02*
X175299000Y-64975000D01*
G75*
G02*
X175350000Y-64924000I51000J0D01*
G01*
X177050000Y-64924000D01*
G75*
G02*
X177101000Y-64975000I0J-51000D01*
G01*
X177101000Y-66675000D01*
G75*
G02*
X177050000Y-66726000I-51000J0D01*
G01*
X175350000Y-66726000D01*
G75*
G02*
X175299000Y-66675000I0J51000D01*
G01*
G37*
G04 #@! TD*
G04 #@! TO.C,J2*
G36*
G01*
X181141000Y-64188000D02*
X181141000Y-65888000D01*
G75*
G02*
X181090000Y-65939000I-51000J0D01*
G01*
X179390000Y-65939000D01*
G75*
G02*
X179339000Y-65888000I0J51000D01*
G01*
X179339000Y-64188000D01*
G75*
G02*
X179390000Y-64137000I51000J0D01*
G01*
X181090000Y-64137000D01*
G75*
G02*
X181141000Y-64188000I0J-51000D01*
G01*
G37*
X182780000Y-65038000D03*
X180240000Y-67578000D03*
X182780000Y-67578000D03*
X180240000Y-70118000D03*
X182780000Y-70118000D03*
X180240000Y-72658000D03*
X182780000Y-72658000D03*
X180240000Y-75198000D03*
X182780000Y-75198000D03*
X180240000Y-77738000D03*
X182780000Y-77738000D03*
X180240000Y-80278000D03*
X182780000Y-80278000D03*
X180240000Y-82818000D03*
X182780000Y-82818000D03*
X180240000Y-85358000D03*
X182780000Y-85358000D03*
X180240000Y-87898000D03*
X182780000Y-87898000D03*
X180240000Y-90438000D03*
X182780000Y-90438000D03*
X180240000Y-92978000D03*
X182780000Y-92978000D03*
X180240000Y-95518000D03*
X182780000Y-95518000D03*
X180240000Y-98058000D03*
X182780000Y-98058000D03*
X180240000Y-100598000D03*
X182780000Y-100598000D03*
X180240000Y-103138000D03*
X182780000Y-103138000D03*
X180240000Y-105678000D03*
X182780000Y-105678000D03*
X180240000Y-108218000D03*
X182780000Y-108218000D03*
X180240000Y-110758000D03*
X182780000Y-110758000D03*
X180240000Y-113298000D03*
X182780000Y-113298000D03*
G04 #@! TD*
G04 #@! TO.C,U2*
X160713420Y-115928140D03*
X158173420Y-115928140D03*
X155633420Y-115928140D03*
X153093420Y-115928140D03*
X150553420Y-115928140D03*
X148013420Y-115928140D03*
X145473420Y-115928140D03*
G36*
G01*
X143783420Y-116829140D02*
X142083420Y-116829140D01*
G75*
G02*
X142032420Y-116778140I0J51000D01*
G01*
X142032420Y-115078140D01*
G75*
G02*
X142083420Y-115027140I51000J0D01*
G01*
X143783420Y-115027140D01*
G75*
G02*
X143834420Y-115078140I0J-51000D01*
G01*
X143834420Y-116778140D01*
G75*
G02*
X143783420Y-116829140I-51000J0D01*
G01*
G37*
G36*
G01*
X143783420Y-104129140D02*
X142083420Y-104129140D01*
G75*
G02*
X142032420Y-104078140I0J51000D01*
G01*
X142032420Y-102378140D01*
G75*
G02*
X142083420Y-102327140I51000J0D01*
G01*
X143783420Y-102327140D01*
G75*
G02*
X143834420Y-102378140I0J-51000D01*
G01*
X143834420Y-104078140D01*
G75*
G02*
X143783420Y-104129140I-51000J0D01*
G01*
G37*
X150553420Y-103228140D03*
X160713420Y-103228140D03*
X158173420Y-103228140D03*
X155633420Y-103228140D03*
X153093420Y-103228140D03*
X145473420Y-103228140D03*
X148013420Y-103228140D03*
G04 #@! TD*
D21*
G04 #@! TO.C,J4*
X122682000Y-139065000D03*
X127762000Y-139065000D03*
G36*
G01*
X116051000Y-140565000D02*
X116051000Y-137565000D01*
G75*
G02*
X116102000Y-137514000I51000J0D01*
G01*
X119102000Y-137514000D01*
G75*
G02*
X119153000Y-137565000I0J-51000D01*
G01*
X119153000Y-140565000D01*
G75*
G02*
X119102000Y-140616000I-51000J0D01*
G01*
X116102000Y-140616000D01*
G75*
G02*
X116051000Y-140565000I0J51000D01*
G01*
G37*
X132842000Y-139065000D03*
G04 #@! TD*
D23*
G04 #@! TO.C,D1*
X139890000Y-121660000D03*
G36*
G01*
X153641000Y-120660000D02*
X153641000Y-122660000D01*
G75*
G02*
X153590000Y-122711000I-51000J0D01*
G01*
X151590000Y-122711000D01*
G75*
G02*
X151539000Y-122660000I0J51000D01*
G01*
X151539000Y-120660000D01*
G75*
G02*
X151590000Y-120609000I51000J0D01*
G01*
X153590000Y-120609000D01*
G75*
G02*
X153641000Y-120660000I0J-51000D01*
G01*
G37*
G04 #@! TD*
D20*
G04 #@! TO.C,R2*
X162687000Y-76581000D03*
D19*
X155067000Y-76581000D03*
G04 #@! TD*
G04 #@! TO.C,C2*
X154305000Y-82637000D03*
X154305000Y-80137000D03*
G04 #@! TD*
G04 #@! TO.C,J12*
G36*
G01*
X126453000Y-59829000D02*
X124753000Y-59829000D01*
G75*
G02*
X124702000Y-59778000I0J51000D01*
G01*
X124702000Y-58078000D01*
G75*
G02*
X124753000Y-58027000I51000J0D01*
G01*
X126453000Y-58027000D01*
G75*
G02*
X126504000Y-58078000I0J-51000D01*
G01*
X126504000Y-59778000D01*
G75*
G02*
X126453000Y-59829000I-51000J0D01*
G01*
G37*
G04 #@! TD*
G04 #@! TO.C,R1*
X162687000Y-73025000D03*
D20*
X155067000Y-73025000D03*
G04 #@! TD*
G04 #@! TO.C,U6*
X131472000Y-78452000D03*
X139092000Y-70832000D03*
X131472000Y-75912000D03*
X139092000Y-73372000D03*
X131472000Y-73372000D03*
X139092000Y-75912000D03*
X131472000Y-70832000D03*
G36*
G01*
X139943000Y-77652000D02*
X139943000Y-79252000D01*
G75*
G02*
X139892000Y-79303000I-51000J0D01*
G01*
X138292000Y-79303000D01*
G75*
G02*
X138241000Y-79252000I0J51000D01*
G01*
X138241000Y-77652000D01*
G75*
G02*
X138292000Y-77601000I51000J0D01*
G01*
X139892000Y-77601000D01*
G75*
G02*
X139943000Y-77652000I0J-51000D01*
G01*
G37*
G04 #@! TD*
D19*
G04 #@! TO.C,C5*
X164520000Y-122290000D03*
X164520000Y-119790000D03*
G04 #@! TD*
G04 #@! TO.C,J14*
G36*
G01*
X187337000Y-131230000D02*
X187337000Y-132930000D01*
G75*
G02*
X187286000Y-132981000I-51000J0D01*
G01*
X185586000Y-132981000D01*
G75*
G02*
X185535000Y-132930000I0J51000D01*
G01*
X185535000Y-131230000D01*
G75*
G02*
X185586000Y-131179000I51000J0D01*
G01*
X187286000Y-131179000D01*
G75*
G02*
X187337000Y-131230000I0J-51000D01*
G01*
G37*
D14*
X186436000Y-134620000D03*
G04 #@! TD*
D19*
G04 #@! TO.C,C6*
X149121000Y-85800000D03*
X146621000Y-85800000D03*
G04 #@! TD*
G04 #@! TO.C,C7*
X149100000Y-89100000D03*
X146600000Y-89100000D03*
G04 #@! TD*
D20*
G04 #@! TO.C,R4*
X136421000Y-89073000D03*
D19*
X144041000Y-89073000D03*
G04 #@! TD*
G04 #@! TO.C,U7*
G36*
G01*
X150203000Y-70650000D02*
X151803000Y-70650000D01*
G75*
G02*
X151854000Y-70701000I0J-51000D01*
G01*
X151854000Y-72301000D01*
G75*
G02*
X151803000Y-72352000I-51000J0D01*
G01*
X150203000Y-72352000D01*
G75*
G02*
X150152000Y-72301000I0J51000D01*
G01*
X150152000Y-70701000D01*
G75*
G02*
X150203000Y-70650000I51000J0D01*
G01*
G37*
D20*
X143383000Y-79121000D03*
X148463000Y-71501000D03*
X145923000Y-79121000D03*
X145923000Y-71501000D03*
X148463000Y-79121000D03*
X143383000Y-71501000D03*
X151003000Y-79121000D03*
G04 #@! TD*
G04 #@! TO.C,A1*
G36*
G01*
X180125000Y-124399000D02*
X181725000Y-124399000D01*
G75*
G02*
X181776000Y-124450000I0J-51000D01*
G01*
X181776000Y-126050000D01*
G75*
G02*
X181725000Y-126101000I-51000J0D01*
G01*
X180125000Y-126101000D01*
G75*
G02*
X180074000Y-126050000I0J51000D01*
G01*
X180074000Y-124450000D01*
G75*
G02*
X180125000Y-124399000I51000J0D01*
G01*
G37*
X147905000Y-140490000D03*
X178385000Y-125250000D03*
X150445000Y-140490000D03*
X175845000Y-125250000D03*
X152985000Y-140490000D03*
X173305000Y-125250000D03*
X155525000Y-140490000D03*
X170765000Y-125250000D03*
X158065000Y-140490000D03*
X168225000Y-125250000D03*
X160605000Y-140490000D03*
X165685000Y-125250000D03*
X163145000Y-140490000D03*
X163145000Y-125250000D03*
X165685000Y-140490000D03*
X160605000Y-125250000D03*
X168225000Y-140490000D03*
X158065000Y-125250000D03*
X170765000Y-140490000D03*
X155525000Y-125250000D03*
X173305000Y-140490000D03*
X152985000Y-125250000D03*
X175845000Y-140490000D03*
X150445000Y-125250000D03*
X178385000Y-140490000D03*
X147905000Y-125250000D03*
X180925000Y-140490000D03*
X145365000Y-125250000D03*
X145365000Y-140490000D03*
G04 #@! TD*
D19*
G04 #@! TO.C,C1*
X166375000Y-62475000D03*
X163875000Y-62475000D03*
G04 #@! TD*
G04 #@! TO.C,C3*
X163925000Y-59100000D03*
X166425000Y-59100000D03*
G04 #@! TD*
G04 #@! TO.C,C4*
X164503100Y-107119420D03*
X164503100Y-104619420D03*
G04 #@! TD*
D24*
G04 #@! TO.C,RV1*
X170600000Y-98000000D03*
X175600000Y-100500000D03*
X170600000Y-103000000D03*
G04 #@! TD*
D25*
G04 #@! TO.C,U8*
X170485000Y-60110000D03*
X173025000Y-60110000D03*
X175565000Y-60110000D03*
G04 #@! TD*
D19*
G04 #@! TO.C,C8*
X146625000Y-82525000D03*
X149125000Y-82525000D03*
G04 #@! TD*
G04 #@! TO.C,R5*
X136421000Y-85800000D03*
D20*
X144041000Y-85800000D03*
G04 #@! TD*
D19*
G04 #@! TO.C,R7*
X155067000Y-85979000D03*
D20*
X162687000Y-85979000D03*
G04 #@! TD*
D26*
G04 #@! TO.C,U5*
X160909000Y-81153000D03*
X160909000Y-82423000D03*
G36*
G01*
X160159000Y-79307000D02*
X161659000Y-79307000D01*
G75*
G02*
X161710000Y-79358000I0J-51000D01*
G01*
X161710000Y-80408000D01*
G75*
G02*
X161659000Y-80459000I-51000J0D01*
G01*
X160159000Y-80459000D01*
G75*
G02*
X160108000Y-80408000I0J51000D01*
G01*
X160108000Y-79358000D01*
G75*
G02*
X160159000Y-79307000I51000J0D01*
G01*
G37*
G04 #@! TD*
G04 #@! TO.C,J1*
G36*
G01*
X187426000Y-58075000D02*
X187426000Y-59775000D01*
G75*
G02*
X187375000Y-59826000I-51000J0D01*
G01*
X185675000Y-59826000D01*
G75*
G02*
X185624000Y-59775000I0J51000D01*
G01*
X185624000Y-58075000D01*
G75*
G02*
X185675000Y-58024000I51000J0D01*
G01*
X187375000Y-58024000D01*
G75*
G02*
X187426000Y-58075000I0J-51000D01*
G01*
G37*
D14*
X186525000Y-61465000D03*
X186525000Y-64005000D03*
X186525000Y-66545000D03*
X186525000Y-69085000D03*
X186525000Y-71625000D03*
X186525000Y-74165000D03*
X186525000Y-76705000D03*
X186525000Y-79245000D03*
X186525000Y-81785000D03*
X186525000Y-84325000D03*
X186525000Y-86865000D03*
X186525000Y-89405000D03*
X186525000Y-91945000D03*
X186525000Y-94485000D03*
X186525000Y-97025000D03*
G04 #@! TD*
G04 #@! TO.C,J3*
G36*
G01*
X187331920Y-103566860D02*
X187331920Y-105266860D01*
G75*
G02*
X187280920Y-105317860I-51000J0D01*
G01*
X185580920Y-105317860D01*
G75*
G02*
X185529920Y-105266860I0J51000D01*
G01*
X185529920Y-103566860D01*
G75*
G02*
X185580920Y-103515860I51000J0D01*
G01*
X187280920Y-103515860D01*
G75*
G02*
X187331920Y-103566860I0J-51000D01*
G01*
G37*
X186430920Y-106956860D03*
X186430920Y-109496860D03*
X186430920Y-112036860D03*
X186430920Y-114576860D03*
X186430920Y-117116860D03*
X186430920Y-119656860D03*
X186430920Y-122196860D03*
G04 #@! TD*
D21*
G04 #@! TO.C,H1*
X132500000Y-60140000D03*
G04 #@! TD*
G04 #@! TO.C,H2*
X181520000Y-60140000D03*
G04 #@! TD*
G04 #@! TO.C,H3*
X181500000Y-118200000D03*
G04 #@! TD*
G04 #@! TO.C,H4*
X132500000Y-118200000D03*
G04 #@! TD*
G04 #@! TO.C,H5*
X103900000Y-81275000D03*
G04 #@! TD*
G04 #@! TO.C,H6*
X104625000Y-139050000D03*
G04 #@! TD*
G04 #@! TO.C,J10*
G36*
G01*
X145251000Y-59250000D02*
X145251000Y-62250000D01*
G75*
G02*
X145200000Y-62301000I-51000J0D01*
G01*
X142200000Y-62301000D01*
G75*
G02*
X142149000Y-62250000I0J51000D01*
G01*
X142149000Y-59250000D01*
G75*
G02*
X142200000Y-59199000I51000J0D01*
G01*
X145200000Y-59199000D01*
G75*
G02*
X145251000Y-59250000I0J-51000D01*
G01*
G37*
X138620000Y-60750000D03*
G04 #@! TD*
D27*
G36*
X157781384Y-119181319D02*
G01*
X157782300Y-119183000D01*
X157782300Y-120445680D01*
X157781300Y-120447412D01*
X157779300Y-120447412D01*
X157778310Y-120445876D01*
X157775928Y-120421689D01*
X157768928Y-120398614D01*
X157757563Y-120377350D01*
X157742268Y-120358713D01*
X157723631Y-120343418D01*
X157702367Y-120332053D01*
X157679292Y-120325053D01*
X157655301Y-120322690D01*
X157631310Y-120325053D01*
X157608235Y-120332053D01*
X157587015Y-120343395D01*
X157563057Y-120365109D01*
X157561102Y-120365531D01*
X157559759Y-120364049D01*
X157560168Y-120362358D01*
X157563555Y-120358232D01*
X157616598Y-120258997D01*
X157649262Y-120151317D01*
X157660300Y-120039246D01*
X157660300Y-119589435D01*
X157649262Y-119477363D01*
X157616598Y-119369683D01*
X157563555Y-119270448D01*
X157561470Y-119267908D01*
X157561144Y-119265934D01*
X157562690Y-119264666D01*
X157564430Y-119265225D01*
X157577276Y-119278071D01*
X157597324Y-119291466D01*
X157619597Y-119300693D01*
X157643248Y-119305397D01*
X157667354Y-119305397D01*
X157691004Y-119300693D01*
X157713278Y-119291466D01*
X157733325Y-119278072D01*
X157750372Y-119261025D01*
X157763767Y-119240977D01*
X157772994Y-119218704D01*
X157777707Y-119195007D01*
X157778302Y-119182902D01*
X157779386Y-119181221D01*
X157781384Y-119181319D01*
G37*
G36*
X156346136Y-119360353D02*
G01*
X156356229Y-119375458D01*
X156373276Y-119392505D01*
X156393324Y-119405900D01*
X156415598Y-119415126D01*
X156439248Y-119419830D01*
X156463354Y-119419830D01*
X156487004Y-119415125D01*
X156509278Y-119405899D01*
X156529325Y-119392504D01*
X156546372Y-119375457D01*
X156556464Y-119360353D01*
X156558258Y-119359468D01*
X156559921Y-119360579D01*
X156559891Y-119362407D01*
X156556002Y-119369683D01*
X156523338Y-119477363D01*
X156512300Y-119589434D01*
X156512300Y-120039246D01*
X156523338Y-120151316D01*
X156556002Y-120258996D01*
X156559891Y-120266272D01*
X156559825Y-120268271D01*
X156558062Y-120269214D01*
X156556464Y-120268326D01*
X156546371Y-120253221D01*
X156529324Y-120236174D01*
X156509276Y-120222779D01*
X156487002Y-120213553D01*
X156463352Y-120208849D01*
X156439246Y-120208849D01*
X156415596Y-120213554D01*
X156393322Y-120222780D01*
X156373275Y-120236175D01*
X156356228Y-120253222D01*
X156346139Y-120268322D01*
X156344345Y-120269207D01*
X156342682Y-120268096D01*
X156342712Y-120266268D01*
X156346598Y-120258997D01*
X156379262Y-120151317D01*
X156390300Y-120039246D01*
X156390300Y-119589435D01*
X156379262Y-119477363D01*
X156346598Y-119369683D01*
X156342709Y-119362407D01*
X156342775Y-119360408D01*
X156344538Y-119359465D01*
X156346136Y-119360353D01*
G37*
G36*
X160457067Y-81679409D02*
G01*
X160464343Y-81683298D01*
X160572023Y-81715962D01*
X160684094Y-81727000D01*
X161133906Y-81727000D01*
X161245977Y-81715962D01*
X161353657Y-81683298D01*
X161360933Y-81679409D01*
X161362932Y-81679475D01*
X161363875Y-81681238D01*
X161362987Y-81682836D01*
X161347882Y-81692929D01*
X161330835Y-81709976D01*
X161317440Y-81730024D01*
X161308214Y-81752298D01*
X161303510Y-81775948D01*
X161303510Y-81800054D01*
X161308215Y-81823704D01*
X161317441Y-81845978D01*
X161330836Y-81866025D01*
X161347883Y-81883072D01*
X161362987Y-81893164D01*
X161363872Y-81894958D01*
X161362761Y-81896621D01*
X161360933Y-81896591D01*
X161353657Y-81892702D01*
X161245977Y-81860038D01*
X161133906Y-81849000D01*
X160684094Y-81849000D01*
X160572023Y-81860038D01*
X160464343Y-81892702D01*
X160457067Y-81896591D01*
X160455068Y-81896525D01*
X160454125Y-81894762D01*
X160455013Y-81893164D01*
X160470118Y-81883071D01*
X160487165Y-81866024D01*
X160500560Y-81845976D01*
X160509786Y-81823702D01*
X160514490Y-81800052D01*
X160514490Y-81775946D01*
X160509785Y-81752296D01*
X160500559Y-81730022D01*
X160487164Y-81709975D01*
X160470117Y-81692928D01*
X160455013Y-81682836D01*
X160454128Y-81681042D01*
X160455239Y-81679379D01*
X160457067Y-81679409D01*
G37*
G36*
X161542072Y-80458000D02*
G01*
X161542072Y-80460000D01*
X161540536Y-80460990D01*
X161516349Y-80463372D01*
X161493274Y-80470372D01*
X161472010Y-80481737D01*
X161453373Y-80497032D01*
X161438078Y-80515669D01*
X161426713Y-80536933D01*
X161419713Y-80560008D01*
X161417350Y-80583999D01*
X161419713Y-80607990D01*
X161426713Y-80631065D01*
X161438078Y-80652329D01*
X161453405Y-80671005D01*
X161454877Y-80672339D01*
X161455489Y-80674243D01*
X161454146Y-80675725D01*
X161452591Y-80675585D01*
X161353657Y-80622702D01*
X161245977Y-80590038D01*
X161133906Y-80579000D01*
X160684094Y-80579000D01*
X160572023Y-80590038D01*
X160464343Y-80622702D01*
X160365108Y-80675745D01*
X160362568Y-80677830D01*
X160360594Y-80678156D01*
X160359326Y-80676610D01*
X160359885Y-80674870D01*
X160372731Y-80662024D01*
X160386126Y-80641976D01*
X160395353Y-80619703D01*
X160400057Y-80596052D01*
X160400057Y-80571946D01*
X160395353Y-80548296D01*
X160386126Y-80526022D01*
X160372732Y-80505975D01*
X160355685Y-80488928D01*
X160335637Y-80475533D01*
X160313364Y-80466306D01*
X160289667Y-80461593D01*
X160277562Y-80460998D01*
X160275881Y-80459914D01*
X160275979Y-80457916D01*
X160277660Y-80457000D01*
X161540340Y-80457000D01*
X161542072Y-80458000D01*
G37*
M02*
